<?xml version="1.0" encoding="UTF-8"?>
<svg version="1.1" xmlns="http://www.w3.org/2000/svg" width="512" height="512">
<path d="M0 0 C1.20283398 -0.00384115 2.40566797 -0.00768229 3.64495146 -0.01163983 C5.61418706 -0.01034011 5.61418706 -0.01034011 7.62320518 -0.00901413 C9.03876335 -0.01159949 10.45432079 -0.01461313 11.86987722 -0.01801753 C15.75529883 -0.02607073 19.64070195 -0.02787617 23.52613091 -0.028615 C27.7185282 -0.03046849 31.91091596 -0.03801733 36.10330772 -0.04475021 C45.26875379 -0.05832227 54.43419547 -0.06435654 63.59964991 -0.06876087 C69.32492382 -0.07152528 75.05019605 -0.07576301 80.77546883 -0.08026505 C96.63364175 -0.0924564 112.49181333 -0.10275587 128.34999084 -0.10614014 C129.87193404 -0.10646949 129.87193404 -0.10646949 131.42462357 -0.10680549 C132.95016557 -0.10713291 132.95016557 -0.10713291 134.50652659 -0.10746694 C136.56734125 -0.1079104 138.62815591 -0.10835696 140.68897057 -0.10880661 C142.22231669 -0.10913875 142.22231669 -0.10913875 143.7866395 -0.10947761 C160.34541239 -0.11342449 176.90414125 -0.13087575 193.46289714 -0.15416613 C210.47209344 -0.17789653 227.48126766 -0.19034276 244.49048078 -0.19150805 C254.03704183 -0.19242388 263.5835455 -0.19815291 273.13009071 -0.21632767 C281.26019094 -0.23175146 289.39021604 -0.23683569 297.52032812 -0.22858956 C301.6656085 -0.22469109 305.81073773 -0.22557328 309.95599937 -0.23964691 C313.75724462 -0.2524341 317.55822587 -0.25114641 321.35947101 -0.2390562 C323.37242552 -0.23619045 325.38538481 -0.24799835 327.39830267 -0.26047826 C342.61496964 -0.17818275 354.74893429 3.69507143 366.04395103 14.10017776 C375.18954407 23.98730537 380.03936382 37.11688801 380.05428505 50.50719166 C380.05812619 51.80208627 380.06196734 53.09698089 380.06592488 54.43111473 C380.06514468 55.8662584 380.0642659 57.30140201 380.06329918 58.73654556 C380.06588347 60.26261022 380.06889681 61.78867421 380.07230258 63.31473726 C380.08036847 67.51026043 380.08216193 71.70576649 380.08290005 75.9012965 C380.08475135 80.42568411 380.09229914 84.95006286 380.09903526 89.47444534 C380.11261681 99.3692663 380.1186432 109.26408321 380.12304592 119.15891194 C380.12580899 125.33863425 380.13004649 131.518355 380.13455009 137.69807625 C380.14674318 154.81122267 380.15704199 171.92436783 380.16042519 189.0375185 C380.16064475 190.13280793 380.16086432 191.22809735 380.16109054 192.35657736 C380.16130882 193.45447705 380.16152709 194.55237675 380.16175199 195.68354613 C380.16219545 197.90827946 380.16264201 200.13301279 380.16309166 202.35774612 C380.16331309 203.46128897 380.16353452 204.56483182 380.16376266 205.70181536 C380.16770928 223.57658847 380.18515898 241.45132077 380.20845118 259.32607812 C380.23217734 277.68221742 380.24462764 296.03833626 380.2457931 314.39449114 C380.24670922 324.69895203 380.25244551 335.00335978 380.27061272 345.30780602 C380.28603085 354.08388013 380.2911241 362.85988468 380.28287461 371.63596977 C380.27897401 376.11135745 380.27986881 380.58660512 380.29393196 385.06197548 C380.30670639 389.16487315 380.30544245 393.2675261 380.29334125 397.37042361 C380.29139035 398.8489459 380.29443442 400.32748575 380.30318561 401.80598343 C380.39844808 418.99904431 376.64704727 434.16507513 364.46973228 446.87361526 C351.99413191 457.93327327 338.82961129 459.67030149 322.92285728 459.13142776 C322.95766197 459.9654512 322.99246666 460.79947464 323.02832603 461.65877151 C323.28591524 472.36712281 322.10132765 479.22491205 315.03223228 487.40486526 C310.05519588 491.47866173 305.13634809 492.50710716 298.82935143 492.51961136 C298.15842964 492.52486832 297.48750786 492.53012527 296.79625511 492.53554153 C294.59993081 492.54863976 292.40434396 492.54003944 290.20801353 492.52986526 C288.66776454 492.53188918 287.12751648 492.53480326 285.58727074 492.53856277 C282.36708978 492.54297254 279.14715938 492.53659972 275.92700768 492.52254105 C271.81707612 492.50546419 267.70773306 492.51528906 263.59782314 492.53325844 C260.41918641 492.54414527 257.24068712 492.54062736 254.06204605 492.53287506 C252.54751515 492.53088581 251.03297142 492.5332871 249.51845551 492.54031372 C232.35980448 492.60245548 232.35980448 492.60245548 225.71582603 487.40486526 C217.88301679 478.14271126 217.92285728 471.90980498 217.92285728 459.13142776 C183.27285728 459.13142776 148.62285728 459.13142776 112.92285728 459.13142776 C112.92285728 464.74142776 112.92285728 470.35142776 112.92285728 476.13142776 C110.83854319 482.38437006 107.57531178 486.62377814 101.92285728 490.13142776 C97.4574957 491.8925987 93.7139648 492.38784489 88.92700768 492.40608597 C88.25462563 492.4111969 87.58224358 492.41630783 86.88948631 492.42157364 C84.68306965 492.4353901 82.47696812 492.43451902 80.27051353 492.43220901 C78.7264399 492.43610017 77.18236733 492.4404357 75.63829613 492.44519424 C72.40800056 492.45263925 69.17781431 492.45237759 65.94751549 492.44710159 C61.82067061 492.4413076 57.69427463 492.45824431 53.56750393 492.48144627 C50.38034539 492.49622165 47.19329405 492.49705018 44.00610733 492.49393654 C42.48515941 492.49444779 40.96420518 492.49964846 39.44329071 492.50974846 C37.31126923 492.52217085 35.18011047 492.51528777 33.04810143 492.50374222 C31.23324997 492.50468636 31.23324997 492.50468636 29.38173485 492.50564957 C22.9688701 491.81183091 17.20356588 489.00428049 12.92285728 484.13142776 C7.5583503 476.64104804 8.53615285 467.88598659 8.92285728 459.13142776 C7.9186776 459.17783401 6.91449791 459.22424026 5.87988853 459.27205276 C-9.18664894 459.75926528 -21.86422475 456.44864538 -33.32714272 446.10017776 C-46.01646755 432.83406544 -48.5448567 416.35509966 -48.46482277 398.66711807 C-48.46900473 397.14524613 -48.47448695 395.6233773 -48.48114258 394.10151416 C-48.49550299 389.95453158 -48.49138217 385.80774933 -48.48397577 381.66075623 C-48.47922289 377.17459227 -48.49177264 372.68847034 -48.50199318 368.2023201 C-48.5191455 359.4269106 -48.52002856 350.65157283 -48.51478028 341.87615093 C-48.51073047 334.73938639 -48.51219175 327.60264297 -48.51752853 320.46587944 C-48.51827696 319.44815208 -48.51902538 318.43042472 -48.51979648 317.38185713 C-48.52132804 315.31399577 -48.52286639 313.24613441 -48.52441145 311.17827306 C-48.53812374 291.80775388 -48.53270787 272.43727513 -48.52122623 253.06675688 C-48.51129653 235.36976946 -48.52423226 217.67288663 -48.54816043 199.97591534 C-48.57257977 181.77769595 -48.58215225 163.57952522 -48.5755077 145.38128978 C-48.57202161 135.17518084 -48.57420711 124.9691523 -48.59175873 114.7630558 C-48.60651624 106.07436576 -48.60706995 97.38581273 -48.58968782 88.69712528 C-48.58120437 84.26975941 -48.57896283 79.84263792 -48.59433937 75.41528511 C-48.60827635 71.35189557 -48.60330914 67.28895768 -48.58410013 63.22559366 C-48.58036718 61.76608534 -48.58318277 60.30654005 -48.59371179 58.84706493 C-48.68849791 44.68642258 -46.73807179 30.74209356 -38.07714272 19.13142776 C-37.3075724 18.07375198 -37.3075724 18.07375198 -36.52245522 16.99470901 C-27.54886804 5.72405526 -14.20681069 0.01708998 0 0 Z M-23.07714272 31.13142776 C-27.42334698 37.51592634 -29.19904569 42.67566861 -29.21136379 50.38973045 C-29.21582164 51.68386742 -29.22027948 52.97800438 -29.22487241 54.31135762 C-29.22478311 55.75082152 -29.22459327 57.19028542 -29.22431374 58.6297493 C-29.22761317 60.15637648 -29.2313389 61.68300279 -29.23545521 63.20962799 C-29.24547429 67.41126966 -29.24919186 71.61289704 -29.25184453 75.81454897 C-29.25574784 80.3436891 -29.26532615 84.87281792 -29.27405739 89.40195084 C-29.29382085 100.34295314 -29.30388778 111.28395637 -29.31278518 122.22497207 C-29.3171682 127.37700734 -29.32253497 132.52904159 -29.32777405 137.68107605 C-29.34478608 154.80705235 -29.3592804 171.93302801 -29.36652279 189.05901146 C-29.36843269 193.50339763 -29.37035302 197.9477838 -29.37230873 202.39216995 C-29.37279247 203.49680292 -29.37327621 204.60143589 -29.37377461 205.73954259 C-29.38207548 223.63514313 -29.40741349 241.53067685 -29.43988941 259.42624821 C-29.47295804 277.79816608 -29.49097137 296.17004999 -29.49416703 314.54199779 C-29.49633229 324.85760764 -29.5050833 335.17312002 -29.5306282 345.48870087 C-29.55233248 354.27365281 -29.56038694 363.05848361 -29.55066142 371.84345932 C-29.54611597 376.32471035 -29.54801722 380.80571142 -29.56742287 385.28692818 C-29.5850498 389.3929061 -29.58406076 393.49845163 -29.56852558 397.60443412 C-29.56614878 399.08631835 -29.57047681 400.56823248 -29.58235423 402.05007102 C-29.66989422 413.6972307 -28.15219085 422.70993255 -20.01464272 431.37361526 C-14.35812629 436.50553541 -9.01091368 439.25130864 -1.33232212 439.26844215 C-0.12726109 439.2735167 1.07779993 439.27859124 2.31937796 439.28381956 C3.66352781 439.28442125 5.0076777 439.28492032 6.35182762 439.28532791 C7.77447201 439.28934234 9.19711525 439.29378053 10.61975712 439.29860747 C14.53861665 439.31058121 18.45746387 439.31622328 22.37633812 439.32078862 C26.59942822 439.32674176 30.82250357 439.3383524 35.04558372 439.34907913 C45.24987829 439.37361091 55.45417773 439.38823202 65.65849271 439.4011392 C68.54049844 439.40485076 71.42250368 439.40882402 74.30450892 439.41289186 C92.19950904 439.4381295 110.0945099 439.46018371 127.98952389 439.47262001 C132.13535185 439.47554974 136.28117978 439.47851139 140.42700768 439.48152542 C141.45744078 439.48227147 142.48787388 439.48301752 143.54953223 439.48378618 C160.23920929 439.4964378 176.92877977 439.52965768 193.61840702 439.57132725 C210.75179902 439.6137542 227.88513646 439.63731598 245.01858085 439.64254057 C254.63894771 439.64595397 264.25914805 439.65770068 273.8794632 439.69064331 C282.07340458 439.7186555 290.26714532 439.72963805 298.46113086 439.71844785 C302.6406759 439.71326405 306.81980084 439.7161295 310.99928474 439.74091339 C314.82968302 439.76343721 318.65936019 439.76264237 322.48977136 439.74370952 C324.52326001 439.73959487 326.55675324 439.76003211 328.59013277 439.78149641 C338.4450074 439.69633017 345.4460678 437.47139994 352.79785728 430.81892776 C358.35568038 424.82853825 361.04419415 418.0811321 361.05707836 409.96214485 C361.06376513 408.01255074 361.06376513 408.01255074 361.07058698 406.0235709 C361.07049768 404.57261522 361.07030782 403.12165954 361.07002831 401.67070389 C361.07332679 400.13597747 361.07705233 398.60125192 361.08116978 397.06652749 C361.09119973 392.83789271 361.09490818 388.60927214 361.09755909 384.38062716 C361.10145923 379.82422182 361.1110378 375.26782775 361.11977196 370.7114296 C361.13954509 359.70179038 361.14960387 348.69215022 361.15849975 337.68249768 C361.16288145 332.49944924 361.16824858 327.31640182 361.17348862 322.13335419 C361.1905021 304.90619176 361.20499647 287.67902997 361.21223736 270.45186043 C361.21414729 265.98014068 361.21606762 261.50842093 361.2180233 257.0367012 C361.21850704 255.92525919 361.21899078 254.81381718 361.21948918 253.66869511 C361.22779019 235.66242467 361.25312778 217.65622065 361.28560398 199.64997922 C361.31866589 181.16848663 361.33668535 162.68702781 361.3398816 144.20550549 C361.34204755 133.82675568 361.35080861 123.44810272 361.37634277 113.06938171 C361.39803794 104.23057837 361.40610603 95.39189539 361.39637599 86.55306844 C361.3918278 82.04359516 361.39374763 77.53437026 361.41313744 73.02493095 C361.43074498 68.89429389 361.42979109 64.76408687 361.41424014 60.6334454 C361.4118604 59.14145496 361.41620672 57.64943494 361.42806879 56.15748976 C361.51490605 44.5114746 359.86236251 36.5501205 351.85645103 27.92439651 C345.79309198 22.30200903 340.30117309 20.01135854 332.08343029 19.99720669 C330.88272831 19.99274884 329.68202633 19.988291 328.44493943 19.98369807 C327.11090329 19.98378736 325.77686715 19.98397721 324.44283104 19.98425674 C323.0268607 19.98095702 321.6108913 19.97723123 320.1949231 19.97311527 C316.2991932 19.96309956 312.40347871 19.95937917 308.50773776 19.95672596 C304.3078627 19.95282167 300.10799983 19.94324346 295.90813255 19.93451309 C285.76358341 19.91475298 275.61903327 19.90468339 265.47446969 19.8957853 C260.69737402 19.89140196 255.92027946 19.8860353 251.14318466 19.88079643 C235.26364211 19.86378518 219.38410025 19.84929066 203.50454998 19.84204769 C199.38397597 19.8401378 195.26340197 19.83821746 191.14282799 19.83626175 C190.11867931 19.83577801 189.09453062 19.83529427 188.03934713 19.83479587 C171.4460736 19.82649424 154.85287213 19.80115461 138.25963006 19.76868107 C121.22452158 19.73561448 104.18944972 19.71759932 87.15430897 19.71440345 C77.58934859 19.71223807 68.02449332 19.70348514 58.45956421 19.67794228 C50.31431071 19.65624083 42.16918784 19.64818216 34.02390871 19.65790906 C29.86884206 19.66245527 25.71404499 19.66054895 21.55901527 19.64114761 C17.75223014 19.62352602 13.94591145 19.6245052 10.13912144 19.64004491 C8.11589064 19.64354546 6.09265501 19.62738725 4.06949216 19.61044043 C-7.20307149 19.6901351 -15.45135567 22.62510322 -23.07714272 31.13142776 Z M26.92285728 459.13142776 C26.10296569 468.86432258 26.10296569 468.86432258 27.92285728 472.13142776 C36.51091449 472.15455412 45.09895877 472.17234434 53.68703938 472.18323994 C57.67442928 472.18846813 61.66179796 472.19556461 65.64917564 472.20686722 C69.49410843 472.21769838 73.33902073 472.22370508 77.18396759 472.22630501 C78.65404712 472.22815884 80.12412547 472.23177867 81.59419632 472.23715782 C83.64640196 472.24437132 85.69852196 472.24541858 87.75073814 472.24495316 C88.92100044 472.24717377 90.09126274 472.24939438 91.29698753 472.25168228 C93.8485267 472.43043089 93.8485267 472.43043089 94.92285728 471.13142776 C94.92285728 467.17142776 94.92285728 463.21142776 94.92285728 459.13142776 C72.48285728 459.13142776 50.04285728 459.13142776 26.92285728 459.13142776 Z M236.92285728 459.13142776 C236.92285728 463.09142776 236.92285728 467.05142776 236.92285728 471.13142776 C238.73701611 472.94558659 241.5473143 472.2591335 243.98731041 472.2608223 C245.28535606 472.26397446 246.58340172 472.26712662 247.92078209 472.2703743 C249.3485575 472.26858452 250.7763326 472.26653357 252.20410728 472.26424026 C253.65759866 472.26491334 255.11108993 472.2658834 256.56458092 472.26713943 C259.61451855 472.26861622 262.66442695 472.26646247 265.71436119 472.26179886 C269.63216288 472.25610157 273.54989607 472.25938068 277.46769524 472.26537132 C280.47016482 472.26897745 283.47261805 472.26783811 286.47508812 472.26524353 C287.92004466 472.2645744 289.36500267 472.26540219 290.8099575 472.26772308 C292.82610612 472.27025041 294.84225991 472.26571828 296.85840416 472.2608223 C298.00788536 472.2600267 299.15736656 472.25923111 300.34168053 472.25841141 C302.85371234 472.42440865 302.85371234 472.42440865 303.92285728 471.13142776 C303.92285728 467.17142776 303.92285728 463.21142776 303.92285728 459.13142776 C281.81285728 459.13142776 259.70285728 459.13142776 236.92285728 459.13142776 Z " fill="#069494" transform="translate(90.0771427154541,9.868572235107422)"/>
<path d="M0 0 C1.63853846 -0.00853686 1.63853846 -0.00853686 3.3101787 -0.01724619 C4.5150125 -0.01842606 5.7198463 -0.01960594 6.96119022 -0.02082157 C8.23752215 -0.02590939 9.51385408 -0.03099721 10.82886273 -0.03623921 C14.37900811 -0.05015445 17.92914324 -0.05773152 21.47930896 -0.0642122 C24.52273284 -0.07058129 27.56613984 -0.08065176 30.60955321 -0.09077286 C40.63871471 -0.12410846 50.66788647 -0.1456226 60.69708523 -0.16397271 C63.30924633 -0.16876793 65.92140701 -0.17375124 68.53356767 -0.17877793 C84.75794297 -0.20975395 100.98232185 -0.2364372 117.20671844 -0.25319672 C120.96545703 -0.25714618 124.72419555 -0.26114917 128.482934 -0.2652216 C129.88424721 -0.26673414 129.88424721 -0.26673414 131.31386978 -0.26827724 C146.43732549 -0.28527314 161.56061725 -0.32636923 176.68399297 -0.37724458 C192.21503583 -0.42906085 207.74599448 -0.45814444 223.27712303 -0.4653936 C231.99551242 -0.47005128 240.71363352 -0.48475411 249.43193722 -0.5251379 C256.85949187 -0.55950107 264.28672983 -0.57335199 271.7143594 -0.56071376 C275.50134707 -0.55490111 279.28766555 -0.55865068 283.07455158 -0.5888834 C287.18915672 -0.62146283 291.3023088 -0.60704577 295.41700077 -0.58844852 C296.60175808 -0.60524345 297.78651539 -0.62203838 299.00717443 -0.63934225 C308.15706487 -0.53632466 316.35154102 1.81704949 323.03457063 8.36938483 C329.1995126 15.54939524 331.2227673 23.64761081 331.14147282 32.94412899 C331.14615279 33.78259696 331.15083276 34.62106492 331.15565455 35.48494101 C331.16753413 38.26915038 331.1581751 41.05286109 331.14870548 43.83707333 C331.15277431 45.84347983 331.15811794 47.8498841 331.16463566 49.85628414 C331.17827794 55.28805663 331.17302332 60.71965761 331.1634984 66.15143299 C331.15588583 71.84470604 331.16295185 77.53796472 331.1676569 83.23123837 C331.17310979 92.79079471 331.16593505 102.35028146 331.15163517 111.90982723 C331.1353096 122.95083237 331.14059843 133.99167129 331.15711439 145.03267241 C331.17074252 154.52422553 331.17264241 164.01572871 331.16479838 173.50728846 C331.16012918 179.17094013 331.15947633 184.83451375 331.16940784 190.49816036 C331.17809451 195.82358015 331.17202444 201.1487863 331.15472507 206.47418308 C331.15076933 208.4248262 331.1518786 210.37548739 331.15851307 212.32612324 C331.16675482 214.99615103 331.15637554 217.66550136 331.14147282 220.33548641 C331.14816498 221.10077616 331.15485715 221.86606591 331.1617521 222.65454626 C331.05547417 232.52350188 327.46862548 240.00169747 320.76052189 247.1398077 C313.0031694 253.31402703 305.71764651 253.43189095 296.17890263 253.40723324 C294.89789073 253.41176435 293.61687883 253.41629546 292.29704839 253.42096388 C288.74785983 253.43318327 285.1987656 253.43293468 281.64956081 253.43057513 C277.81917775 253.4301667 273.98882483 253.44120865 270.15845585 253.45069027 C262.65647242 253.46729533 255.15452042 253.47279959 247.65252014 253.47391503 C241.55386054 253.47486572 235.45521131 253.47897708 229.35655499 253.48531628 C212.06160566 253.50292722 194.76668116 253.51215536 177.4717228 253.51065533 C176.53956312 253.51057542 175.60740344 253.5104955 174.6469965 253.51041317 C173.71369726 253.51033141 172.78039803 253.51024965 171.818817 253.51016541 C156.69356383 253.50935251 141.56841025 253.52849141 126.44318589 253.5566899 C110.9086649 253.5854227 95.37419248 253.59922999 79.83964425 253.59750235 C71.11979359 253.59683859 62.40004732 253.60232465 53.6802206 253.62385845 C46.25598094 253.64207544 38.83189301 253.64641335 31.40764066 253.63283961 C27.62115451 253.62631257 23.83495942 253.62618291 20.04850101 253.6435461 C15.93981145 253.66219282 11.83179485 253.64971558 7.72309208 253.63428402 C6.53164261 253.64457115 5.34019313 253.65485827 4.11263913 253.66545713 C-4.51577078 253.5938324 -10.3648363 251.74773969 -17.48947811 246.9523077 C-24.67245047 239.60608597 -27.54754359 230.85043671 -27.50690365 220.70297909 C-27.51143476 219.86777996 -27.51596587 219.03258084 -27.52063429 218.17207265 C-27.53326719 215.38098755 -27.53165863 212.59009787 -27.53000546 209.79898739 C-27.53599144 207.79464626 -27.54279715 205.79030744 -27.55036068 203.78597164 C-27.56802187 198.34573401 -27.57271615 192.90555931 -27.57399225 187.46529579 C-27.57541448 184.06439657 -27.57968546 180.66351332 -27.58498669 177.26261806 C-27.6034882 165.39208111 -27.61165725 153.52158906 -27.61008358 141.65103817 C-27.60888254 130.59588976 -27.6299774 119.54093669 -27.66157091 108.4858377 C-27.6877478 98.98669129 -27.69845026 89.48760863 -27.69717276 79.98842645 C-27.69666349 74.31850806 -27.70232717 68.64876326 -27.72352886 62.97888088 C-27.74293461 57.64361844 -27.74301956 52.30869473 -27.7284956 46.97342014 C-27.72640923 45.01996584 -27.73109806 43.06649022 -27.74321651 41.1130724 C-27.85305453 22.17479146 -27.85305453 22.17479146 -23.23947811 14.1398077 C-22.68716802 13.13914083 -22.68716802 13.13914083 -22.12370014 12.11825848 C-17.67883447 4.50572993 -8.59133739 0.02608341 0 0 Z M-7.05197811 24.0773077 C-9.58423521 28.47543845 -9.38577224 32.93974526 -9.37992001 37.90074825 C-9.38289113 38.6873526 -9.38586225 39.47395694 -9.38892341 40.28439778 C-9.39760192 42.92281666 -9.39911794 45.56119013 -9.40061092 48.19962215 C-9.40523967 50.09030917 -9.41026441 51.98099526 -9.41565609 53.87168026 C-9.42877602 59.01017892 -9.43522418 64.14866453 -9.43966675 69.28717732 C-9.44259793 72.49741145 -9.44670281 75.70764201 -9.45117092 78.91787434 C-9.46484433 88.96174456 -9.47451195 99.00560662 -9.47837281 109.0494855 C-9.48285432 120.64422069 -9.50040724 132.23883804 -9.52937341 143.8335374 C-9.55098633 152.7958638 -9.56107687 161.75815704 -9.56241393 170.72050923 C-9.56346217 176.07343398 -9.56937415 181.42624793 -9.58723354 186.77914524 C-9.60370758 191.81473873 -9.60587293 196.85013804 -9.59709454 201.88574886 C-9.59632383 203.73242049 -9.60067135 205.57910252 -9.61055279 207.42574787 C-9.62326662 209.95003493 -9.61739874 212.47363368 -9.60697079 214.99791622 C-9.61502719 215.72575087 -9.6230836 216.45358553 -9.63138413 217.20347577 C-9.57651475 222.8967538 -8.33816085 227.51645428 -4.73947811 232.0148077 C-1.69961168 234.29470753 1.21798201 234.26629437 4.86337948 234.27123547 C5.92522138 234.27507661 6.98706329 234.27891776 8.08108222 234.2828753 C9.25178138 234.28200882 10.42248054 234.28114233 11.62865543 234.2802496 C13.48930848 234.28470628 13.48930848 234.28470628 15.38755047 234.289253 C18.83721307 234.29644179 22.28682587 234.29911297 25.7364924 234.29985046 C29.45436713 234.30169972 33.17223104 234.30924636 36.89009953 234.31598568 C45.02222816 234.32957417 53.15435187 234.33559437 61.28648996 234.33999634 C66.36225807 234.34275758 71.43802427 234.34699469 76.51379108 234.35150051 C90.56182263 234.36369328 104.60985264 234.37399295 118.65788937 234.3773756 C119.55718001 234.37759517 120.45647066 234.37781473 121.38301254 234.37804095 C122.28447513 234.37825923 123.18593772 234.37847751 124.11471736 234.3787024 C125.94147643 234.37914587 127.76823549 234.37959243 129.59499454 234.38004208 C130.50113338 234.38026351 131.40727221 234.38048494 132.3408698 234.38071308 C147.02927226 234.38466256 161.71762516 234.40212113 176.40600847 234.4254016 C191.47936498 234.44909982 206.5526966 234.46157674 221.62607205 234.46274352 C230.09207777 234.46366108 238.55801889 234.46943385 247.02400684 234.48756313 C254.23175203 234.50294343 261.43941265 234.50809683 268.64717112 234.49982503 C272.32575917 234.4959113 276.00417682 234.49688317 279.68274403 234.51088238 C283.66804382 234.52591047 287.65310221 234.51777628 291.63842106 234.50730038 C293.38777763 234.51938498 293.38777763 234.51938498 295.17247474 234.53171372 C296.23953214 234.52512388 297.30658954 234.51853404 298.40598202 234.5117445 C299.32593704 234.51234159 300.24589206 234.51293868 301.19372451 234.51355386 C305.20200383 233.92991644 307.8691488 232.1585198 310.51052189 229.1398077 C313.08301169 225.02382402 312.90640324 221.09897144 312.90096378 216.41646481 C312.90393491 215.62184222 312.90690603 214.82721963 312.90996718 214.00851756 C312.91866178 211.33701971 312.92016307 208.66556664 312.9216547 205.99405575 C312.92628233 204.08218954 312.93130691 202.17032425 312.93669987 200.25846004 C312.949831 195.05798781 312.95627019 189.85752849 312.96071053 184.65704226 C312.96364003 181.40913166 312.9677446 178.1612246 312.9722147 174.91331577 C312.98589135 164.75464795 312.99555725 154.59598822 312.99941659 144.43731183 C313.00389826 132.70445596 313.02145054 120.97171653 313.05041718 109.23889607 C313.07202184 100.17384625 313.08212022 91.10882922 313.08345771 82.04375392 C313.08450658 76.62768952 313.090432 71.21173455 313.10827732 65.79569721 C313.12473699 60.7010249 313.12692371 55.60654453 313.11813831 50.51185513 C313.11736682 48.64218857 313.12172543 46.77251179 313.13159657 44.90287113 C313.14428564 42.34971867 313.13845596 39.79724916 313.12801456 37.24410152 C313.13607097 36.50489001 313.14412737 35.7656785 313.15242791 35.00406665 C313.10761155 30.31586275 312.21344534 27.13110811 309.76052189 23.1398077 C305.98144804 19.71502202 302.69200968 19.01520666 297.69169235 19.00837994 C296.11030473 19.00261822 296.11030473 19.00261822 294.49696988 18.9967401 C293.33473474 18.99760659 292.17249959 18.99847307 290.9750452 18.99936581 C289.74348251 18.99639468 288.51191982 18.99342356 287.24303705 18.99036241 C283.8181081 18.98317374 280.39322931 18.98050244 276.96829641 18.97976494 C273.27698762 18.97791563 269.58568974 18.97036893 265.89438725 18.96362972 C257.82004088 18.95004097 249.74569947 18.94402088 241.67134356 18.93961906 C236.63107971 18.93685765 231.59081778 18.93262049 226.55055523 18.92811489 C212.59946119 18.91592168 198.64836869 18.90562236 184.69726944 18.9022398 C183.80416558 18.90202023 182.91106171 18.90180067 181.9908941 18.90157445 C181.09563686 18.90135617 180.20037962 18.90113789 179.27799338 18.900913 C177.46381994 18.90046953 175.6496465 18.90002297 173.83547306 18.89957333 C172.93557777 18.8993519 172.03568247 18.89913047 171.10851762 18.89890233 C156.52425498 18.89495361 141.94004227 18.87749757 127.35579892 18.8542138 C112.38752872 18.83050953 97.41928359 18.81803838 82.45099431 18.81687188 C74.04476026 18.81595462 65.63859129 18.81018938 57.23237514 18.79205227 C50.07479737 18.77666377 42.91730478 18.77152341 35.75971361 18.77979037 C32.10732966 18.78370129 28.45511732 18.7827459 24.8027544 18.76873302 C20.84407835 18.75368372 16.88564478 18.76184755 12.9269495 18.77231503 C11.19363503 18.76023042 11.19363503 18.76023042 9.42530411 18.74790168 C2.86487291 18.78860685 -2.30864922 19.00685268 -7.05197811 24.0773077 Z " fill="#069494" transform="translate(104.23947811126709,52.86019229888916)"/>
<path d="M0 0 C3.18199654 1.99694425 4.73277321 3.34330199 6.15917969 6.84863281 C6.41086914 7.95561523 6.66255859 9.06259766 6.921875 10.203125 C7.2209375 11.47551025 7.52 12.74789551 7.828125 14.05883789 C8.13584138 15.45579844 8.44312128 16.8528552 8.75 18.25 C9.08171219 19.69365145 9.41508062 21.13692321 9.75 22.57983398 C10.65980165 26.52361866 11.54437776 30.47268417 12.42407227 34.42327881 C13.23283859 38.04172814 14.05517217 41.6570543 14.87701416 45.27255249 C17.27953834 55.84212044 19.64986968 66.41866953 22 77 C23.34090272 73.14196605 24.43989744 69.34522942 25.28100586 65.34936523 C25.51142075 64.26481552 25.74183563 63.18026581 25.97923279 62.06285095 C26.22198441 60.90644608 26.46473602 59.7500412 26.71484375 58.55859375 C27.24120006 56.09432916 27.76790329 53.63013866 28.29492188 51.16601562 C29.11941361 47.29353712 29.94107382 43.42052142 30.7565918 39.54614258 C31.54700775 35.79850124 32.34883438 32.05344638 33.15234375 28.30859375 C33.39307114 27.15016464 33.63379852 25.99173553 33.88182068 24.79820251 C34.11538773 23.71680496 34.34895477 22.63540741 34.58959961 21.52124023 C34.79008408 20.57337143 34.99056854 19.62550262 35.1971283 18.64891052 C36.54775381 14.19279863 38.11097361 11.59268426 42 9 C46.00085898 8.48137013 48.142273 8.40336409 51.49755859 10.73730469 C55.49736176 15.04000557 56.30470037 21.10474038 57.6640625 26.640625 C57.98281342 27.87737976 58.30156433 29.11413452 58.62997437 30.3883667 C59.47298445 33.66996542 60.3012113 36.95455565 61.12188721 40.24176025 C62.11654141 44.21205109 63.13251047 48.1769256 64.14798546 52.14193344 C64.93941725 55.23227917 65.72577008 58.32366626 66.50137329 61.41802979 C68.09214598 67.71713981 69.85241491 73.86753291 72 80 C73.2707052 77.35795571 74.54087692 74.71565738 75.81030273 72.07299805 C76.90076636 69.80421199 77.99274192 67.53615206 79.08618164 65.26879883 C81.64667185 59.94981719 84.18733284 54.62653691 86.625 49.25 C87.01888916 48.38930908 87.41277832 47.52861816 87.81860352 46.6418457 C88.54599479 45.04628287 89.26322611 43.44603538 89.96850586 41.84057617 C91.97628667 37.46242342 93.77194759 34.61321782 98 32 C101.5 31.4375 101.5 31.4375 105 32 C110.640341 36.37629174 113.41751111 42.79331667 116.6875 49 C117.55858398 50.62035156 117.55858398 50.62035156 118.44726562 52.2734375 C120.86049402 56.79300975 123.12575306 61.22983661 125 66 C125.63004944 65.98889694 126.26009888 65.97779388 126.90924072 65.96635437 C133.46262445 65.85579749 140.01574364 65.78034784 146.56982422 65.7253418 C149.01622272 65.70018645 151.46254599 65.66605834 153.90869141 65.62280273 C157.42369131 65.56219929 160.93769829 65.53379979 164.453125 65.51171875 C165.5480426 65.48591232 166.64296021 65.4601059 167.77105713 65.43351746 C175.36355103 65.43070842 175.36355103 65.43070842 178.66308594 68.38208008 C180.08391507 71.1643209 180.9254597 72.86930732 181 76 C178.81021898 82.45985401 178.81021898 82.45985401 175 85 C172.43301392 85.27415466 172.43301392 85.27415466 169.32275391 85.30639648 C168.15789459 85.32238388 166.99303528 85.33837128 165.7928772 85.35484314 C164.53349335 85.36020584 163.2741095 85.36556854 161.9765625 85.37109375 C160.68309906 85.38012222 159.38963562 85.3891507 158.05697632 85.39845276 C155.31823228 85.41493815 152.57961042 85.42264193 149.84082031 85.42553711 C146.33777176 85.43091907 142.83587744 85.46859019 139.33315468 85.51428127 C135.98512917 85.55124764 132.63728517 85.55256769 129.2890625 85.55859375 C127.40605942 85.58789223 127.40605942 85.58789223 125.48501587 85.61778259 C116.79602988 85.57269129 116.79602988 85.57269129 112.82299805 82.71435547 C111.92061401 81.37074951 111.92061401 81.37074951 111 80 C110.54004639 79.32799561 110.08009277 78.65599121 109.60620117 77.96362305 C109.25533447 77.31949463 108.90446777 76.67536621 108.54296875 76.01171875 C108.01352661 75.05591919 108.01352661 75.05591919 107.47338867 74.08081055 C106.83687378 72.89612183 106.83687378 72.89612183 106.1875 71.6875 C105.44110399 70.3158393 104.69407363 68.94452367 103.9465332 67.57348633 C103.2976888 66.38232422 102.6488444 65.19116211 102 64 C97.7974181 72.31567161 93.66180498 80.65623777 89.67578125 89.078125 C88.58704237 91.36597787 87.49751742 93.65345531 86.40795898 95.94091797 C85.66834394 97.49992823 84.93276027 99.06085651 84.20092773 100.62353516 C83.12074002 102.92657241 82.0248228 105.22153744 80.92578125 107.515625 C80.60482986 108.21036926 80.28387848 108.90511353 79.95320129 109.62091064 C77.92656927 113.80625383 75.93056864 116.48361876 72 119 C68.29539525 119.61743412 66.65952393 119.41376154 63.46972656 117.41259766 C60.50383433 114.51531147 59.53729364 111.7909033 58.484375 107.8984375 C58.28124695 107.20027924 58.0781189 106.50212097 57.86883545 105.7828064 C57.2221528 103.52771673 56.60657514 101.26618875 56 99 C55.69678833 97.87350037 55.69678833 97.87350037 55.38745117 96.72424316 C53.95809505 91.37032616 52.59715951 86.00008738 51.25 80.625 C50.65367494 78.25609026 50.05604791 75.88752889 49.45574951 73.5196228 C49.0870966 72.06454072 48.72081372 70.60885552 48.35723877 69.15249634 C47.4412 65.48345955 47.4412 65.48345955 46 62 C45.83126877 62.80322189 45.66253754 63.60644379 45.48869324 64.43400574 C43.89481687 72.01324869 42.29204535 79.59053005 40.67931652 87.16578197 C39.85056273 91.06010838 39.02523491 94.95509491 38.20776367 98.85180664 C37.41833436 102.61421761 36.61987109 106.37460811 35.81517982 110.13378334 C35.51016857 111.56636977 35.20838665 112.99964778 34.90993309 114.43361473 C34.49046558 116.44620972 34.0594509 118.45601123 33.62573242 120.46557617 C33.38368576 121.60919113 33.1416391 122.75280609 32.89225769 123.93107605 C31.53249043 128.60800107 30.07353351 131.28431099 26 134 C22.625 134.4375 22.625 134.4375 19 134 C14.49893284 130.3999499 13.15861333 127.3720808 11.94433594 121.81054688 C11.78624325 121.11302055 11.62815056 120.41549423 11.46526718 119.69683075 C11.13129141 118.21644942 10.80510468 116.73429192 10.48625183 115.25057983 C10.01178129 113.05452881 9.51204268 110.86603405 9.0020752 108.67797852 C7.94444023 104.13363267 6.9165715 99.58283756 5.890625 95.03125 C5.51535483 93.37256374 5.13992444 91.71391372 4.76434326 90.05529785 C3.78957125 85.74862818 2.81693487 81.44147911 1.8447876 77.13421631 C0.84706791 72.71548014 -0.1527331 68.29721495 -1.15234375 63.87890625 C-3.1035661 55.2530562 -5.05252592 46.62669707 -7 38 C-10.0971503 42.86479362 -13.03571914 47.76658637 -15.77734375 52.84375 C-16.4626686 54.10298544 -17.14822246 55.36209627 -17.83398438 56.62109375 C-18.88736533 58.56123573 -19.93877826 60.502372 -20.98608398 62.44580078 C-31.66198324 82.2285694 -31.66198324 82.2285694 -35.73828125 83.57354736 C-38.39984358 84.07539149 -40.89769766 84.14241981 -43.60717773 84.16113281 C-45.29429115 84.17554413 -45.29429115 84.17554413 -47.01548767 84.19024658 C-48.22596268 84.19449646 -49.43643768 84.19874634 -50.68359375 84.203125 C-51.93125015 84.20882507 -53.17890656 84.21452515 -54.46437073 84.22039795 C-57.10299323 84.22984285 -59.74150213 84.2367427 -62.38012695 84.24023438 C-65.75391451 84.24572252 -69.12729919 84.26976681 -72.50096035 84.29820633 C-75.72847414 84.32135176 -78.95600859 84.32328298 -82.18359375 84.328125 C-83.39204453 84.3404718 -84.6004953 84.3528186 -85.8455658 84.36553955 C-86.97346024 84.36253845 -88.10135468 84.35953735 -89.26342773 84.35644531 C-90.74757423 84.36191376 -90.74757423 84.36191376 -92.26170349 84.36749268 C-96.53013778 83.79464809 -99.14758999 82.02289202 -101.875 78.75 C-103.4112222 74.99479018 -103.10949563 72.88323469 -102 69 C-100.19262695 66.32543945 -100.19262695 66.32543945 -97 64 C-92.97883341 63.24080131 -89.0008239 63.27880344 -84.91796875 63.29296875 C-83.74865311 63.27784744 -82.57933746 63.26272614 -81.37458801 63.24714661 C-77.6453634 63.20421071 -73.91694735 63.19542529 -70.1875 63.1875 C-67.65687946 63.16436049 -65.12627821 63.13899631 -62.59570312 63.11132812 C-56.3971278 63.04841724 -50.19886919 63.01352995 -44 63 C-43.61368408 62.27224365 -43.22736816 61.5444873 -42.8293457 60.79467773 C-35.98636381 47.92001094 -29.1178944 35.06570742 -21.9375 22.375 C-21.42678955 21.47193115 -20.9160791 20.5688623 -20.38989258 19.63842773 C-18.93774685 17.08567328 -17.47153967 14.54161615 -16 12 C-15.47293457 11.07735352 -14.94586914 10.15470703 -14.40283203 9.20410156 C-13.87931152 8.30401367 -13.35579102 7.40392578 -12.81640625 6.4765625 C-12.3479126 5.66525879 -11.87941895 4.85395508 -11.39672852 4.01806641 C-8.30109236 -0.4546706 -5.0915378 -0.52671081 0 0 Z " fill="#069494" transform="translate(217,106)"/>
<path d="M0 0 C9.27123703 7.80426915 17.22448892 17.91754502 18.6875 30.3125 C19.62783287 45.12274274 16.92754083 57.21986908 8.5 69.5 C-1.62271023 79.62271023 -12.14845419 83.27786908 -26.3125 83.3125 C-36.96239456 82.5856526 -47.33978186 77.48086132 -54.5625 69.65625 C-63.26807103 57.99700308 -66.59737063 44.03133069 -64.87890625 29.6953125 C-62.50096202 18.27580632 -57.18113043 8.99189896 -48.3125 1.3125 C-33.61350047 -8.2543208 -15.05124379 -10.57416149 0 0 Z M-41.8125 22.25 C-46.44877144 29.30918165 -47.16093766 35.97847944 -46.3125 44.3125 C-44.57055299 51.07167164 -40.76965357 56.04620833 -35.3125 60.3125 C-29.78324406 63.54659309 -24.57911956 64.28377934 -18.3125 63.3125 C-10.96617268 60.97552401 -5.93585708 57.13013241 -2.3125 50.3125 C1.3109487 42.05316842 1.29951488 35.06311739 -1.875 26.6875 C-4.7398016 20.73913014 -9.33765806 16.79992097 -15.1875 13.875 C-25.66957366 11.98822674 -34.87714934 13.47981143 -41.8125 22.25 Z " fill="#069494" transform="translate(416.3125,336.6875)"/>
<path d="M0 0 C10.13306695 9.26350428 15.11615607 20.9950215 15.96484375 34.55859375 C16.11222289 48.98537357 11.05719061 60.26806929 1.4140625 70.71875 C-6.22560699 78.02301937 -16.19906807 80.73727084 -26.5390625 81.13671875 C-37.14095299 80.71790818 -47.36580842 77.05280862 -55.26953125 69.890625 C-65.16523578 59.07906519 -68.55764052 46.32884836 -68.27734375 31.9921875 C-67.65024856 19.05717921 -61.36020863 8.56168842 -52.203125 -0.2109375 C-36.69699792 -12.80279247 -15.58947505 -11.68572761 0 0 Z M-45.5546875 20.73828125 C-49.67709994 27.18929964 -50.62629816 33.80128712 -49.63671875 41.32421875 C-47.90627109 48.59634541 -44.11727936 53.84025004 -38 58 C-32.35845138 61.14624827 -27.32813041 61.86564048 -21 61 C-13.01975031 58.71787823 -8.17504419 52.64846122 -4.0625 45.75 C-1.80925585 37.79737358 -2.02725647 30.27326779 -5.8828125 22.89453125 C-9.6521913 16.50240286 -14.00958574 13.4541886 -21 11 C-30.9613503 9.23585247 -39.34300202 12.92311417 -45.5546875 20.73828125 Z " fill="#069494" transform="translate(315,339)"/>
<path d="M0 0 C1.09324081 0.00091644 2.18648163 0.00183289 3.31285095 0.0027771 C5.62015128 0.00881033 7.92744387 0.02454785 10.23461914 0.04931641 C13.76803405 0.08584127 17.30040032 0.09033552 20.83398438 0.08984375 C23.07683199 0.09967452 25.31967249 0.11133135 27.5625 0.125 C28.61985855 0.12722565 29.6772171 0.12945129 30.76661682 0.13174438 C31.75121384 0.14450409 32.73581085 0.15726379 33.75024414 0.17041016 C35.04666588 0.18184555 35.04666588 0.18184555 36.36927795 0.19351196 C38.95447376 0.48825849 40.53233232 1.05459774 42.71484375 2.4609375 C44.80107516 5.59028461 45.08238939 6.70448037 45.21484375 10.3359375 C45.26640625 11.17898438 45.31796875 12.02203125 45.37109375 12.890625 C44.58075102 15.98613402 43.19245098 17.43116433 40.71426392 19.39822388 C36.62953833 21.56930007 32.10496142 21.12695956 27.5859375 21.0546875 C25.98505028 21.05474792 25.98505028 21.05474792 24.3518219 21.05480957 C22.10175671 21.04946131 19.85169157 21.03190853 17.60180664 21.00292969 C14.16038893 20.96103544 10.72092692 20.96186723 7.27929688 20.96875 C5.08983017 20.95825832 2.90037353 20.94532035 0.7109375 20.9296875 C-0.31624893 20.92948608 -1.34343536 20.92928467 -2.40174866 20.92907715 C-11.32740145 20.78133163 -11.32740145 20.78133163 -15.28515625 17.4609375 C-17.27814628 14.57494601 -17.54810521 12.41661372 -17.22265625 8.9609375 C-17.16980469 8.208125 -17.11695312 7.4553125 -17.0625 6.6796875 C-14.36263371 -1.02646351 -6.76530506 -0.09212665 0 0 Z " fill="#069494" transform="translate(94.28515625,364.5390625)"/>
<path d="M0 0 C0.98474808 -0.01283524 1.96949615 -0.02567047 2.98408508 -0.03889465 C4.0517662 -0.04628159 5.11944733 -0.05366852 6.21948242 -0.0612793 C7.31459641 -0.06935104 8.40971039 -0.07742279 9.53800964 -0.08573914 C11.85898247 -0.09958709 14.17997573 -0.11030605 16.50097656 -0.11816406 C20.050116 -0.13537759 23.59832433 -0.17925864 27.1472168 -0.22338867 C29.40046514 -0.23351529 31.65372142 -0.24203149 33.90698242 -0.2487793 C34.96859085 -0.26628738 36.03019928 -0.28379547 37.12397766 -0.30183411 C44.50591578 -0.28011186 44.50591578 -0.28011186 48.40966797 2.07861328 C51.3176558 5.3720848 51.59545987 7.73354533 51.55541992 12.13793945 C51.09990151 15.30834762 49.5092946 16.99624215 47.26245117 19.17700195 C44.85239933 20.38202788 43.30882336 20.31653341 40.61669922 20.33813477 C39.16960823 20.35254608 39.16960823 20.35254608 37.69328308 20.36724854 C36.64747574 20.37149841 35.6016684 20.37574829 34.52416992 20.38012695 C32.91479301 20.38867706 32.91479301 20.38867706 31.27290344 20.3973999 C28.99900298 20.40685878 26.72508875 20.4133874 24.45117188 20.41723633 C20.97460942 20.42693318 17.49864019 20.45794517 14.0222168 20.48950195 C11.81453802 20.49603275 9.60685501 20.50128292 7.39916992 20.50512695 C6.35943527 20.51747375 5.31970062 20.52982056 4.24845886 20.5425415 C-4.87564977 20.51443351 -4.87564977 20.51443351 -8.73754883 17.17700195 C-11.1942008 13.49202399 -11.43841374 10.45728409 -10.73754883 6.17700195 C-7.63424036 1.31515202 -5.61380671 0.06361466 0 0 Z " fill="#069494" transform="translate(170.737548828125,364.822998046875)"/>
</svg>
