<?xml version="1.0" encoding="UTF-8"?>
<svg version="1.1" xmlns="http://www.w3.org/2000/svg" width="512" height="512">
<path d="M0 0 C1.50190918 -0.00967334 1.50190918 -0.00967334 3.03415996 -0.0195421 C4.67334503 -0.01489629 4.67334503 -0.01489629 6.34564495 -0.01015663 C7.51216852 -0.01468774 8.6786921 -0.01921886 9.88056487 -0.02388728 C13.11471605 -0.03435726 16.3487274 -0.03585715 19.58289015 -0.03349853 C23.0724383 -0.03309029 26.56195332 -0.04413018 30.05148602 -0.05361366 C36.88684704 -0.07022324 43.72217357 -0.07572319 50.55755309 -0.07683842 C56.1141975 -0.07778893 61.67083054 -0.0818994 67.22747135 -0.08823967 C82.9839442 -0.10585213 98.74038982 -0.11507856 114.49687258 -0.11357872 C115.77090048 -0.11345885 115.77090048 -0.11345885 117.07066631 -0.11333656 C117.92105615 -0.1132548 118.77144598 -0.11317304 119.6476052 -0.1130888 C133.42856419 -0.11227595 147.20941386 -0.13141347 160.99034122 -0.1596133 C175.14282125 -0.18834475 189.29524797 -0.20215344 203.4477579 -0.20042574 C211.39238265 -0.19976192 219.33689281 -0.20525074 227.28149128 -0.22678185 C234.04592993 -0.24499712 240.81020205 -0.24933822 247.57465462 -0.235763 C251.02482603 -0.22923494 254.47467801 -0.22910976 257.92481899 -0.2464695 C261.66832632 -0.26187756 265.41099392 -0.25264169 269.15448284 -0.23720741 C270.24058072 -0.24749454 271.32667861 -0.25778167 272.44568855 -0.26838052 C280.02465431 -0.19930064 285.32834363 1.09187787 291.18272686 6.22211266 C291.72155499 6.87308922 292.26038311 7.52406578 292.81553936 8.19476891 C293.36983624 8.84316734 293.92413311 9.49156578 294.49522686 10.15961266 C297.27532009 14.19450472 298.19093065 17.7900019 298.2310667 22.65497398 C298.24382641 23.7098954 298.25658611 24.76481682 298.26973248 25.85170555 C298.27307095 27.54712738 298.27307095 27.54712738 298.27647686 29.27680016 C298.28313366 30.44933846 298.28979046 31.62187675 298.29664898 32.82994652 C298.30676544 35.30871578 298.31146631 37.78751222 298.31114483 40.26630211 C298.3155115 44.04565244 298.35182628 47.8238287 298.38975811 51.60297203 C298.39562783 54.01507743 298.39959618 56.42718835 298.40147686 58.83930016 C298.41584789 59.96350868 298.43021893 61.08771721 298.44502544 62.24599266 C298.39983042 70.06373309 297.27068467 75.45706333 291.97569561 81.49945641 C285.75350329 86.64970669 282.15050538 88.34348792 273.94053936 88.25726891 C273.94205824 88.91229771 273.94357712 89.56732651 273.94514203 90.24220467 C274.03465297 129.06392423 274.1032849 167.88563047 274.14480068 206.70743233 C274.14980351 211.36873871 274.1549808 216.03004487 274.16026592 220.69135094 C274.16131516 221.61933365 274.16236441 222.54731636 274.16344544 223.50341976 C274.180851 238.52948849 274.21238954 253.55549601 274.24915054 268.58152843 C274.28655574 283.99945243 274.30877432 299.41734437 274.31689334 314.83531189 C274.32238198 324.34915644 274.33971784 333.86282798 274.37220523 343.37661928 C274.3933479 349.90045307 274.39973996 356.4241974 274.39454487 362.94806296 C274.3919827 366.712118 274.39591221 370.47587069 274.41736126 374.23987198 C274.44045829 378.32293557 274.43248681 382.40535597 274.42155743 386.48847008 C274.43320879 387.67525227 274.44486016 388.86203445 274.4568646 390.08477974 C274.39971515 397.97287961 273.32005113 403.40072863 267.97569561 409.49945641 C267.32471905 410.03828453 266.67374249 410.57711266 266.00303936 411.13226891 C265.35464092 411.68656578 264.70624249 412.24086266 264.03819561 412.81195641 C258.62222212 416.54363274 253.72280058 416.54645325 247.35769939 416.52469444 C245.9019298 416.53149111 245.9019298 416.53149111 244.41675073 416.53842509 C241.1618553 416.55109422 237.90712666 416.54944708 234.65220928 416.54779625 C232.31965195 416.55377993 229.98709661 416.5605851 227.65454388 416.56815147 C221.31565142 416.58583513 214.97681294 416.59050786 208.63789821 416.59178305 C203.34713174 416.59368143 198.05637786 416.60103828 192.76561624 416.60812724 C180.99625503 416.62377117 169.22691723 416.62946435 157.45754655 416.62811653 C156.39858234 416.62799666 156.39858234 416.62799666 155.31822491 416.62787437 C154.61138458 416.62779261 153.90454426 416.62771085 153.17628453 416.62762661 C141.72326551 416.62681387 130.27037805 416.64594919 118.81739708 416.67415111 C107.05150167 416.70289442 95.28567038 416.7166906 83.51973897 416.71496356 C76.91649381 416.71445349 70.31339752 416.72016127 63.71018314 416.74131966 C57.49918758 416.76067754 51.28848327 416.76084298 45.07747746 416.74628639 C42.79906063 416.74419416 40.52062569 416.74892373 38.24223995 416.76100731 C35.12926088 416.77644666 32.01728771 416.76715955 28.90433025 416.75174522 C28.00499789 416.76203235 27.10566553 416.77231948 26.17908067 416.78291833 C19.21822229 416.7068717 13.96987934 414.91189958 8.69835186 410.29242516 C8.15952374 409.64144859 7.62069561 408.99047203 7.06553936 408.31976891 C6.51124249 407.67137047 5.95694561 407.02297203 5.38585186 406.35492516 C2.5783552 402.28026108 1.69048674 398.69760235 1.6944437 393.7850275 C1.69046161 392.69173624 1.68647951 391.59844497 1.68237674 390.47202367 C1.69111527 388.6787426 1.69111527 388.6787426 1.70003033 386.84923363 C1.69832148 385.57497672 1.69661263 384.30071981 1.69485199 382.98784906 C1.69038006 379.45321082 1.69838001 375.91869379 1.70840812 372.38407099 C1.71704253 368.5715807 1.71412246 364.75909728 1.71260357 360.94659996 C1.71155471 354.3419457 1.71783139 347.73733094 1.72907925 341.13268661 C1.74533118 331.5834774 1.75054194 322.03428729 1.75305523 312.48506574 C1.75743281 296.99221182 1.77074364 281.49937896 1.78966045 266.00653648 C1.80801761 250.95640735 1.82217492 235.90628393 1.83067608 220.85614586 C1.83120153 219.92850385 1.83172697 219.00086184 1.83226834 218.04510947 C1.83487841 213.39141652 1.83740583 208.73772353 1.83989215 204.08403051 C1.86062662 165.47509523 1.89585388 126.86618346 1.94053936 88.25726891 C0.83065655 88.269515 -0.27922626 88.28176109 -1.42274189 88.29437828 C-7.13444492 88.2360956 -10.90701148 86.27888292 -15.05164814 82.38617516 C-19.74498179 77.23519278 -22.29126503 72.97749139 -22.34998798 65.85956383 C-22.36274769 64.80464241 -22.37550739 63.74972099 -22.38865376 62.66283226 C-22.3908794 61.53255104 -22.39310505 60.40226982 -22.39539814 59.23773766 C-22.40205494 58.06519936 -22.40871174 56.89266106 -22.41557026 55.68459129 C-22.42568672 53.20582203 -22.43038759 50.72702559 -22.43006611 48.2482357 C-22.43443278 44.46888537 -22.47074756 40.69070911 -22.50867939 36.91156578 C-22.51454911 34.49946038 -22.51851746 32.08734946 -22.52039814 29.67523766 C-22.53476917 28.55102913 -22.54914021 27.4268206 -22.56394672 26.26854515 C-22.5187517 18.45080472 -21.38960595 13.05747449 -16.09461689 7.01508141 C-15.44364033 6.47625328 -14.79266376 5.93742516 -14.12196064 5.38226891 C-13.4735622 4.82797203 -12.82516376 4.27367516 -12.15711689 3.70258141 C-8.24237802 1.00527529 -4.72691283 0.00772059 0 0 Z M-5.05946064 20.25726891 C-5.95206245 22.97032286 -6.18893631 25.45995281 -6.20472431 28.30389977 C-6.21110416 29.08828926 -6.21748402 29.87267876 -6.2240572 30.68083763 C-6.22517002 31.51945839 -6.22628284 32.35807915 -6.22742939 33.22211266 C-6.23075779 34.09243629 -6.23408619 34.96275993 -6.23751545 35.85945702 C-6.24257138 37.6977034 -6.24492419 39.53595893 -6.24476337 41.37421227 C-6.24694998 44.18108846 -6.26512007 46.98757157 -6.28407001 49.79437828 C-6.28700422 51.5827884 -6.28898883 53.37120038 -6.28992939 55.15961266 C-6.29711491 55.99620918 -6.30430042 56.83280571 -6.31170368 57.69475365 C-6.29064972 63.08405008 -6.05499701 67.26173253 -2.05946064 71.25726891 C0.87461509 72.24666161 3.58556941 72.38326308 6.66668892 72.38590336 C8.09523536 72.39074003 8.09523536 72.39074003 9.55264133 72.39567441 C10.5959173 72.39412581 11.63919328 72.3925772 12.71408367 72.39098167 C14.38000784 72.39438001 14.38000784 72.39438001 16.07958704 72.397847 C19.8144169 72.40419528 23.54921055 72.4033571 27.28404522 72.40253258 C29.95629291 72.40552353 32.62853772 72.40889742 35.30078411 72.41271019 C41.81375689 72.4210183 48.32672062 72.42376509 54.83969825 72.42432257 C60.132754 72.4247976 65.42580677 72.42685172 70.71886158 72.43002319 C85.72170991 72.43882979 100.72455109 72.4434425 115.72740202 72.44269272 C116.94073337 72.44263279 116.94073337 72.44263279 118.17857647 72.44257164 C118.98845013 72.44253076 119.79832379 72.44248988 120.63273907 72.44244776 C133.7626345 72.44204117 146.89250126 72.45161399 160.02238839 72.46571001 C173.50019912 72.48006555 186.97799585 72.48698066 200.45581442 72.48611623 C208.02417496 72.485784 215.59250545 72.48854246 223.16085911 72.49929428 C229.60367558 72.50838842 236.04644837 72.51058346 242.48926847 72.50378486 C245.77695866 72.50051428 249.06454734 72.50156398 252.35223293 72.50913811 C255.91490145 72.51681573 259.47734792 72.51224123 263.04001141 72.50450706 C264.08105666 72.50965063 265.12210191 72.51479419 266.19469398 72.52009362 C267.62715205 72.51319543 267.62715205 72.51319543 269.08854866 72.50615788 C269.91075321 72.50637524 270.73295775 72.50659261 271.58007759 72.50681657 C274.35574539 72.21337339 276.44239945 71.4951594 278.94053936 70.25726891 C282.37063767 65.36548364 282.36768293 60.84070584 282.30382061 55.09711266 C282.30431911 54.22961891 282.30481762 53.36212517 282.30533123 52.46834373 C282.30299955 50.64202129 282.29332472 48.81569509 282.276721 46.98944664 C282.25308515 44.20017235 282.25617245 41.41185264 282.26280499 38.62250328 C282.25722887 36.84320073 282.2501194 35.06390219 282.24132061 33.28461266 C282.24268772 32.03912903 282.24268772 32.03912903 282.24408245 30.76848412 C282.17871456 25.41201181 281.90855014 21.22527968 277.94053936 17.25726891 C275.00646363 16.2678762 272.29550931 16.13127473 269.2143898 16.12863445 C267.78584336 16.12379778 267.78584336 16.12379778 266.32843739 16.1188634 C265.28516142 16.12041201 264.24188544 16.12196061 263.16699505 16.12355614 C261.50107088 16.1201578 261.50107088 16.1201578 259.80149168 16.11669081 C256.06666182 16.11034254 252.33186817 16.11118071 248.5970335 16.11200523 C245.92478581 16.10901429 243.252541 16.10564039 240.58029461 16.10182762 C234.06732183 16.09351952 227.5543581 16.09077272 221.04138047 16.09021524 C215.74832472 16.08974021 210.45527195 16.0876861 205.16221714 16.08451462 C190.15936881 16.07570802 175.15652763 16.07109531 160.1536767 16.07184509 C158.94034535 16.07190503 158.94034535 16.07190503 157.70250225 16.07196617 C156.89262859 16.07200705 156.08275493 16.07204793 155.24833965 16.07209005 C142.11844422 16.07249664 128.98857746 16.06292383 115.85869033 16.0488278 C102.3808796 16.03447226 88.90308287 16.02755715 75.4252643 16.02842158 C67.85690376 16.02875381 60.28857327 16.02599535 52.72021961 16.01524353 C46.27740314 16.00614939 39.83463035 16.00395435 33.39181025 16.01075295 C30.10412006 16.01402353 26.81653138 16.01297383 23.52884579 16.0053997 C19.96617727 15.99772208 16.4037308 16.00229658 12.84106731 16.01003075 C11.80002206 16.00488718 10.75897681 15.99974362 9.68638474 15.99444419 C8.73141269 15.99904299 7.77644065 16.00364178 6.79253006 16.00837994 C5.97032551 16.00816257 5.14812097 16.0079452 4.30100113 16.00772125 C0.42170589 16.41783975 -2.30009401 17.49790228 -5.05946064 20.25726891 Z M17.94053936 88.25726891 C17.88228462 142.16644547 17.88228462 142.16644547 17.84288311 196.07562828 C17.83896724 203.33889335 17.83492625 210.60215832 17.83067608 217.8654232 C17.83014858 218.77578069 17.82962108 219.68613819 17.8290776 220.62408227 C17.82037417 235.32951279 17.80460388 250.0349277 17.78623377 264.74034896 C17.76754411 279.82716769 17.75642462 294.91397823 17.75236237 310.00080806 C17.74961537 319.31345813 17.74093284 328.6260641 17.72470643 337.93870059 C17.71415108 344.3209315 17.71093544 350.70313954 17.71353661 357.08537855 C17.71482016 360.76998807 17.71282447 364.45452042 17.70212841 368.13911629 C17.69062445 372.13109987 17.69455399 376.12298231 17.70003033 380.1149807 C17.69420464 381.28326477 17.68837896 382.45154885 17.68237674 383.65523547 C17.68635884 384.72414297 17.69034094 385.79305046 17.6944437 386.8943491 C17.69368426 387.81593034 17.69292482 388.73751158 17.69214237 389.68701953 C18.07750282 393.67447705 19.10245816 396.4191877 21.94053936 399.25726891 C26.16570908 400.6464546 30.49229707 400.39893617 34.89181805 400.39098167 C35.80642365 400.39324723 36.72102924 400.39551279 37.66335016 400.397847 C40.73484461 400.40418838 43.80629494 400.40335754 46.87779522 400.40253258 C49.07714171 400.40552395 51.27648767 400.40892643 53.47583294 400.41271019 C59.45508275 400.42155589 65.43431826 400.42388852 71.41357398 400.42452598 C76.40135874 400.42547464 81.38914015 400.42915238 86.37692362 400.43269807 C97.46930406 400.44037907 108.56167885 400.44336649 119.65406161 400.44269272 C120.65232928 400.44263279 120.65232928 400.44263279 121.67076397 400.44257164 C122.6702502 400.44251032 122.6702502 400.44251032 123.68992806 400.44244776 C134.49187662 400.44204119 145.29379033 400.45161372 156.09572881 400.46571001 C167.18695281 400.48006964 178.27816242 400.48679724 189.36939627 400.48611623 C195.59636784 400.48586092 201.82329997 400.48873041 208.0502634 400.49929428 C213.90495086 400.50895528 219.75956101 400.50906818 225.61425114 400.50177765 C227.76491947 400.50072936 229.91559257 400.50310908 232.06625271 400.50913811 C234.99835251 400.51682645 237.93018325 400.51223415 240.86227703 400.50450706 C242.14369663 400.51222241 242.14369663 400.51222241 243.45100349 400.52009362 C249.4754391 400.53489138 249.4754391 400.53489138 254.94053936 398.25726891 C259.06060668 392.82832304 258.35005591 386.49643542 258.30130291 379.99472618 C258.30386618 378.74819971 258.30642946 377.50167325 258.30907041 376.21737325 C258.31315393 372.76465983 258.30379219 369.31245782 258.28873622 365.8598063 C258.2757706 362.13390579 258.28016569 358.40802083 258.28244305 354.68210411 C258.28401545 348.22914076 258.27460972 341.77626847 258.25772953 335.32332802 C258.23333961 325.9934955 258.22553427 316.66370697 258.22176556 307.33384602 C258.21520106 292.19647895 258.19523995 277.05916041 258.16685772 261.92181969 C258.1393171 247.21804607 258.11811793 232.51428571 258.10533428 217.81049156 C258.10453029 216.89477863 258.1037263 215.97906569 258.10289794 215.03560388 C258.09665961 207.8740367 258.09078886 200.71246923 258.08503425 193.55090165 C258.05673755 158.45297953 257.99638164 123.35517889 257.94053936 88.25726891 C178.74053936 88.25726891 99.54053936 88.25726891 17.94053936 88.25726891 Z " fill="#069494" transform="translate(70.05946063995361,79.74273109436035)"/>
<path d="M0 0 C0.99496994 -0.0066568 1.98993988 -0.0133136 3.01506042 -0.02017212 C5.11719926 -0.03028148 7.21937008 -0.03498967 9.3215332 -0.03466797 C12.52154047 -0.03903327 15.72015913 -0.07535011 18.91992188 -0.11328125 C20.96744323 -0.11915149 23.0149711 -0.1231195 25.0625 -0.125 C26.48632744 -0.14655655 26.48632744 -0.14655655 27.93891907 -0.16854858 C35.1673229 -0.11935852 40.4891473 1.49554606 45.97265625 6.30078125 C46.51148438 6.95175781 47.0503125 7.60273438 47.60546875 8.2734375 C48.15976562 8.92183594 48.7140625 9.57023437 49.28515625 10.23828125 C52.53945802 14.96141653 53.02072827 19.27527557 52.98773766 24.89417744 C52.99124373 25.65056455 52.9947498 26.40695166 52.99836212 27.1862596 C53.00769089 29.72933323 53.00274902 32.27217859 52.99789429 34.81526184 C53.0016298 36.65353844 53.00623093 38.49181345 53.01162493 40.33008593 C53.02388253 45.38846435 53.02359122 50.44677676 53.02123618 55.50516665 C53.02082871 60.95791754 53.03186046 66.41064707 53.04135132 71.86338806 C53.05797735 82.54890203 53.06346159 93.23439394 53.06457607 103.91991977 C53.06552578 112.60394657 53.06963217 121.28796609 53.07597733 129.97199059 C53.093594 154.58246561 53.10282765 179.19292419 53.10131638 203.80340544 C53.10127649 204.46679525 53.1012366 205.13018507 53.1011955 205.8136776 C53.10111462 207.15521371 53.10103103 208.49674982 53.10094471 209.83828593 C53.09971919 230.71065923 53.11473224 251.58296756 53.14208984 272.45532227 C53.17281005 295.90284703 53.18999704 319.35033616 53.1881634 342.79788321 C53.18749887 355.21379941 53.19301881 367.62964233 53.2145195 380.04554176 C53.23270706 390.61613351 53.23709857 401.18661876 53.22350065 411.75721935 C53.21695882 417.15160456 53.21689773 422.54578531 53.23420715 427.94015121 C53.24988904 432.87804099 53.24712422 437.81556337 53.22963889 442.75344392 C53.22655822 444.54010224 53.23024138 446.32678764 53.24135904 448.11341403 C53.34569583 466.06925689 53.34569583 466.06925689 46.765625 473.578125 C45.78916016 474.38636719 45.78916016 474.38636719 44.79296875 475.2109375 C44.14457031 475.76523437 43.49617188 476.31953125 42.828125 476.890625 C37.24604903 480.73674811 32.02858098 480.65657364 25.4609375 480.671875 C24.46596756 480.6785318 23.47099762 480.6851886 22.44587708 480.69204712 C20.34373824 480.70215648 18.24156742 480.70686467 16.1394043 480.70654297 C12.93939703 480.71090827 9.74077837 480.74722511 6.54101562 480.78515625 C4.49349427 480.79102649 2.4459664 480.7949945 0.3984375 480.796875 C-0.55078079 480.81124603 -1.49999908 480.82561707 -2.47798157 480.84042358 C-9.7063854 480.79123352 -15.0282098 479.17632894 -20.51171875 474.37109375 C-21.05054688 473.72011719 -21.589375 473.06914062 -22.14453125 472.3984375 C-22.69882812 471.75003906 -23.253125 471.10164063 -23.82421875 470.43359375 C-27.07852052 465.71045847 -27.55979077 461.39659943 -27.52680016 455.77769756 C-27.53205927 454.64311689 -27.53205927 454.64311689 -27.53742462 453.4856154 C-27.54675339 450.94254177 -27.54181152 448.39969641 -27.53695679 445.85661316 C-27.5406923 444.01833656 -27.54529343 442.18006155 -27.55068743 440.34178907 C-27.56294503 435.28341065 -27.56265372 430.22509824 -27.56029868 425.16670835 C-27.55989121 419.71395746 -27.57092296 414.26122793 -27.58041382 408.80848694 C-27.59703985 398.12297297 -27.60252409 387.43748106 -27.60363857 376.75195523 C-27.60458828 368.06792843 -27.60869467 359.38390891 -27.61503983 350.69988441 C-27.6326565 326.08940939 -27.64189015 301.47895081 -27.64037888 276.86846956 C-27.64033899 276.20507975 -27.6402991 275.54168993 -27.640258 274.8581974 C-27.64017712 273.51666129 -27.64009353 272.17512518 -27.64000721 270.83358907 C-27.63878169 249.96121577 -27.65379474 229.08890744 -27.68115234 208.21655273 C-27.71187255 184.76902797 -27.72905954 161.32153884 -27.7272259 137.87399179 C-27.72656137 125.45807559 -27.73208131 113.04223267 -27.753582 100.62633324 C-27.77176956 90.05574149 -27.77616107 79.48525624 -27.76256315 68.91465565 C-27.75602132 63.52027044 -27.75596023 58.12608969 -27.77326965 52.73172379 C-27.78895154 47.79383401 -27.78618672 42.85631163 -27.76870139 37.91843108 C-27.76562072 36.13177276 -27.76930388 34.34508736 -27.78042154 32.55846097 C-27.88475833 14.60261811 -27.88475833 14.60261811 -21.3046875 7.09375 C-20.65371094 6.55492187 -20.00273437 6.01609375 -19.33203125 5.4609375 C-18.68363281 4.90664063 -18.03523438 4.35234375 -17.3671875 3.78125 C-11.78511153 -0.06487311 -6.56764348 0.01530136 0 0 Z M-10.26953125 20.3359375 C-11.2099483 23.15755466 -11.3940742 25.74090489 -11.39257908 28.70123672 C-11.39457013 29.57308302 -11.39656118 30.44492932 -11.39861256 31.3431952 C-11.39569972 32.29649901 -11.39278688 33.24980282 -11.38978577 34.23199463 C-11.39064019 35.24813331 -11.39149462 36.264272 -11.39237493 37.31120276 C-11.39402588 40.72604097 -11.38851461 44.14083036 -11.38305664 47.55566406 C-11.38277466 49.99957274 -11.38293272 52.44348151 -11.38349915 54.88739014 C-11.38372708 60.15408204 -11.38088527 65.42075867 -11.37526131 70.68744659 C-11.36713528 78.3021976 -11.36452995 85.91694261 -11.36327332 93.53169748 C-11.36108453 105.8860439 -11.35442914 118.24038372 -11.3449707 130.59472656 C-11.3357921 142.59602831 -11.32871346 154.59732826 -11.32446289 166.59863281 C-11.32420017 167.33835682 -11.32393744 168.07808083 -11.32366676 168.84022072 C-11.32236172 172.55118784 -11.32109802 176.26215498 -11.31985486 179.97312212 C-11.30948765 210.76073302 -11.29105225 241.5483318 -11.26953125 272.3359375 C4.57046875 272.3359375 20.41046875 272.3359375 36.73046875 272.3359375 C36.77454957 240.8273092 36.81148178 209.31871062 36.83259941 177.81006112 C36.83510086 174.09122884 36.8376895 170.37239663 36.84033203 166.65356445 C36.84111896 165.54302309 36.84111896 165.54302309 36.84192179 164.41004654 C36.85062736 152.41800762 36.86639817 140.42598785 36.88477434 128.4339603 C36.90346917 116.13149234 36.91458459 103.82903443 36.91864574 91.52655286 C36.92139166 83.93362847 36.93006837 76.34075822 36.94630168 68.7478505 C36.95811091 62.92823979 36.95938114 57.10865695 36.95668411 51.28903389 C36.95723554 48.89970821 36.96122974 46.51038054 36.9688797 44.12106705 C36.97879661 40.86471826 36.97644942 37.60860308 36.97097778 34.35224915 C36.97971631 32.92666269 36.97971631 32.92666269 36.98863137 31.47227651 C36.96313918 25.87823192 36.88678526 21.49225401 32.73046875 17.3359375 C27.23893412 15.32015907 20.81483407 16.14999776 15.03149414 16.15063477 C12.80400483 16.14844833 10.57701117 16.13027322 8.34960938 16.11132812 C6.92578293 16.10839372 5.50195415 16.10640924 4.078125 16.10546875 C2.78914307 16.10135986 1.50016113 16.09725098 0.17211914 16.09301758 C-4.27392741 16.40683018 -7.10248354 17.16888979 -10.26953125 20.3359375 Z M-11.26953125 288.3359375 C-11.26953125 304.1759375 -11.26953125 320.0159375 -11.26953125 336.3359375 C4.57046875 336.3359375 20.41046875 336.3359375 36.73046875 336.3359375 C36.73046875 320.4959375 36.73046875 304.6559375 36.73046875 288.3359375 C20.89046875 288.3359375 5.05046875 288.3359375 -11.26953125 288.3359375 Z M-11.26953125 352.3359375 C-11.26953125 368.1759375 -11.26953125 384.0159375 -11.26953125 400.3359375 C4.57046875 400.3359375 20.41046875 400.3359375 36.73046875 400.3359375 C36.73046875 384.4959375 36.73046875 368.6559375 36.73046875 352.3359375 C20.89046875 352.3359375 5.05046875 352.3359375 -11.26953125 352.3359375 Z M-11.26953125 416.3359375 C-11.31078125 422.8328125 -11.35203125 429.3296875 -11.39453125 436.0234375 C-11.41273926 438.06619873 -11.43094727 440.10895996 -11.44970703 442.21362305 C-11.45555096 443.84163144 -11.46064676 445.46964277 -11.46484375 447.09765625 C-11.47507568 447.93574829 -11.48530762 448.77384033 -11.49584961 449.6373291 C-11.49713955 453.96829692 -11.38964278 457.43480204 -9.26953125 461.3359375 C-4.73393361 465.87153514 2.20004262 464.50070854 8.21289062 464.52148438 C9.31008423 464.52136353 9.31008423 464.52136353 10.42944336 464.52124023 C12.65693267 464.52342667 14.88392633 464.54160178 17.11132812 464.56054688 C18.53515457 464.56348128 19.95898335 464.56546576 21.3828125 464.56640625 C23.3162854 464.57256958 23.3162854 464.57256958 25.28881836 464.57885742 C28.70266947 464.33789964 30.81580968 464.11564551 33.73046875 462.3359375 C37.218113 457.39562227 37.13039926 452.80513193 37.0234375 447 C37.02041626 446.21971436 37.01739502 445.43942871 37.01428223 444.63549805 C36.99868431 441.74384171 36.95680075 438.85237516 36.91796875 435.9609375 C36.85609375 429.4846875 36.79421875 423.0084375 36.73046875 416.3359375 C20.89046875 416.3359375 5.05046875 416.3359375 -11.26953125 416.3359375 Z " fill="#069494" transform="translate(411.26953125,15.6640625)"/>
<path d="M0 0 C0.70916571 -0.00453111 1.41833142 -0.00906223 2.148987 -0.01373065 C4.51945057 -0.02636598 6.88968414 -0.02475486 9.26017761 -0.02310181 C10.96220189 -0.02908763 12.66422346 -0.0358933 14.36624146 -0.04345703 C18.98618443 -0.06111944 23.6060533 -0.06581253 28.22602677 -0.0670886 C31.11382393 -0.0685107 34.00160228 -0.07278144 36.88939476 -0.07808304 C46.96807933 -0.0965846 57.046711 -0.10475355 67.12541199 -0.10317993 C76.51340452 -0.10197872 85.90116708 -0.1230767 95.28910142 -0.15466726 C103.35466428 -0.18083875 111.42015207 -0.19154685 119.48575705 -0.19026911 C124.30050122 -0.18975971 129.11504102 -0.19543105 133.92974281 -0.21662521 C138.45982406 -0.23602211 142.98950631 -0.23612219 147.51960182 -0.22159195 C149.17879826 -0.2195045 150.83801977 -0.22420096 152.49717331 -0.23631287 C169.57438671 -0.35286679 169.57438671 -0.35286679 177.08903503 6.23226929 C177.62786316 6.88324585 178.16669128 7.53422241 178.72184753 8.20492554 C179.27614441 8.85332397 179.83044128 9.50172241 180.40153503 10.16976929 C183.76192903 15.04688165 184.13819166 19.53674478 184.11427307 25.33171082 C184.11880418 26.13888178 184.1233353 26.94605275 184.12800372 27.77768344 C184.14065429 30.47980752 184.13902692 33.18173021 184.13737488 35.88388062 C184.14335974 37.82235473 184.15016518 39.76082645 184.1577301 41.69929504 C184.1754021 46.96384377 184.180086 52.22832748 184.18136168 57.49290299 C184.1827832 60.78272252 184.18705285 64.07252551 184.19235611 67.36234093 C184.21086067 78.84153671 184.21902623 90.32068604 184.217453 101.79989624 C184.21625163 112.49663478 184.23735207 123.19317154 184.26894033 133.88985902 C184.29510138 143.07643037 184.30582036 152.26293582 184.30454218 161.44954413 C184.30403248 166.93497446 184.30972029 172.42022548 184.33089828 177.90561867 C184.35027755 183.06604016 184.35040713 188.22611126 184.33586502 193.38654518 C184.33377542 195.27794914 184.33848684 197.16937501 184.35058594 199.06074142 C184.3660633 201.64830062 184.35671432 204.23465536 184.34132385 206.82218933 C184.35161098 207.56588376 184.36189811 208.3095782 184.37249696 209.07580882 C184.28809895 215.52254325 182.1349248 220.65637912 177.88200378 225.50961304 C177.23102722 226.04844116 176.58005066 226.58726929 175.90934753 227.14242554 C175.2609491 227.69672241 174.61255066 228.25101929 173.94450378 228.82211304 C169.28464731 232.03281489 165.29945611 232.52003503 159.69369507 232.53485107 C158.98452936 232.53938219 158.27536365 232.5439133 157.54470807 232.54858172 C155.1742445 232.56121705 152.80401093 232.55960593 150.43351746 232.55795288 C148.73149318 232.56393871 147.02947161 232.57074438 145.32745361 232.57830811 C140.70751064 232.59597051 136.08764177 232.60066361 131.46766829 232.60193968 C128.57987114 232.60336178 125.69209279 232.60763251 122.80430031 232.61293411 C112.72561574 232.63143568 102.64698407 232.63960463 92.56828308 232.63803101 C83.18029055 232.6368298 73.79252799 232.65792778 64.40459365 232.68951833 C56.33903079 232.71568982 48.273543 232.72639792 40.20793802 232.72512019 C35.39319385 232.72461078 30.57865405 232.73028212 25.76395226 232.75147629 C21.23387101 232.77087319 16.70418876 232.77097326 12.17409325 232.75644302 C10.51489681 232.75435558 8.8556753 232.75905203 7.19652176 232.77116394 C-9.88069164 232.88771786 -9.88069164 232.88771786 -17.39533997 226.30258179 C-18.20358215 225.32611694 -18.20358215 225.32611694 -19.02815247 224.32992554 C-19.58244934 223.6815271 -20.13674622 223.03312866 -20.70783997 222.36508179 C-24.06823396 217.48796942 -24.4444966 212.99810629 -24.420578 207.20314026 C-24.42510912 206.39596929 -24.42964023 205.58879833 -24.43430865 204.75716764 C-24.44695922 202.05504356 -24.44533185 199.35312086 -24.44367981 196.65097046 C-24.44966467 194.71249635 -24.45647011 192.77402462 -24.46403503 190.83555603 C-24.48170703 185.57100731 -24.48639094 180.3065236 -24.48766661 175.04194808 C-24.48908814 171.75212856 -24.49335778 168.46232557 -24.49866104 165.17251015 C-24.5171656 153.69331436 -24.52533116 142.21416504 -24.52375793 130.73495483 C-24.52255656 120.03821629 -24.543657 109.34167954 -24.57524526 98.64499205 C-24.60140631 89.4584207 -24.61212529 80.27191526 -24.61084712 71.08530694 C-24.61033741 65.59987662 -24.61602522 60.1146256 -24.63720322 54.62923241 C-24.65658248 49.46881092 -24.65671206 44.30873982 -24.64216995 39.14830589 C-24.64008035 37.25690193 -24.64479177 35.36547606 -24.65689087 33.47410965 C-24.67236824 30.88655045 -24.66301925 28.30019572 -24.64762878 25.71266174 C-24.65791591 24.96896731 -24.66820304 24.22527288 -24.67880189 23.45904225 C-24.59440389 17.01230782 -22.44122973 11.87847196 -18.18830872 7.02523804 C-17.53733215 6.48640991 -16.88635559 5.94758179 -16.21565247 5.39242554 C-15.56725403 4.83812866 -14.91885559 4.28383179 -14.25080872 3.71273804 C-9.59095225 0.50203619 -5.60576104 0.01481604 0 0 Z M-7.15315247 20.26742554 C-8.52209633 23.95362569 -8.29543463 27.82177739 -8.28686523 31.70014954 C-8.28913079 32.45141304 -8.29139635 33.20267655 -8.29373056 33.97670561 C-8.30006343 36.49542148 -8.29924165 39.01408344 -8.29841614 41.5328064 C-8.30140804 43.33806935 -8.30481065 45.14333167 -8.30859375 46.94859314 C-8.31743403 51.85349766 -8.31977186 56.75838474 -8.32040954 61.66329646 C-8.3213587 65.75636338 -8.32503702 69.84942623 -8.32858163 73.94249159 C-8.33672605 83.59759862 -8.33916585 93.25269633 -8.3384552 102.9078064 C-8.33785417 112.87232209 -8.34841104 122.83678369 -8.36419886 132.80128568 C-8.37726674 141.35339327 -8.38263942 149.90548316 -8.38199979 158.45760065 C-8.38174461 163.56674861 -8.38460683 168.67584848 -8.39517784 173.7849865 C-8.40484633 178.58908631 -8.40494659 183.39309195 -8.39766121 188.19719505 C-8.39661386 189.96084989 -8.39898714 191.72451055 -8.40502167 193.48815536 C-8.41272329 195.89478752 -8.40810902 198.30109293 -8.40039062 200.7077179 C-8.40553419 201.4063597 -8.41067775 202.1050015 -8.41597718 202.82481426 C-8.37998063 207.90035141 -7.80599622 211.61458179 -4.15315247 215.26742554 C-0.69410037 216.5094189 2.72345688 216.39591615 6.36843872 216.40113831 C7.34832609 216.40453664 7.34832609 216.40453664 8.34800917 216.40800363 C10.5350586 216.41432936 12.72204583 216.41351519 14.90910339 216.41268921 C16.47791626 216.41568156 18.04672839 216.41908427 19.61553955 216.42286682 C23.87583705 216.43170255 28.13611446 216.43404474 32.39642024 216.43468261 C35.95265654 216.43563219 39.50888816 216.439311 43.06512266 216.4428547 C51.4545249 216.45099738 59.84391641 216.45343908 68.23332214 216.45272827 C76.88908347 216.45212728 85.54478252 216.46268382 94.20052809 216.47847193 C101.63162623 216.49154356 109.06270401 216.49691234 116.49381357 216.49627286 C120.9322682 216.49601779 125.37066746 216.49887388 129.80911064 216.50945091 C133.98285918 216.51912571 138.15649935 216.51921534 142.33025169 216.51193428 C143.86169849 216.51088772 145.39315201 216.51325556 146.92458725 216.51929474 C149.01594342 216.52700758 151.10692466 216.52237482 153.19827271 216.5146637 C154.95340888 216.51548085 154.95340888 216.51548085 156.74400234 216.51631451 C159.9956081 216.25549298 162.04509349 215.94400048 164.84684753 214.26742554 C167.84830653 209.82939578 168.276424 205.81152339 168.22106934 200.5941925 C168.22504374 199.84122015 168.22901815 199.0882478 168.23311299 198.3124581 C168.24270581 195.79977554 168.23093647 193.28766029 168.21916199 190.7749939 C168.22159093 188.96943451 168.22531124 187.16387647 168.23022461 185.35832214 C168.23962252 180.4617317 168.23021773 175.56534153 168.21689248 170.66876674 C168.20556934 165.54349538 168.20968612 160.41823376 168.2116394 155.29295349 C168.21252203 146.68732433 168.20144797 138.081774 168.18302917 129.47616577 C168.16185534 119.52636743 168.15835331 109.5766845 168.16459113 99.62686819 C168.17028512 90.05445325 168.16463915 80.48207896 168.15341759 70.90966988 C168.14877275 66.83601696 168.14789725 62.7623889 168.15000343 58.68873405 C168.15188665 53.89279768 168.14377983 49.09697884 168.12794304 44.30106926 C168.12369966 42.54064419 168.12285 40.78020719 168.12563324 39.01977921 C168.12885499 36.61761536 168.11977352 34.21580267 168.10754395 31.81367493 C168.11132327 31.11639737 168.11510259 30.41911981 168.11899644 29.70071262 C168.07331856 24.63182829 167.49492095 20.91549896 163.84684753 17.26742554 C160.38779544 16.02543217 156.97023819 16.13893492 153.32525635 16.13371277 C152.6719981 16.13144721 152.01873985 16.12918166 151.3456859 16.12684745 C149.15863647 16.12052171 146.97164924 16.12133589 144.78459167 16.12216187 C143.21577881 16.11916951 141.64696668 16.11576681 140.07815552 16.11198425 C135.81785802 16.10314853 131.5575806 16.10080634 127.29727483 16.10016847 C123.74103853 16.09921888 120.1848069 16.09554007 116.6285724 16.09199637 C108.23917017 16.0838537 99.84977866 16.08141199 91.46037292 16.0821228 C82.8046116 16.0827238 74.14891255 16.07216725 65.49316698 16.05637914 C58.06206883 16.04330752 50.63099105 16.03793874 43.19988149 16.03857821 C38.76142687 16.03883328 34.32302761 16.03597719 29.88458443 16.02540016 C25.71083588 16.01572536 21.53719572 16.01563574 17.36344337 16.02291679 C15.83199658 16.02396335 14.30054306 16.02159551 12.76910782 16.01555634 C10.67775165 16.00784349 8.58677041 16.01247626 6.49542236 16.02018738 C5.32533158 16.01964261 4.1552408 16.01909784 2.94969273 16.01853657 C-1.31635165 16.3607294 -4.11345545 17.22772852 -7.15315247 20.26742554 Z " fill="#069494" transform="translate(128.1531524658203,231.73257446289063)"/>
</svg>
