<?xml version="1.0" encoding="UTF-8"?>
<svg version="1.1" xmlns="http://www.w3.org/2000/svg" width="512" height="512">
<path d="M0 0 C0.82535538 -0.00175304 1.65071076 -0.00350607 2.50107691 -0.00531223 C5.28469832 -0.00998818 8.06826787 -0.00750264 10.85189152 -0.00507832 C12.86055849 -0.00694548 14.8692251 -0.0092458 16.87789112 -0.01194364 C22.41177123 -0.01807965 27.94563627 -0.01792594 33.47951901 -0.01674926 C39.44211094 -0.01654571 45.40469797 -0.02205961 51.36728764 -0.02680683 C63.05390505 -0.03512359 74.74051869 -0.03787506 86.42713862 -0.03841921 C95.92261629 -0.03887845 105.41809232 -0.04093519 114.91356945 -0.04411983 C117.64510204 -0.04501735 120.37663464 -0.04590717 123.10816723 -0.04679471 C123.78719752 -0.04701576 124.46622782 -0.04723681 125.16583479 -0.04746456 C144.2693317 -0.05361997 163.37282804 -0.05756499 182.47632599 -0.05712128 C183.55702017 -0.05709791 183.55702017 -0.05709791 184.65954657 -0.05707407 C188.31130295 -0.05699096 191.96305933 -0.05689192 195.6148157 -0.05678936 C196.34009198 -0.05676942 197.06536825 -0.05674947 197.81262259 -0.05672892 C199.27930784 -0.05668848 200.74599308 -0.05664669 202.21267833 -0.05660353 C225.03839105 -0.0559906 247.86408893 -0.06350007 270.6897974 -0.07717609 C296.32296838 -0.09252782 321.9561296 -0.10114288 347.58930546 -0.10021287 C350.32115241 -0.10013824 353.05299936 -0.10008953 355.78484631 -0.10005856 C356.45751747 -0.1000469 357.13018864 -0.10003525 357.82324378 -0.10002324 C368.66017702 -0.09999243 379.49709739 -0.10638515 390.33402679 -0.11499082 C401.21980731 -0.12345668 412.10556804 -0.12429364 422.99134999 -0.1178815 C428.89161562 -0.11460532 434.7918345 -0.11459902 440.69209576 -0.12323475 C446.08867656 -0.1310523 451.48517316 -0.12971728 456.88175178 -0.12095062 C458.83863996 -0.11940511 460.79553428 -0.12127093 462.75241523 -0.12681069 C465.40384357 -0.13382214 468.05497255 -0.12861558 470.70639038 -0.12025452 C471.47342815 -0.1252227 472.24046592 -0.13019088 473.03074726 -0.13530961 C478.02631391 -0.10180195 481.48390408 0.61706935 485.70484596 3.24029022 C487.70292015 6.355246 487.32669473 9.7580895 487.2964325 13.34214211 C487.30109241 14.19365722 487.30575233 15.04517233 487.31055346 15.92249092 C487.32258896 18.80124947 487.31307525 21.67954347 487.30379581 24.55830669 C487.30796499 26.63282262 487.3134402 28.70733626 487.32011563 30.78184563 C487.33464357 36.50238177 487.33030267 42.22277474 487.32294881 47.94331896 C487.31823754 54.10496847 487.33070883 60.26658608 487.34096622 66.42822552 C487.35720254 77.80812426 487.35959117 89.18796501 487.35466123 100.56786869 C487.35010919 111.08027219 487.3506968 121.59265859 487.35650158 132.10506153 C487.35725844 133.51359218 487.35801442 134.92212283 487.35876952 136.33065348 C487.35991468 138.45301995 487.36106456 140.57538643 487.36222877 142.69775289 C487.37293857 162.43748602 487.37765409 182.17721344 487.36975861 201.91694832 C487.36946143 202.66152811 487.36916426 203.4061079 487.36885808 204.17325071 C487.36640899 210.22028632 487.36379748 216.26732187 487.36117395 222.3143574 C487.35107038 245.90522743 487.35942704 269.4960263 487.3826685 293.08688641 C487.40872174 319.57483913 487.42159421 346.06274901 487.41448075 372.55071503 C487.41376465 375.37327388 487.41309027 378.19583274 487.4124403 381.01839161 C487.41227049 381.71340711 487.41210068 382.40842261 487.41192573 383.12449918 C487.40961959 393.63096926 487.4176147 404.13739964 487.43073177 414.64386082 C487.44561708 426.58812855 487.4461453 438.53229973 487.42866086 450.47657352 C487.42011325 456.57522981 487.41809264 462.67370781 487.43331242 468.77235508 C487.44705793 474.34911997 487.44252801 479.92555215 487.42307318 485.50229729 C487.4192815 487.52581755 487.42232513 489.54936383 487.43268483 491.57286113 C487.44571769 494.31207731 487.43439482 497.05012156 487.41668701 499.78928566 C487.42633752 500.58490582 487.43598804 501.38052598 487.44593099 502.20025584 C487.40157187 505.51532795 487.1382313 507.76434578 485.39805609 510.61838347 C481.89532015 512.74978459 478.68389417 512.67962294 474.70449924 512.63199902 C473.86533728 512.63781278 473.02617531 512.64362654 472.1615842 512.64961648 C469.33073541 512.66429246 466.50074338 512.65029597 463.66989994 512.63656902 C461.62751778 512.64117493 459.58513892 512.64752575 457.54276705 512.655478 C451.91565829 512.67223698 446.28881951 512.66389514 440.66170955 512.65153313 C434.59891471 512.64251177 428.53616748 512.65643784 422.473382 512.66745281 C411.2779469 512.68424293 400.08259866 512.68274365 388.88716532 512.67180694 C378.54552344 512.66175361 368.20391326 512.65911374 357.86226749 512.66389751 C357.1768813 512.66420305 356.4914951 512.6645086 355.78533962 512.66482339 C353.00329091 512.6660687 350.22124221 512.6673423 347.43919353 512.66866245 C321.32944714 512.68090465 295.21975584 512.6697948 269.11001795 512.64827486 C245.90163692 512.62929174 222.69334368 512.63099022 199.48496342 512.65011883 C173.42366231 512.67152693 147.36240989 512.68003651 121.30110121 512.66766977 C118.52405549 512.66638686 115.74700976 512.6651355 112.96996403 512.66389751 C111.94425834 512.66342305 111.94425834 512.66342305 110.89783132 512.662939 C100.56145979 512.65838479 90.22512341 512.66371823 79.88875675 512.67381573 C68.13848166 512.68523706 56.38829043 512.68204083 44.63802183 512.66069275 C38.63859918 512.65015348 32.63935506 512.64610943 26.63993359 512.65928936 C21.15387131 512.67115956 15.66815398 512.66473975 10.18212324 512.64337915 C8.19160956 512.63889021 6.20106706 512.64123026 4.21057171 512.6508823 C1.51587079 512.66295238 -1.17763069 512.65066762 -3.87226772 512.63199902 C-5.04601705 512.64604601 -5.04601705 512.64604601 -6.24347848 512.66037679 C-9.52525745 512.6145737 -11.74004475 512.33789834 -14.56564999 510.61820889 C-16.72307071 507.08050747 -16.63459332 503.81301534 -16.5872488 499.79207897 C-16.59306257 498.93941002 -16.59887633 498.08674106 -16.60486627 497.20823365 C-16.61954377 494.33144229 -16.60554499 491.45549381 -16.59181881 488.5787077 C-16.59642466 486.5033272 -16.60277543 484.42794996 -16.61072779 482.35257959 C-16.62748761 476.63425968 -16.61914454 470.91620542 -16.60678291 465.19788432 C-16.59776191 459.03692936 -16.61168746 452.87602125 -16.6227026 446.71507549 C-16.63949306 435.33827091 -16.63799327 423.96157511 -16.62705673 412.5847732 C-16.61700356 402.07561638 -16.61436345 391.56649077 -16.6191473 381.05733013 C-16.61945284 380.36085316 -16.61975838 379.66437619 -16.62007318 378.94679385 C-16.62131849 376.11972956 -16.62259208 373.29266528 -16.62391224 370.46560103 C-16.63615455 343.93315625 -16.6250444 317.40076569 -16.60352465 290.86832928 C-16.58454152 267.28400743 -16.58624 243.69977196 -16.60536861 220.11545086 C-16.62677652 193.63224826 -16.63528641 167.14909359 -16.62291956 140.66588354 C-16.62163665 137.84390196 -16.62038529 135.02192037 -16.6191473 132.19993877 C-16.61883099 131.50506978 -16.61851468 130.81020078 -16.61818879 130.09427514 C-16.6136345 119.59045125 -16.61896817 109.08666194 -16.62906551 98.58284283 C-16.64048664 86.64225393 -16.63729108 74.7017671 -16.61594254 62.76118219 C-16.60540299 56.66454771 -16.6013597 50.5680889 -16.61453915 44.47145557 C-16.62640875 38.89657499 -16.61999051 33.32203387 -16.59862894 27.74718434 C-16.59413975 25.72436933 -16.5964806 23.70152596 -16.60613209 21.678729 C-16.6182008 18.94046813 -16.60591869 16.20338791 -16.5872488 13.46518993 C-16.59661347 12.66985562 -16.60597813 11.87452131 -16.61562657 11.05508596 C-16.56788281 7.57958521 -16.36788757 5.5205781 -14.30242395 2.67009974 C-9.82054475 -0.4439582 -5.30676354 -0.01417649 0 0 Z M0.91611576 18.12863445 C0.91611576 175.53863445 0.91611576 332.94863445 0.91611576 495.12863445 C3.30351318 492.74123703 3.52996242 491.35781868 4.30899906 488.10035992 C4.56706333 487.03623882 4.8251276 485.97211773 5.091012 484.87575054 C5.36748569 483.70325253 5.64395939 482.53075451 5.92881107 481.32272625 C6.22492283 480.0917622 6.52103458 478.86079815 6.82611942 477.59253216 C7.63875359 474.21186502 8.44193235 470.82901921 9.24263954 467.44550967 C9.74323263 465.33210933 10.24585251 463.21920183 10.7492075 461.10645771 C12.5049723 453.73676926 14.2531065 446.36531817 15.99424076 438.99215984 C17.61776421 432.1179391 19.25785112 425.24781567 20.90573525 418.37939805 C22.31945081 412.48376917 23.72154541 406.58545573 25.11464477 400.68492156 C25.9470227 397.1602343 26.78407156 393.63681889 27.63282871 390.11603642 C28.57907215 386.1887849 29.50110896 382.25623409 30.42099857 378.32272625 C30.70556919 377.15630093 30.99013981 375.9898756 31.28333378 374.78810406 C31.53011875 373.71552349 31.77690372 372.64294292 32.03116703 371.53785992 C32.2516433 370.60852485 32.47211956 369.67918978 32.69927692 368.72169304 C32.95867552 365.61968523 32.24115072 363.91360695 30.91611576 361.12863445 C28.53250869 353.97781324 29.71488046 347.93571313 32.48520756 341.05856609 C41.45617437 318.50543865 44.9706909 296.3038565 47.24814701 272.3122282 C47.32399194 271.51348923 47.39983687 270.71475026 47.47798014 269.89180708 C48.41046313 259.99050537 49.26314887 250.08297541 50.08781135 240.17218173 C50.80017065 231.63743999 51.57144426 223.10828457 52.34492934 214.57890308 C53.48363545 201.99869003 54.60317044 189.41667824 55.6643095 176.82966518 C55.83177034 174.84764171 56.0018738 172.86584207 56.17206669 170.88405132 C57.77771318 161.29040139 57.77771318 161.29040139 55.59580326 152.5544157 C55.00025639 152.18703289 54.40470951 151.81965008 53.79111576 151.44113445 C47.58100822 146.77093163 44.03274441 138.71919996 42.91611576 131.12863445 C42.40376178 120.88155477 44.43076983 112.31056877 50.91611576 104.12863445 C52.4372927 102.90857786 54.0014654 101.74022412 55.60361576 100.62863445 C60.06408269 97.46386242 61.05503855 94.84047579 62.25986576 89.6169157 C64.10486221 82.62130418 68.93205356 77.02927074 74.91611576 73.12863445 C84.08401675 68.50777614 92.70785409 67.9813024 102.7925806 67.93918133 C104.40104359 67.92674137 104.40104359 67.92674137 106.04200077 67.9140501 C108.36039001 67.89670831 110.67879619 67.88152572 112.99721241 67.86827374 C116.66103204 67.84718891 120.32476561 67.820175 123.98853397 67.79159832 C133.08019554 67.72188907 142.17191772 67.66221921 151.26364994 67.60257244 C158.96040107 67.55173791 166.65710379 67.4969726 174.35378742 67.43675518 C177.97288694 67.41009927 181.59199082 67.38934115 185.21112919 67.36874676 C187.41276106 67.35215458 189.61439086 67.33528371 191.8160181 67.31808758 C193.33700108 67.31181095 193.33700108 67.31181095 194.88871098 67.30540752 C195.80552647 67.29706387 196.72234196 67.28872021 197.66693974 67.28012371 C198.46810404 67.27496998 199.26926834 67.26981625 200.09471035 67.26450634 C201.93591383 67.32635153 201.93591383 67.32635153 202.91611576 66.12863445 C203.15471419 64.73705882 203.33441281 63.33529232 203.48862553 61.93185711 C203.58865376 61.04068188 203.68868198 60.14950665 203.79174137 59.2313261 C203.89594898 58.26157848 204.00015659 57.29183086 204.10752201 56.29269695 C204.21708729 55.3024049 204.32665257 54.31211285 204.439538 53.29181194 C204.67100889 51.19207205 204.90036212 49.09209782 205.12778568 46.9919157 C205.47641584 43.77394052 205.83142645 40.55672004 206.18760014 37.33957195 C206.41128373 35.30315492 206.63460306 33.26669783 206.85752201 31.23019695 C206.96375385 30.2644978 207.06998569 29.29879864 207.17943668 28.30383587 C207.27631275 27.40635632 207.37318882 26.50887676 207.47300053 25.58420086 C207.55880878 24.79445873 207.64461704 24.00471661 207.73302555 23.1910429 C207.96032935 20.9756797 207.96032935 20.9756797 207.91611576 18.12863445 C139.60611576 18.12863445 71.29611576 18.12863445 0.91611576 18.12863445 Z M225.91611576 18.12863445 C224.77162455 20.41761688 224.60896434 22.12541987 224.343606 24.67013836 C224.24357777 25.61096264 224.14354954 26.55178692 224.04049015 27.52112103 C223.93628254 28.53886608 223.83207493 29.55661114 223.72470951 30.60519695 C223.61514423 31.64558117 223.50557896 32.68596539 223.39269352 33.7578764 C223.04268913 37.0894257 222.69809512 40.42150978 222.35361576 43.75363445 C222.11764307 46.00888 221.88131947 48.26408887 221.64463139 50.51925945 C221.0637201 56.05524206 220.49012158 61.59191411 219.91611576 67.12863445 C230.14611576 67.12863445 240.37611576 67.12863445 250.91611576 67.12863445 C250.2254294 60.6321048 249.53273902 54.13585591 248.83481693 47.64010906 C248.59793881 45.42962546 248.36225567 43.21901346 248.12778568 41.00827312 C247.79083101 37.83320549 247.4496013 34.65862228 247.10752201 31.4841032 C247.0033144 30.49339321 246.89910679 29.50268322 246.79174137 28.48195171 C246.64169903 27.10085972 246.64169903 27.10085972 246.48862553 25.69186687 C246.40202168 24.88134365 246.31541782 24.07082043 246.22618961 23.23573589 C245.9516338 20.94395374 245.9516338 20.94395374 244.91611576 18.12863445 C238.64611576 18.12863445 232.37611576 18.12863445 225.91611576 18.12863445 Z M262.91611576 18.12863445 C260.93773836 44.99552469 260.93773836 44.99552469 268.91611576 67.12863445 C270.42198756 67.23219081 271.93267326 67.26658885 273.44208622 67.27339458 C274.4204343 67.28029308 275.39878239 67.28719158 276.40677738 67.29429913 C278.03054295 67.29821918 278.03054295 67.29821918 279.68711185 67.30221844 C280.82050999 67.30890545 281.95390812 67.31559246 283.12165165 67.32248211 C285.59400558 67.33657462 288.06637286 67.34845513 290.53874683 67.35842991 C294.45687218 67.37480056 298.37490002 67.39804095 302.29297733 67.42332745 C313.43732411 67.49452687 324.58171929 67.55406285 335.72617435 67.60544109 C342.53549341 67.63691738 349.34469871 67.67865051 356.1539278 67.72563648 C358.74610904 67.74160582 361.33831532 67.75395064 363.9305315 67.76254368 C367.57085679 67.77477643 371.21093031 67.79896321 374.85117435 67.82565594 C376.44457645 67.82653965 376.44457645 67.82653965 378.0701685 67.82744122 C390.63056471 67.94871331 401.21912129 69.67674036 410.72861576 78.37863445 C415.17092522 83.09794704 417.08489009 88.71808001 419.16611576 94.75363445 C420.87433202 98.04805152 422.00210192 99.2264621 424.79111576 101.50363445 C431.36463589 106.88087058 435.31839884 114.71443116 436.25205326 123.1716032 C436.38598651 133.95322951 434.57812846 141.54182987 427.22861576 149.62863445 C426.44099857 150.42269695 425.65338139 151.21675945 424.84189701 152.03488445 C422.45482476 154.63015976 421.88741815 156.25765978 422.00333118 159.77562904 C422.10359734 160.84868073 422.20386349 161.92173243 422.30716801 163.02730083 C422.41925602 164.25937771 422.53134403 165.49145458 422.64682865 166.76086712 C422.77780007 168.12883021 422.9089082 169.49678022 423.0401392 170.86471844 C423.17357341 172.30375214 423.30647461 173.74283536 423.43888187 175.18196392 C423.80080397 179.09627787 424.17089711 183.00977915 424.54293442 186.92314315 C424.85331125 190.19510378 425.15987047 193.4674176 425.46647763 196.73973328 C426.19088473 204.46978256 426.92204362 212.19917326 427.6573267 219.928195 C428.41370541 227.88023719 429.15869622 235.83328728 429.8979919 243.78693432 C430.53418251 250.62683169 431.17761348 257.46602231 431.82671857 264.30470616 C432.21379997 268.38362434 432.59820828 272.46274746 432.97561741 276.54257298 C433.33173188 280.38880642 433.6969619 284.23407229 434.06887913 288.07880878 C434.20306305 289.48122946 434.33417485 290.88394845 434.46178532 292.28698254 C435.48480325 303.50143495 437.6897526 313.98277102 441.36142826 324.6169157 C441.80288082 325.91312389 442.24428574 327.2093483 442.68564701 328.50558758 C443.36628119 330.48514382 444.04900752 332.46396042 444.73301029 334.44235516 C445.40601349 336.39463843 446.07148177 338.34937637 446.73642826 340.3044157 C447.13104252 341.44821697 447.52565678 342.59201824 447.93222904 343.77048016 C449.49436589 349.10228966 450.55878164 353.6563307 448.54111576 358.94113445 C448.26525639 359.69007977 447.98939701 360.43902508 447.70517826 361.2106657 C446.91611576 363.12863445 446.91611576 363.12863445 445.91611576 365.12863445 C446.40004616 367.74208053 446.95846922 370.2820033 447.59092045 372.86032391 C447.78102695 373.65903408 447.97113346 374.45774426 448.16700077 375.28065777 C448.80075335 377.93603305 449.44437259 380.58891596 450.08799076 383.2419157 C450.53126135 385.09106551 450.9738997 386.94036699 451.41593266 388.78981304 C452.58577972 393.67716767 453.76390422 398.56249028 454.94382572 403.44742107 C456.13195945 408.37194121 457.31297596 413.29816607 458.49424076 418.22433758 C459.82744664 423.78347221 461.161261 429.34244925 462.5012598 434.89995098 C464.6862763 443.96588864 466.84534498 453.03576745 468.91611576 462.12863445 C469.24611576 462.12863445 469.57611576 462.12863445 469.91611576 462.12863445 C469.91611576 315.60863445 469.91611576 169.08863445 469.91611576 18.12863445 C401.60611576 18.12863445 333.29611576 18.12863445 262.91611576 18.12863445 Z M81.91611576 89.12863445 C80.7092015 91.18591703 80.7092015 91.18591703 79.91611576 93.12863445 C80.71275639 93.3709782 81.50939701 93.61332195 82.33017826 93.86300945 C92.98009534 97.23159636 100.39142809 101.60518017 106.24814701 111.3434782 C110.01186814 119.33639834 110.304882 128.54386327 108.18564701 137.06613445 C106.73096711 140.9611141 105.30870064 143.70473892 102.45343876 146.78772259 C98.3068407 152.61674457 98.52251334 160.02327456 97.95566654 166.9269743 C97.80735605 168.53916872 97.65716475 170.15119106 97.50524235 171.76304913 C97.09950554 176.12719369 96.7207158 180.49329662 96.34727812 184.86030817 C95.95159695 189.43914609 95.53269801 194.01586363 95.11676884 198.59289837 C94.4216452 206.2799965 93.74302534 213.96840767 93.07529545 221.65793133 C92.30442607 230.53403918 91.51242132 239.40805118 90.70791161 248.2811693 C89.84990464 257.74539737 89.00567592 267.21081484 88.16638422 276.67671919 C87.92448018 279.39586802 87.68021664 282.11479665 87.43549824 284.8336935 C87.05088428 289.11589688 86.6756766 293.3988285 86.30756283 297.68248081 C86.17153775 299.24960751 86.03253505 300.81647921 85.89025021 302.38304996 C84.98441186 312.38535148 84.940493 321.29975579 87.14267826 331.15988445 C87.48299076 332.74736492 87.48299076 332.74736492 87.83017826 334.3669157 C88.30449371 336.54303326 88.78628149 338.71753543 89.27549076 340.8903532 C90.88802647 348.49892686 92.10510881 355.33437983 88.04111576 362.37863445 C87.33986576 363.28613445 86.63861576 364.19363445 85.91611576 365.12863445 C83.69270999 368.5086113 82.37710578 371.45269139 81.45440006 375.38600445 C81.2062656 376.4249284 80.95813114 377.46385235 80.70247746 378.53425884 C80.31189907 380.2277924 80.31189907 380.2277924 79.91343021 381.95553875 C79.63013859 383.15274548 79.34684696 384.3499522 79.05497074 385.58343792 C78.28232212 388.85655083 77.51738593 392.1312827 76.75599027 395.40701938 C75.95715599 398.83611151 75.14886315 402.2629732 74.34169865 405.69011211 C72.98861962 411.44115518 71.64193716 417.1936645 70.29966068 422.94723797 C68.57558277 430.33726618 66.8415008 437.72490785 65.10407066 445.11180687 C63.61066971 451.46128292 62.12123846 457.81168896 60.63276744 464.16232228 C60.15383506 466.20525025 59.67447299 468.24807711 59.19510174 470.29090214 C58.30400895 474.08988978 57.41702665 477.88983036 56.53061771 481.68991375 C56.13093029 483.39255634 56.13093029 483.39255634 55.72316837 485.12959576 C55.36365589 486.67529247 55.36365589 486.67529247 54.99688053 488.25221539 C54.68194126 489.60027531 54.68194126 489.60027531 54.36063957 490.97556877 C53.84871695 493.08867025 53.84871695 493.08867025 53.91611576 495.12863445 C85.59611576 495.12863445 117.27611576 495.12863445 149.91611576 495.12863445 C147.93611576 480.27863445 147.93611576 480.27863445 145.91611576 465.12863445 C142.28611576 462.81863445 138.65611576 460.50863445 134.91611576 458.12863445 C124.84506352 448.34949677 118.80510178 436.42890937 118.53574467 422.27878094 C118.56909376 407.3762819 122.2381743 394.97934633 132.66611576 383.87863445 C143.68180508 373.4924131 156.59753037 369.77436488 171.47080326 369.90988445 C180.20003278 370.46412125 188.13424653 373.25735102 195.91611576 377.12863445 C199.90063913 367.51126698 202.04204302 361.15289434 197.91611576 351.12863445 C197.17275964 349.02943864 196.44370417 346.92512709 195.72861576 344.81613445 C195.38443607 343.87125164 195.04025639 342.92636883 194.68564701 341.9528532 C193.63366127 338.09201214 193.02355931 335.03354512 194.78012943 331.28464031 C195.98728494 329.22238423 197.2716263 327.23744854 198.60361576 325.25363445 C199.03867435 324.58461102 199.47373295 323.91558758 199.92197514 323.2262907 C200.35703373 322.55726727 200.79209232 321.88824383 201.24033451 321.19894695 C201.89050541 320.18344769 201.89050541 320.18344769 202.55381107 319.14743328 C203.91611576 317.12863445 203.91611576 317.12863445 205.47373295 315.240695 C207.80047323 312.22482218 209.02846093 310.33891336 208.66782475 306.45382977 C207.87577973 303.44655373 206.89487779 300.59809106 205.79111576 297.69113445 C205.26904545 296.18389812 205.26904545 296.18389812 204.73642826 294.64621258 C203.40885303 290.05498536 203.40885303 290.05498536 200.91611576 286.12863445 C193.96636378 285.89547178 187.18415587 286.47575643 180.27549076 287.1872282 C179.19028141 287.29583675 178.10507206 287.4044453 176.98697758 287.51634502 C174.70760857 287.74541626 172.42845565 287.97664691 170.1495142 288.20993328 C166.6633764 288.56641457 163.17655045 288.91543601 159.68955326 289.26340008 C157.46815484 289.48757138 155.2467991 289.71216605 153.02549076 289.9372282 C151.98584171 290.04143581 150.94619267 290.14564342 149.8750391 290.25300884 C148.90342838 290.35303707 147.93181767 290.4530653 146.9307642 290.55612469 C146.08076847 290.64272854 145.23077274 290.72933239 144.35501957 290.8185606 C139.4035514 291.22292729 139.4035514 291.22292729 135.36362553 293.6847868 C129.30257527 303.13870553 129.30257527 303.13870553 128.4932642 313.88888836 C130.80714575 319.78116558 134.17626027 325.04260313 137.91611576 330.12863445 C140.95687698 328.71617945 143.51513838 327.03899042 146.18174076 325.01144695 C146.98998295 324.40429852 147.79822514 323.79715008 148.63095951 323.1716032 C150.30736935 321.90331779 151.98188429 320.63252341 153.65439701 319.3591032 C162.34776431 312.84252201 170.50209069 309.41551536 180.91611576 306.37863445 C182.50746342 305.90490398 182.50746342 305.90490398 184.13095951 305.4216032 C186.72413253 304.65065987 189.3191032 303.88652247 191.91611576 303.12863445 C192.03728764 303.69711102 192.15845951 304.26558758 192.28330326 304.8512907 C193.3293363 309.6710891 194.5081606 314.40192785 195.91611576 319.12863445 C195.31887699 319.29766277 194.72163822 319.46669109 194.10630131 319.64084148 C178.26531483 324.26636713 166.64569586 330.76561595 153.91611576 341.12863445 C151.21031349 343.28550487 148.47740954 345.40200476 145.72861576 347.50363445 C145.15304935 347.97390057 144.57748295 348.44416668 143.98447514 348.92868328 C140.964534 351.24869932 138.50188148 352.46098992 134.74033451 352.66769695 C130.30387687 352.04233316 129.69550191 351.47847267 126.91611576 348.12863445 C125.53956916 345.76060774 124.27503637 343.43134681 123.06064701 340.9841032 C122.71354176 340.29609127 122.3664365 339.60807934 122.0088129 338.89921856 C121.2796591 337.44798971 120.5545784 335.99470801 119.83335209 334.53952312 C118.73416145 332.3272957 117.61614517 330.12533184 116.49619389 327.92355633 C115.78734966 326.50681938 115.07962992 325.08951914 114.37314701 323.6716032 C114.04087605 323.02031948 113.70860508 322.36903576 113.3662653 321.69801617 C111.3124886 317.50671275 110.2149369 313.78982339 109.91611576 309.12863445 C111.13095951 305.6716032 111.13095951 305.6716032 112.85361576 302.31613445 C115.08460291 298.4013422 115.08460291 298.4013422 115.91611576 294.12863445 C114.69924076 294.19050945 113.48236576 294.25238445 112.22861576 294.31613445 C108.33362373 294.32304047 106.03921451 293.58925771 102.91611576 291.12863445 C100.71983352 286.73606998 101.56483409 280.89582458 101.51108646 276.01999187 C101.48972587 274.57020204 101.45589094 273.12053311 101.4085474 271.67135906 C101.0619756 260.94736677 102.46516623 253.6136765 107.91611576 244.12863445 C107.11174076 243.67488445 106.30736576 243.22113445 105.47861576 242.75363445 C102.91611576 241.12863445 102.91611576 241.12863445 101.91611576 239.12863445 C101.58186925 233.58631867 101.51662801 228.04350102 101.45615482 222.49215984 C101.42968865 220.6406577 101.38892072 218.78929886 101.33310795 216.93844891 C100.81308405 199.47535735 100.81308405 199.47535735 107.32627201 191.06882 C110.90310114 184.45399303 109.781164 176.09038548 109.66611576 168.75363445 C109.64730057 166.1682348 109.63863754 163.58356953 109.64640141 160.99811077 C109.64906147 159.40090078 109.63556249 157.80355445 109.60331059 156.2066679 C109.58575315 151.66061812 110.01577563 148.6976993 112.91611576 145.12863445 C115.1155648 144.10924246 117.32504585 143.11137056 119.54111576 142.12863445 C122.4211981 140.54006711 124.2378583 138.98012417 125.91611576 136.12863445 C127.73875465 127.64595345 127.26662946 118.7237355 126.91709232 110.10202312 C126.9162462 107.52578702 127.14094285 105.56462649 127.91611576 103.12863445 C135.55501011 101.00839015 143.2198045 99.03007606 150.91611576 97.12863445 C150.91611576 93.16863445 150.91611576 89.20863445 150.91611576 85.12863445 C143.10089951 85.03798687 135.28597458 84.96471989 127.47037601 84.92138577 C123.84059845 84.9005793 120.21120161 84.87239092 116.5816431 84.82687664 C113.07380313 84.78316786 109.56632756 84.75944524 106.05823612 84.74912548 C104.07966933 84.73822192 102.10124755 84.70703611 100.12290287 84.67544842 C92.94517933 84.67367187 87.91177056 85.0129425 81.91611576 89.12863445 Z M168.91611576 85.12863445 C168.91611576 91.06863445 168.91611576 97.00863445 168.91611576 103.12863445 C176.30913972 105.90101844 183.64660476 108.16264083 191.22861576 110.31613445 C192.5157846 110.6876733 193.80289444 111.0594166 195.08994389 111.43136883 C196.30746342 111.77877117 197.52498295 112.12617352 198.77939701 112.4841032 C199.88581547 112.80016521 200.99223392 113.11622723 202.13218021 113.44186687 C204.92366384 114.24838912 204.92366384 114.24838912 207.91611576 114.12863445 C210.81400276 108.33286045 207.41209155 99.57011781 205.91611576 93.56613445 C205.73798344 92.85118816 205.55985111 92.13624187 205.37632084 91.39963055 C204.70476436 87.98226579 204.70476436 87.98226579 202.91611576 85.12863445 C200.395175 85.04015702 197.90180683 85.01336144 195.38095951 85.0309782 C194.62770893 85.03239315 193.87445835 85.0338081 193.098382 85.03526592 C190.68342016 85.04088069 188.26854975 85.05343562 185.85361576 85.06613445 C184.22015355 85.07114755 182.5866899 85.07571079 180.95322514 85.07980633 C176.94079146 85.0900057 172.92855641 85.10957801 168.91611576 85.12863445 Z M221.91611576 85.12863445 C223.47006668 93.84377728 223.47006668 93.84377728 225.66611576 102.19113445 C227.52991322 109.60828759 226.09751413 114.73791406 223.62314701 121.83957195 C223.39498295 122.49594646 223.16681889 123.15232098 222.93174076 123.82858562 C222.25820378 125.73249692 221.550785 127.6243196 220.84189701 129.5153532 C219.2061303 135.89967475 221.10140577 140.92085487 223.29160404 146.89010906 C226.55350244 155.93909969 227.70547093 161.9774706 223.91611576 171.12863445 C223.15062807 173.22721635 222.4005826 175.33149566 221.66611576 177.44113445 C221.31033451 178.36539227 220.95455326 179.28965008 220.58799076 180.2419157 C218.86476761 187.645764 222.44256094 195.0550211 225.00791264 201.92550945 C227.08022667 207.98078165 226.93316167 212.08370725 224.91611576 218.12863445 C224.58897587 219.10993328 224.58897587 219.10993328 224.25522709 220.11105633 C223.16771943 223.22027956 222.00021384 226.29913394 220.84189701 229.3825407 C219.172097 236.13924201 220.85356106 241.42614779 223.24106693 247.72311687 C226.18117612 255.49655584 228.01700018 261.12005106 224.91611576 269.12863445 C224.24620904 271.02202351 223.57721792 272.91579596 222.92514896 274.81540203 C222.26004878 276.72584578 221.55196795 278.62116398 220.84189701 280.5153532 C218.85358968 288.27562442 222.16919886 294.97970794 224.85752201 302.21457195 C226.50365653 307.67851507 227.34481984 312.45255092 224.56186771 317.66525555 C222.07957949 321.32139181 219.41877918 324.81657274 216.71689701 328.3122282 C213.1474072 332.98591887 213.1474072 332.98591887 211.82724857 338.54269695 C212.81465168 343.3672753 214.96854272 347.58429736 216.91611576 352.12863445 C229.12611576 352.12863445 241.33611576 352.12863445 253.91611576 352.12863445 C257.87969791 343.09977717 257.87969791 343.09977717 258.91611576 337.12863445 C257.91250609 334.70250963 257.91250609 334.70250963 256.24033451 332.4059782 C255.65961185 331.53779461 255.0788892 330.66961102 254.48056889 329.77511883 C253.86117435 328.88115398 253.24177982 327.98718914 252.60361576 327.06613445 C251.39762292 325.28464132 250.19313701 323.5021269 248.99033451 321.7184782 C248.44981449 320.93335857 247.90929447 320.14823895 247.35239506 319.33932781 C243.86830874 313.97668943 243.86830874 313.97668943 244.09580326 309.94113445 C245.22235294 304.7053607 247.03114733 299.80392861 248.92002201 294.80050945 C252.17746909 285.63601719 249.2345954 278.59305112 245.91220951 269.88840008 C242.47693851 260.26471028 245.35105475 253.08145455 249.00791264 243.92746258 C251.16401046 238.01985649 250.84567443 234.06121871 248.91611576 228.12863445 C248.6980225 227.43745525 248.47992924 226.74627605 248.25522709 226.03415203 C247.37821908 223.3392165 246.46373167 220.65992006 245.50791264 217.9919157 C242.57467637 209.20080876 245.81434418 202.02710495 248.92002201 193.80050945 C252.18565123 184.61299757 249.2106374 177.53767843 245.91220951 168.80050945 C242.64658029 159.61299757 245.62159413 152.53767843 248.92002201 143.80050945 C252.17746909 134.63601719 249.2345954 127.59305112 245.91220951 118.88840008 C244.00372903 113.54191528 243.65401629 109.65643975 244.91611576 104.12863445 C245.07080326 103.44341717 245.22549076 102.75819988 245.38486576 102.05221844 C245.8859929 99.9644315 246.42430557 97.8903906 246.97861576 95.81613445 C248.42469831 90.54934454 248.42469831 90.54934454 248.91611576 85.12863445 C240.00611576 85.12863445 231.09611576 85.12863445 221.91611576 85.12863445 Z M267.91611576 85.12863445 C262.67863767 99.86493092 262.67863767 99.86493092 262.91611576 115.12863445 C266.08672576 116.15537735 268.02396921 116.07800767 271.20981693 115.15646648 C272.0471587 114.91936962 272.88450047 114.68227276 273.74721622 114.43799114 C274.64213276 114.17348156 275.53704929 113.90897198 276.45908451 113.63644695 C277.84538815 113.23835323 277.84538815 113.23835323 279.25969791 112.83221722 C281.21023095 112.27012396 283.15940141 111.70328379 285.10727787 111.13205242 C288.09991618 110.25471904 291.09637185 109.39161352 294.09385014 108.5309782 C295.98666675 107.98362518 297.87925321 107.43547548 299.77158451 106.88644695 C300.67257374 106.62598583 301.57356297 106.36552471 302.5018549 106.09717083 C303.32974018 105.85376965 304.15762547 105.61036846 305.01059818 105.35959148 C305.74243824 105.14561718 306.4742783 104.93164288 307.22829533 104.7111845 C308.92849398 104.26215989 308.92849398 104.26215989 309.91611576 103.12863445 C309.91611576 97.18863445 309.91611576 91.24863445 309.91611576 85.12863445 C296.05611576 85.12863445 282.19611576 85.12863445 267.91611576 85.12863445 Z M327.91611576 85.12863445 C327.91611576 89.08863445 327.91611576 93.04863445 327.91611576 97.12863445 C329.31345951 97.4431657 330.71080326 97.75769695 332.15049076 98.08175945 C333.98920991 98.51329558 335.82774205 98.94562908 337.66611576 99.37863445 C339.0467017 99.68607586 339.0467017 99.68607586 340.45517826 99.9997282 C341.34463139 100.21242352 342.23408451 100.42511883 343.15049076 100.64425945 C343.96743412 100.83278484 344.78437748 101.02131023 345.6260767 101.21554852 C348.59223 102.39821519 350.01581107 103.55158307 351.91611576 106.12863445 C352.27158451 109.20968914 352.27158451 109.20968914 352.10361576 112.80050945 C352.07074467 114.75730633 352.07074467 114.75730633 352.03720951 116.75363445 C351.98578878 118.81438164 351.91663841 120.86914071 351.80332279 122.92746258 C351.57109931 127.5452654 351.59923594 131.6803369 352.91611576 136.12863445 C357.20129427 140.52507502 362.12180199 143.19719653 367.91611576 145.12863445 C369.39172762 149.08391508 369.01457328 153.28219741 368.98642826 157.4450407 C368.9950199 159.11367089 369.00549857 160.78229222 369.01767826 162.45090008 C369.03428515 165.06233418 369.04130524 167.67179099 369.01572514 170.28317547 C368.58615488 182.11351757 368.58615488 182.11351757 373.42392826 192.50363445 C378.85009821 199.64497307 377.88927646 208.09785172 377.71885014 216.68307781 C377.66576714 219.58519424 377.67780256 222.4820486 377.69736576 225.38449383 C377.68556442 227.23543361 377.67007267 229.08635438 377.65049076 230.9372282 C377.65433781 231.80077419 377.65818485 232.66432018 377.66214848 233.55403423 C377.49692654 239.54130709 377.49692654 239.54130709 374.37021732 242.70309734 C373.56036381 243.17352459 372.75051029 243.64395184 371.91611576 244.12863445 C372.87928807 247.24042191 373.84801858 250.0095928 375.4698267 252.84469891 C377.16079776 256.68420798 377.31641319 259.93533531 377.24424076 264.0466032 C377.24236759 264.78566402 377.24049442 265.52472485 377.23856449 266.28618145 C377.231877 267.83844846 377.21802873 269.39069956 377.19736576 270.94284344 C377.16607294 273.31938613 377.15637557 275.69526499 377.15049076 278.07199383 C377.14132489 279.58437172 377.13095045 281.09674287 377.11924076 282.6091032 C377.11499088 283.31850552 377.110741 284.02790783 377.10636234 284.75880718 C377.06196074 287.8141636 376.88991012 290.20725136 375.91611576 293.12863445 C375.31283451 293.18922039 374.70955326 293.24980633 374.08799076 293.3122282 C373.28877201 293.39601727 372.48955326 293.47980633 371.66611576 293.56613445 C370.87720951 293.64734539 370.08830326 293.72855633 369.27549076 293.8122282 C367.09246937 294.10498438 365.03879756 294.54927864 362.91611576 295.12863445 C363.34924076 295.99746258 363.78236576 296.8662907 364.22861576 297.76144695 C364.78549076 298.91386883 365.34236576 300.0662907 365.91611576 301.25363445 C366.47299076 302.39058758 367.02986576 303.5275407 367.60361576 304.69894695 C369.16304967 308.77389628 369.74177595 311.82461141 368.2328577 316.03528118 C367.24419377 318.23201746 366.18241159 320.37524579 365.08408451 322.51925945 C364.49546383 323.69799633 364.49546383 323.69799633 363.89495182 324.90054607 C363.06588277 326.55401776 362.23093189 328.20455176 361.390481 329.85226727 C360.10440335 332.37708826 358.84009181 334.91195406 357.57822514 337.44894695 C356.76894562 339.05635649 355.95844044 340.66314965 355.14658451 342.26925945 C354.76834034 343.02757061 354.39009617 343.78588177 354.00039005 344.56717205 C352.24260923 347.98968729 351.1736761 349.95692756 347.91611576 352.12863445 C343.6501316 352.83806574 341.29025063 352.90123929 337.49228764 350.76584148 C334.80143339 348.82873811 332.23089317 346.79223249 329.66611576 344.69113445 C328.73154545 343.95773846 327.79697514 343.22434246 326.83408451 342.46872234 C323.03586238 339.48369746 319.2775753 336.46345663 315.61924076 333.30832195 C307.2292403 326.34898631 294.08340692 320.12863445 282.91611576 320.12863445 C284.56611576 314.84863445 286.21611576 309.56863445 287.91611576 304.12863445 C302.79485536 306.25416868 315.65204124 311.47667227 327.35215092 320.88107586 C329.90203101 322.91508886 332.53280038 324.82889553 335.16611576 326.75363445 C336.03752201 327.40590008 336.90892826 328.0581657 337.80674076 328.73019695 C339.77213519 330.31282154 339.77213519 330.31282154 341.91611576 330.12863445 C343.49078982 327.2705607 345.01948886 324.39025019 346.54111576 321.50363445 C346.98713139 320.69539227 347.43314701 319.88715008 347.89267826 319.0544157 C350.47642134 314.26771318 350.47642134 314.26771318 350.31845951 308.9919157 C349.85568607 308.04703289 349.39291264 307.10215008 348.91611576 306.12863445 C348.6363892 304.95945477 348.35666264 303.79027508 348.06845951 302.5856657 C346.6559021 298.34799348 345.42373102 295.01078337 341.91611576 292.12863445 C335.19405671 289.55864444 327.65442229 289.66887452 320.54697514 289.33957195 C315.59111601 289.0516576 310.68761541 288.45716467 305.75913334 287.8747282 C293.4349604 286.43748799 281.31593677 285.71170398 268.91611576 286.12863445 C267.68099197 289.68241026 266.48286647 293.24760273 265.29111576 296.81613445 C264.94049076 297.8235368 264.58986576 298.83093914 264.22861576 299.86886883 C263.74521732 301.33356609 263.74521732 301.33356609 263.25205326 302.8278532 C262.94831791 303.72334881 262.64458256 304.61884441 262.3316431 305.54147625 C261.54415904 310.44451303 264.23163086 313.82508451 266.99033451 317.67550945 C267.57492435 318.52113445 268.1595142 319.36675945 268.76181889 320.23800945 C269.98623316 321.99347933 271.22582581 323.73846271 272.48056889 325.47238445 C277.42827169 332.72096125 277.42827169 332.72096125 277.00595951 337.6950407 C275.89274926 343.18542511 273.88732541 348.41483293 271.91220951 353.64230633 C269.18122982 361.26683576 270.9138592 366.58954827 273.47861576 374.00363445 C273.82956303 375.03617352 273.82956303 375.03617352 274.18760014 376.08957195 C274.75964075 377.7706709 275.33730032 379.44985608 275.91611576 381.12863445 C279.45238673 381.12863445 280.14444512 380.4370075 282.91611576 378.37863445 C294.31555232 370.49961213 307.55598177 368.6341408 321.11142826 370.58957195 C334.85064177 373.63874466 345.58571712 380.8517865 353.34580326 392.4919157 C361.20847703 405.69416643 362.3456678 419.85958231 358.94736576 434.6012907 C355.62846866 445.95342739 348.23746778 456.18756189 337.97861576 462.19113445 C334.78000235 464.19582099 333.35083001 465.41490972 332.47861576 469.12863445 C332.26157011 470.79171149 332.07821003 472.4593054 331.91611576 474.12863445 C331.54180719 476.50374352 331.16676306 478.87873675 330.79111576 481.25363445 C330.08523343 486.0427746 329.91611576 490.20990905 329.91611576 495.12863445 C361.26611576 495.12863445 392.61611576 495.12863445 424.91611576 495.12863445 C423.57745335 487.09666 422.1336945 479.23532615 420.3057642 471.32077312 C420.0517635 470.20860424 419.79776279 469.09643536 419.5360651 467.95056438 C418.70390152 464.31481309 417.86561477 460.68052293 417.02549076 457.0466032 C416.73693462 455.79760046 416.44837849 454.54859772 416.15107822 453.26174641 C414.93774464 448.01487311 413.72277582 442.76839157 412.50163746 437.52332878 C410.76193528 430.05031679 409.03634623 422.57435742 407.3298099 415.09369963 C405.97644013 409.16709924 404.6003746 403.24597128 403.21641636 397.32644367 C402.63371645 394.81910247 402.05805328 392.31011488 401.48965549 389.79949284 C400.69380716 386.29133752 399.87212481 382.7901893 399.04404545 379.28952312 C398.81628925 378.25820766 398.58853306 377.2268922 398.35387516 376.16432476 C396.97929971 370.49017161 395.388904 366.70987088 391.21630573 362.56047821 C387.95133741 358.96490786 388.68277508 353.98785651 388.72031498 349.44552898 C389.09022273 343.17923632 390.69627722 337.16893403 392.22666264 331.09933758 C393.58997935 325.06618109 394.04361076 319.41086059 393.66001225 313.2485075 C393.61343479 312.44332998 393.56685734 311.63815247 393.51886845 310.80857563 C392.70374647 297.72622175 391.42458964 284.67404008 390.22257519 271.62267351 C389.86150212 267.69407458 389.50448489 263.76510679 389.14695072 259.8361845 C388.54750257 253.25506141 387.94540715 246.67418518 387.34140873 240.0934782 C386.56815811 231.66862705 385.79908839 223.24339982 385.03140354 214.81803989 C384.36737111 207.53032199 383.70173516 200.24275068 383.03568554 192.95521688 C382.89362246 191.40059625 382.75161261 189.84597074 382.60965633 188.29134035 C382.20552958 183.86560945 381.8005446 179.43995892 381.39414883 175.01443577 C381.21367352 173.04711673 381.03403329 171.07972114 380.85442448 169.11232281 C380.54818384 165.78376677 380.23449832 162.45604833 379.91611576 159.12863445 C379.83156635 158.21347183 379.74701694 157.29830921 379.65990543 156.35541439 C379.12442388 150.71123212 379.12442388 150.71123212 376.04111576 146.12863445 C369.91055716 138.64227924 369.02436984 130.60343483 369.91611576 121.12863445 C371.59174516 111.45187465 376.50729406 104.13887567 384.48252201 98.44894695 C389.31223958 95.82865074 394.62123736 94.50078282 399.91611576 93.12863445 C396.95195874 88.74168207 394.01772395 86.42316179 388.91611576 85.12863445 C384.23703601 84.72462281 379.58217958 84.77968539 374.88877201 84.8356657 C373.53114639 84.84126923 372.17351466 84.84553575 370.81588078 84.84852886 C367.26314032 84.8599183 363.71077474 84.88933336 360.15818119 84.9226408 C356.52480991 84.95347002 352.89137735 84.9670615 349.25791264 84.98215008 C342.14381339 85.01420981 335.03002868 85.06692843 327.91611576 85.12863445 Z M65.16611576 114.7809782 C61.85137553 118.54990159 60.10832231 121.16812769 59.60361576 126.31613445 C60.10047983 132.37787612 62.09519993 136.47710614 66.60361576 140.56613445 C71.43489699 142.84504069 75.8866309 144.03694561 81.13095951 142.46457195 C86.09447522 140.19078263 89.45182286 137.45061237 91.70127201 132.34738445 C93.29849782 127.52701434 92.86916561 123.87623981 91.02939701 119.17550945 C88.65460581 114.80922669 85.36244612 112.7360932 80.79111576 110.81613445 C74.75202417 109.37200386 69.65391261 110.54361645 65.16611576 114.7809782 Z M391.10361576 115.56613445 C387.37888014 119.92939618 386.45465951 123.15579694 386.60361576 128.81613445 C387.29183881 133.908985 389.76207145 137.10878134 393.60361576 140.50363445 C398.41694615 142.86489087 402.87004721 144.04191779 408.13095951 142.46457195 C412.45474224 140.48384467 415.31114417 138.19239013 417.91611576 134.12863445 C419.51319325 129.33740197 419.95196055 124.61724082 417.97470951 119.8669157 C415.60263425 115.84405453 413.36680383 112.88820881 408.91611576 111.12863445 C401.56336812 109.4683366 396.9806261 110.47272549 391.10361576 115.56613445 Z M143.91611576 117.12863445 C143.78052881 120.17180831 143.68174337 123.20889007 143.60361576 126.25363445 C143.56172123 127.10957195 143.5198267 127.96550945 143.47666264 128.84738445 C143.46054935 129.68527508 143.44443607 130.5231657 143.42783451 131.38644695 C143.40165043 132.15102215 143.37546635 132.91559734 143.34848881 133.70334148 C144.78745649 139.85160168 150.23993805 143.33634587 155.29111576 146.50363445 C157.17671251 147.66649017 159.06699325 148.81903982 160.96933842 149.95431805 C162.90490867 151.12187422 164.80500571 152.33637615 166.70908451 153.5544157 C172.72762176 157.251392 177.53206693 159.82556416 184.83799076 158.72238445 C186.87352895 158.22876956 188.90124871 157.70080765 190.91611576 157.12863445 C192.4181394 156.85043674 193.923148 156.58741956 195.43174076 156.34738445 C196.66408451 156.11019695 197.89642826 155.87300945 199.16611576 155.62863445 C200.42939701 155.39144695 201.69267826 155.15425945 202.99424076 154.90988445 C203.95845951 154.65207195 204.92267826 154.39425945 205.91611576 154.12863445 C207.35821469 151.2444366 206.19092904 149.42945546 205.22666264 146.50949383 C204.73195198 145.05894536 204.23716163 143.60842407 203.74228764 142.15793133 C203.51218998 141.46119305 203.28209232 140.76445477 203.04502201 140.0466032 C202.72126591 139.09950481 202.72126591 139.09950481 202.39096928 138.13327312 C201.82704281 135.75260465 201.8398423 133.56648205 201.91611576 131.12863445 C198.58360859 130.10509211 195.25002804 129.08509036 191.91611576 128.06613445 C190.38628056 127.59784222 190.38628056 127.59784222 188.82553959 127.12008953 C183.26780777 125.42654268 177.70242288 123.76974997 172.11533451 122.17550945 C171.02543217 121.86363689 169.93552982 121.55176434 168.81260014 121.23044109 C166.69700296 120.62766329 164.57983614 120.03036377 162.46103764 119.43893719 C161.5013306 119.16509197 160.54162357 118.89124676 159.55283451 118.6091032 C158.70422855 118.37086834 157.8556226 118.13263348 156.98130131 117.88717937 C154.91611576 117.12863445 154.91611576 117.12863445 152.91611576 115.12863445 C149.12053695 115.12863445 147.28708959 115.63042386 143.91611576 117.12863445 Z M321.91611576 118.12863445 C319.42301273 119.05885601 319.42301273 119.05885601 316.59677982 119.84616375 C315.53598209 120.14624844 314.47518436 120.44633312 313.38224125 120.75551128 C311.67424351 121.22444553 311.67424351 121.22444553 309.93174076 121.7028532 C308.76101017 122.03154903 307.59027958 122.36024487 306.3840723 122.69890118 C302.64697354 123.74612096 298.90664939 124.78125828 295.16611576 125.81613445 C292.63073771 126.52432525 290.09557855 127.2333002 287.56064701 127.94308758 C281.3483139 129.68070793 275.13329027 131.40842207 268.91611576 133.12863445 C268.7191309 134.12225994 268.7191309 134.12225994 268.51816654 135.13595867 C267.38753462 140.8181887 266.19223085 146.47726762 264.91611576 152.12863445 C268.73767362 152.97073777 272.56053245 153.80664471 276.38462162 154.63717937 C278.31443176 155.05759803 280.24321613 155.48271643 282.17197514 155.90793133 C284.64490407 156.44384021 287.12247498 156.95880269 289.60434818 157.4516325 C292.91611576 158.12863445 292.91611576 158.12863445 295.33139896 158.83102703 C301.35035083 160.2659765 305.58671938 157.58834299 310.61299992 154.53389263 C312.49425057 153.35043253 314.36098356 152.14594174 316.22861576 150.94113445 C317.50143222 150.14937227 318.77551338 149.3596394 320.05088139 148.57199383 C329.02388429 143.00051949 329.02388429 143.00051949 335.91611576 135.12863445 C336.19012594 133.09941776 336.19012594 133.09941776 336.11142826 130.8981657 C336.10498295 130.0957243 336.09853764 129.29328289 336.09189701 128.46652508 C336.0751392 127.63314617 336.05838139 126.79976727 336.04111576 125.94113445 C336.03209232 125.09615398 336.02306889 124.25117352 336.01377201 123.38058758 C335.9902228 121.29648203 335.95435223 119.21252228 335.91611576 117.12863445 C330.02738446 114.98727762 326.96396586 114.23245137 321.91611576 118.12863445 Z M126.91611576 156.12863445 C126.10546338 159.6072567 126.1735926 163.00876753 126.22861576 166.56613445 C126.20090092 167.52068523 126.17318607 168.47523602 126.14463139 169.45871258 C126.1540663 172.1552098 126.26039475 174.51203894 126.91611576 177.12863445 C129.60986964 179.65545631 129.60986964 179.65545631 132.91611576 181.12863445 C133.79408817 182.04527874 133.79408817 182.04527874 134.6897974 182.98044109 C139.01736275 187.15614539 144.70240505 189.63273671 150.01084232 192.37619305 C151.43533939 193.12135927 152.85107553 193.88354558 154.25693607 194.66330242 C165.30251208 200.78441414 172.64038057 201.90588242 184.91611576 199.12863445 C186.74747684 198.8323223 188.58061353 198.54654527 190.41611576 198.27707195 C191.91670883 198.02273414 193.41674652 197.7650903 194.91611576 197.50363445 C196.09560795 197.3025407 196.09560795 197.3025407 197.29892826 197.09738445 C199.17186413 196.77761491 201.04408145 196.45364041 202.91611576 196.12863445 C204.02007473 192.81675754 203.80926958 192.33336779 202.79111576 189.19113445 C201.27603462 183.15074515 203.09064892 177.92890814 204.91611576 172.12863445 C198.06652294 173.13782211 191.26569756 174.16249278 184.52549076 175.76144695 C183.66439701 175.88261883 182.80330326 176.0037907 181.91611576 176.12863445 C180.63092045 176.31425945 179.34572514 176.49988445 178.02158451 176.69113445 C170.70042259 176.60805958 164.49892329 171.74381278 158.47861576 168.00363445 C157.20823185 167.23358686 155.9367527 166.46534313 154.66416264 165.69894695 C150.04125729 162.90665434 145.44464092 160.0723728 140.84922123 157.23507977 C139.95219486 156.68690594 139.0551685 156.13873211 138.13095951 155.57394695 C137.35744144 155.09715496 136.58392338 154.62036297 135.78696537 154.12912273 C132.12648604 152.17158074 129.87370974 153.49594579 126.91611576 156.12863445 Z M337.86924076 157.14425945 C337.17981388 157.55649761 336.490387 157.96873577 335.7800684 158.393466 C333.57166425 159.71571391 331.36881782 161.04691349 329.16611576 162.37863445 C326.97651944 163.69403348 324.78583166 165.00759963 322.5950098 166.32095623 C321.23274189 167.13853862 319.87139569 167.95765952 318.5111475 168.77859783 C317.25851799 169.53379324 316.00415167 170.2861169 314.74788761 171.03525066 C313.50348246 171.77803553 312.26358204 172.52840897 311.02782536 173.2854948 C301.6531027 178.89881955 291.55033791 175.27221726 281.47861576 173.12863445 C279.42022727 172.69843006 277.36134436 172.27072314 275.30208683 171.84469891 C273.45187983 171.46071696 271.60302431 171.07023989 269.75425053 170.6794157 C267.07073476 170.06513103 267.07073476 170.06513103 264.91611576 170.12863445 C265.13267826 170.81828289 265.34924076 171.50793133 265.57236576 172.2184782 C267.83026072 179.83887369 268.92938951 186.37510974 266.91611576 194.12863445 C273.91091142 195.4899469 280.91113526 196.82075377 287.91611576 198.12863445 C288.79541752 198.29363445 289.67471928 198.45863445 290.58066654 198.62863445 C293.00302405 199.07799932 295.42756034 199.51223977 297.85361576 199.94113445 C298.57919682 200.07688885 299.30477787 200.21264324 300.05234623 200.35251141 C306.49986223 201.46344704 311.29409891 200.66920723 317.14658451 197.8356657 C318.11531498 197.36966961 319.08404545 196.90367352 320.08213139 196.42355633 C321.07922123 195.93435711 322.07631107 195.44515789 323.10361576 194.94113445 C324.57024662 194.23633953 324.57024662 194.23633953 326.06650639 193.51730633 C332.79772539 190.2562465 339.38119203 186.7659145 345.91611576 183.12863445 C345.91611576 182.46863445 345.91611576 181.80863445 345.91611576 181.12863445 C346.89322514 180.64523602 347.87033451 180.16183758 348.87705326 179.6637907 C352.05225643 177.52184743 352.05225643 177.52184743 352.47568607 174.88595867 C352.65269385 172.09161666 352.63558501 169.36431354 352.54111576 166.56613445 C352.54756107 165.60771648 352.55400639 164.64929852 352.56064701 163.66183758 C352.74282354 158.46421505 352.74282354 158.46421505 350.0660181 154.33200359 C345.28758681 151.65736269 342.01418178 154.6226161 337.86924076 157.14425945 Z M73.91611576 160.12863445 C73.81065276 161.25120553 73.81065276 161.25120553 73.7030592 162.39645481 C71.98924462 180.63479586 70.26963113 198.87258171 68.54362011 217.10977268 C67.70906178 225.92927216 66.87644255 234.74894657 66.04843998 243.56906414 C65.32646262 251.25971766 64.60079411 258.95001258 63.87075412 266.6399051 C63.4845955 270.70886812 63.10024468 274.7779831 62.72031879 278.84753323 C62.36206522 282.68431006 61.99884751 286.52058573 61.63195133 290.35654545 C61.49873503 291.75832262 61.36727428 293.16026801 61.23778248 294.56239414 C60.25762095 305.15904328 58.8061364 315.18702784 55.31455326 325.25363445 C55.07322666 325.96721111 54.83190006 326.68078777 54.58326054 327.41598797 C53.82502809 329.65556516 53.05868134 331.89224068 52.29111576 334.12863445 C51.51756729 336.39395768 50.74583277 338.65986044 49.97754765 340.9269743 C49.50233319 342.32817028 49.0239146 343.72828463 48.54193974 345.12716961 C47.32432031 348.55023791 47.32432031 348.55023791 46.91611576 352.12863445 C55.82611576 352.12863445 64.73611576 352.12863445 73.91611576 352.12863445 C73.44818607 350.32007977 72.98025639 348.51152508 72.49814701 346.6481657 C69.16238217 332.65094009 67.36539972 319.82092722 68.88486576 305.39425945 C69.03119214 303.83936589 69.17532321 302.28426458 69.31755924 300.72899151 C69.64353225 297.20406006 69.98283913 293.68071347 70.33033085 290.15783978 C70.99027088 283.42816171 71.59862973 276.69404846 72.20591068 269.959445 C73.15650953 259.44387394 74.11696806 248.92926629 75.08994389 238.41574383 C75.18263288 237.41388989 75.18263288 237.41388989 75.27719438 236.39179647 C75.65518659 232.30653826 76.03348407 228.22130836 76.41188908 224.13608837 C77.36301804 213.86733975 78.31265306 203.59845594 79.25892925 193.32925892 C79.60975484 189.52892026 79.96279063 185.72879118 80.31594181 181.92866802 C80.52871813 179.62285592 80.74139565 177.31703469 80.95395756 175.01120281 C81.05210255 173.96162395 81.15024754 172.9120451 81.25136662 171.83066082 C81.38369694 170.38807148 81.38369694 170.38807148 81.5187006 168.91633892 C81.59592193 168.08316112 81.67314325 167.24998331 81.75270462 166.39155769 C81.90311786 164.30862991 81.91611576 162.21698603 81.91611576 160.12863445 C79.27611576 160.12863445 76.63611576 160.12863445 73.91611576 160.12863445 Z M397.91611576 160.12863445 C397.72940092 168.6106546 398.31004508 176.92088649 399.10947514 185.36154461 C399.23799402 186.75737295 399.36605804 188.15324323 399.4937067 189.54915142 C399.76748399 192.53290662 400.04434176 195.51635341 400.32366276 198.49959469 C400.76590104 203.22395173 401.20059243 207.94898535 401.63425541 212.67413616 C402.47738189 221.84987266 403.32774072 231.02493136 404.17916965 240.19990063 C405.26339579 251.88536362 406.34528132 263.57103673 407.41868734 275.2574991 C407.84975431 279.94778081 408.28490182 284.63766008 408.72329807 289.32726216 C408.99572531 292.25010291 409.26474851 295.17325001 409.532897 298.09648609 C409.71618452 300.08327606 409.90357552 302.06968615 410.09111881 304.05607891 C411.62934231 320.92696982 411.62934231 320.92696982 409.82236576 329.3356657 C409.59677982 330.41654461 409.37119389 331.49742352 409.13877201 332.61105633 C408.90029545 333.70998211 408.66181889 334.80890789 408.41611576 335.94113445 C407.94394113 338.15525065 407.47504786 340.37006984 407.00986576 342.5856657 C406.8003931 343.554799 406.59092045 344.5239323 406.37510014 345.52243328 C405.80048694 348.34414554 405.80048694 348.34414554 405.91611576 352.12863445 C414.49611576 352.12863445 423.07611576 352.12863445 431.91611576 352.12863445 C430.67526681 346.54481419 429.67097882 342.06288545 427.67406559 336.90437603 C420.75432772 318.24088796 417.73154841 300.6094198 416.10810065 280.83568978 C415.77219543 276.84348555 415.39385389 272.85526821 415.02062321 268.86641216 C414.32427925 261.35930528 413.66360419 253.84954387 413.01711088 246.33799738 C412.20713502 236.94826824 411.3495244 227.56297339 410.49228764 218.17746258 C409.61795976 208.59014814 408.7478573 199.00257238 407.90743351 189.41221905 C407.84303959 188.67943985 407.77864567 187.94666065 407.71230042 187.19167602 C407.41183559 183.77186848 407.1131492 180.35193873 406.81791019 176.931674 C406.32448598 171.30233887 405.80848376 165.70976155 404.91611576 160.12863445 C402.60611576 160.12863445 400.29611576 160.12863445 397.91611576 160.12863445 Z M122.91611576 198.12863445 C118.38289701 202.84653989 118.49062021 207.18445497 118.56455326 213.54269695 C118.59806889 214.68480633 118.63158451 215.8269157 118.66611576 217.00363445 C118.68416264 218.16894695 118.70220951 219.33425945 118.72080326 220.53488445 C118.76777756 223.40031695 118.83345283 226.26404613 118.91611576 229.12863445 C126.43542688 232.22941533 134.03485313 235.09251905 141.71885014 237.75778484 C143.01348823 238.21210932 144.3046044 238.67660142 145.59189701 239.15133953 C155.08556696 242.64500041 162.86060335 243.60611362 172.91611576 242.12863445 C174.14394779 241.97161053 175.37177982 241.8145866 176.63681889 241.65280437 C180.36152632 241.16214023 184.07569456 240.62246472 187.79111576 240.06613445 C189.06342045 239.87986492 190.33572514 239.69359539 191.64658451 239.50168133 C194.73713056 239.04855616 197.82691499 238.59082617 200.91611576 238.12863445 C201.19197514 237.1334782 201.46783451 236.13832195 201.75205326 235.11300945 C203.07554609 230.47728325 204.65097277 225.93404494 206.23642826 221.3825407 C207.21997256 218.49630653 207.91611576 216.2017453 207.91611576 213.12863445 C198.6549481 214.201113 189.46356214 215.44249106 180.29746342 217.16305828 C172.03107896 218.63818197 165.38686088 219.12260104 157.85361576 214.87863445 C156.48573539 214.15352571 155.11719887 213.42965392 153.74814701 212.70675945 C152.99614017 212.30263836 152.24413334 211.89851727 151.46933842 211.48215008 C146.37022207 208.77900406 141.2004877 206.21426661 136.04111576 203.62863445 C134.97626957 203.088195 133.91142338 202.54775555 132.81430912 201.99093914 C131.81923344 201.48981609 130.82415775 200.98869305 129.79892826 200.47238445 C128.45918949 199.79465984 128.45918949 199.79465984 127.09238529 199.10324383 C125.00931862 197.99239421 125.00931862 197.99239421 122.91611576 198.12863445 Z M351.28940678 199.96457195 C350.13669033 200.56519451 350.13669033 200.56519451 348.96068668 201.17795086 C348.12226734 201.61542645 347.283848 202.05290203 346.42002201 202.50363445 C344.64651347 203.41622084 342.87240454 204.32764118 341.09775639 205.23800945 C338.29472051 206.67634185 335.49525035 208.11990638 332.7054224 209.58371258 C330.0155057 210.99277362 327.31320497 212.37514169 324.60752201 213.75363445 C323.78732075 214.19111004 322.96711948 214.62858562 322.12206364 215.07931805 C312.8770192 219.72494572 304.42605355 218.30133451 294.53330326 216.59738445 C293.5930228 216.44201214 292.65274235 216.28663982 291.68396854 216.12655926 C288.71837254 215.63476785 285.75478247 215.13190772 282.79111576 214.62863445 C280.76519701 214.29065728 278.73915619 213.9534109 276.71299076 213.6169157 C271.77924907 212.79592229 266.84727291 211.96500548 261.91611576 211.12863445 C263.60862069 217.3687211 265.31926336 223.60166575 267.10361576 229.81613445 C267.61988529 231.61631023 267.61988529 231.61631023 268.14658451 233.4528532 C268.40052982 234.33586102 268.65447514 235.21886883 268.91611576 236.12863445 C279.38027454 238.10187582 289.8856966 239.79865797 300.41611576 241.37863445 C301.60817631 241.56587078 302.80023685 241.75310711 304.02842045 241.94601727 C305.1772974 242.11456219 306.32617435 242.28310711 307.50986576 242.45675945 C308.5275806 242.61048016 309.54529545 242.76420086 310.59385014 242.92257977 C318.26179792 243.39816383 324.93051878 241.7406511 332.10752201 239.1872282 C332.93823719 238.90009457 333.76895237 238.61296093 334.62484074 238.31712627 C337.24592092 237.40891647 339.86223682 236.48778873 342.47861576 235.56613445 C344.2680289 234.94352561 346.05774007 234.32177264 347.84775639 233.70090008 C352.20738168 232.18667701 356.56278711 230.66086127 360.91611576 229.12863445 C361.06227901 225.27487179 361.15047488 221.42182894 361.22861576 217.56613445 C361.27051029 216.4800993 361.31240482 215.39406414 361.35556889 214.27511883 C361.46345197 207.17641182 360.82169434 203.38084378 355.91611576 198.12863445 C354.18467579 198.12863445 352.80099286 199.17269204 351.28940678 199.96457195 Z M124.91611576 250.12863445 C120.89145007 256.69045787 118.11305365 261.53967281 118.54111576 269.31613445 C118.59525639 270.60906414 118.64939701 271.90199383 118.70517826 273.2341032 C118.77478764 274.18929852 118.84439701 275.14449383 118.91611576 276.12863445 C130.43382583 275.30318458 141.93388779 274.3648299 153.41611576 273.1403532 C154.23679539 273.05286816 155.05747501 272.96538311 155.90302372 272.875247 C157.5827509 272.69587928 159.26246886 272.51642514 160.94217777 272.33688641 C176.27405715 270.70028567 191.48908614 269.43935005 206.91611576 269.12863445 C208.30520032 265.42794352 209.21778163 262.67829652 208.54111576 258.75363445 C208.23174076 256.95925945 208.23174076 256.95925945 207.91611576 255.12863445 C196.78791695 255.50714462 185.90063102 257.04658454 174.90537357 258.75656414 C171.57970199 259.26045377 168.25429016 259.71625139 164.91611576 260.12863445 C164.16112797 260.22644207 163.40614017 260.32424969 162.62827396 260.42502117 C154.76875675 260.94855426 147.18300965 257.62168248 139.85361576 255.12863445 C138.4015487 254.6456386 136.94907713 254.16385708 135.49619389 253.68332195 C131.96472464 252.51239914 128.43902321 251.32510559 124.91611576 250.12863445 Z M346.57236576 252.31613445 C345.24971071 252.77262235 343.92678453 253.22832526 342.60361576 253.68332195 C340.51900291 254.40063958 338.43611108 255.12156779 336.35752201 255.85617352 C334.3500584 256.56418011 332.33704973 257.25398443 330.32236576 257.94113445 C329.11902592 258.36007977 327.91568607 258.77902508 326.67588139 259.2106657 C318.42880944 261.22423651 310.39579096 259.81035353 302.09970951 258.59738445 C301.00264179 258.44201214 299.90557407 258.28663982 298.77526188 258.12655926 C295.30051768 257.6330898 291.82708342 257.13100244 288.35361576 256.62863445 C285.98585874 256.29082301 283.61802088 255.9535776 281.25010014 255.6169157 C275.47115419 254.79403409 269.69325664 253.96408949 263.91611576 253.12863445 C261.42494862 259.02879918 261.86386185 262.97187273 263.91611576 269.12863445 C264.57128178 269.12750652 265.22644779 269.12637859 265.90146732 269.12521648 C289.32216839 269.21575029 312.49327779 271.60123426 335.7588892 274.04513836 C337.04972919 274.18045467 338.34056919 274.31577099 339.67052555 274.4551878 C342.12051489 274.7134705 344.57019064 274.97475076 347.01949406 275.23945904 C348.11806232 275.35636593 349.21663059 275.47327282 350.34848881 275.59372234 C351.30676075 275.69729549 352.26503269 275.80086864 353.25234318 275.90758038 C355.82151305 276.12078381 358.33955291 276.16866175 360.91611576 276.12863445 C362.03387787 265.28811624 359.64438977 259.05714317 353.91611576 250.12863445 C351.51850511 250.12863445 348.77283329 251.54424892 346.57236576 252.31613445 Z M49.91611576 370.12863445 C46.09939843 382.88486575 43.07974875 395.79738741 40.05674076 408.76144695 C39.50212427 411.13086199 38.94733207 413.50023589 38.39237309 415.86957073 C37.23701581 420.80597667 36.08422779 425.74297379 34.9332056 430.68039227 C33.45680625 437.012305 31.97321499 443.3425081 30.48765278 449.6722765 C29.34358442 454.5510459 28.2036364 459.4307709 27.06491184 464.31079006 C26.51923623 466.64673695 25.97219029 468.98236416 25.42375278 471.31766415 C24.66077432 474.56894753 23.90343176 477.82149319 23.14756107 481.07443523 C22.92007679 482.03858852 22.69259251 483.00274181 22.45821476 483.99611187 C22.25364155 484.88169277 22.04906834 485.76727367 21.83829594 486.67969036 C21.65913261 487.44687452 21.47996929 488.21405869 21.29537678 489.00449085 C20.79893707 491.42529952 20.79893707 491.42529952 20.91611576 495.12863445 C25.86611576 495.12863445 30.81611576 495.12863445 35.91611576 495.12863445 C39.69986205 479.12658448 43.4812538 463.12398083 47.25950718 447.12063313 C49.01378546 439.69039599 50.76890226 432.26035878 52.52597904 424.83078289 C54.05704152 418.35687035 55.58654509 411.88259186 57.11416006 405.40786493 C57.92343518 401.97803459 58.73350175 398.54839546 59.545434 395.11919308 C60.45071544 391.29559962 61.35251697 387.47119024 62.25400639 383.64670086 C62.5251778 382.50375057 62.79634922 381.36080029 63.07573795 380.18321514 C63.31974842 379.14552486 63.56375889 378.10783459 63.81516361 377.03869915 C64.02901958 376.13349844 64.24287556 375.22829773 64.46321201 374.29566669 C64.98430811 372.17132667 64.98430811 372.17132667 64.91611576 370.12863445 C59.96611576 370.12863445 55.01611576 370.12863445 49.91611576 370.12863445 Z M216.91611576 370.12863445 C215.5187543 373.43888879 214.19732032 376.77174549 212.91611576 380.12863445 C212.64815189 380.79636883 212.38018803 381.4641032 212.10410404 382.15207195 C210.00429201 388.44652825 211.97793118 393.95834177 213.79111576 400.12863445 C215.33799076 405.57363445 215.33799076 405.57363445 216.91611576 411.12863445 C229.12611576 411.12863445 241.33611576 411.12863445 253.91611576 411.12863445 C260.00718586 392.1978952 260.00718586 392.1978952 256.31845951 373.62863445 C255.1386192 371.26088006 255.1386192 371.26088006 253.91611576 370.12863445 C251.17717491 370.040048 248.46358306 370.01339966 245.72470951 370.0309782 C244.49495144 370.03310062 244.49495144 370.03310062 243.24034977 370.03526592 C240.61140194 370.04088156 237.98253803 370.05343666 235.35361576 370.06613445 C233.5756222 370.07114744 231.7976273 370.0757107 230.01963139 370.07980633 C225.65176031 370.09085607 221.28395228 370.10813114 216.91611576 370.12863445 Z M413.91611576 370.12863445 C420.76792856 399.75097275 427.6505249 429.36623786 434.58921146 458.96835613 C435.30879398 462.03885599 436.02663131 465.10975608 436.74302006 468.18100262 C437.59147923 471.81804791 438.4434149 475.45426108 439.29806614 479.08985615 C439.61433366 480.43784682 439.92935763 481.78612991 440.24308872 483.13471317 C440.67208688 484.97779003 441.10597275 486.81972721 441.5401392 488.66159344 C441.78294621 489.69847805 442.02575321 490.73536266 442.27591801 491.80366802 C442.69449159 494.07168129 442.69449159 494.07168129 443.91611576 495.12863445 C446.44660978 495.20177012 448.94916413 495.22110972 451.47861576 495.19113445 C452.54499271 495.18436687 452.54499271 495.18436687 453.63291264 495.17746258 C455.39401589 495.16564309 457.15507612 495.14770708 458.91611576 495.12863445 C453.20896879 469.51739453 447.22967258 443.97090076 441.23709965 418.42520428 C439.95535587 412.96002702 438.67506402 407.49450964 437.39463139 402.02902508 C434.90317284 391.39523778 432.4101692 380.76181342 429.91611576 370.12863445 C424.63611576 370.12863445 419.35611576 370.12863445 413.91611576 370.12863445 Z M143.91611576 397.12863445 C137.45472509 405.1915664 134.84025034 412.78564936 134.91611576 423.12863445 C135.9510139 430.77876382 138.76083921 436.43634993 143.91611576 442.12863445 C144.30412357 442.66423992 144.69213139 443.19984539 145.09189701 443.75168133 C147.90639363 445.876114 150.18013863 445.1889884 153.60361576 444.81613445 C154.78310795 444.69625164 155.96260014 444.57636883 157.17783451 444.4528532 C158.08146732 444.34586102 158.98510014 444.23886883 159.91611576 444.12863445 C160.00159168 444.73806896 160.0870676 445.34750347 160.17513371 445.97540569 C161.06318568 452.30214489 161.95611122 458.62818242 162.85190678 464.95382977 C163.18584825 467.31660787 163.51853465 469.67956371 163.84995365 472.04269695 C164.32575989 475.43379431 164.8060341 478.82423283 165.28720951 482.21457195 C165.43516468 483.27606457 165.58311985 484.33755718 165.73555851 485.43121624 C165.87562824 486.41208202 166.01569798 487.39294781 166.16001225 488.4035368 C166.28214588 489.26957531 166.40427952 490.13561382 166.53011417 491.02789593 C166.82426508 493.17677389 166.82426508 493.17677389 167.91611576 495.12863445 C215.43611576 495.12863445 262.95611576 495.12863445 311.91611576 495.12863445 C316.65282286 469.21652452 316.65282286 469.21652452 318.91611576 443.12863445 C319.50779545 443.27300945 320.09947514 443.41738445 320.70908451 443.56613445 C321.89437748 443.84457195 321.89437748 443.84457195 323.10361576 444.12863445 C323.88092045 444.31425945 324.65822514 444.49988445 325.45908451 444.69113445 C328.1102235 445.16319736 330.23617444 445.47819202 332.91611576 445.12863445 C340.16111454 438.60813555 343.72048983 429.55640201 344.22861576 420.00363445 C344.09474295 411.06390595 340.17205092 402.45126401 333.91611576 396.12863445 C325.47137837 389.06576318 318.19091611 386.58869314 307.18955326 386.8278532 C297.31228448 387.73543041 290.50637169 392.95795232 283.91611576 400.12863445 C282.86727679 401.76500684 281.85083544 403.42449922 280.91611576 405.12863445 C277.95436453 404.51585834 276.53552793 403.87490923 273.91611576 402.12863445 C273.66704472 403.10473675 273.66704472 403.10473675 273.41294193 404.10055828 C272.65385328 407.05028777 271.87894067 409.99563295 271.10361576 412.94113445 C270.8425806 413.96529461 270.58154545 414.98945477 270.31260014 416.04465008 C270.05156498 417.02756023 269.79052982 418.01047039 269.52158451 419.0231657 C269.28592777 419.92913494 269.05027103 420.83510418 268.80747318 421.76852703 C267.56971277 425.04582911 266.0191037 426.57714049 262.91611576 428.12863445 C261.1808995 428.22944261 259.44184177 428.26700072 257.70371342 428.27389812 C256.61563389 428.28027798 255.52755436 428.28665783 254.40650272 428.29323101 C252.63622211 428.29490025 252.63622211 428.29490025 250.83017826 428.2966032 C249.62171238 428.2999316 248.4132465 428.30326 247.16816044 428.30668926 C244.60758693 428.31175997 242.04700679 428.31409754 239.48642826 428.31393719 C235.56444257 428.31612146 231.64273905 428.3342699 227.72080326 428.35324383 C225.23642923 428.35617812 222.75205385 428.35816268 220.26767826 428.3591032 C219.09153965 428.36628872 217.91540104 428.37347424 216.70362186 428.38087749 C215.06204609 428.37626255 215.06204609 428.37626255 213.38730717 428.37155437 C212.42515293 428.37297939 211.4629987 428.37440441 210.47168827 428.37587261 C207.77343728 428.11483106 206.16551884 427.62703988 203.91611576 426.12863445 C202.75595951 423.44113445 202.75595951 423.44113445 201.85361576 420.12863445 C201.35474857 418.37679852 201.35474857 418.37679852 200.84580326 416.58957195 C200.28241229 414.49224253 199.72375726 412.3936225 199.17392826 410.29269695 C196.73647112 401.3918703 193.15720264 396.28921162 185.22470951 391.41769695 C171.071842 383.51508057 155.45482607 385.85019581 143.91611576 397.12863445 Z " fill="#069494" transform="translate(21.083884239196777,-0.12863445281982422)"/>
</svg>
