<svg xmlns="http://www.w3.org/2000/svg" width="208" height="127" viewBox="0 0 208 127" fill="none">
<path d="M98.5924 117.645H18.267C17.6377 117.644 17.0346 117.393 16.59 116.948C16.1454 116.502 15.8958 115.899 15.8958 115.269V2.35456C15.9012 1.72891 16.1533 1.13068 16.5973 0.689819C17.0413 0.248959 17.6413 0.00107178 18.267 0H98.5924C99.2224 0 99.8266 0.250261 100.272 0.695727C100.717 1.14119 100.968 1.74537 100.968 2.37536V115.269C100.968 115.899 100.717 116.504 100.272 116.949C99.8266 117.395 99.2224 117.645 98.5924 117.645ZM18.267 0.0832003C17.6653 0.0843023 17.0886 0.324091 16.6635 0.749934C16.2385 1.17578 15.9998 1.75288 15.9998 2.35456V115.269C15.9998 115.871 16.2385 116.448 16.6635 116.874C17.0886 117.3 17.6653 117.54 18.267 117.541H98.5924C99.1945 117.54 99.7716 117.3 100.197 116.874C100.623 116.449 100.863 115.871 100.864 115.269V2.35456C100.863 1.7525 100.623 1.1754 100.197 0.74968C99.7716 0.323956 99.1945 0.0843 98.5924 0.0832003H18.267Z" fill="#EBEBEB"/>
<path d="M188.577 117.645H108.247C107.618 117.644 107.014 117.393 106.569 116.948C106.124 116.503 105.873 115.899 105.872 115.269V2.35456C105.878 1.72853 106.131 1.1303 106.576 0.689559C107.021 0.248813 107.621 0.00106009 108.247 0H188.577C189.202 0.00216507 189.801 0.250536 190.244 0.691279C190.687 1.13202 190.938 1.72962 190.944 2.35456V115.269C190.944 115.898 190.695 116.501 190.251 116.946C189.807 117.391 189.205 117.643 188.577 117.645ZM108.247 0.0832003C107.645 0.0843 107.068 0.323956 106.642 0.74968C106.217 1.1754 105.977 1.7525 105.976 2.35456V115.269C105.977 115.871 106.217 116.449 106.642 116.874C107.068 117.3 107.645 117.54 108.247 117.541H188.577C189.179 117.54 189.756 117.3 190.182 116.874C190.607 116.449 190.847 115.871 190.848 115.269V2.35456C190.847 1.7525 190.607 1.1754 190.182 0.74968C189.756 0.323956 189.179 0.0843 188.577 0.0832003H108.247Z" fill="#EBEBEB"/>
<path d="M184.97 10.999H140.125V60.5321H184.97V10.999Z" fill="#F5F5F5"/>
<path d="M139.622 60.5283H140.125V10.9952H139.622V60.5283Z" fill="#EBEBEB"/>
<path d="M173.268 26.0495C171.846 24.6287 169.918 23.8306 167.908 23.8306C165.898 23.8306 163.97 24.6287 162.548 26.0495C161.11 24.7135 159.21 23.9874 157.248 24.0237C155.286 24.0601 153.414 24.8562 152.027 26.2445C150.64 27.6328 149.845 29.5051 149.81 31.4674C149.775 33.4296 150.503 35.3289 151.84 36.7656L162.556 47.4859L173.277 36.7656C174.696 35.3432 175.493 33.4153 175.491 31.4058C175.489 29.3963 174.69 27.4697 173.268 26.0495Z" fill="white"/>
<path opacity="0.3" d="M80.7417 55.5279C80.7415 49.6273 79.0503 43.8504 75.8683 38.8813C72.6863 33.9121 68.1469 29.959 62.7876 27.4901C57.4283 25.0211 51.4738 24.1398 45.6291 24.9505C39.7845 25.7611 34.2945 28.2298 29.8096 32.0641C25.3246 35.8985 22.0324 40.9378 20.3229 46.5854C18.6135 52.233 18.5584 58.2521 20.1641 63.9301C21.7698 69.608 24.9691 74.7068 29.3831 78.6227C33.7971 82.5385 39.2409 85.1073 45.0697 86.0249C44.7339 86.2739 44.4851 86.6223 44.3586 87.0208C44.2321 87.4193 44.2345 87.8475 44.3653 88.2446C44.4961 88.6417 44.7488 88.9874 45.0873 89.2327C45.4259 89.4779 45.8331 89.6103 46.2512 89.6108H47.0832L44.3168 136.203H55.3782L52.6118 89.6108H53.4688C53.8878 89.612 54.2964 89.4806 54.6361 89.2353C54.9758 88.9901 55.2292 88.6436 55.3599 88.2455C55.4906 87.8474 55.4919 87.4181 55.3637 87.0192C55.2355 86.6203 54.9843 86.2723 54.6461 86.0249C61.9165 84.8856 68.541 81.1869 73.3256 75.5954C78.1102 70.0038 80.7402 62.8871 80.7417 55.5279ZM49.8662 81.5113C44.7264 81.5105 39.7022 79.9855 35.429 77.1293C31.1559 74.2731 27.8256 70.2138 25.8595 65.4649C23.8933 60.716 23.3795 55.4907 24.383 50.4498C25.3866 45.4089 27.8624 40.7787 31.4974 37.1449C35.1324 33.5111 39.7633 31.0367 44.8046 30.0348C49.8458 29.0329 55.0709 29.5484 59.8192 31.516C64.5675 33.4837 68.6257 36.8153 71.4805 41.0894C74.3354 45.3634 75.8587 50.3881 75.8579 55.5279C75.8579 58.9408 75.1856 62.3203 73.8792 65.4733C72.5729 68.6263 70.6583 71.491 68.2446 73.9039C65.831 76.3168 62.9656 78.2305 59.8122 79.5358C56.6588 80.8411 53.2791 81.5124 49.8662 81.5113Z" fill="#E6E6E6"/>
<path opacity="0.6" d="M41.5998 79.3393C28.45 79.3393 18.986 68.6772 20.4628 55.5274C21.9396 42.3777 33.804 31.7114 46.9537 31.7114C60.1035 31.7114 69.5716 42.3735 68.0907 55.5274C66.6097 68.6813 54.7371 79.3393 41.5998 79.3393Z" fill="#FAFAFA"/>
<path d="M46.9378 31.7162H46.4885L20.5052 55.0787C20.5052 55.2285 20.4677 55.3782 20.4511 55.528C19.8227 60.5293 20.9473 65.5939 23.6335 69.8592L60.7365 36.5085C56.8388 33.3467 51.9562 31.651 46.9378 31.7162Z" fill="white"/>
<path d="M62.9161 38.5996L25.4553 72.2956C26.5854 73.5876 27.8773 74.7286 29.2992 75.6902L65.8364 42.8262C65.0461 41.2992 64.0648 39.879 62.9161 38.5996Z" fill="white"/>
<path d="M75.1338 55.5261C77.0515 38.4701 64.7795 24.6548 47.7319 24.6548C30.6842 24.6548 15.3088 38.4785 13.3911 55.5261C11.648 70.9431 21.5239 83.7185 36.0339 86.0231C35.7653 86.2033 35.5381 86.4385 35.3674 86.7132C35.1967 86.9879 35.0864 87.2958 35.0439 87.6164C35.0082 87.8673 35.0275 88.123 35.1006 88.3657C35.1736 88.6084 35.2985 88.8323 35.4668 89.0218C35.635 89.2114 35.8424 89.3621 36.0747 89.4635C36.3069 89.5649 36.5585 89.6146 36.8119 89.609H37.6647L29.6608 136.197H40.7223L43.1933 89.6049H44.0253C44.572 89.5925 45.0963 89.3848 45.503 89.0192C45.9098 88.6537 46.1721 88.1545 46.2426 87.6122C46.281 87.3148 46.243 87.0126 46.1324 86.7338C46.0218 86.4551 45.8421 86.2091 45.6103 86.019C60.6611 83.7185 73.3991 70.9431 75.1338 55.5261ZM41.3379 81.5095C26.9901 81.5095 16.6608 69.8615 18.2749 55.5261C19.889 41.1908 32.8307 29.5345 47.1827 29.5345C61.5347 29.5345 71.8599 41.1825 70.2458 55.522C68.6317 69.8615 55.6899 81.5095 41.3379 81.5095Z" fill="#F0F0F0"/>
<path d="M146.948 102.215C142.913 97.3024 144.843 88.8285 149.644 87.281C154.444 85.7334 157.889 81.5776 159.457 77.6422C161.026 73.7069 167.419 65.7571 175.074 64.5216C182.728 63.2861 182.287 61.5306 190 59.3715C197.713 57.2125 204.56 64.6006 195.475 67.2173C186.389 69.8339 192.883 81.5568 183.361 85.9997C173.838 90.4426 174.163 95.7882 173.285 101.862C172.407 107.935 155.863 113.073 146.948 102.215Z" fill="#EBEBEB"/>
<path d="M146.178 118.058L145.762 117.954C151.324 96.8458 164.041 82.7101 173.726 74.569C184.217 65.7498 193.523 61.8685 193.619 61.8311L193.777 62.2138C193.681 62.2512 184.425 66.1158 173.98 74.8976C164.358 83.0013 151.711 97.0621 146.178 118.058Z" fill="#FAFAFA"/>
<path d="M136.348 108.2C130.287 105.184 127.591 95.5618 130.99 91.5973C134.388 87.6329 135.245 81.6757 134.584 76.8751C133.923 72.0745 135.416 60.7717 141.448 55.709C147.48 50.6463 146.207 49.053 151.848 43.0293C157.489 37.0057 167.273 41.1407 160.684 48.325C154.094 55.5093 165.834 64.2661 159.806 73.5429C153.778 82.8197 156.828 88.1029 159.199 94.7589C161.57 101.415 149.76 114.868 136.348 108.2Z" fill="#E6E6E6"/>
<path d="M141.96 117.383C136.552 101.921 139.93 83.6872 143.724 71.1157C147.884 57.2962 153.995 45.9352 156.204 44.4917L156.433 44.837C152.714 47.2914 132.147 88.101 142.36 117.254L141.96 117.383Z" fill="#FAFAFA"/>
<path d="M158.188 112.086H131.951L134.601 136.197H155.538L158.188 112.086Z" fill="#F5F5F5"/>
<path d="M79.4562 77.7916C73.4034 79.5055 64.1557 82.8834 59.2178 85.4335C64.476 79.9007 75.6581 76.244 80.0427 75.0335C74.4143 74.9045 60.8027 75.7573 60.8027 75.7573C65.2258 74.5342 69.7203 73.5853 74.2603 72.916C70.8616 72.0549 67.3963 71.381 65.0085 71.2895C71.6146 69.2095 82.5263 72.1672 83.6245 72.5666C84.6104 71.4143 87.7346 68.3192 90.6216 69.068C89.2779 69.6754 87.3934 71.6181 85.9541 73.4444C88.7403 72.2185 91.8568 71.9608 94.8066 72.7122C92.0984 72.9618 86.861 74.8629 85.875 78.4364C87.3102 86.3404 88.1464 102.315 88.2504 113.738H90.0891C91.9362 97.2728 96.0255 71.7512 99.4242 61.8005C99.4907 60.8271 100.893 56.8543 102.557 56.276C104.058 55.7519 119.055 51.8124 127.562 54.5746C124.368 54.6952 119.658 55.5938 114.995 56.7378C123.473 57.8818 132.513 60.5234 132.513 60.5234C132.513 60.5234 114.496 59.3919 106.979 59.5624C112.64 61.1682 127.013 66.0396 133.208 73.4111C124.388 68.5855 104.208 61.5301 100.344 61.7631C100.198 62.0834 100.044 62.4744 99.8485 62.9736C98.7711 65.6984 95.4888 80.7327 94.2907 88.4495C93.4587 93.6661 91.8863 105.651 90.9627 113.73H100.048L98.6421 117.191H97.8891L95.0978 136.198H80.9538L78.1291 117.191H77.3762L75.9701 113.73H87.5474C87.4891 107.823 87.3103 100.214 87.1522 96.6946C86.94 92.1186 86.133 84.0815 85.5173 79.9256C84.2693 80.2751 79.8763 83.9234 77.8878 87.0268C78.9506 84.1417 80.5325 81.4755 82.5554 79.1602C79.4687 80.1544 74.6514 82.3176 71.939 84.4725C74.0229 81.8119 76.5693 79.5487 79.4562 77.7916Z" fill="#E6E6E6"/>
<path d="M68.9727 26.2228C73.8319 26.2228 77.7711 22.2836 77.7711 17.4244C77.7711 12.5652 73.8319 8.62598 68.9727 8.62598C64.1135 8.62598 60.1743 12.5652 60.1743 17.4244C60.1743 22.2836 64.1135 26.2228 68.9727 26.2228Z" fill="#263238"/>
<path d="M71.5224 32.4042C66.9464 31.385 62.2539 31.2893 57.4866 31.7219C56.6886 31.798 55.9336 32.1185 55.3245 32.6397C54.7155 33.1609 54.2822 33.8573 54.0837 34.6339C52.9979 39.0477 51.1134 49.0026 51.4129 64.1699L70.6529 64.4819C71.0481 61.7779 70.7361 49.2397 73.9809 36.585C74.1086 36.1489 74.1456 35.6912 74.0897 35.2403C74.0338 34.7893 73.8861 34.3546 73.6558 33.9629C73.4254 33.5712 73.1173 33.2308 72.7504 32.9628C72.3835 32.6947 71.9656 32.5046 71.5224 32.4042Z" fill="#263238"/>
<path d="M59.9365 35.1161L60.444 36.5513C60.4691 36.6213 60.5124 36.6832 60.5694 36.7308C60.6265 36.7783 60.6952 36.8097 60.7685 36.8217L61.5007 36.9341C61.6331 36.9531 61.768 36.9267 61.8834 36.8592L63.277 36.0272L61.8543 34.7251L59.9365 35.1161Z" fill="#069494"/>
<path d="M61.5679 36.498C61.2984 36.3865 61.0043 36.3478 60.7151 36.3857C59.8582 37.8625 58.4562 42.1806 58.061 44.1067C59.2342 48.0504 59.7625 48.483 59.7625 48.483L61.4681 43.9569C61.4681 43.9569 61.2434 39.1896 61.5679 36.498Z" fill="#069494"/>
<path d="M68.6938 22.7905C67.9159 25.378 66.9217 30.1537 68.5774 32.0465C67.009 33.3569 64.9831 34.8587 61.859 34.738C58.7348 34.6174 59.4919 32.5083 60.4279 31.4392C63.4231 30.9566 63.5646 28.7768 63.2609 26.6968L68.6938 22.7905Z" fill="#7F3E3B"/>
<path d="M69.4012 31.8944C69.1932 31.777 68.9745 31.6795 68.7481 31.6032C68.6922 31.5827 68.6311 31.5809 68.574 31.5982C68.517 31.6155 68.4671 31.6508 68.4319 31.6989C68.0659 32.1773 66.8553 34.3571 61.855 34.7399C62.5955 35.2973 63.4732 36.8823 63.8435 37.6519C65.4076 37.0362 69.5177 35.1559 69.5385 32.1482C69.5401 32.0975 69.5282 32.0474 69.5041 32.0028C69.4799 31.9582 69.4445 31.9208 69.4012 31.8944Z" fill="white"/>
<path d="M60.4401 31.5607C60.4555 31.5168 60.4598 31.4696 60.4523 31.4236C60.4449 31.3776 60.426 31.3342 60.3974 31.2974C60.3689 31.2606 60.3316 31.2315 60.2889 31.2128C60.2462 31.1941 60.1995 31.1865 60.153 31.1905C59.9795 31.2074 59.8072 31.2352 59.6372 31.2737C59.5973 31.2842 59.5594 31.3011 59.5249 31.3236C59.1089 31.6356 56.6794 34.3812 58.2769 36.9646C58.7886 36.3614 60.3569 35.0219 61.8545 34.739C60.5649 33.9777 60.0366 32.7505 60.4401 31.5607Z" fill="white"/>
<path opacity="0.2" d="M66.4806 24.3853L63.2649 26.6982C63.3446 27.1835 63.3794 27.675 63.3689 28.1667C64.5046 28.0877 66.1603 26.9728 66.3974 25.808C66.5096 25.3425 66.5378 24.8607 66.4806 24.3853Z" fill="black"/>
<path d="M71.2397 19.4997C70.0915 22.9441 69.5757 25.0117 67.3751 26.4302C64.0471 28.5601 60.2115 26.0392 60.328 22.3784C60.4279 19.0795 62.2874 13.996 66.0314 13.3345C69.7754 12.6731 72.3837 16.051 71.2397 19.4997Z" fill="#7F3E3B"/>
<path d="M69.9208 21.9216L67.87 21.0896C67.87 21.0896 70.3244 18.398 70.4658 16.7673C66.6594 16.1849 61.3596 16.2972 63.556 12.7446C65.037 10.3526 66.7759 10.3568 69.9916 11.4508C75.2664 13.248 74.5676 17.8531 73.3778 20.478C72.188 23.103 69.9208 21.9216 69.9208 21.9216Z" fill="#263238"/>
<path d="M70.8691 21.9097C70.8428 21.9089 70.8176 21.8985 70.7984 21.8805C69.8352 20.9881 68.7038 20.2966 67.4704 19.8463C67.4434 19.8369 67.4213 19.8171 67.4088 19.7914C67.3963 19.7657 67.3945 19.736 67.4038 19.709C67.4081 19.6958 67.4149 19.6836 67.4239 19.673C67.4329 19.6625 67.444 19.6539 67.4564 19.6477C67.4688 19.6415 67.4823 19.6378 67.4961 19.6369C67.51 19.636 67.5239 19.6379 67.537 19.6425C68.7994 20.1029 69.9575 20.81 70.944 21.7225C70.9633 21.7426 70.9741 21.7694 70.9741 21.7973C70.9741 21.8252 70.9633 21.8521 70.944 21.8722C70.9248 21.8939 70.898 21.9073 70.8691 21.9097Z" fill="white"/>
<path d="M63.3651 22.9022C63.6828 22.988 64.0143 23.0101 64.3406 22.9673C64.6668 22.9244 64.9814 22.8175 65.2662 22.6526C65.284 22.6387 65.2965 22.6193 65.3018 22.5974C65.3071 22.5755 65.3048 22.5524 65.2953 22.532C65.2791 22.5165 65.2575 22.5078 65.235 22.5078C65.2125 22.5078 65.1909 22.5165 65.1747 22.532C64.8593 22.7075 64.5081 22.8088 64.1477 22.8283C63.7873 22.8478 63.4271 22.7848 63.0947 22.6443C63.0731 22.6357 63.049 22.6357 63.0274 22.6442C63.0058 22.6527 62.9882 22.6691 62.9782 22.6901C62.9734 22.7001 62.9706 22.7111 62.9701 22.7222C62.9695 22.7334 62.9713 22.7446 62.9752 22.7551C62.979 22.7655 62.985 22.7751 62.9927 22.7833C63.0003 22.7914 63.0096 22.7979 63.0198 22.8024C63.133 22.842 63.2482 22.8754 63.3651 22.9022Z" fill="#263238"/>
<path d="M71.4347 23.5528C70.7931 24.2055 69.9279 24.5905 69.0136 24.6303C67.8196 24.6594 67.5742 23.5279 68.1816 22.5503C68.7432 21.6767 70.0452 20.6034 71.0936 21.036C72.1419 21.4687 72.2251 22.7416 71.4347 23.5528Z" fill="#7F3E3B"/>
<path d="M61.6507 99.9078C62.0667 81.7993 66.6094 64.4063 66.6094 64.4063L51.5835 64.165C51.5835 64.165 52.5029 90.319 52.7649 101.276C53.0353 112.666 71.8635 138.533 71.8635 138.533L77.0177 135.126C77.0177 135.126 62.0542 114.202 61.6507 99.9078Z" fill="#069494"/>
<g style="mix-blend-mode:multiply" opacity="0.2">
<path d="M63.0357 74.3697C58.5762 80.2311 60.157 91.2551 61.6712 99.0426C62.0089 90.4318 63.0047 81.8594 64.6498 73.4004L63.0357 74.3697Z" fill="black"/>
</g>
<path d="M65.9275 19.1756C65.8485 19.4585 65.6405 19.6582 65.4574 19.6166C65.2744 19.575 65.187 19.3171 65.2619 19.03C65.3368 18.743 65.5489 18.5475 65.732 18.5891C65.915 18.6307 66.0024 18.8928 65.9275 19.1756Z" fill="#263238"/>
<path d="M62.674 18.5741C62.5991 18.857 62.3869 19.0566 62.2039 19.015C62.0209 18.9734 61.9377 18.7155 62.0125 18.4285C62.0874 18.1414 62.2996 17.9459 62.4826 17.9875C62.6657 18.0291 62.753 18.3037 62.674 18.5741Z" fill="#263238"/>
<path d="M63.5644 18.9058C62.9818 19.6091 62.3106 20.2341 61.5676 20.7653C61.9337 21.2562 62.8364 21.2229 62.8364 21.2229L63.5644 18.9058Z" fill="#630F0F"/>
<path d="M67.2541 18.3887C67.2824 18.3985 67.3132 18.3985 67.3415 18.3887C67.3829 18.3703 67.4158 18.3369 67.4336 18.2952C67.4514 18.2535 67.4526 18.2066 67.4371 18.164C67.3418 17.9168 67.186 17.6973 66.984 17.5258C66.782 17.3543 66.5401 17.2362 66.2807 17.1823C66.2352 17.1772 66.1895 17.1893 66.1525 17.2163C66.1156 17.2432 66.0901 17.2831 66.081 17.3279C66.0755 17.3496 66.0747 17.3721 66.0786 17.3942C66.0825 17.4162 66.091 17.4371 66.1036 17.4556C66.1162 17.4741 66.1325 17.4897 66.1516 17.5013C66.1706 17.513 66.1919 17.5206 66.2141 17.5234C66.4183 17.5669 66.6083 17.6609 66.7667 17.7968C66.9251 17.9327 67.0469 18.1062 67.121 18.3013C67.1327 18.3269 67.1514 18.3487 67.175 18.3642C67.1985 18.3796 67.2259 18.3881 67.2541 18.3887Z" fill="#263238"/>
<path d="M61.4343 16.9296C61.4593 16.9427 61.4871 16.9495 61.5154 16.9495C61.5436 16.9495 61.5715 16.9427 61.5965 16.9296C61.772 16.7962 61.9762 16.7056 62.1929 16.6652C62.4096 16.6247 62.6327 16.6355 62.8445 16.6966C62.8882 16.712 62.9361 16.7103 62.9786 16.6917C63.021 16.6732 63.0549 16.6393 63.0733 16.5968C63.082 16.5766 63.0866 16.5549 63.0867 16.5329C63.0868 16.511 63.0824 16.4892 63.0739 16.469C63.0653 16.4488 63.0527 16.4305 63.0369 16.4153C63.0211 16.4 63.0023 16.3882 62.9818 16.3804C62.7191 16.3011 62.4414 16.2846 62.1712 16.3323C61.9009 16.38 61.6456 16.4905 61.4259 16.655C61.407 16.6672 61.3907 16.6831 61.3779 16.7016C61.3652 16.7202 61.3562 16.7411 61.3516 16.7632C61.3469 16.7852 61.3467 16.8079 61.3509 16.8301C61.3551 16.8522 61.3636 16.8733 61.376 16.8921C61.3917 16.9097 61.4118 16.9226 61.4343 16.9296Z" fill="#263238"/>
<path d="M71.9674 99.6591C71.7594 83.4351 72.7994 70.7846 70.6695 64.4739L57.9565 64.27C57.9565 64.27 62.4244 89.567 63.6849 100.441C64.9911 111.744 67.1418 138.347 67.1418 138.347L72.945 138.426C72.945 138.426 74.3386 112.318 71.9674 99.6591Z" fill="#069494"/>
<path d="M68.8479 31.9141C66.7471 34.5391 61.2267 38.1541 59.7666 44.4607C58.1775 38.1791 60.324 31.4399 60.324 31.4399C59.1509 31.3525 56.7173 31.2443 55.0075 31.7227C54.4624 31.8798 53.9703 32.1823 53.5841 32.5979C53.1978 33.0134 52.932 33.5263 52.8152 34.0815C51.4491 40.9475 50.758 47.9308 50.7519 54.9314C50.7186 68.1394 49.6328 88.5816 49.6328 88.5816C49.6328 88.5816 63.0114 89.3637 73.5611 88.228C73.6069 78.1317 71.5061 60.9925 72.0511 56.5122C72.7541 50.7506 74.3557 39.502 75.1502 34.822C75.2732 34.1716 75.153 33.4988 74.8125 32.9313C74.472 32.3638 73.9349 31.9411 73.3032 31.7435C72.0803 31.4342 70.8099 31.3594 69.5592 31.5231C69.2799 31.5548 69.0243 31.6953 68.8479 31.9141Z" fill="#069494"/>
<path opacity="0.7" d="M68.8437 31.9141C66.7429 34.5432 61.2226 38.1541 59.7666 44.4607C58.1775 38.1791 60.324 31.4399 60.324 31.4399C59.1509 31.3525 56.7173 31.2443 55.0075 31.7227C54.4624 31.8798 53.9703 32.1823 53.5841 32.5979C53.1978 33.0134 52.932 33.5263 52.8152 34.0815C51.4491 40.9475 50.758 47.9308 50.7519 54.9314C50.7186 68.1394 49.6328 88.5816 49.6328 88.5816C49.6328 88.5816 63.0114 89.3637 73.5611 88.228C73.6069 78.1317 71.5061 60.9925 72.0511 56.5122C72.7541 50.7464 74.3557 39.4978 75.1503 34.822C75.2778 34.1926 75.1733 33.5384 74.8559 32.9802C74.5386 32.4219 74.0299 31.9975 73.4239 31.7852C72.166 31.4494 70.8547 31.3618 69.5634 31.5272C69.2819 31.5563 69.0232 31.6953 68.8437 31.9141Z" fill="white"/>
<path opacity="0.5" d="M59.0712 87.3583C58.4389 74.5122 59.3874 47.6262 59.5413 45.2217H59.7659C59.612 47.622 58.6635 74.4914 59.2959 87.3334L59.0712 87.3583Z" fill="#069494"/>
<path d="M58.7095 36.1899C57.3825 38.5112 56.1095 40.9656 54.9655 43.3909C54.3915 44.6097 53.8548 45.8328 53.3931 47.0433C53.1601 47.6465 52.9521 48.2456 52.7732 48.8197C52.6134 49.314 52.4938 49.8204 52.4155 50.3339V50.3672C52.4207 50.3077 52.4207 50.2478 52.4155 50.1883C52.4094 50.0486 52.3927 49.9095 52.3655 49.7723C52.3299 49.63 52.2826 49.4909 52.2241 49.3563C52.1687 49.2373 52.1033 49.1231 52.0286 49.0152C51.8905 48.8071 51.7052 48.6347 51.4878 48.5118C51.3547 48.4536 51.5211 48.5368 51.7124 48.5701C52.243 48.6768 52.7815 48.7394 53.3223 48.7573C54.6145 48.8109 55.9086 48.7984 57.1995 48.7198C58.5265 48.6366 59.8743 48.516 61.218 48.3704C61.8919 48.2955 62.5659 48.2081 63.2356 48.1166L64.2423 47.9793L64.7415 47.9003L64.9911 47.8629L65.1118 47.8421H65.1742H65.2116H65.1492L65.0286 47.867L66.235 53.4123L66.0977 53.4373H66.0187H65.9646H65.8939H65.7566L65.4903 53.4664L64.9579 53.5246L63.8971 53.6369L61.7796 53.8408C60.3611 53.9739 58.9425 54.0862 57.499 54.1569C56.0555 54.2277 54.587 54.2942 53.0561 54.2277C52.2094 54.201 51.3662 54.105 50.5351 53.9406C49.9294 53.8206 49.3438 53.6146 48.7963 53.3291C48.2682 53.0494 47.8124 52.6506 47.4651 52.1643C47.2001 51.7899 47.0146 51.3652 46.9201 50.9163C46.8683 50.6898 46.8418 50.4582 46.8411 50.2258C46.8411 50.1259 46.8411 49.9762 46.8411 49.9138V49.8222C46.9286 48.9505 47.0957 48.0885 47.3403 47.2472C47.5524 46.4901 47.7854 45.7745 48.0308 45.0757C48.53 43.6821 49.0625 42.3467 49.6116 41.0238C50.1607 39.7009 50.7431 38.4072 51.3255 37.1176C51.9079 35.828 52.507 34.5592 53.131 33.2446L58.7095 36.1899Z" fill="#069494"/>
<g opacity="0.7">
<path d="M58.7091 36.1904C57.382 38.5117 56.1091 40.9661 54.9651 43.3914C54.391 44.6102 53.8543 45.8333 53.3926 47.0438C53.1596 47.647 52.9516 48.2461 52.7727 48.8202C52.6129 49.3145 52.4933 49.8208 52.415 50.3344V50.3677C52.4202 50.3082 52.4202 50.2483 52.415 50.1888C52.4089 50.0491 52.3922 49.91 52.3651 49.7728C52.3294 49.6305 52.2821 49.4913 52.2236 49.3568C52.1682 49.2377 52.1028 49.1236 52.0281 49.0157C51.89 48.8076 51.7047 48.6352 51.4873 48.5123C51.3542 48.4541 51.5206 48.5373 51.7119 48.5706C52.2425 48.6772 52.781 48.7399 53.3219 48.7578C54.614 48.8114 55.9081 48.7989 57.199 48.7203C58.526 48.6371 59.8739 48.5165 61.2175 48.3709C61.8915 48.296 62.5654 48.2086 63.2351 48.1171L64.2419 47.9798L64.7411 47.9008L64.9907 47.8634L65.1113 47.8426H65.1737H65.2111H65.1487L65.0281 47.8675L66.2345 53.4128L66.0972 53.4378H66.0182H65.9641H65.8934H65.7561L65.4899 53.4669L64.9574 53.5251L63.8966 53.6374L61.7791 53.8413C60.3606 53.9744 58.942 54.0867 57.4985 54.1574C56.055 54.2282 54.5865 54.2947 53.0556 54.2282C52.2089 54.2015 51.3657 54.1055 50.5347 53.9411C49.9289 53.8211 49.3434 53.6151 48.7958 53.3296C48.2677 53.0498 47.812 52.6511 47.4646 52.1648C47.1996 51.7904 47.0141 51.3657 46.9196 50.9168C46.8678 50.6902 46.8413 50.4586 46.8406 50.2262C46.8406 50.1264 46.8406 49.9766 46.8406 49.9142V49.8227C46.9281 48.9509 47.0952 48.089 47.3398 47.2477C47.5519 46.4906 47.7849 45.775 48.0303 45.0762C48.5295 43.6826 49.062 42.3472 49.6111 41.0243C50.1603 39.7014 50.7427 38.4077 51.3251 37.1181C51.9075 35.8285 52.5065 34.5597 53.1305 33.2451L58.7091 36.1904Z" fill="white"/>
</g>
<path d="M54.9615 48.3952L52.245 45.7993L50.3979 49.6598C50.3979 49.6598 53.1186 51.7398 54.3499 50.4918L54.9615 48.3952Z" fill="#7F3E3B"/>
<path d="M64.8958 49.7172L67.3918 46.9009L69.5466 50.6033C69.5466 50.6033 67.009 52.8913 65.6861 51.7681L64.8958 49.7172Z" fill="#7F3E3B"/>
<path d="M71.1358 46.5655L71.6683 48.009C71.7696 48.297 71.7705 48.6107 71.6708 48.8993C71.5711 49.1878 71.3767 49.4341 71.1192 49.5981L69.555 50.6048L67.4001 46.9024L69.5051 45.9207C69.6531 45.8467 69.815 45.8047 69.9803 45.7975C70.1456 45.7903 70.3106 45.818 70.4645 45.8789C70.6183 45.9397 70.7577 46.0323 70.8733 46.1506C70.989 46.2689 71.0785 46.4103 71.1358 46.5655Z" fill="#7F3E3B"/>
<path d="M48.4883 45.7578L48.0723 47.2346C47.9962 47.53 48.0222 47.8423 48.1461 48.121C48.2699 48.3996 48.4843 48.6283 48.7545 48.7697L50.4185 49.6474L52.2656 45.787L50.0816 44.9799C49.9268 44.9148 49.7598 44.8835 49.592 44.8882C49.4241 44.8928 49.2592 44.9334 49.1083 45.0071C48.9573 45.0807 48.8239 45.1859 48.717 45.3154C48.6101 45.4448 48.5321 45.5957 48.4883 45.7578Z" fill="#7F3E3B"/>
<path d="M75.1543 34.2197C75.3041 35.0268 75.4206 35.7464 75.5412 36.5077C75.6619 37.269 75.7659 38.0136 75.8574 38.7708C76.0529 40.285 76.2151 41.8076 76.2942 43.3759C76.3971 45.0122 76.3623 46.6542 76.1902 48.2847C76.0823 49.2851 75.8345 50.2653 75.4539 51.1967C75.3349 51.4835 75.1959 51.7615 75.0379 52.0287C74.938 52.1784 74.8507 52.3199 74.73 52.4738L74.6427 52.5861C74.6085 52.6345 74.5709 52.6803 74.5303 52.7234C74.4154 52.8563 74.2917 52.9814 74.1601 53.0978C73.7885 53.4159 73.3668 53.6703 72.9121 53.8508C72.6119 53.9728 72.3033 54.0729 71.9886 54.1503C71.0822 54.3495 70.1583 54.4582 69.2305 54.4748C68.3985 54.4997 67.6123 54.4748 66.8343 54.4498C65.2785 54.3874 63.7726 54.2376 62.2583 54.0879C60.7441 53.9381 59.2798 53.7468 57.803 53.5388C56.3262 53.3308 54.8702 53.1228 53.3643 52.8856L54.3918 47.3029C55.7604 47.5858 57.1956 47.8271 58.6059 48.0559C60.0161 48.2847 61.4388 48.4719 62.8491 48.6258C64.2593 48.7797 65.6654 48.892 67.034 48.9503C67.7121 48.9711 68.386 48.9794 69.0183 48.9503C69.5527 48.941 70.0849 48.8797 70.6075 48.7672C70.674 48.7672 70.7447 48.7215 70.7239 48.7215C70.6175 48.7715 70.5193 48.8374 70.4327 48.917C70.368 48.9713 70.3082 49.0312 70.2539 49.0959C70.2164 49.1458 70.2539 49.1208 70.2247 49.1292C70.2247 49.1292 70.2539 49.0668 70.2788 48.996C70.4246 48.5569 70.5155 48.1014 70.5492 47.6399C70.6477 46.3581 70.6268 45.0698 70.4868 43.7919C70.3579 42.4399 70.1582 41.0629 69.9127 39.686C69.7838 38.9996 69.6423 38.3132 69.4967 37.6268C69.3511 36.9404 69.1806 36.2373 69.0142 35.6175L75.1543 34.2197Z" fill="#069494"/>
<g opacity="0.7">
<path d="M75.1548 34.2163C75.3046 35.0233 75.4211 35.743 75.5417 36.5043C75.6623 37.2656 75.7663 38.0102 75.8579 38.7673C76.0534 40.2816 76.2156 41.8042 76.2947 43.3725C76.3975 45.0088 76.3627 46.6508 76.1907 48.2813C76.0828 49.2816 75.835 50.2619 75.4543 51.1933C75.3354 51.48 75.1964 51.7581 75.0383 52.0253C74.9385 52.175 74.8511 52.3165 74.7305 52.4704L74.6431 52.5827C74.609 52.631 74.5714 52.6769 74.5308 52.72C74.4159 52.8529 74.2922 52.978 74.1606 53.0944C73.789 53.4125 73.3673 53.6669 72.9126 53.8473C72.6124 53.9694 72.3037 54.0695 71.9891 54.1469C71.0827 54.3461 70.1588 54.4548 69.231 54.4713C68.399 54.4963 67.6127 54.4713 66.8348 54.4464C65.279 54.384 63.7731 54.2342 62.2588 54.0845C60.7446 53.9347 59.2803 53.7433 57.8035 53.5353C56.3267 53.3273 54.8707 53.1194 53.3647 52.8822L54.3923 47.2995C55.7609 47.5824 57.1961 47.8237 58.6063 48.0525C60.0166 48.2813 61.4393 48.4685 62.8495 48.6224C64.2598 48.7763 65.6659 48.8886 67.0345 48.9469C67.7126 48.9677 68.3865 48.976 69.0188 48.9469C69.5532 48.9376 70.0854 48.8763 70.6079 48.7638C70.6745 48.7638 70.7452 48.7181 70.7244 48.7181C70.618 48.7681 70.5198 48.834 70.4332 48.9136C70.3685 48.9679 70.3087 49.0278 70.2543 49.0925C70.2169 49.1424 70.2543 49.1174 70.2252 49.1258C70.2252 49.1258 70.2543 49.0633 70.2793 48.9926C70.4251 48.5535 70.516 48.098 70.5497 47.6365C70.6482 46.3546 70.6273 45.0664 70.4873 43.7885C70.3583 42.4365 70.1587 41.0595 69.9132 39.6825C69.7843 38.9961 69.6428 38.3097 69.4972 37.6233C69.3516 36.9369 69.1811 36.2339 69.0147 35.6141L75.1548 34.2163Z" fill="white"/>
</g>
<path d="M65.7527 63.918L71.9927 68.4649C71.9927 68.4649 72.6999 74.5717 69.193 75.1708C65.6862 75.7698 64.9956 68.3192 65.7527 63.918Z" fill="#069494"/>
<path opacity="0.5" d="M65.7527 63.918L71.9927 68.4649C71.9927 68.4649 72.6999 74.5717 69.193 75.1708C65.6862 75.7698 64.9956 68.3192 65.7527 63.918Z" fill="white"/>
<path d="M52.249 63.918L49.9652 68.4649C49.9652 68.4649 49.2372 74.5717 50.2605 75.1708C51.2839 75.7698 52.1117 68.3192 52.249 63.918Z" fill="#069494"/>
<path opacity="0.5" d="M52.249 63.918L49.9652 68.4649C49.9652 68.4649 49.2372 74.5717 50.2605 75.1708C51.2839 75.7698 52.1117 68.3192 52.249 63.918Z" fill="white"/>
<path d="M61.1514 20.5781C61.0759 20.5781 61.0005 20.5697 60.9268 20.5532C60.7816 20.5171 60.6456 20.4507 60.528 20.3582C60.4104 20.2656 60.3138 20.1492 60.2446 20.0165C60.0881 19.6686 60.0024 19.293 59.9924 18.9117C59.9824 18.5303 60.0483 18.1508 60.1863 17.7951C60.6023 16.4681 61.6382 15.5445 62.4702 15.7151C62.6151 15.7519 62.7507 15.8186 62.8682 15.9111C62.9857 16.0035 63.0825 16.1196 63.1524 16.2517C63.3088 16.5997 63.3945 16.9753 63.4045 17.3566C63.4145 17.738 63.3486 18.1175 63.2106 18.4732C62.8154 19.7045 61.9335 20.5781 61.1514 20.5781ZM62.2414 15.8066C61.505 15.8066 60.6606 16.6386 60.2862 17.8159C60.0118 18.5089 60.0238 19.2825 60.3194 19.9666C60.3818 20.0867 60.4689 20.1921 60.5751 20.276C60.6812 20.3599 60.8039 20.4204 60.9351 20.4533C61.7172 20.6364 62.6823 19.742 63.0942 18.469C63.3576 17.7768 63.3381 17.0088 63.0401 16.3308C62.979 16.2105 62.8928 16.1048 62.7873 16.0209C62.6818 15.9369 62.5594 15.8766 62.4286 15.8441C62.3678 15.8244 62.305 15.8119 62.2414 15.8066Z" fill="white"/>
<path d="M65.5822 21.5341C65.4774 21.5333 65.3728 21.5222 65.2702 21.5008C65.0173 21.4324 64.7841 21.3051 64.5896 21.1294C64.3951 20.9538 64.2449 20.7347 64.1512 20.49C63.9118 19.9085 63.8638 19.266 64.0139 18.6554C64.3176 17.3159 65.3784 16.4132 66.3768 16.6378C66.6297 16.7063 66.8629 16.8335 67.0574 17.0092C67.2518 17.1849 67.4021 17.404 67.4958 17.6487C67.7331 18.2292 67.7812 18.8697 67.6331 19.4791C67.3585 20.6813 66.4766 21.5341 65.5822 21.5341ZM66.0648 16.7085C65.2328 16.7085 64.38 17.5405 64.1179 18.6804C63.9735 19.2686 64.0187 19.8873 64.2468 20.4484C64.3334 20.6785 64.4737 20.8847 64.656 21.0497C64.8384 21.2147 65.0575 21.3337 65.2952 21.3968C66.2312 21.6132 67.2337 20.7396 67.5291 19.4583C67.6734 18.8701 67.6283 18.2513 67.4001 17.6903C67.313 17.4605 67.1725 17.2546 66.9903 17.0897C66.808 16.9248 66.5892 16.8056 66.3518 16.7418C66.2576 16.7205 66.1614 16.7093 66.0648 16.7085Z" fill="white"/>
<path d="M63.9928 19.2835C63.9669 19.2847 63.9415 19.2758 63.9221 19.2586C63.8064 19.1466 63.6672 19.0617 63.5148 19.0099C63.3623 18.9581 63.2002 18.9407 63.0402 18.9591C63.0126 18.9646 62.984 18.9589 62.9606 18.9433C62.9371 18.9277 62.9209 18.9034 62.9154 18.8759C62.9099 18.8483 62.9155 18.8196 62.9311 18.7962C62.9467 18.7728 62.971 18.7566 62.9986 18.7511C63.1903 18.7261 63.3852 18.7445 63.5688 18.805C63.7524 18.8655 63.9201 18.9665 64.0594 19.1005C64.0695 19.1102 64.0775 19.1218 64.0829 19.1347C64.0884 19.1476 64.0912 19.1614 64.0912 19.1754C64.0912 19.1894 64.0884 19.2032 64.0829 19.2161C64.0775 19.2289 64.0695 19.2406 64.0594 19.2503C64.0416 19.2686 64.0182 19.2803 63.9928 19.2835Z" fill="white"/>
<path d="M65.1574 46.1733L64.9286 45.6616C68.4729 44.0974 70.8025 40.9358 70.4406 39.2594C70.2493 38.3733 69.3174 38.1861 68.5561 38.1986C64.8995 38.2318 63.6765 41.851 62.6905 44.763C62.5657 45.1374 62.4409 45.4952 62.3203 45.828L61.7961 45.6366C61.9126 45.308 62.0333 44.9544 62.1622 44.5841C63.1481 41.6721 64.5001 37.6744 68.552 37.6411H68.5977C70.3949 37.6411 70.8691 38.5771 70.9897 39.1387C71.4016 41.044 68.9971 44.4594 65.1574 46.1733Z" fill="#263238"/>
<path d="M64.2803 45.5536C63.9974 46.1693 64.1139 46.8224 64.5341 47.0138C64.9542 47.2051 65.5283 46.864 65.807 46.2483C66.0858 45.6326 65.9734 44.9795 65.5533 44.7882C65.1331 44.5968 64.559 44.9254 64.2803 45.5536Z" fill="#263238"/>
<path d="M61.1138 45.5536C60.8309 46.1693 60.9474 46.8224 61.3676 47.0138C61.7877 47.2051 62.3618 46.864 62.6405 46.2483C62.9193 45.6326 62.8111 44.9795 62.3868 44.7882C61.9624 44.5968 61.3967 44.9254 61.1138 45.5536Z" fill="#263238"/>
<path d="M55.8488 39.4558C55.9219 38.6781 55.3655 37.9897 54.6061 37.9183C53.8467 37.847 53.1718 38.4196 53.0987 39.1973C53.0256 39.975 53.5819 40.6633 54.3414 40.7347C55.1008 40.8061 55.7757 40.2335 55.8488 39.4558Z" fill="#263238"/>
<path d="M68.8272 38.1957C68.7942 38.2016 68.7604 38.2016 68.7274 38.1957C68.6928 38.1828 68.6611 38.1632 68.6342 38.1379C68.6073 38.1127 68.5857 38.0823 68.5706 38.0487C68.5555 38.015 68.5473 37.9787 68.5463 37.9418C68.5454 37.9049 68.5518 37.8682 68.5651 37.8338C68.5651 37.813 69.4512 35.4127 68.0576 31.8143C68.0442 31.7801 68.0377 31.7437 68.0384 31.707C68.0391 31.6704 68.047 31.6342 68.0617 31.6006C68.0764 31.567 68.0975 31.5366 68.1239 31.5112C68.1504 31.4857 68.1815 31.4658 68.2157 31.4524C68.2498 31.439 68.2863 31.4325 68.3229 31.4332C68.3596 31.4339 68.3958 31.4418 68.4294 31.4565C68.463 31.4711 68.4934 31.4923 68.5188 31.5187C68.5442 31.5451 68.5642 31.5763 68.5776 31.6105C70.0586 35.4252 69.1267 37.9295 69.0851 38.0335C69.063 38.083 69.0266 38.1248 68.9807 38.1537C68.9348 38.1825 68.8814 38.1972 68.8272 38.1957Z" fill="#263238"/>
<path d="M53.9343 39.1813H53.8761C53.8041 39.1644 53.7415 39.1203 53.7012 39.0583C53.6609 38.9963 53.646 38.9212 53.6598 38.8485C53.7139 38.5864 55.0659 32.3922 60.2617 31.1692C60.334 31.1526 60.4099 31.1655 60.4727 31.2049C60.5355 31.2442 60.58 31.307 60.5966 31.3792C60.6131 31.4515 60.6003 31.5274 60.5609 31.5902C60.5215 31.653 60.4588 31.6976 60.3865 31.7141C55.5401 32.8581 54.2214 38.9026 54.2089 38.9608C54.1948 39.0232 54.16 39.079 54.1101 39.119C54.0603 39.1591 53.9983 39.181 53.9343 39.1813Z" fill="#263238"/>
<path d="M111.658 27.2802C106.75 26.1986 101.766 26.0946 96.7074 26.5564C95.8672 26.634 95.0733 26.9764 94.4401 27.5341C93.8069 28.0918 93.3671 28.8361 93.1839 29.6598C92.1689 34.3522 90.4841 44.9353 91.2828 61.0553L111.758 61.3881C112.091 58.5094 111.342 45.1641 114.425 31.719C114.539 31.2457 114.558 30.7543 114.481 30.2736C114.403 29.7929 114.23 29.3325 113.973 28.9192C113.715 28.506 113.378 28.1482 112.981 27.8668C112.583 27.5854 112.134 27.386 111.658 27.2802Z" fill="#069494"/>
<path d="M99.4236 30.163L100.006 31.6939C100.035 31.7688 100.084 31.8346 100.147 31.885C100.209 31.9353 100.284 31.9684 100.364 31.981L101.142 32.0974C101.285 32.1238 101.434 32.0956 101.558 32.0184L103.01 31.149L101.462 29.7637L99.4236 30.163Z" fill="#263238"/>
<path d="M101.212 31.6352C100.926 31.5165 100.613 31.4749 100.306 31.5146C99.4361 33.0871 98.0841 37.6797 97.7263 39.7264C99.0991 43.9197 99.6774 44.3773 99.6774 44.3773L101.341 39.5683C101.341 39.5683 100.942 34.4973 101.212 31.6352Z" fill="#263238"/>
<path d="M108.342 17.0557C107.598 19.8096 106.678 24.8889 108.513 26.8982C106.89 28.2918 104.769 29.8893 101.441 29.7603C98.1128 29.6313 98.8533 27.3891 99.8143 26.2493C102.984 25.7376 103.067 23.4205 102.676 21.2115L108.342 17.0557Z" fill="#FF8B7B"/>
<path d="M109.407 26.7411C109.182 26.6146 108.945 26.5101 108.7 26.4291C108.641 26.4077 108.577 26.4059 108.517 26.4239C108.457 26.4419 108.405 26.4787 108.367 26.5289C107.993 27.0406 106.778 29.3577 101.474 29.7654C102.277 30.3561 103.259 32.0451 103.679 32.8479C105.322 32.1948 109.632 30.1772 109.557 26.999C109.557 26.9467 109.542 26.8955 109.516 26.8504C109.49 26.8052 109.453 26.7675 109.407 26.7411Z" fill="white"/>
<path d="M99.8391 26.3872C99.8589 26.3384 99.8657 26.2852 99.8588 26.233C99.8518 26.1807 99.8314 26.1311 99.7995 26.0892C99.7676 26.0472 99.7253 26.0142 99.6768 25.9936C99.6283 25.9729 99.5753 25.9652 99.5229 25.9712C99.3396 25.9889 99.1576 26.0181 98.978 26.0586C98.9363 26.0698 98.8969 26.0881 98.8615 26.1127C98.4455 26.4413 95.9495 29.3658 97.7133 32.1114C98.2375 31.4708 99.8516 30.0314 101.457 29.7444C100.051 28.954 99.4522 27.6519 99.8391 26.3872Z" fill="white"/>
<path opacity="0.2" d="M106.038 18.7529L102.71 21.2115C102.809 21.7257 102.862 22.2478 102.868 22.7715C104.07 22.6883 105.78 21.5235 106.013 20.2755C106.116 19.7739 106.124 19.2576 106.038 18.7529Z" fill="black"/>
<path d="M101.533 15.3916C99.5858 16.0239 99.2862 14.4889 99.6856 12.9788C99.931 12.0387 99.5899 11.4396 99.4568 10.4079C99.228 8.71482 99.6523 7.21722 102.81 6.11898C106.903 4.6921 106 7.09658 106.163 8.09082C106.325 9.08506 104.624 9.6841 104.707 10.7075C104.774 11.7301 104.499 12.7461 103.924 13.5945C103.349 14.443 102.507 15.0754 101.533 15.3916Z" fill="#263238"/>
<path d="M110.947 13.5558C109.836 17.2208 109.37 19.4214 107.053 20.9273C103.584 23.1945 99.4236 20.5155 99.4236 16.6384C99.4236 13.1315 101.242 7.7235 105.198 7.02046C106.061 6.85749 106.951 6.92204 107.782 7.20777C108.612 7.49349 109.354 7.99054 109.934 8.65001C110.515 9.30947 110.913 10.1086 111.09 10.9688C111.268 11.829 111.218 12.7206 110.947 13.5558Z" fill="#FF8B7B"/>
<path d="M109.824 9.76682C107.848 9.41738 105.51 10.2577 103.538 9.76682C101.974 9.35082 101.991 8.3233 102.219 7.27082C102.556 5.71914 103.846 5.21162 104.62 4.92458C105.394 4.63754 105.793 5.60266 106.862 4.86634C107.582 4.36714 110.327 4.24234 111.954 4.86634C113.58 5.49034 111.721 6.66762 112.59 7.21258C115.278 8.87658 113.568 10.4283 109.824 9.76682Z" fill="#263238"/>
<path opacity="0.3" d="M103.642 9.34306C102.943 7.74978 103.679 5.61986 106.616 5.41602C104.041 6.18978 103.642 9.34306 103.642 9.34306Z" fill="white"/>
<path d="M109.27 17.2676C107.606 17.0055 107.702 15.1252 108.513 13.8231C109.287 12.5751 108.147 11.2273 108.064 10.283C107.981 9.33863 108.863 8.37767 110.56 8.45671C112.257 8.53575 114.953 9.61319 114.999 10.857C115.044 12.1009 113.305 11.947 113.576 13.1492C114.171 15.8282 111.695 17.6545 109.27 17.2676Z" fill="#263238"/>
<path opacity="0.3" d="M112.735 10.7725C112.032 12.0205 110.572 12.2909 108.679 10.7725C109.319 11.0523 110.009 11.1968 110.707 11.1968C111.405 11.1968 112.096 11.0523 112.735 10.7725Z" fill="white"/>
<path d="M100.164 16.5264C99.4027 17.3293 99.4692 18.9434 99.5108 19.7171C99.5524 20.4909 100.21 21.7638 102.643 22.1299C105.077 22.496 105.647 21.6349 105.763 20.8195C105.88 20.0042 105.763 17.687 104.977 16.9133C104.191 16.1395 101.025 15.6154 100.164 16.5264Z" fill="#263238"/>
<path d="M101.749 17.6988C102.086 17.7913 102.437 17.8154 102.783 17.7697C103.129 17.724 103.462 17.6093 103.763 17.4326C103.778 17.4177 103.788 17.3979 103.79 17.3766C103.792 17.3553 103.787 17.3339 103.775 17.3161C103.763 17.2984 103.745 17.2853 103.725 17.2792C103.704 17.2731 103.682 17.2744 103.663 17.2828C103.327 17.4733 102.952 17.5834 102.566 17.6043C102.181 17.6252 101.796 17.5565 101.441 17.4034C101.419 17.3936 101.394 17.3929 101.372 17.4014C101.349 17.41 101.331 17.4272 101.321 17.4492C101.311 17.4713 101.31 17.4964 101.319 17.519C101.327 17.5416 101.344 17.5599 101.366 17.5698C101.491 17.6209 101.619 17.6639 101.749 17.6988Z" fill="#FF8B7B"/>
<path d="M111.283 17.8863C110.616 18.5823 109.705 18.9911 108.742 19.0261C107.494 19.0636 107.177 17.8572 107.81 16.8213C108.384 15.8895 109.732 14.7413 110.867 15.2114C112.003 15.6815 112.099 17.0044 111.283 17.8863Z" fill="#FF8B7B"/>
<path d="M101.865 99.0741C102.365 79.8133 107.273 61.318 107.273 61.318L91.3115 61.0601C91.3115 61.0601 92.2018 88.8738 92.443 100.526C92.6968 112.64 96.4824 141.082 96.4824 141.082L102.964 141.182C102.964 141.182 102.244 114.271 101.865 99.0741Z" fill="#263238"/>
<path opacity="0.2" d="M103.422 71.914C98.6583 78.154 100.31 89.8686 101.891 98.1511C102.236 87.8551 103.792 77.8586 105.144 70.8823L103.422 71.914Z" fill="black"/>
<path d="M105.285 13.2103C105.21 13.5139 104.994 13.7261 104.798 13.6845C104.603 13.6429 104.499 13.3642 104.573 13.0605C104.648 12.7568 104.86 12.5447 105.056 12.5863C105.252 12.6279 105.356 12.8941 105.285 13.2103Z" fill="#263238"/>
<path d="M101.807 12.5692C101.737 12.8729 101.52 13.0809 101.321 13.0393C101.121 12.9977 101.025 12.719 101.096 12.4153C101.167 12.1116 101.387 11.9036 101.583 11.9452C101.778 11.9868 101.878 12.2656 101.807 12.5692Z" fill="#263238"/>
<path d="M102.752 13.0503C102.149 13.798 101.449 14.4625 100.672 15.0263C101.088 15.5505 102.036 15.513 102.036 15.513L102.752 13.0503Z" fill="#FF5652"/>
<path d="M106.766 12.0015C106.796 12.0091 106.827 12.0091 106.858 12.0015C106.902 11.9816 106.936 11.945 106.953 11.8998C106.97 11.8546 106.969 11.8044 106.949 11.7603C106.842 11.4982 106.672 11.2664 106.454 11.0851C106.237 10.9039 105.978 10.7786 105.701 10.7203C105.653 10.7131 105.604 10.7253 105.565 10.7542C105.526 10.783 105.5 10.8262 105.493 10.8742C105.489 10.8972 105.489 10.9207 105.494 10.9435C105.5 10.9663 105.509 10.9878 105.523 11.0069C105.536 11.0259 105.554 11.0419 105.573 11.0542C105.593 11.0664 105.616 11.0745 105.639 11.078C105.859 11.1264 106.064 11.2273 106.236 11.3722C106.408 11.5171 106.543 11.7017 106.629 11.91C106.643 11.9352 106.662 11.9566 106.686 11.9726C106.71 11.9885 106.737 11.9984 106.766 12.0015Z" fill="#263238"/>
<path d="M100.829 10.915C100.859 10.9204 100.89 10.9187 100.919 10.91C100.948 10.9013 100.974 10.8859 100.996 10.8651C101.152 10.6951 101.347 10.5652 101.565 10.4863C101.782 10.4074 102.015 10.3818 102.244 10.4116C102.292 10.4192 102.341 10.4084 102.381 10.3814C102.421 10.3544 102.449 10.3132 102.46 10.266C102.47 10.2197 102.461 10.1713 102.435 10.1316C102.41 10.0918 102.369 10.0639 102.323 10.0539C102.036 10.016 101.744 10.0464 101.471 10.1426C101.197 10.2387 100.951 10.3979 100.75 10.6072C100.716 10.6414 100.697 10.6878 100.697 10.7361C100.697 10.7844 100.716 10.8308 100.75 10.8651C100.772 10.8877 100.8 10.9048 100.829 10.915Z" fill="#263238"/>
<path d="M115.232 98.5906C113.643 81.3765 114.237 68.0936 111.758 61.3877L98.2297 61.1714C98.2297 61.1714 104.245 88.3861 106.5 99.8594C108.838 111.782 113.093 139.953 113.093 139.953L119.267 140.041C119.267 140.041 118.834 111.903 115.232 98.5906Z" fill="#263238"/>
<path d="M83.9695 62.8896L81.748 66.1428L86.1452 67.4864C86.1452 67.4864 87.8092 64.3082 86.2949 63.2058L83.9695 62.8896Z" fill="#FF8B7B"/>
<path d="M82.4173 70.0946L84.048 70.3026C84.3675 70.3395 84.6899 70.2648 84.9605 70.0912C85.2312 69.9176 85.4335 69.6557 85.5331 69.3499L86.1446 67.4863L81.7475 66.1426L81.3315 68.5637C81.2982 68.7359 81.3001 68.9131 81.3371 69.0846C81.3742 69.256 81.4456 69.4182 81.5471 69.5613C81.6486 69.7044 81.778 69.8254 81.9276 69.917C82.0771 70.0087 82.2437 70.0691 82.4173 70.0946Z" fill="#FF8B7B"/>
<path d="M98.4005 31.0703C97.5685 33.8991 96.7532 36.7376 95.9545 39.5858C95.1557 42.4229 94.4028 45.2892 93.6789 48.1055C93.5375 48.7129 93.2629 49.7695 93.0092 50.4517C92.7554 51.134 92.51 51.9202 92.2562 52.6357C91.7404 54.0585 91.2162 55.4562 90.6837 56.8498L87.5346 65.2073L81.9519 62.9567C83.1084 60.2652 84.1941 57.5196 85.2508 54.7865C85.7625 53.4137 86.2658 52.0367 86.7442 50.6764C86.9813 49.9942 87.2143 49.3161 87.4181 48.6588C87.622 48.0015 87.7301 47.5647 87.9132 46.7285C88.5746 43.7957 89.2901 40.9337 89.9557 38.0383C90.6213 35.1429 91.3077 32.2725 91.9567 29.3813L98.4005 31.0703Z" fill="#069494"/>
<g opacity="0.6">
<path d="M98.4003 31.0703C97.5683 33.8991 96.7529 36.7376 95.9542 39.5858C95.1555 42.4229 94.4025 45.2892 93.6787 48.1055C93.5373 48.7129 93.2627 49.7695 93.0089 50.4517C92.7552 51.134 92.5097 51.9202 92.256 52.6357C91.7401 54.0585 91.216 55.4562 90.6835 56.8498L87.5344 65.2073L81.9517 62.9567C83.1081 60.2652 84.1939 57.5196 85.2505 54.7865C85.7622 53.4137 86.2656 52.0367 86.744 50.6764C86.9811 49.9942 87.2141 49.3161 87.4179 48.6588C87.6217 48.0015 87.7299 47.5647 87.9129 46.7285C88.5744 43.7957 89.2899 40.9337 89.9555 38.0383C90.6211 35.1429 91.3075 32.2725 91.9565 29.3813L98.4003 31.0703Z" fill="white"/>
</g>
<path d="M101.612 69.4935L78.2868 67.8711C77.9431 67.8441 77.6219 67.6896 77.3864 67.4379C77.1508 67.1862 77.0179 66.8555 77.0138 66.5108V50.499C77.0115 50.3351 77.0435 50.1725 77.1078 50.0218C77.1721 49.871 77.2673 49.7354 77.3872 49.6237C77.5072 49.512 77.6492 49.4267 77.8041 49.3733C77.959 49.3198 78.1235 49.2994 78.2868 49.3133L101.612 50.9316C101.956 50.9605 102.276 51.1161 102.511 51.3683C102.747 51.6205 102.88 51.9512 102.885 52.2961V68.3079C102.887 68.4718 102.855 68.6343 102.791 68.7851C102.726 68.9358 102.631 69.0714 102.511 69.1831C102.391 69.2948 102.249 69.3801 102.095 69.4336C101.94 69.4871 101.775 69.5075 101.612 69.4935Z" fill="#263238"/>
<path d="M102.015 69.2557L78.6901 67.6333C78.3464 67.6063 78.0252 67.4518 77.7897 67.2001C77.5541 66.9484 77.4212 66.6177 77.4171 66.273V50.2612C77.4148 50.0973 77.4468 49.9347 77.5111 49.784C77.5754 49.6332 77.6706 49.4977 77.7906 49.386C77.9105 49.2743 78.0525 49.1889 78.2074 49.1355C78.3624 49.082 78.5268 49.0616 78.6901 49.0756L102.015 50.6938C102.359 50.7217 102.679 50.8765 102.914 51.128C103.15 51.3795 103.283 51.7097 103.288 52.0541V68.0701C103.29 68.234 103.258 68.3965 103.194 68.5473C103.13 68.698 103.035 68.8336 102.915 68.9453C102.795 69.057 102.653 69.1423 102.498 69.1958C102.343 69.2493 102.178 69.2697 102.015 69.2557Z" fill="#069494"/>
<path d="M109.578 25.9866C107.664 28.8112 100.946 33.1085 99.54 40.1056C97.6472 33.4247 99.4692 25.816 99.4692 25.816C97.6404 25.8015 95.8189 26.0509 94.0612 26.5565C93.4893 26.7202 92.9745 27.0408 92.5753 27.4819C92.1761 27.923 91.9083 28.4671 91.8024 29.0525C90.5681 36.3756 90.0567 43.8022 90.2756 51.2253C90.6625 65.2736 90.1633 87.0013 90.1633 87.0013C90.1633 87.0013 104.415 87.8333 115.598 86.6269C115.327 75.8941 112.544 57.6608 112.981 52.8976C113.543 46.77 114.89 34.81 115.585 29.8346C115.688 29.1296 115.535 28.411 115.154 27.8094C114.772 27.2078 114.187 26.7632 113.505 26.5565C112.227 26.1932 110.907 26.0015 109.578 25.9866Z" fill="#069494"/>
<path opacity="0.7" d="M109.578 25.9866C107.664 28.8112 100.946 33.1085 99.54 40.1056C97.6472 33.4247 99.4692 25.816 99.4692 25.816C97.6404 25.8015 95.8189 26.0509 94.0612 26.5565C93.4893 26.7202 92.9745 27.0408 92.5753 27.4819C92.1761 27.923 91.9083 28.4671 91.8024 29.0525C90.5681 36.3756 90.0567 43.8022 90.2756 51.2253C90.6625 65.2736 90.1633 87.0013 90.1633 87.0013C90.1633 87.0013 104.415 87.8333 115.598 86.6269C115.327 75.8941 112.544 57.6608 112.981 52.8976C113.543 46.77 114.89 34.8058 115.585 29.8304C115.697 29.1505 115.564 28.453 115.209 27.8619C114.855 27.2708 114.303 26.8245 113.651 26.6023C112.329 26.2076 110.958 26.0003 109.578 25.9866Z" fill="white"/>
<path d="M110.735 60.1572L108.347 63.2897L112.669 64.8622C112.669 64.8622 114.491 61.7755 113.039 60.594L110.735 60.1572Z" fill="#FF8B7B"/>
<path d="M108.808 67.2712L110.422 67.5665C110.74 67.6198 111.066 67.562 111.345 67.4029C111.625 67.2437 111.841 66.993 111.958 66.6929L112.669 64.8625L108.347 63.29L107.785 65.6862C107.742 65.8578 107.734 66.0365 107.763 66.2111C107.792 66.3857 107.856 66.5525 107.952 66.7012C108.048 66.8499 108.174 66.9772 108.321 67.0753C108.468 67.1733 108.634 67.24 108.808 67.2712Z" fill="#FF8B7B"/>
<path d="M115.319 28.4336C115.943 29.8022 116.525 31.1043 117.091 32.4563C117.656 33.8083 118.222 35.1437 118.755 36.5206C119.287 37.8976 119.766 39.2995 120.223 40.768C120.444 41.5085 120.639 42.2656 120.818 43.0851C120.901 43.5011 120.976 43.9171 121.034 44.3747C121.102 44.8862 121.128 45.4023 121.113 45.9181C121.113 46.0928 121.088 46.2717 121.072 46.4464L121.005 46.8624C120.955 47.1453 120.897 47.345 120.843 47.5904C120.727 48.0064 120.602 48.4224 120.477 48.8134C120.219 49.5789 119.949 50.2861 119.666 50.9808C119.1 52.3744 118.497 53.6973 117.881 55.016C117.265 56.3347 116.658 57.6326 116.022 58.9264C115.385 60.2201 114.774 61.4973 114.112 62.8077L108.783 59.9706C110.135 57.5619 111.412 55.0451 112.594 52.5533C113.176 51.3053 113.729 50.0365 114.22 48.8093C114.466 48.1936 114.699 47.5613 114.886 46.9955L115.015 46.5795L115.115 46.1843C115.115 46.0845 115.169 45.943 115.173 45.8765V45.7642V45.5312C115.173 45.4189 115.152 45.3232 115.127 45.1901C115.09 44.9446 115.036 44.6742 114.969 44.3914C114.836 43.8256 114.657 43.2182 114.453 42.6067C114.037 41.3587 113.551 40.1107 113.01 38.8627C112.469 37.6147 111.895 36.3667 111.283 35.1187C110.672 33.8707 110.035 32.6227 109.382 31.4746L115.319 28.4336Z" fill="#069494"/>
<g opacity="0.7">
<path d="M115.319 28.4326C115.943 29.8013 116.525 31.1033 117.091 32.4553C117.656 33.8073 118.222 35.1427 118.755 36.5197C119.287 37.8966 119.766 39.2985 120.223 40.767C120.444 41.5075 120.639 42.2646 120.818 43.0841C120.901 43.5001 120.976 43.9161 121.034 44.3737C121.102 44.8853 121.128 45.4014 121.113 45.9171C121.113 46.0918 121.088 46.2707 121.072 46.4454L121.005 46.8614C120.955 47.1443 120.897 47.344 120.843 47.5894C120.727 48.0054 120.602 48.4214 120.477 48.8125C120.219 49.5779 119.949 50.2851 119.666 50.9798C119.1 52.3734 118.497 53.6963 117.881 55.015C117.265 56.3337 116.658 57.6317 116.022 58.9254C115.385 60.2192 114.774 61.4963 114.112 62.8067L108.783 59.9696C110.135 57.5609 111.412 55.0441 112.594 52.5523C113.176 51.3043 113.729 50.0355 114.22 48.8083C114.466 48.1926 114.699 47.5603 114.886 46.9945L115.015 46.5785L115.115 46.1833C115.115 46.0835 115.169 45.9421 115.173 45.8755V45.7632V45.5302C115.173 45.4179 115.152 45.3222 115.127 45.1891C115.09 44.9437 115.036 44.6733 114.969 44.3904C114.836 43.8246 114.657 43.2173 114.453 42.6057C114.037 41.3577 113.551 40.1097 113.01 38.8617C112.469 37.6137 111.895 36.3657 111.283 35.1177C110.672 33.8697 110.035 32.6217 109.382 31.4736L115.319 28.4326Z" fill="white"/>
</g>
<path d="M106.525 60.792L113.293 65.6301C113.293 65.6301 114.241 72.1238 110.531 72.7603C106.82 73.3968 105.863 65.472 106.525 60.792Z" fill="#069494"/>
<path opacity="0.5" d="M106.525 60.792L113.293 65.6301C113.293 65.6301 114.241 72.1238 110.531 72.7603C106.82 73.3968 105.863 65.472 106.525 60.792Z" fill="white"/>
<path d="M92.1681 60.792L89.8801 65.6301C89.8801 65.6301 89.306 72.1238 90.4084 72.7603C91.5108 73.3968 92.1598 65.472 92.1681 60.792Z" fill="#069494"/>
<path opacity="0.5" d="M92.1681 60.792L89.8801 65.6301C89.8801 65.6301 89.306 72.1238 90.4084 72.7603C91.5108 73.3968 92.1598 65.472 92.1681 60.792Z" fill="white"/>
<path opacity="0.5" d="M100.185 85.6943C99.1029 72.0412 99.2568 43.4371 99.3525 40.8828H99.5938C99.5064 43.4371 99.3567 72.0204 100.426 85.6652L100.185 85.6943Z" fill="#069494"/>
<path d="M132.084 19.5176C129.026 21.7307 126.484 30.4126 133.777 33.9195C141.069 37.4264 151.353 37.1435 148.245 29.5182C145.138 21.893 146.248 17.4085 138.91 16.539C131.572 15.6696 132.084 19.5176 132.084 19.5176Z" fill="#263238"/>
<path d="M151.735 65.1973L153.208 65.709L155.08 68.5461C155.353 68.961 155.475 69.4577 155.425 69.9521L155.317 70.9589C155.301 71.1258 155.225 71.2813 155.104 71.3967C154.982 71.5122 154.823 71.5798 154.656 71.587L152.7 71.6536C152.523 71.6564 152.351 71.5946 152.217 71.4798C152.082 71.3649 151.994 71.2048 151.968 71.0296L151.719 68.7291C151.719 68.7291 150.77 66.4328 151.735 65.1973Z" fill="#FFB573"/>
<path d="M149.41 42.0801C149.377 43.1367 149.369 44.2682 149.377 45.3623C149.385 46.4564 149.406 47.5713 149.443 48.6903C149.523 50.891 149.676 53.0874 149.947 55.2298L149.972 55.4919C149.972 55.4919 149.972 55.4087 149.972 55.4295C149.972 55.4503 149.972 55.4295 149.972 55.4878V55.5918L150.005 55.7207C150.051 55.9038 150.109 56.1118 150.171 56.3281C150.296 56.7441 150.446 57.21 150.587 57.6593C150.899 58.562 151.249 59.4772 151.607 60.3882C151.964 61.2993 152.339 62.2062 152.726 63.1047C153.113 64.0033 153.516 64.906 153.924 65.6964L150.808 67.5102C150.221 66.5658 149.747 65.6798 149.26 64.7729C148.774 63.866 148.32 62.9591 147.867 62.0439C147.413 61.1287 146.981 60.2052 146.561 59.2484C146.348 58.77 146.145 58.2874 145.945 57.7716C145.845 57.5137 145.749 57.2474 145.658 56.9396L145.591 56.7108L145.521 56.4529C145.5 56.3655 145.479 56.2449 145.458 56.1409C145.437 56.0369 145.417 55.8497 145.404 55.7041L145.433 55.9662C144.976 53.649 144.655 51.3444 144.41 49.0398C144.289 47.8874 144.185 46.7393 144.098 45.5828C144.011 44.4263 143.94 43.2948 143.894 42.0884L149.41 42.0801Z" fill="#069494"/>
<path opacity="0.5" d="M149.41 42.0801C149.377 43.1367 149.369 44.2682 149.377 45.3623C149.385 46.4564 149.406 47.5713 149.443 48.6903C149.523 50.891 149.676 53.0874 149.947 55.2298L149.972 55.4919C149.972 55.4919 149.972 55.4087 149.972 55.4295C149.972 55.4503 149.972 55.4295 149.972 55.4878V55.5918L150.005 55.7207C150.051 55.9038 150.109 56.1118 150.171 56.3281C150.296 56.7441 150.446 57.21 150.587 57.6593C150.899 58.562 151.249 59.4772 151.607 60.3882C151.964 61.2993 152.339 62.2062 152.726 63.1047C153.113 64.0033 153.516 64.906 153.924 65.6964L150.808 67.5102C150.221 66.5658 149.747 65.6798 149.26 64.7729C148.774 63.866 148.32 62.9591 147.867 62.0439C147.413 61.1287 146.981 60.2052 146.561 59.2484C146.348 58.77 146.145 58.2874 145.945 57.7716C145.845 57.5137 145.749 57.2474 145.658 56.9396L145.591 56.7108L145.521 56.4529C145.5 56.3655 145.479 56.2449 145.458 56.1409C145.437 56.0369 145.417 55.8497 145.404 55.7041L145.433 55.9662C144.976 53.649 144.655 51.3444 144.41 49.0398C144.289 47.8874 144.185 46.7393 144.098 45.5828C144.011 44.4263 143.94 43.2948 143.894 42.0884L149.41 42.0801Z" fill="white"/>
<path d="M146.81 61.1768C146.81 61.1768 146.328 89.5521 145.146 101.038C143.64 116.014 139.601 128.66 138.648 139.006L135.304 138.528C135.304 138.528 135.087 113.198 138.128 101.088C135.37 88.2459 135.304 61.1934 135.304 61.1934L146.81 61.1768Z" fill="#FFB573"/>
<path d="M143.903 61.1768C143.903 61.1768 139.16 89.8558 136.489 101.367C133.008 116.384 132.525 140.034 132.525 140.034L129.384 139.73C129.384 139.73 125.773 118.169 129.659 101.367C129.368 88.4705 131.88 61.1768 131.88 61.1768H143.903Z" fill="#FFB573"/>
<path d="M148.807 40.7912C148.973 43.5451 149.102 51.3285 147.621 63.2302H131.493C131.514 57.4645 131.984 51.9442 129.355 41.1032C129.252 40.7098 129.235 40.299 129.303 39.8983C129.372 39.4976 129.526 39.1161 129.754 38.7795C129.982 38.4428 130.279 38.1587 130.625 37.9461C130.972 37.7334 131.36 37.5972 131.763 37.5464C132.674 37.4299 133.714 37.3259 134.8 37.276C137.132 37.1053 139.474 37.1053 141.806 37.276C143.32 37.4133 144.942 37.6546 146.178 37.8667C146.881 37.9878 147.523 38.3422 148 38.8728C148.477 39.4034 148.761 40.0792 148.807 40.7912Z" fill="white"/>
<path d="M136.007 29.6548C136.535 31.9095 137.134 36.0362 135.615 37.5588C135.615 37.5588 137.022 39.7927 141.377 41.673C143.777 40.2212 142.625 37.5588 142.625 37.5588C140.087 36.9597 140.083 35.0919 140.454 33.3405L136.007 29.6548Z" fill="#FFB573"/>
<path opacity="0.2" d="M137.82 31.1533L140.449 33.3248C140.354 33.7347 140.297 34.1525 140.279 34.5728C139.314 34.4314 137.953 33.3789 137.812 32.3722C137.74 31.9688 137.743 31.5557 137.82 31.1533Z" fill="black"/>
<path d="M133.473 25.5213C134.488 29.1863 134.845 30.7588 137.059 32.3354C140.387 34.7149 144.497 32.8512 144.547 29.0074C144.597 25.5421 142.924 20.1258 139.109 19.2772C135.295 18.4285 132.453 21.8522 133.473 25.5213Z" fill="#FFB573"/>
<path d="M134.222 27.4552C135.116 26.6814 136.007 23.2952 135.541 21.8558C138.74 22.1179 141.406 20.9906 142.696 22.0805C142.833 20.4165 141.352 18.1618 138.719 18.1867C136.086 18.2117 129.754 21.3774 134.222 27.4552Z" fill="#263238"/>
<path d="M138.561 25.6413C138.623 25.945 138.835 26.1613 139.031 26.1239C139.227 26.0864 139.335 25.816 139.268 25.5165C139.202 25.217 138.994 24.9965 138.798 25.0339C138.603 25.0714 138.494 25.3418 138.561 25.6413Z" fill="#263238"/>
<path d="M142.176 24.9792C142.243 25.2829 142.455 25.4992 142.65 25.4617C142.846 25.4243 142.954 25.1539 142.888 24.8544C142.821 24.5549 142.613 24.3344 142.413 24.3718C142.214 24.4093 142.114 24.6797 142.176 24.9792Z" fill="#263238"/>
<path d="M142.334 24.4004L143.008 24.0635C143.008 24.0635 142.758 24.6958 142.334 24.4004Z" fill="#263238"/>
<path d="M141.647 25.6313C142.063 26.2729 142.563 26.8563 143.133 27.3661C143.002 27.5044 142.841 27.6117 142.664 27.6801C142.486 27.7484 142.295 27.7762 142.105 27.7613L141.647 25.6313Z" fill="#ED893E"/>
<path d="M140.894 29.2809C141.066 29.2796 141.237 29.2629 141.406 29.231C141.417 29.2291 141.428 29.2248 141.438 29.2183C141.448 29.2119 141.456 29.2036 141.462 29.1938C141.468 29.184 141.473 29.173 141.474 29.1614C141.476 29.1499 141.475 29.1382 141.472 29.127C141.466 29.1038 141.452 29.0837 141.432 29.0706C141.412 29.0575 141.388 29.0524 141.364 29.0563C140.987 29.1286 140.598 29.113 140.228 29.0105C139.858 28.908 139.516 28.7216 139.23 28.4655C139.213 28.4485 139.19 28.439 139.166 28.439C139.141 28.439 139.118 28.4485 139.101 28.4655C139.085 28.4832 139.076 28.5062 139.076 28.53C139.076 28.5539 139.085 28.5769 139.101 28.5945C139.591 29.0404 140.231 29.2855 140.894 29.2809Z" fill="#263238"/>
<path d="M132.645 28.0605C133.047 28.6839 133.672 29.1302 134.392 29.3085C135.349 29.5331 135.753 28.6887 135.428 27.8275C135.137 27.0496 134.292 25.9971 133.348 26.1635C132.404 26.3299 132.163 27.2951 132.645 28.0605Z" fill="#FFB573"/>
<path d="M137.758 24.086C137.782 24.0837 137.806 24.0762 137.828 24.064C137.849 24.0519 137.868 24.0352 137.882 24.0153C138.013 23.8344 138.185 23.6877 138.384 23.5877C138.583 23.4878 138.804 23.4375 139.026 23.4412C139.073 23.4447 139.119 23.4296 139.155 23.3993C139.191 23.3689 139.214 23.3257 139.218 23.279C139.218 23.2312 139.201 23.1849 139.17 23.1488C139.138 23.1128 139.095 23.0896 139.047 23.0834C138.765 23.0742 138.485 23.1342 138.231 23.2582C137.977 23.3822 137.757 23.5664 137.591 23.7948C137.563 23.8329 137.551 23.8806 137.558 23.9273C137.565 23.9741 137.591 24.0162 137.629 24.0444C137.666 24.0712 137.711 24.0857 137.758 24.086Z" fill="#263238"/>
<path d="M143.37 22.9714C143.391 22.9633 143.411 22.9511 143.427 22.9353C143.444 22.9196 143.457 22.9008 143.466 22.8799C143.475 22.8583 143.481 22.8351 143.481 22.8115C143.482 22.7878 143.478 22.7643 143.469 22.7423C143.461 22.7202 143.448 22.7001 143.432 22.683C143.415 22.6659 143.396 22.6523 143.374 22.6428C143.12 22.5108 142.839 22.4419 142.553 22.4419C142.267 22.4419 141.985 22.5108 141.731 22.6428C141.711 22.6555 141.693 22.672 141.68 22.6915C141.666 22.711 141.657 22.733 141.652 22.7562C141.646 22.7795 141.646 22.8035 141.65 22.8269C141.655 22.8502 141.664 22.8725 141.677 22.8924C141.703 22.9327 141.743 22.9617 141.789 22.9733C141.836 22.9849 141.885 22.9783 141.926 22.9548C142.128 22.8505 142.351 22.796 142.578 22.796C142.804 22.796 143.027 22.8505 143.229 22.9548C143.25 22.9676 143.273 22.9757 143.297 22.9786C143.322 22.9815 143.347 22.979 143.37 22.9714Z" fill="#263238"/>
<path d="M138.715 25.0625L139.389 24.7256C139.389 24.7256 139.139 25.3745 138.715 25.0625Z" fill="#263238"/>
<path d="M147.621 63.229L147.942 107.346C140.454 107.957 133.294 107.729 126.539 106.406C126.093 89.853 122.857 71.6114 131.493 63.229H147.621Z" fill="#263238"/>
<path opacity="0.2" d="M139.28 93.0859L137.591 78.5675L141.647 74.3784L139.28 93.0859Z" fill="black"/>
<path d="M149.535 43.5284C149.331 39.6555 148.703 38.1204 146.157 37.6545C143.611 37.1886 141.219 36.9224 141.219 36.9224C142.085 37.489 142.82 38.2351 143.372 39.1102C143.925 39.9852 144.283 40.9688 144.423 41.9944C144.563 43.02 144.48 44.0636 144.182 45.0545C143.883 46.0455 143.375 46.9608 142.692 47.7384C140.978 44.5518 134.476 39.5598 136.036 36.9598C134.515 36.8824 132.991 36.9913 131.497 37.2843C129.001 37.7668 128.269 39.4932 128.885 43.3371C130.47 53.1547 129.259 65.0772 129.259 65.0772C129.259 65.0772 138.548 69.4536 141.635 70.2897C146.548 69.0916 147.63 65.6555 147.63 65.6555C147.63 65.6555 149.76 47.4222 149.535 43.5284Z" fill="#069494"/>
<path opacity="0.6" d="M149.535 43.5284C149.331 39.6555 148.703 38.1204 146.157 37.6545C143.611 37.1886 141.219 36.9224 141.219 36.9224C142.085 37.489 142.82 38.2351 143.372 39.1102C143.925 39.9852 144.283 40.9688 144.423 41.9944C144.563 43.02 144.48 44.0636 144.182 45.0545C143.883 46.0455 143.375 46.9608 142.692 47.7384C140.978 44.5518 134.476 39.5598 136.036 36.9598C134.515 36.8824 132.991 36.9913 131.497 37.2843C129.001 37.7668 128.269 39.4932 128.885 43.3371C130.47 53.1547 129.259 65.0772 129.259 65.0772C129.259 65.0772 138.548 69.4536 141.635 70.2897C146.548 69.0916 147.63 65.6555 147.63 65.6555C147.63 65.6555 149.76 47.4222 149.535 43.5284Z" fill="white"/>
<path d="M135.695 51.0498C133.964 48.5246 132.666 44.8098 133.673 42.9336C133.861 42.5877 134.144 42.3033 134.489 42.1144C134.835 41.9255 135.227 41.8402 135.62 41.8686C135.956 41.8667 136.289 41.9362 136.597 42.0724C136.904 42.2087 137.18 42.4086 137.404 42.659C138.528 43.8862 138.919 46.4363 138.598 50.4466L138.182 50.4133C138.49 46.5778 138.124 44.0651 137.101 42.9461C136.916 42.7373 136.689 42.5708 136.434 42.4581C136.179 42.3453 135.903 42.289 135.624 42.293C135.31 42.2664 134.995 42.3307 134.717 42.4782C134.439 42.6258 134.209 42.8503 134.056 43.125C133.253 44.6309 134.13 48.0047 136.052 50.8043L135.695 51.0498Z" fill="#263238"/>
<path d="M136.048 51.7894C136.4 51.7894 136.685 51.3741 136.685 50.8618C136.685 50.3494 136.4 49.9341 136.048 49.9341C135.697 49.9341 135.412 50.3494 135.412 50.8618C135.412 51.3741 135.697 51.7894 136.048 51.7894Z" fill="#263238"/>
<path d="M139.089 50.6122C139.089 51.1239 138.802 51.5399 138.452 51.5399C138.103 51.5399 137.816 51.1239 137.816 50.6122C137.816 50.1006 138.103 49.6846 138.452 49.6846C138.802 49.6846 139.089 50.1006 139.089 50.6122Z" fill="#263238"/>
<path d="M147.305 43.0585C147.319 43.2633 147.272 43.4677 147.17 43.6461C147.068 43.8244 146.916 43.9688 146.733 44.0612C146.549 44.1536 146.343 44.1899 146.139 44.1655C145.935 44.1411 145.743 44.0572 145.586 43.9242C145.43 43.7911 145.316 43.615 145.26 43.4177C145.203 43.2203 145.205 43.0107 145.267 42.8148C145.329 42.619 145.447 42.4457 145.607 42.3166C145.766 42.1876 145.96 42.1085 146.165 42.0892C146.444 42.0673 146.721 42.157 146.935 42.3386C147.148 42.5202 147.281 42.779 147.305 43.0585Z" fill="#263238"/>
<path d="M135.411 42.3033C135.369 42.3027 135.327 42.2893 135.292 42.2648C135.258 42.2403 135.231 42.2059 135.216 42.1661C134.657 40.4715 134.49 38.672 134.729 36.9037C134.732 36.8759 134.74 36.8489 134.753 36.8244C134.766 36.7998 134.784 36.7782 134.806 36.7607C134.828 36.7432 134.853 36.7303 134.88 36.7227C134.906 36.7151 134.934 36.713 134.962 36.7165C135.018 36.7227 135.069 36.7507 135.104 36.7944C135.139 36.838 135.155 36.8937 135.149 36.9494C134.935 38.6522 135.094 40.3812 135.615 42.0163C135.626 42.0419 135.632 42.0695 135.632 42.0973C135.631 42.1251 135.626 42.1526 135.615 42.1782C135.604 42.2038 135.588 42.2269 135.568 42.2463C135.548 42.2656 135.525 42.2808 135.499 42.2909C135.471 42.3018 135.441 42.306 135.411 42.3033Z" fill="#263238"/>
<path d="M146.669 43.0458C146.614 43.0459 146.562 43.0253 146.523 42.9881C146.483 42.951 146.46 42.9002 146.456 42.8461C146.456 42.8004 146.161 38.1453 142.521 37.2884C142.467 37.2755 142.419 37.2416 142.39 37.1941C142.36 37.1465 142.351 37.0892 142.363 37.0346C142.377 36.9798 142.412 36.9325 142.46 36.903C142.508 36.8734 142.566 36.8639 142.621 36.8765C146.569 37.8084 146.877 42.7754 146.881 42.8253C146.882 42.853 146.879 42.8807 146.869 42.9068C146.86 42.933 146.846 42.957 146.827 42.9776C146.809 42.9981 146.786 43.0147 146.761 43.0265C146.736 43.0382 146.709 43.0447 146.681 43.0458H146.669Z" fill="#263238"/>
<path d="M136.135 58.9634L139.775 45.0981C139.839 44.887 139.97 44.7022 140.148 44.571C140.325 44.4399 140.54 44.3695 140.761 44.3701L150.674 44.7404C150.77 44.7385 150.865 44.7595 150.951 44.8016C151.037 44.8438 151.112 44.9059 151.17 44.9828C151.227 45.0596 151.265 45.1491 151.281 45.2436C151.297 45.3382 151.29 45.4352 151.261 45.5266L147.604 59.3919C147.54 59.6034 147.41 59.7886 147.232 59.9198C147.055 60.051 146.839 60.1212 146.618 60.1199L136.709 59.7496C136.614 59.7495 136.521 59.7271 136.436 59.6841C136.352 59.6411 136.279 59.5787 136.223 59.5021C136.167 59.4256 136.13 59.3369 136.115 59.2432C136.099 59.1496 136.106 59.0538 136.135 58.9634Z" fill="#263238"/>
<path d="M136.239 59.2071L139.896 45.3418C139.959 45.13 140.089 44.9444 140.267 44.8131C140.445 44.6817 140.661 44.6118 140.882 44.6138L150.791 44.9841C150.887 44.9812 150.982 45.0016 151.069 45.0435C151.156 45.0854 151.231 45.1475 151.288 45.2246C151.346 45.3018 151.384 45.3916 151.4 45.4866C151.415 45.5816 151.407 45.6789 151.377 45.7703L147.725 59.6397C147.66 59.8508 147.528 60.0352 147.35 60.1656C147.171 60.296 146.956 60.3654 146.735 60.3636L136.826 59.9933C136.729 59.9962 136.634 59.9758 136.547 59.9339C136.461 59.892 136.385 59.8299 136.328 59.7528C136.27 59.6756 136.232 59.5858 136.217 59.4908C136.201 59.3958 136.209 59.2985 136.239 59.2071Z" fill="#069494"/>
<path d="M134.938 54.534L135.112 52.9823L137.475 50.5362C137.822 50.1809 138.28 49.9561 138.773 49.8997L139.78 49.7833C139.946 49.7624 140.114 49.8022 140.253 49.8955C140.393 49.9887 140.493 50.1291 140.537 50.2908L141.028 52.1877C141.064 52.3572 141.039 52.5341 140.957 52.6866C140.874 52.8391 140.74 52.9572 140.579 53.0197L138.386 53.7602C138.386 53.7602 136.356 55.2079 134.938 54.534Z" fill="#FFB573"/>
<path d="M133.777 41.756C133.627 41.9515 133.436 42.2177 133.265 42.4548L132.745 43.2078C132.398 43.7153 132.066 44.2298 131.747 44.7512C131.109 45.7828 130.524 46.8464 129.995 47.9377C129.489 48.9794 129.071 50.0621 128.747 51.1742C128.445 52.1383 128.315 53.1477 128.36 54.1569L127.424 52.6135C127.162 52.4471 127.171 52.5054 127.229 52.5179C127.333 52.5512 127.441 52.5763 127.549 52.5927C127.87 52.6486 128.193 52.682 128.518 52.6926C129.267 52.714 130.015 52.6904 130.761 52.6219C131.526 52.5553 132.292 52.4472 133.04 52.3057C133.771 52.1693 134.491 51.9816 135.195 51.7441L136.576 55.0721C135.73 55.4554 134.857 55.7766 133.964 56.0331C133.099 56.2889 132.221 56.4999 131.335 56.6654C130.427 56.8371 129.511 56.9538 128.589 57.0148C128.081 57.0481 127.571 57.0481 127.062 57.0148C126.754 56.9959 126.448 56.9528 126.147 56.8859C125.664 56.7892 125.205 56.5953 124.799 56.316L124.013 55.8001L123.863 54.7767C123.653 53.1915 123.736 51.5811 124.109 50.026C124.43 48.6198 124.869 47.2434 125.423 45.9118C125.953 44.6258 126.549 43.3678 127.208 42.1428C127.533 41.5355 127.869 40.935 128.219 40.3416L128.76 39.4555C128.947 39.1518 129.117 38.8814 129.346 38.5444L133.777 41.756Z" fill="#069494"/>
<path opacity="0.6" d="M133.777 41.756C133.627 41.9515 133.436 42.2177 133.265 42.4548L132.745 43.2078C132.398 43.7153 132.066 44.2298 131.747 44.7512C131.109 45.7828 130.524 46.8464 129.995 47.9377C129.489 48.9794 129.071 50.0621 128.747 51.1742C128.445 52.1383 128.315 53.1477 128.36 54.1569L127.424 52.6135C127.162 52.4471 127.171 52.5054 127.229 52.5179C127.333 52.5512 127.441 52.5763 127.549 52.5927C127.87 52.6486 128.193 52.682 128.518 52.6926C129.267 52.714 130.015 52.6904 130.761 52.6219C131.526 52.5553 132.292 52.4472 133.04 52.3057C133.771 52.1693 134.491 51.9816 135.195 51.7441L136.576 55.0721C135.73 55.4554 134.857 55.7766 133.964 56.0331C133.099 56.2889 132.221 56.4999 131.335 56.6654C130.427 56.8371 129.511 56.9538 128.589 57.0148C128.081 57.0481 127.571 57.0481 127.062 57.0148C126.754 56.9959 126.448 56.9528 126.147 56.8859C125.664 56.7892 125.205 56.5953 124.799 56.316L124.013 55.8001L123.863 54.7767C123.653 53.1915 123.736 51.5811 124.109 50.026C124.43 48.6198 124.869 47.2434 125.423 45.9118C125.953 44.6258 126.549 43.3678 127.208 42.1428C127.533 41.5355 127.869 40.935 128.219 40.3416L128.76 39.4555C128.947 39.1518 129.117 38.8814 129.346 38.5444L133.777 41.756Z" fill="white"/>
</svg>