<svg width="271px" height="203px" viewBox="0 0 271 203" fill="none" xmlns="http://www.w3.org/2000/svg" transform="rotate(0) scale(1, 1)">
<path d="M135.5 202.092C193.324 202.092 240.2 199.355 240.2 195.979C240.2 192.603 193.324 189.866 135.5 189.866C77.6751 189.866 30.7991 192.603 30.7991 195.979C30.7991 199.355 77.6751 202.092 135.5 202.092Z" fill="#f5f5f5"/>
<path d="M89.0603 25.9542C84.9833 22.1256 78.2603 21.3912 75.7439 25.3764C73.2275 29.3616 74.6639 33.5736 69.5015 37.9908C65.9915 41.0094 68.5943 50.2596 88.6175 49.4118C98.0945 49.0122 94.8869 39.1518 94.6331 34.4916C94.3793 29.8314 94.3631 24.129 89.0603 25.9542Z" fill="#069494"/>
<path d="M81.1706 188.513L76.3214 188.702L76.2296 183.453L81.0788 183.264L81.1706 188.513Z" fill="#b55b52"/>
<path d="M76.0188 187.7H81.4998C81.5964 187.699 81.6904 187.731 81.7661 187.791C81.8418 187.851 81.8946 187.935 81.9156 188.029L82.866 192.376C82.8878 192.482 82.8856 192.592 82.8595 192.697C82.8334 192.802 82.7841 192.899 82.7152 192.983C82.6462 193.066 82.5595 193.133 82.4613 193.178C82.3631 193.224 82.256 193.247 82.1478 193.245C80.2308 193.213 79.302 193.1 76.8882 193.1C75.4032 193.1 71.553 193.256 69.501 193.256C67.449 193.256 67.1898 191.226 68.0268 191.042C71.8068 190.216 74.0046 189.082 75.2142 187.997C75.4361 187.801 75.723 187.695 76.0188 187.7Z" fill="#069494"/>
<path opacity="0.2" d="M76.2296 183.464L76.2728 185.905L81.122 185.694L81.0788 183.275L76.2296 183.464Z" fill="#000000"/>
<path d="M69.08 82.8C68 88.6212 69.242 117.074 70.889 129.64C73.0814 146.326 75.3494 185.071 75.3494 185.071L81.8294 184.682C81.8294 184.682 83.4494 143.879 82.1264 130.482C82.877 113.24 84.7346 83.1241 84.7346 83.1241L69.08 82.8Z" fill="#069494"/>
<path opacity="0.2" d="M83.6603 101.889C83.8871 97.5201 80.7929 93.6375 79.5455 101.889C78.7571 107.132 80.3879 116.323 82.5263 122.814C82.8557 116.058 83.2769 108.536 83.6603 101.889Z" fill="#000000"/>
<path d="M116.8 172.192L113.647 175.205L109.375 170.626L112.523 167.618L116.8 172.192Z" fill="#b55b52"/>
<path d="M112.82 175.286L116.06 170.847C116.113 170.77 116.193 170.716 116.284 170.696C116.375 170.676 116.471 170.691 116.551 170.739L120.331 172.964C120.424 173.026 120.504 173.106 120.565 173.199C120.627 173.292 120.669 173.397 120.689 173.507C120.709 173.617 120.707 173.729 120.683 173.838C120.658 173.947 120.612 174.05 120.547 174.141C119.397 175.669 118.765 176.344 117.345 178.299C116.47 179.498 115.46 181.15 114.256 182.814C113.052 184.477 111.405 183.283 111.761 182.479C113.381 178.866 112.696 177.862 112.609 176.139C112.582 175.839 112.656 175.539 112.82 175.286Z" fill="#069494"/>
<path opacity="0.2" d="M109.375 170.631L111.578 172.986L114.705 169.951L112.529 167.618L109.375 170.631Z" fill="#000000"/>
<path d="M76.5968 82.9583C76.5968 82.9583 83.5736 119.678 85.388 133.934C86.468 142.45 110.282 173.09 110.282 173.09L114.348 168.807C114.348 168.807 105.633 146.376 95.135 133.07C94.7192 117.475 96.4904 91.8035 90.464 83.2445L76.5968 82.9583Z" fill="#069494"/>
<path d="M70.4734 54.7991C70.4734 57.9527 70.3276 61.0469 70.0954 64.1735C69.8632 67.3001 69.5554 70.4105 69.0532 73.5425L68.9614 74.1311L68.8372 74.7953C68.7436 75.2309 68.641 75.6575 68.5294 76.0751C68.2918 76.9013 67.9894 77.6951 67.7194 78.4619C67.1286 79.9654 66.458 81.4363 65.7106 82.8683C64.2388 85.6685 62.562 88.356 60.694 90.9089C60.4968 91.1736 60.2088 91.3561 59.8853 91.4215C59.5618 91.4868 59.2256 91.4304 58.9411 91.2631C58.6566 91.0958 58.4439 90.8293 58.3439 90.5148C58.2438 90.2002 58.2635 89.8599 58.399 89.5589V89.5265C59.668 86.7833 60.8992 83.9699 61.9738 81.1835C62.5138 79.7903 62.9944 78.3809 63.4048 76.9985C63.5992 76.3073 63.772 75.6215 63.907 74.9519C63.9772 74.6171 64.0258 74.2877 64.0744 73.9637L64.1284 73.4831L64.1824 72.9431C64.4578 69.9515 64.6198 66.9167 64.771 63.8765C64.9222 60.8363 64.9924 57.7691 65.0788 54.7559V54.7289C65.0902 54.0128 65.3857 53.3306 65.9001 52.8324C66.4146 52.3341 67.1059 52.0607 67.822 52.0721C68.5381 52.0836 69.2203 52.379 69.7185 52.8935C70.2168 53.4079 70.4902 54.0992 70.4788 54.8153L70.4734 54.7991Z" fill="#b55b52"/>
<path d="M68.7128 50.8522C62.0816 52.7908 62.9348 64.8544 62.9348 64.8544L72.3632 67.3924C72.3632 67.3924 73.9292 58.558 73.7888 55.3882C73.6484 52.0942 72.3686 49.7884 68.7128 50.8522Z" fill="#069494"/>
<path d="M59.1009 88.8645L55.7799 91.6887L60.4347 93.5895C60.4347 93.5895 61.8765 91.3917 61.2069 89.3073L59.1009 88.8645Z" fill="#b55b52"/>
<path d="M56.3685 95.995L58.4907 96.2596C58.7264 96.289 58.9653 96.2399 59.1703 96.1198C59.3753 95.9998 59.535 95.8154 59.6247 95.5954L60.4347 93.5866L55.7799 91.6858L55.4289 94.8016C55.3968 95.0842 55.4775 95.3679 55.6534 95.5914C55.8294 95.8148 56.0863 95.9598 56.3685 95.995Z" fill="#b55b52"/>
<path d="M66.5692 53.9909C66.2722 66.0869 69.0532 74.9159 69.0856 82.7999L90.4642 83.2427C90.3076 75.3479 90.3724 70.1963 93.769 56.0483C93.9167 55.432 93.9342 54.7918 93.8205 54.1684C93.7068 53.545 93.4644 52.9522 93.1087 52.4278C92.753 51.9034 92.2918 51.4589 91.7547 51.1227C91.2175 50.7866 90.6161 50.5661 89.989 50.4755C88.7092 50.2865 87.289 50.1083 85.8472 50.0111C82.6162 49.7117 79.368 49.6431 76.1272 49.8059C73.8484 49.9679 71.3968 50.3027 69.6472 50.5673C68.8161 50.6909 68.054 51.1004 67.4922 51.7253C66.9304 52.3501 66.604 53.1513 66.5692 53.9909Z" fill="#069494"/>
<path d="M86.4949 65.1702L80.1553 65.127C80.0922 65.1297 80.0293 65.1187 79.9708 65.0948C79.9123 65.0709 79.8597 65.0346 79.8166 64.9884C79.7735 64.9422 79.7409 64.8873 79.7211 64.8273C79.7013 64.7673 79.6947 64.7037 79.7017 64.641L80.0527 61.6386C80.0756 61.5045 80.145 61.3829 80.2487 61.295C80.3524 61.2071 80.4838 61.1586 80.6197 61.158L86.9539 61.2012C87.0168 61.1976 87.0796 61.2078 87.1381 61.2311C87.1966 61.2544 87.2493 61.2902 87.2925 61.3359C87.3357 61.3817 87.3684 61.4364 87.3883 61.4961C87.4081 61.5559 87.4147 61.6192 87.4075 61.6818L87.0565 64.6896C87.0348 64.8231 86.9665 64.9447 86.8637 65.0327C86.7609 65.1206 86.6302 65.1694 86.4949 65.1702Z" fill="#ffffff"/>
<path opacity="0.4" d="M76.1596 49.8096C76.1596 49.8096 72.6712 52.2504 76.3594 58.374C79.3874 55.4286 82.5612 52.6369 85.8688 50.0094L76.1596 49.8096Z" fill="#ffffff"/>
<path d="M85.1343 39.0623C84.4593 42.1727 83.7249 47.8859 85.8687 50.0135C82.4977 51.3413 79.3894 53.2575 76.6887 55.6727C74.3181 51.3203 76.1487 49.8083 76.1487 49.8083C79.6479 49.0523 79.6155 46.4657 79.0593 44.0249L85.1343 39.0623Z" fill="#b55b52"/>
<path opacity="0.2" d="M84.4755 39.6001C84.3913 41.4586 83.9107 43.2777 83.0661 44.9353C82.4775 46.0747 80.9061 46.5553 79.3239 46.6471C79.3761 45.7644 79.2905 44.879 79.0701 44.0227L84.4755 39.6001Z" fill="#000000"/>
<path d="M90.1939 35.2513C88.5739 40.2301 88.0339 42.3686 84.7939 44.3126C79.9609 47.234 74.1991 44.183 74.2747 38.8316C74.3503 34.0148 76.9747 26.6869 82.4125 25.9363C83.6166 25.762 84.8454 25.8988 85.9817 26.3337C87.1181 26.7687 88.1242 27.4872 88.9042 28.421C89.6843 29.3548 90.2123 30.4727 90.4381 31.6683C90.6638 32.8639 90.5797 34.0974 90.1939 35.2513Z" fill="#b55b52"/>
<path d="M76.991 28.7122C79.691 29.4736 86.2682 30.0406 87.5858 29.2522C86.3492 31.153 87.5264 36.3478 89.438 37.606C92.0138 35.5378 92.5862 30.5374 90.2048 28.0588C87.8234 25.5802 80.2958 22.6156 76.991 28.7122Z" fill="#069494"/>
<path d="M90.9504 38.3009C90.7799 38.7752 90.5163 39.2107 90.175 39.5816C89.8337 39.9526 89.4217 40.2515 88.9632 40.4609C87.7428 41.0009 86.9328 39.9641 87.1056 38.7059C87.2622 37.5773 88.0884 35.9303 89.3952 35.9087C89.6772 35.9126 89.9539 35.9859 90.2009 36.1221C90.4478 36.2583 90.6575 36.4533 90.8112 36.6898C90.9649 36.9262 91.058 37.1969 91.0823 37.4779C91.1066 37.7589 91.0613 38.0416 90.9504 38.3009Z" fill="#b55b52"/>
<path d="M90.8096 81.9972L91.7384 83.9358C91.8086 84.0816 91.6304 84.2328 91.382 84.2274L68.9557 83.7576C68.7667 83.7576 68.6101 83.655 68.5993 83.5308L68.4427 81.6138C68.4427 81.4842 68.6048 81.3762 68.8154 81.3762L90.4694 81.8298C90.5357 81.8258 90.6019 81.8392 90.6616 81.8685C90.7212 81.8979 90.7722 81.9422 90.8096 81.9972Z" fill="#069494"/>
<path d="M87.8556 84.3573H88.4334C88.5468 84.3573 88.6386 84.2979 88.6332 84.2277L88.4118 81.7329C88.4118 81.6627 88.3038 81.5979 88.1904 81.5979H87.6072C87.4938 81.5979 87.4074 81.6519 87.4128 81.7275L87.6288 84.2169C87.6396 84.2979 87.7368 84.3573 87.8556 84.3573Z" fill="#069494"/>
<path d="M70.5811 83.9987H71.1643C71.2777 83.9987 71.3695 83.9447 71.3641 83.8691L71.1427 81.3743C71.1427 81.3041 71.0347 81.2447 70.9213 81.2393H70.3381C70.2247 81.2393 70.1329 81.2933 70.1437 81.3689L70.3597 83.8583C70.3705 83.9339 70.4677 83.9933 70.5811 83.9987Z" fill="#069494"/>
<path d="M79.2157 84.1778H79.7989C79.9123 84.1778 80.0041 84.1238 79.9987 84.0482L79.7773 81.5588C79.7773 81.4832 79.6693 81.4238 79.5559 81.4238H78.9727C78.8593 81.4238 78.7729 81.4832 78.7783 81.5534L78.9943 84.0482C79.0051 84.113 79.1023 84.1778 79.2157 84.1778Z" fill="#069494"/>
<path d="M82.4232 34.8377C82.3152 35.2481 82.0128 35.5289 81.7428 35.4587C81.4728 35.3885 81.3432 34.9997 81.4458 34.5893C81.5484 34.1789 81.8562 33.8981 82.1262 33.9683C82.3962 34.0385 82.5258 34.4273 82.4232 34.8377Z" fill="#069494"/>
<path d="M77.7689 33.65C77.6663 34.0658 77.3639 34.3412 77.0939 34.271C76.8239 34.2008 76.6889 33.8174 76.7969 33.4016C76.9049 32.9858 77.2019 32.7158 77.4719 32.7806C77.7419 32.8454 77.8769 33.2396 77.7689 33.65Z" fill="#069494"/>
<path d="M77.5854 32.8313L76.6674 32.2913C76.6674 32.2913 76.9806 33.1985 77.5854 32.8313Z" fill="#069494"/>
<path d="M78.8004 34.6694C78.1958 35.5157 77.4781 36.2752 76.6674 36.9266C76.8385 37.1294 77.0518 37.2925 77.2924 37.4044C77.5331 37.5163 77.7952 37.5744 78.0606 37.5746L78.8004 34.6694Z" fill="#a02724"/>
<path d="M79.0592 39.1881C79.0402 39.1718 79.0261 39.1505 79.0185 39.1267C79.0109 39.1029 79.01 39.0774 79.016 39.0531C79.021 39.0374 79.0289 39.0229 79.0395 39.0104C79.05 38.9978 79.0629 38.9875 79.0775 38.98C79.092 38.9724 79.1079 38.9679 79.1243 38.9665C79.1406 38.9652 79.1571 38.967 79.1727 38.9721C79.677 39.1302 80.2115 39.1676 80.733 39.0813C81.2545 38.995 81.7485 38.7874 82.1751 38.4753C82.2001 38.4538 82.2327 38.4431 82.2656 38.4457C82.2985 38.4482 82.3291 38.4637 82.3505 38.4888C82.372 38.5138 82.3827 38.5464 82.3801 38.5793C82.3776 38.6122 82.3621 38.6428 82.3371 38.6643C81.8805 39.0088 81.3475 39.2378 80.7833 39.3318C80.2192 39.4258 79.6406 39.3821 79.0971 39.2043L79.0592 39.1881Z" fill="#069494"/>
<path d="M84.9614 32.9436C84.9287 32.9143 84.9013 32.8796 84.8804 32.841C84.7689 32.5483 84.5893 32.2864 84.3564 32.077C84.1235 31.8676 83.8441 31.7167 83.5412 31.6368C83.4761 31.6253 83.4181 31.5884 83.3802 31.5343C83.3422 31.4801 83.3273 31.413 83.3387 31.3479C83.3502 31.2827 83.3871 31.2248 83.4412 31.1868C83.4954 31.1488 83.5625 31.1339 83.6276 31.1454C84.0128 31.2406 84.3696 31.4266 84.6683 31.6877C84.967 31.9489 85.1989 32.2776 85.3448 32.6466C85.3639 32.6973 85.3662 32.7529 85.3514 32.805C85.3367 32.8572 85.3055 32.9033 85.2627 32.9365C85.2198 32.9697 85.1674 32.9883 85.1132 32.9896C85.059 32.9908 85.0058 32.9747 84.9614 32.9436Z" fill="#069494"/>
<path d="M76.8509 31.023L76.8185 30.9906C76.772 30.944 76.7458 30.8809 76.7458 30.8151C76.7458 30.7493 76.772 30.6862 76.8185 30.6396C77.1036 30.3721 77.4477 30.1755 77.823 30.0657C78.1982 29.9559 78.5941 29.9361 78.9785 30.0078C79.0106 30.0159 79.0408 30.0304 79.0672 30.0504C79.0937 30.0704 79.1158 30.0955 79.1324 30.1241C79.149 30.1528 79.1597 30.1845 79.1639 30.2174C79.1681 30.2503 79.1656 30.2837 79.1567 30.3156C79.1401 30.3793 79.099 30.4339 79.0423 30.4673C78.9856 30.5007 78.918 30.5102 78.8543 30.4938C78.5462 30.4357 78.2287 30.452 77.9282 30.5412C77.6276 30.6304 77.3527 30.79 77.1263 31.0068C77.0871 31.0364 77.04 31.0538 76.991 31.0567C76.942 31.0595 76.8932 31.0478 76.8509 31.023Z" fill="#069494"/>
<path d="M93.7635 54.292C95.3349 56.371 96.8037 58.4662 98.2293 60.6424C98.9367 61.7224 99.6387 62.8024 100.303 63.9688C101.018 65.1485 101.66 66.3712 102.225 67.63C102.396 68.0224 102.544 68.4245 102.668 68.8342C102.758 69.1503 102.819 69.4738 102.852 69.8008C102.861 69.932 102.861 70.0637 102.852 70.195V70.438C102.842 70.5451 102.826 70.6515 102.803 70.7566L102.765 70.924V70.9996V71.059L102.722 71.1778C102.468 71.8258 102.269 72.4792 101.966 73.1056C101.419 74.3894 100.761 75.6234 100.001 76.7938C99.2175 77.9754 98.3006 79.0626 97.2681 80.0338C96.7421 80.5271 96.1769 80.9768 95.5779 81.3784C95.2701 81.5782 94.9569 81.7726 94.6329 81.9508L94.1199 82.1992C93.9255 82.2856 93.7851 82.345 93.5043 82.4476L92.4783 79.9852C92.5514 79.9137 92.6289 79.847 92.7105 79.7854L93.0075 79.5262C93.2073 79.348 93.4017 79.1536 93.5907 78.9538C93.9754 78.5411 94.336 78.1066 94.6707 77.6524C95.3303 76.7249 95.905 75.7399 96.3879 74.7094C96.6147 74.1694 96.8631 73.6618 97.0521 73.0894C97.2411 72.517 97.4517 72.0094 97.6245 71.4694C97.7973 70.9294 97.9323 70.3354 98.0997 69.7738V69.6712V69.6172V69.6658V69.7738C98.0997 69.8386 98.0727 69.9358 98.0673 69.9736C98.0646 70.0149 98.0646 70.0564 98.0673 70.0978V70.2544C98.0673 70.3786 98.0673 70.3408 98.0673 70.2868C98.0673 70.2328 97.9161 69.9412 97.8027 69.7144C97.3113 68.791 96.6525 67.7272 95.9775 66.712C95.3025 65.6968 94.6005 64.6546 93.8823 63.634C92.4513 61.5874 90.9771 59.5192 89.5299 57.4888L93.7635 54.292Z" fill="#b55b52"/>
<path d="M94.9355 81.8094L90.7721 84.7524L88.9037 80.4972C88.9037 80.4972 91.4309 79.1418 93.4235 80.049L94.9355 81.8094Z" fill="#b55b52"/>
<path d="M87.8721 85.1072L86.8299 83.6546C86.6321 83.3744 86.5513 83.0281 86.6047 82.6893C86.6582 82.3505 86.8416 82.0459 87.1161 81.8402L88.9035 80.501L90.7719 84.7562L89.6271 85.4636C89.3438 85.6375 89.0051 85.6975 88.6793 85.6313C88.3536 85.5651 88.0651 85.3778 87.8721 85.1072Z" fill="#b55b52"/>
<path d="M85.4314 53.0096C84.0166 58.631 92.743 68.2538 92.743 68.2538L100.082 60.6344C100.082 60.6344 96.7282 53.474 92.3488 51.2276C89.2924 49.6616 86.0578 50.531 85.4314 53.0096Z" fill="#069494"/>
<path d="M82.2398 34.0229L81.3218 33.4829C81.3218 33.4829 81.6296 34.3901 82.2398 34.0229Z" fill="#069494"/>
<path d="M72.8601 68.0276C72.8207 68.0273 72.7822 68.0154 72.7495 67.9933C72.7168 67.9712 72.6914 67.9399 72.6765 67.9034C72.659 67.8554 72.661 67.8024 72.6823 67.7559C72.7035 67.7094 72.7422 67.6732 72.7899 67.655L73.6323 67.331C74.4214 67.0396 75.1027 66.5143 75.5852 65.8253C76.0676 65.1363 76.3283 64.3165 76.3323 63.4754L76.3917 55.5806C76.4088 54.9795 76.219 54.3909 75.854 53.913C75.489 53.4352 74.971 53.0971 74.3867 52.9555C73.8023 52.8138 73.187 52.8771 72.6438 53.1348C72.1005 53.3924 71.6622 53.8288 71.4021 54.371L67.7517 61.391C67.3595 62.1321 67.2012 62.9747 67.2976 63.8076C67.394 64.6405 67.7406 65.4246 68.2917 66.0566L68.8857 66.7316C68.9057 66.7501 68.9216 66.7727 68.9323 66.7978C68.943 66.8228 68.9483 66.8499 68.9479 66.8772C68.9475 66.9045 68.9413 66.9313 68.9298 66.9561C68.9183 66.9808 68.9017 67.0029 68.8812 67.0208C68.8606 67.0387 68.8365 67.052 68.8104 67.06C68.7843 67.068 68.7568 67.0704 68.7297 67.0671C68.7027 67.0637 68.6766 67.0547 68.6532 67.0407C68.6299 67.0266 68.6097 67.0077 68.5941 66.9854L68.0001 66.251C67.3919 65.5642 67.0077 64.7083 66.8987 63.7975C66.7896 62.8867 66.961 61.9643 67.3899 61.1534L71.0403 54.1334C71.3523 53.5343 71.8569 53.0576 72.4728 52.7802C73.0888 52.5028 73.7801 52.4408 74.4356 52.6042C75.091 52.7676 75.6724 53.1469 76.086 53.6809C76.4996 54.215 76.7214 54.8727 76.7157 55.5482L76.6563 63.443C76.652 64.3587 76.3699 65.2516 75.8473 66.0037C75.3247 66.7557 74.5863 67.3315 73.7295 67.655L72.8871 67.9736L72.8601 68.0276Z" fill="#069494"/>
<path d="M76.5266 57.3382C76.4764 57.3369 76.4285 57.3167 76.3924 57.2817C76.3564 57.2467 76.3349 57.1994 76.3322 57.1492C76.2556 56.5252 75.9918 55.9391 75.5755 55.4681C75.1591 54.9971 74.6099 54.6633 74 54.5107C73.3902 54.358 72.7484 54.3938 72.1593 54.6132C71.5702 54.8326 71.0614 55.2254 70.7 55.7398C70.6876 55.7621 70.6709 55.7818 70.6509 55.7977C70.6309 55.8136 70.6079 55.8254 70.5834 55.8324C70.5588 55.8394 70.5331 55.8415 70.5077 55.8386C70.4823 55.8357 70.4577 55.8278 70.4354 55.8154C70.4131 55.803 70.3934 55.7863 70.3775 55.7663C70.3616 55.7463 70.3498 55.7233 70.3428 55.6987C70.3358 55.6742 70.3337 55.6485 70.3366 55.6231C70.3395 55.5977 70.3474 55.5731 70.3598 55.5508C70.7616 54.9569 71.3362 54.5008 72.0057 54.2442C72.6753 53.9876 73.4075 53.9429 74.1033 54.1161C74.7991 54.2893 75.4249 54.6721 75.896 55.2126C76.3671 55.7532 76.6607 56.4254 76.7372 57.1384C76.7373 57.1896 76.7177 57.2388 76.6826 57.276C76.6474 57.3132 76.5993 57.3354 76.5482 57.3382H76.5266Z" fill="#069494"/>
<path d="M74.4208 53.0238C74.3889 53.0233 74.3575 53.0153 74.3293 53.0003C74.3011 52.9852 74.277 52.9637 74.2588 52.9374C74.1602 52.7184 74.1091 52.4809 74.1091 52.2408C74.1091 52.0006 74.1602 51.7631 74.2588 51.5442C74.399 51.1086 74.6354 50.7102 74.9504 50.3784C75.2654 50.0465 75.651 49.7898 76.0786 49.6272C76.1023 49.6179 76.1277 49.6136 76.1531 49.6147C76.1785 49.6157 76.2034 49.622 76.2262 49.6332C76.2491 49.6443 76.2694 49.6601 76.2858 49.6795C76.3022 49.699 76.3144 49.7216 76.3216 49.746C76.3373 49.794 76.3336 49.8462 76.3114 49.8915C76.2893 49.9369 76.2503 49.9718 76.2028 49.989C75.8366 50.1391 75.5073 50.3671 75.2379 50.6571C74.9684 50.947 74.7652 51.2921 74.6422 51.6684C74.5617 51.8356 74.515 52.0171 74.5048 52.2024C74.4946 52.3878 74.5211 52.5733 74.5828 52.7484C74.5968 52.7699 74.6064 52.7941 74.6109 52.8194C74.6155 52.8447 74.615 52.8706 74.6095 52.8958C74.604 52.9209 74.5935 52.9446 74.5787 52.9657C74.564 52.9867 74.5452 53.0046 74.5234 53.0184C74.4901 53.0282 74.455 53.03 74.4208 53.0238Z" fill="#069494"/>
<path d="M72.4174 67.7278C72.3256 68.0788 72.4174 68.4136 72.6766 68.473C72.9358 68.5324 73.1734 68.2894 73.2598 67.933C73.3462 67.5766 73.2274 67.2418 72.9952 67.1878C72.763 67.1338 72.5038 67.3714 72.4174 67.7278Z" fill="#069494"/>
<path d="M87.7425 58.4023C87.9153 59.2177 88.4985 59.7793 89.0331 59.6659C89.5677 59.5525 89.8593 58.7911 89.6811 57.9811C89.5029 57.1711 88.9251 56.5987 88.3905 56.7175C87.8559 56.8363 87.5643 57.6085 87.7425 58.4023Z" fill="#069494"/>
<path d="M89.4325 58.1475C89.4076 58.1482 89.3829 58.144 89.3597 58.1352C89.3365 58.1263 89.3153 58.113 89.2972 58.096C89.2792 58.0789 89.2646 58.0585 89.2545 58.0358C89.2443 58.0132 89.2388 57.9887 89.2381 57.9639C89.1247 54.9777 87.9906 51.2679 85.782 50.1717C85.7364 50.1485 85.7018 50.1083 85.6856 50.0598C85.6695 50.0113 85.6731 49.9584 85.6957 49.9125C85.7066 49.8894 85.722 49.8688 85.7411 49.8518C85.7602 49.8349 85.7826 49.822 85.8068 49.8139C85.831 49.8058 85.8566 49.8027 85.8821 49.8048C85.9075 49.8069 85.9323 49.8142 85.9549 49.8261C88.3201 50.9979 89.5026 54.7509 89.6214 57.9261C89.6237 57.9515 89.6206 57.9772 89.6124 58.0013C89.6042 58.0255 89.591 58.0477 89.5738 58.0665C89.5565 58.0853 89.5355 58.1003 89.5121 58.1105C89.4887 58.1208 89.4634 58.126 89.4378 58.1259L89.4325 58.1475Z" fill="#069494"/>
<path d="M87.1646 58.4736C87.278 59.1702 87.7802 59.667 88.2878 59.586C88.7954 59.505 89.1194 58.8732 89.006 58.1712C88.8926 57.4692 88.385 56.9778 87.8774 57.0588C87.3698 57.1398 87.0512 57.7716 87.1646 58.4736Z" fill="#ffffff"/>
<path d="M87.1213 58.5301C87.2833 59.3941 87.7369 60.0313 88.1311 59.9557C88.5253 59.8801 88.7035 59.1241 88.5415 58.2601C88.3795 57.3961 87.9259 56.7589 87.5317 56.8345C87.1375 56.9101 86.9539 57.6661 87.1213 58.5301Z" fill="#069494"/>
<path d="M68.3352 66.706C68.2488 67.0624 68.3676 67.3972 68.5998 67.4512C68.832 67.5052 69.0912 67.273 69.183 66.9112C69.2748 66.5494 69.1506 66.2254 68.9184 66.166C68.6862 66.1066 68.427 66.355 68.3352 66.706Z" fill="#069494"/>
<path d="M127.486 22.7367C124.068 23.3469 123.636 23.0337 123.593 20.5767C123.549 18.1197 122.307 14.0211 124.035 12.7359C124.154 12.6234 124.3 12.544 124.459 12.5056C124.618 12.4672 124.784 12.4712 124.941 12.5171C125.098 12.563 125.24 12.6492 125.353 12.7672C125.466 12.8852 125.546 13.0308 125.585 13.1895C125.691 12.9199 125.896 12.7015 126.159 12.5798C126.421 12.4581 126.721 12.4424 126.995 12.5361C127.065 12.0285 127.146 10.7271 128.075 10.3761C129.003 10.0251 129.857 10.8675 129.857 10.8675C129.857 10.8675 129.786 8.86405 131.136 9.05845C131.54 9.12285 131.914 9.30724 132.211 9.58756C132.507 9.86787 132.713 10.2311 132.8 10.6299C132.8 10.6299 133.577 9.49585 134.63 9.94405C135.683 10.3923 135.462 11.7099 135.462 11.7099C135.462 11.7099 136.58 11.1699 137.411 11.7801C138.243 12.3903 137.638 13.3677 137.638 13.3677C137.638 13.3677 138.394 11.4237 139.836 12.4983C141.132 13.4703 139.955 14.9931 139.955 14.9931C139.955 14.9931 141.38 14.7609 141.726 15.4791C142.892 17.9253 138.448 20.6577 138.302 24.7887C131.477 27.3699 127.486 22.7367 127.486 22.7367Z" fill="#069494"/>
<path d="M102.851 88.3885L100.572 87.9673L97.5593 90.8455C97.3953 91.0017 97.2659 91.1905 97.1794 91.3997C97.0929 91.609 97.0512 91.8341 97.0571 92.0605L97.1003 94.4149C97.1056 94.8175 97.2606 95.2036 97.5351 95.4981C97.8097 95.7927 98.184 95.9744 98.5853 96.0079L99.6329 96.0997C100.014 96.1357 100.395 96.0356 100.71 95.8172C101.024 95.5987 101.251 95.276 101.35 94.9063L101.89 92.9839C101.89 92.9839 104.865 89.4685 102.851 88.3885Z" fill="#ffb573"/>
<path d="M125.866 45.33C124.338 49.2882 122.815 53.2626 121.346 57.2478C119.877 61.233 118.419 65.2344 117.053 69.171L116.81 69.9L116.643 70.3752C116.578 70.5534 116.513 70.737 116.454 70.8774C116.2 71.52 115.946 72.0492 115.692 72.5838C115.185 73.6638 114.672 74.6304 114.153 75.6078C113.111 77.5518 112.036 79.4256 110.951 81.294C108.791 85.0362 106.631 88.692 104.395 92.4018L97.5212 88.125C99.7892 84.5988 101.976 80.9592 104.071 77.325C105.103 75.4998 106.118 73.6692 107.063 71.8548C107.533 70.9476 107.986 70.0404 108.386 69.1548C108.575 68.7282 108.764 68.2908 108.888 67.9344C108.931 67.8318 108.948 67.7616 108.975 67.6914L109.061 67.4106L109.309 66.6222C110.611 62.475 111.977 58.4682 113.295 54.402L117.247 42.2466L125.866 45.33Z" fill="#069494"/>
<path opacity="0.6" d="M125.866 45.33C124.338 49.2882 122.815 53.2626 121.346 57.2478C119.877 61.233 118.419 65.2344 117.053 69.171L116.81 69.9L116.643 70.3752C116.578 70.5534 116.513 70.737 116.454 70.8774C116.2 71.52 115.946 72.0492 115.692 72.5838C115.185 73.6638 114.672 74.6304 114.153 75.6078C113.111 77.5518 112.036 79.4256 110.951 81.294C108.791 85.0362 106.631 88.692 104.395 92.4018L97.5212 88.125C99.7892 84.5988 101.976 80.9592 104.071 77.325C105.103 75.4998 106.118 73.6692 107.063 71.8548C107.533 70.9476 107.986 70.0404 108.386 69.1548C108.575 68.7282 108.764 68.2908 108.888 67.9344C108.931 67.8318 108.948 67.7616 108.975 67.6914L109.061 67.4106L109.309 66.6222C110.611 62.475 111.977 58.4682 113.295 54.402L117.247 42.2466L125.866 45.33Z" fill="#ffffff"/>
<path d="M105.271 189.861L100.427 190.098L102.716 177.484L107.323 178.542L105.271 189.861Z" fill="#ffb573"/>
<path d="M140.019 190.044H135.176L135.192 178.829H140.03L140.019 190.044Z" fill="#ffb573"/>
<path d="M134.717 189.481H140.619C140.714 189.48 140.806 189.512 140.879 189.572C140.953 189.633 141.002 189.717 141.019 189.81L141.796 194.13C141.813 194.237 141.807 194.347 141.778 194.451C141.749 194.555 141.697 194.652 141.626 194.734C141.556 194.816 141.469 194.882 141.37 194.927C141.272 194.972 141.165 194.995 141.056 194.994C139.156 194.962 137.773 194.849 135.381 194.849C133.912 194.849 129.441 195 127.432 195C125.423 195 125.218 192.991 126.055 192.807C129.835 191.992 132.681 190.869 133.918 189.794C134.137 189.596 134.421 189.484 134.717 189.481Z" fill="#069494"/>
<path opacity="0.2" d="M102.716 177.489L101.658 183.321L106.264 184.38L107.322 178.548L102.716 177.489Z" fill="#000000"/>
<path opacity="0.2" d="M140.03 178.829H135.186V184.607H140.03V178.829Z" fill="#000000"/>
<path d="M143.929 45.1915C140.149 62.1961 141.154 78.9793 140.749 82.6135L114.899 80.9071C112.199 60.3871 115.212 47.2975 116.924 41.9299C117.202 41.0439 117.728 40.2561 118.44 39.6599C119.152 39.0637 120.02 38.684 120.941 38.5657C124.785 38.1444 128.656 38.0234 132.519 38.2039C135.134 38.3603 137.73 38.7544 140.273 39.3811C141.528 39.6682 142.617 40.4412 143.303 41.5304C143.988 42.6197 144.213 43.9363 143.929 45.1915Z" fill="#069494"/>
<path d="M136.136 26.6794C135.283 29.8816 134.273 35.5516 135.899 38.419C136.153 38.8672 135.667 39.2506 135.645 39.769C135.586 41.3566 133.436 41.8318 129.592 41.8534C125.747 41.875 124.1 40.2712 125.147 38.7592C125.308 38.5288 125.552 38.3699 125.828 38.3164C129.43 37.5118 129.5 34.6876 129.008 31.993L136.136 26.6794Z" fill="#ffb573"/>
<path opacity="0.4" d="M129.317 40.9749C130.327 42.3795 130.967 44.0155 131.18 45.7323C135.019 43.9287 136.85 39.5493 136.85 39.5493L135.694 38.3127C135.694 38.3127 131.428 39.1173 129.317 40.9749Z" fill="#000000"/>
<path opacity="0.4" d="M128.939 40.9867C127.525 42.1374 126.332 43.5353 125.418 45.1123C122.734 43.4491 123.62 38.7079 123.62 38.7079L125.807 38.2759C125.807 38.2759 126.784 39.1777 128.939 40.9867Z" fill="#000000"/>
<path d="M129.111 40.8704L128.285 40.9514L126.887 41.8748C126.798 42.431 126.896 43.001 127.167 43.4948C127.98 43.6534 128.809 43.7097 129.635 43.6622C130.19 43.3944 130.632 42.9392 130.883 42.377L129.857 41.0648L129.111 40.8704Z" fill="#069494"/>
<path d="M129.111 40.8704C130.148 42.1688 130.944 43.643 131.46 45.2228C135.299 43.4192 137.535 39.11 137.535 39.11L135.683 37.49C135.683 37.49 131.222 39.0236 129.111 40.8704Z" fill="#069494"/>
<path d="M129.112 40.8672C127.63 41.8021 126.334 43.0031 125.288 44.4096C122.588 42.7518 123.62 38.286 123.62 38.286L125.807 37.854C125.807 37.854 126.962 39.069 129.112 40.8672Z" fill="#069494"/>
<path opacity="0.2" d="M133.232 28.8416L129.02 31.9844C129.147 32.6339 129.218 33.2935 129.23 33.9553C130.748 33.8419 132.929 32.3354 133.194 30.7586C133.321 30.1269 133.333 29.4777 133.232 28.8416Z" fill="#000000"/>
<path d="M136.909 21.3891C136.299 26.1573 136.185 28.9491 133.604 31.2765C129.722 34.7271 123.96 32.1459 123.134 27.2913C122.388 22.9227 123.512 15.8595 128.323 14.2665C129.382 13.9094 130.515 13.8292 131.614 14.0334C132.713 14.2376 133.742 14.7195 134.602 15.4332C135.463 16.1469 136.126 17.0688 136.53 18.1113C136.934 19.1537 137.064 20.2821 136.909 21.3891Z" fill="#ffb573"/>
<path d="M135.743 25.6966C134.663 24.6544 135.338 19.6648 135.883 18.2338C133.183 18.493 124.457 18.4822 124.786 16.0738C125.115 13.6654 128.291 11.6188 133.48 13.309C137.8 14.7184 138.88 16.873 138.88 18.6334C138.945 22.2514 135.743 25.6966 135.743 25.6966Z" fill="#069494"/>
<path d="M138.583 25.7523C138.07 26.7323 137.194 27.4727 136.142 27.8151C134.765 28.2417 134.085 26.9727 134.474 25.6119C134.819 24.3915 135.959 22.6905 137.336 22.8633C138.713 23.0361 139.215 24.5373 138.583 25.7523Z" fill="#ffb573"/>
<path d="M100.081 181.843L108.089 183.609C108.089 183.609 115.876 153.093 118.187 138.178C118.894 133.642 120.536 127.168 122.032 120.358C123.916 111.772 126.287 102.484 128.231 95.2105C130.283 87.5479 131.806 82.0399 131.806 82.0399L114.898 80.9221C114.898 80.9221 107.031 120.834 105.443 135.527C103.785 150.798 100.081 181.843 100.081 181.843Z" fill="#069494"/>
<path opacity="0.2" d="M122.032 120.349C123.917 111.763 126.287 102.475 128.231 95.2014L126.455 91.4214C122.259 96.4326 121.184 111.936 122.032 120.349Z" fill="#000000"/>
<path d="M122.956 81.439C122.956 81.439 126.455 122.225 127.816 136.346C129.328 151.812 133.383 183.494 133.383 183.494H141.515C141.515 183.494 141.883 149.754 140.435 134.818C140.23 105.453 140.743 82.6162 140.743 82.6162L122.956 81.439Z" fill="#069494"/>
<path d="M132.346 183.683H142.79V180.562L131.941 179.962L132.346 183.683Z" fill="#069494"/>
<path d="M99.0334 181.811L108.575 183.917L109.256 180.834L99.2656 178.317L99.0334 181.811Z" fill="#069494"/>
<path d="M129.938 22.2414C129.938 22.6302 129.684 22.9326 129.43 22.9164C129.176 22.9002 128.987 22.5708 129.014 22.182C129.041 21.7932 129.268 21.4908 129.522 21.507C129.776 21.5232 129.965 21.8526 129.938 22.2414Z" fill="#069494"/>
<path d="M125.531 21.967C125.531 22.3558 125.277 22.6582 125.023 22.642C124.77 22.6258 124.581 22.2964 124.608 21.9076C124.635 21.5188 124.861 21.2164 125.115 21.2326C125.369 21.2488 125.558 21.5566 125.531 21.967Z" fill="#069494"/>
<path d="M126.541 22.2393C125.996 23.3977 125.297 24.4768 124.462 25.4469C125.105 26.1381 126.298 25.9221 126.298 25.9221L126.541 22.2393Z" fill="#ed893e"/>
<path d="M127.875 27.074C128.312 27.0493 128.741 26.9361 129.133 26.7411C129.526 26.5462 129.875 26.2737 130.159 25.94C130.179 25.9189 130.19 25.8908 130.19 25.8617C130.19 25.8325 130.179 25.8045 130.159 25.7834C130.137 25.7629 130.108 25.7515 130.078 25.7515C130.048 25.7515 130.019 25.7629 129.997 25.7834C129.676 26.1492 129.274 26.4347 128.823 26.6166C128.372 26.7986 127.884 26.872 127.4 26.831C127.385 26.8295 127.37 26.831 127.355 26.8353C127.341 26.8397 127.328 26.8468 127.316 26.8564C127.305 26.8659 127.295 26.8776 127.288 26.8909C127.281 26.9041 127.277 26.9186 127.275 26.9336C127.274 26.9642 127.284 26.9942 127.304 27.0174C127.325 27.0405 127.353 27.055 127.383 27.0578C127.547 27.0731 127.711 27.0785 127.875 27.074Z" fill="#069494"/>
<path d="M131.012 20.8912C131.051 20.8868 131.088 20.8739 131.12 20.8534C131.172 20.8202 131.208 20.7682 131.221 20.7085C131.234 20.6489 131.223 20.5865 131.191 20.5348C130.998 20.2241 130.734 19.964 130.42 19.7762C130.106 19.5883 129.752 19.4781 129.387 19.4548C129.332 19.4633 129.282 19.491 129.246 19.5331C129.21 19.5752 129.19 19.6289 129.19 19.6843C129.19 19.7398 129.21 19.7934 129.246 19.8355C129.282 19.8776 129.332 19.9054 129.387 19.9138C129.675 19.9351 129.954 20.0246 130.201 20.1748C130.448 20.325 130.656 20.5317 130.807 20.7778C130.827 20.8141 130.857 20.8439 130.894 20.8639C130.93 20.884 130.971 20.8934 131.012 20.8912Z" fill="#069494"/>
<path d="M123.355 20.313C123.393 20.3104 123.429 20.2987 123.461 20.2789C123.493 20.2592 123.52 20.232 123.539 20.1996C123.677 19.9487 123.872 19.7338 124.108 19.5724C124.345 19.411 124.616 19.3077 124.9 19.2708C124.96 19.2653 125.016 19.2372 125.056 19.192C125.096 19.1469 125.117 19.0882 125.116 19.0278C125.112 18.9672 125.084 18.9106 125.038 18.8702C124.993 18.8298 124.933 18.8088 124.873 18.8118C124.51 18.8556 124.163 18.9859 123.862 19.1917C123.56 19.3975 123.312 19.6728 123.139 19.9944C123.11 20.0467 123.103 20.1084 123.119 20.1661C123.135 20.2238 123.174 20.2727 123.226 20.3022C123.266 20.3206 123.312 20.3244 123.355 20.313Z" fill="#069494"/>
<path d="M133.081 190.324C133.511 190.314 133.938 190.256 134.355 190.152C134.377 190.146 134.397 190.135 134.412 190.119C134.428 190.102 134.438 190.082 134.442 190.06C134.447 190.039 134.446 190.016 134.438 189.996C134.431 189.976 134.417 189.958 134.398 189.946C134.226 189.833 132.703 188.866 132.152 189.147C132.092 189.178 132.042 189.225 132.006 189.282C131.97 189.339 131.949 189.404 131.947 189.471C131.928 189.582 131.937 189.697 131.974 189.803C132.01 189.91 132.074 190.006 132.157 190.081C132.428 190.266 132.754 190.352 133.081 190.324ZM134.026 189.99C133.2 190.157 132.568 190.125 132.314 189.903C132.256 189.852 132.213 189.787 132.189 189.714C132.164 189.641 132.159 189.563 132.174 189.487C132.174 189.401 132.217 189.369 132.249 189.352C132.535 189.212 133.41 189.622 134.026 189.99Z" fill="#069494"/>
<path d="M134.328 190.16C134.347 190.167 134.368 190.167 134.387 190.16C134.406 190.15 134.421 190.135 134.431 190.117C134.442 190.099 134.447 190.078 134.447 190.057C134.447 189.998 134.387 188.599 133.842 188.14C133.776 188.083 133.699 188.04 133.615 188.015C133.531 187.989 133.443 187.983 133.356 187.995C133.269 187.995 133.186 188.024 133.118 188.078C133.05 188.132 133.003 188.207 132.983 188.292C132.859 188.832 133.782 189.912 134.274 190.165C134.292 190.169 134.311 190.167 134.328 190.16ZM133.431 188.194C133.528 188.195 133.62 188.232 133.691 188.297C134.036 188.589 134.16 189.404 134.198 189.814C133.718 189.436 133.118 188.632 133.205 188.313C133.205 188.286 133.205 188.216 133.378 188.2H133.431V188.194Z" fill="#069494"/>
<path d="M99.703 187.964L105.384 189.584C105.474 189.61 105.553 189.667 105.606 189.745C105.66 189.823 105.684 189.917 105.675 190.011L105.254 194.369C105.24 194.476 105.204 194.579 105.147 194.671C105.089 194.762 105.013 194.84 104.923 194.9C104.833 194.959 104.73 194.999 104.624 195.015C104.517 195.032 104.408 195.025 104.304 194.995C102.484 194.455 101.188 193.964 98.9038 193.31C97.489 192.911 92.8828 191.258 91.2034 190.113C89.524 188.969 90.5122 187.203 91.306 187.527C94.8754 188.974 97.3864 188.742 98.866 188.067C99.1241 187.935 99.4207 187.898 99.703 187.964Z" fill="#069494"/>
<path d="M97.894 188.334C98.3114 188.438 98.7386 188.497 99.1684 188.512C99.1916 188.513 99.2147 188.508 99.2348 188.497C99.255 188.485 99.2713 188.468 99.2818 188.447C99.2946 188.429 99.3015 188.407 99.3015 188.385C99.3015 188.363 99.2946 188.341 99.2818 188.323C99.1468 188.172 97.9426 186.833 97.3432 186.946C97.2765 186.961 97.2147 186.992 97.1636 187.038C97.1126 187.083 97.074 187.141 97.0516 187.205C97.0049 187.306 96.9838 187.417 96.9904 187.529C96.997 187.64 97.031 187.748 97.0894 187.842C97.2952 188.091 97.5785 188.264 97.894 188.334ZM98.8984 188.269C98.056 188.204 97.4566 187.999 97.2784 187.729C97.242 187.662 97.223 187.587 97.223 187.51C97.223 187.434 97.242 187.359 97.2784 187.292C97.3108 187.205 97.354 187.189 97.3918 187.184C97.6996 187.113 98.4016 187.751 98.8984 188.291V188.269Z" fill="#069494"/>
<path d="M99.1412 188.507C99.1624 188.512 99.1847 188.512 99.206 188.507C99.2269 188.501 99.2459 188.491 99.2612 188.475C99.2764 188.46 99.2872 188.441 99.2924 188.42C99.2924 188.366 99.6272 187.005 99.233 186.411C99.1848 186.339 99.1219 186.278 99.0484 186.231C98.9749 186.185 98.8924 186.154 98.8064 186.141C98.7227 186.118 98.6336 186.124 98.5533 186.157C98.4731 186.19 98.4063 186.249 98.3636 186.325C98.0936 186.811 98.6984 188.085 99.0926 188.485C99.1067 188.496 99.1234 188.504 99.1412 188.507ZM98.8118 186.374C98.9041 186.399 98.9833 186.459 99.0332 186.541C99.2924 186.919 99.1844 187.74 99.1142 188.161C98.7524 187.67 98.4068 186.735 98.5742 186.449C98.5742 186.422 98.6228 186.363 98.774 186.384L98.8118 186.374Z" fill="#069494"/>
<path d="M136.218 37.9958C136.16 37.9866 136.101 37.9906 136.046 38.0074C135.99 38.0243 135.939 38.0536 135.896 38.0932C135.854 38.1327 135.82 38.1815 135.799 38.2357C135.778 38.2899 135.77 38.3482 135.775 38.4062C135.964 41.3006 131.455 46.5062 130.375 62.096C129.732 71.5784 129.144 101.143 129.576 116.523C129.582 116.724 129.634 116.922 129.728 117.101C129.822 117.279 129.956 117.434 130.119 117.553C130.282 117.673 130.47 117.753 130.669 117.789C130.867 117.824 131.072 117.814 131.266 117.759C139.236 115.534 143 120.929 144.534 114.568C144.453 106.948 142.147 79.592 142.741 73.1066C143.335 66.6212 145.803 49.001 146.418 44.303C146.964 40.2206 138.448 38.4008 136.218 37.9958Z" fill="#069494"/>
<path opacity="0.7" d="M136.218 37.9958C136.16 37.9866 136.101 37.9906 136.046 38.0074C135.99 38.0243 135.939 38.0536 135.896 38.0932C135.854 38.1327 135.82 38.1815 135.799 38.2357C135.778 38.2899 135.77 38.3482 135.775 38.4062C135.964 41.3006 131.455 46.5062 130.375 62.096C129.732 71.5784 129.144 101.143 129.576 116.523C129.582 116.724 129.634 116.922 129.728 117.101C129.822 117.279 129.956 117.434 130.119 117.553C130.282 117.673 130.47 117.753 130.669 117.789C130.867 117.824 131.072 117.814 131.266 117.759C139.236 115.534 143 120.929 144.534 114.568C144.453 106.948 142.147 79.592 142.741 73.1066C143.335 66.6212 145.803 49.001 146.418 44.303C146.964 40.2206 138.448 38.4008 136.218 37.9958Z" fill="#ffffff"/>
<path opacity="0.2" d="M141.472 51.2114C141.121 53.6198 140.986 63.3506 143.302 68.0324C143.691 64.7924 144.199 60.9422 144.69 57.2324L141.472 51.2114Z" fill="#069494"/>
<path d="M144.782 93.2935L142.482 93.5635L140.446 97.1977C140.334 97.3944 140.265 97.6123 140.243 97.8373C140.22 98.0624 140.245 98.2897 140.316 98.5045L141.051 100.74C141.175 101.123 141.438 101.445 141.787 101.645C142.137 101.844 142.548 101.907 142.941 101.82L143.967 101.604C144.344 101.527 144.681 101.319 144.919 101.016C145.156 100.714 145.278 100.336 145.263 99.9517L145.198 97.9645C145.198 97.9645 147.023 93.7471 144.782 93.2935Z" fill="#ffb573"/>
<path d="M146.046 42.4893C146.781 44.6493 147.461 46.7823 148.136 48.9423C148.811 51.1023 149.486 53.2623 150.123 55.4223C150.76 57.5823 151.376 59.7909 151.943 62.0427C152.224 63.1713 152.483 64.3107 152.731 65.5041C152.845 66.1035 152.958 66.7137 153.05 67.3617C153.093 67.6965 153.142 68.0043 153.169 68.3769L153.217 68.9169L153.244 69.5271C153.255 69.7321 153.255 69.9376 153.244 70.1427C153.244 70.3587 153.244 70.5639 153.217 70.7313L153.169 71.2713L153.109 71.7573C153.034 72.4107 152.937 73.0047 152.839 73.5987C152.645 74.7759 152.418 75.9099 152.186 77.0331C151.722 79.2795 151.203 81.4773 150.679 83.6643C150.156 85.8513 149.599 88.0329 149.059 90.2091L147.439 96.7377L139.62 94.6155C140.83 90.3981 141.931 86.1051 142.952 81.8391C143.449 79.6791 143.913 77.5623 144.329 75.4509C144.534 74.3709 144.729 73.3449 144.869 72.3297C144.95 71.8221 145.015 71.3199 145.058 70.8663C145.1 70.5079 145.114 70.1468 145.101 69.7863V69.5595L145.063 69.2679C145.063 69.0843 144.999 68.8413 144.966 68.6307C144.891 68.1771 144.793 67.6965 144.685 67.2051C144.464 66.2223 144.199 65.2071 143.913 64.1865C143.373 62.1399 142.687 60.0663 141.991 58.0035C140.614 53.8779 139.064 49.7253 137.466 45.6861L146.046 42.4893Z" fill="#069494"/>
<path opacity="0.7" d="M146.046 42.4893C146.781 44.6493 147.461 46.7823 148.136 48.9423C148.811 51.1023 149.486 53.2623 150.123 55.4223C150.76 57.5823 151.376 59.7909 151.943 62.0427C152.224 63.1713 152.483 64.3107 152.731 65.5041C152.845 66.1035 152.958 66.7137 153.05 67.3617C153.093 67.6965 153.142 68.0043 153.169 68.3769L153.217 68.9169L153.244 69.5271C153.255 69.7321 153.255 69.9376 153.244 70.1427C153.244 70.3587 153.244 70.5639 153.217 70.7313L153.169 71.2713L153.109 71.7573C153.034 72.4107 152.937 73.0047 152.839 73.5987C152.645 74.7759 152.418 75.9099 152.186 77.0331C151.722 79.2795 151.203 81.4773 150.679 83.6643C150.156 85.8513 149.599 88.0329 149.059 90.2091L147.439 96.7377L139.62 94.6155C140.83 90.3981 141.931 86.1051 142.952 81.8391C143.449 79.6791 143.913 77.5623 144.329 75.4509C144.534 74.3709 144.729 73.3449 144.869 72.3297C144.95 71.8221 145.015 71.3199 145.058 70.8663C145.1 70.5079 145.114 70.1468 145.101 69.7863V69.5595L145.063 69.2679C145.063 69.0843 144.999 68.8413 144.966 68.6307C144.891 68.1771 144.793 67.6965 144.685 67.2051C144.464 66.2223 144.199 65.2071 143.913 64.1865C143.373 62.1399 142.687 60.0663 141.991 58.0035C140.614 53.8779 139.064 49.7253 137.466 45.6861L146.046 42.4893Z" fill="#ffffff"/>
<path d="M125.715 37.5903C125.833 37.5895 125.95 37.6223 126.051 37.6851C126.151 37.7479 126.232 37.838 126.284 37.945C126.335 38.0519 126.355 38.1713 126.342 38.2892C126.328 38.4071 126.281 38.5187 126.206 38.6109C124.921 40.1013 124.111 42.1479 122.588 48.7143C120.752 56.6361 116.843 96.4936 116.108 116.025C116.105 116.188 116.066 116.347 115.995 116.493C115.923 116.639 115.821 116.768 115.696 116.87C115.57 116.973 115.423 117.047 115.266 117.088C115.109 117.128 114.945 117.134 114.785 117.105C110.973 116.403 108.359 118.25 107.943 115.804C107.484 113.104 109.196 87.3136 112.398 75.1852C111.896 64.4284 113.711 42.8499 117.334 39.9825C119.3 38.3895 123.479 37.6281 125.715 37.5903Z" fill="#069494"/>
<path opacity="0.7" d="M125.715 37.5903C125.833 37.5895 125.95 37.6223 126.051 37.6851C126.151 37.7479 126.232 37.838 126.284 37.945C126.335 38.0519 126.355 38.1713 126.342 38.2892C126.328 38.4071 126.281 38.5187 126.206 38.6109C124.921 40.1013 124.111 42.1479 122.588 48.7143C120.752 56.6361 116.843 96.4936 116.108 116.025C116.105 116.188 116.066 116.347 115.995 116.493C115.923 116.639 115.821 116.768 115.696 116.87C115.57 116.973 115.423 117.047 115.266 117.088C115.109 117.128 114.945 117.134 114.785 117.105C110.973 116.403 108.359 118.25 107.943 115.804C107.484 113.104 109.196 87.3136 112.398 75.1852C111.896 64.4284 113.711 42.8499 117.334 39.9825C119.3 38.3895 123.479 37.6281 125.715 37.5903Z" fill="#ffffff"/>
<path d="M127.816 42.9429C127.816 42.9429 123.15 56.0487 121.509 67.0323C121.379 70.0185 122.799 75.8019 123.949 78.3237C126.352 73.0911 127.854 70.0077 128.091 67.0323C128.475 62.5557 129.106 43.0293 129.106 43.0293L127.816 42.9429Z" fill="#069494"/>
<path d="M137.579 58.535C137.531 58.5335 137.486 58.5164 137.449 58.4865C137.413 58.4567 137.387 58.4156 137.376 58.3696C137.365 58.3236 137.369 58.2752 137.388 58.232C137.407 58.1887 137.44 58.1529 137.481 58.13L138.367 57.6656C139.194 57.2404 139.871 56.5733 140.309 55.7533C140.747 54.9332 140.925 53.9992 140.819 53.0756L139.857 44.3708C139.787 43.722 139.499 43.1158 139.042 42.6502C138.584 42.1846 137.983 41.8866 137.336 41.8042C136.688 41.7219 136.032 41.86 135.473 42.1963C134.913 42.5326 134.483 43.0475 134.252 43.658L131.142 51.839C130.807 52.7061 130.744 53.6545 130.961 54.5583C131.178 55.4621 131.665 56.2784 132.357 56.8988L133.102 57.5738C133.142 57.6142 133.164 57.6685 133.164 57.725C133.164 57.7816 133.142 57.8359 133.102 57.8762C133.062 57.9158 133.007 57.938 132.951 57.938C132.894 57.938 132.84 57.9158 132.8 57.8762L132.054 57.2066C131.3 56.5258 130.771 55.6319 130.537 54.6434C130.303 53.6549 130.374 52.6185 130.742 51.6716L133.88 43.5068C134.148 42.8092 134.642 42.2217 135.283 41.8384C135.925 41.4551 136.676 41.2982 137.418 41.3928C138.159 41.4874 138.847 41.8281 139.371 42.3602C139.896 42.8923 140.227 43.5851 140.311 44.3276L141.272 53.027C141.386 54.0393 141.189 55.0623 140.706 55.9595C140.224 56.8567 139.479 57.5856 138.572 58.049L137.687 58.508C137.655 58.5287 137.617 58.5382 137.579 58.535Z" fill="#069494"/>
<path d="M140.257 46.2688C140.205 46.2693 140.156 46.2508 140.117 46.217C140.078 46.1832 140.053 46.1363 140.046 46.0852C139.921 45.3851 139.565 44.7469 139.036 44.2716C138.507 43.7962 137.834 43.5109 137.125 43.4608C135.926 43.3096 134.295 43.6876 133.642 45.2644C133.632 45.2924 133.617 45.3181 133.598 45.34C133.578 45.362 133.554 45.3796 133.527 45.392C133.501 45.4043 133.471 45.411 133.442 45.4116C133.413 45.4123 133.383 45.4069 133.356 45.3959C133.329 45.3848 133.304 45.3682 133.283 45.3472C133.262 45.3262 133.246 45.3012 133.236 45.2737C133.225 45.2462 133.22 45.2169 133.221 45.1874C133.222 45.1579 133.23 45.129 133.242 45.1024C133.607 44.3963 134.181 43.8194 134.885 43.45C135.589 43.0807 136.389 42.9366 137.178 43.0374C137.966 43.1382 138.705 43.4789 139.293 44.0135C139.882 44.548 140.292 45.2505 140.467 46.0258C140.475 46.081 140.461 46.1369 140.427 46.1814C140.394 46.2259 140.344 46.2554 140.289 46.2634L140.257 46.2688Z" fill="#069494"/>
<path d="M137.352 41.8024C137.324 41.801 137.296 41.794 137.271 41.7818C137.246 41.7696 137.223 41.7524 137.204 41.7313C137.186 41.7101 137.171 41.6854 137.163 41.6587C137.154 41.632 137.15 41.6037 137.152 41.5756C137.217 40.5226 137.066 38.6056 136.072 38.1088C136.021 38.0823 135.983 38.0367 135.966 37.982C135.949 37.9273 135.954 37.868 135.981 37.8172C136.007 37.7664 136.053 37.7281 136.107 37.7109C136.162 37.6937 136.221 37.6989 136.272 37.7254C137.709 38.4652 137.579 41.284 137.557 41.6026C137.555 41.6556 137.532 41.7057 137.494 41.7427C137.456 41.7798 137.405 41.8011 137.352 41.8024Z" fill="#069494"/>
<path d="M133.437 57.7879C133.383 58.1929 133.129 58.4899 132.864 58.4521C132.6 58.4143 132.427 58.0687 132.481 57.6691C132.535 57.2695 132.783 56.9671 133.048 57.0049C133.312 57.0427 133.485 57.3883 133.437 57.7879Z" fill="#069494"/>
<path d="M120.882 49.0317C120.542 49.8903 119.802 50.4087 119.262 50.1873C118.722 49.9659 118.511 49.1073 118.852 48.2271C119.192 47.3469 119.932 46.8501 120.472 47.0715C121.012 47.2929 121.217 48.1731 120.882 49.0317Z" fill="#069494"/>
<path d="M119.105 48.4803H119.062C119.006 48.4686 118.958 48.4354 118.926 48.3878C118.895 48.3403 118.884 48.2823 118.895 48.2265C119.608 44.6787 122.556 39.0465 125.153 37.4265C125.177 37.4062 125.205 37.3912 125.234 37.3825C125.264 37.3739 125.296 37.3718 125.327 37.3764C125.357 37.3811 125.387 37.3923 125.413 37.4094C125.439 37.4264 125.461 37.4489 125.477 37.4753C125.494 37.5017 125.505 37.5313 125.509 37.5622C125.513 37.5931 125.51 37.6244 125.501 37.6542C125.491 37.6839 125.476 37.7113 125.455 37.7344C125.434 37.7576 125.409 37.776 125.38 37.7883C122.869 39.3705 120.013 44.8083 119.316 48.3021C119.307 48.3517 119.281 48.3967 119.243 48.4292C119.204 48.4618 119.156 48.4798 119.105 48.4803Z" fill="#069494"/>
<path d="M121.498 49.2117C121.249 49.9515 120.612 50.4105 120.072 50.2323C119.532 50.0541 119.289 49.3035 119.532 48.5583C119.775 47.8131 120.418 47.3595 120.958 47.5377C121.498 47.7159 121.746 48.4665 121.498 49.2117Z" fill="#ffffff"/>
<path d="M121.535 49.2864C121.206 50.199 120.596 50.8199 120.18 50.6687C119.764 50.5175 119.694 49.6536 120.029 48.7356C120.363 47.8176 120.968 47.2019 121.384 47.3531C121.8 47.5043 121.87 48.3683 121.535 49.2864Z" fill="#069494"/>
<path d="M138.059 58.3831C138.011 58.7827 137.752 59.0797 137.487 59.0473C137.222 59.0149 137.05 58.6585 137.104 58.2589C137.158 57.8593 137.411 57.5623 137.676 57.5947C137.941 57.6271 138.113 57.9781 138.059 58.3831Z" fill="#069494"/>
<path d="M168.677 34.9843C170.481 39.9145 165.686 42.3931 162.543 49.6561C159.4 56.9191 166.982 65.5807 178.619 65.7697C190.256 65.9587 190.623 54.8131 188.819 46.8157C187.016 38.8183 190.785 37.5169 189.986 31.4095C188.96 23.3851 177.398 17.3047 172.808 24.6703C168.726 24.2869 167.101 30.6751 168.677 34.9843Z" fill="#069494"/>
<path d="M203.146 101.349V100.723C203.135 100.422 203.059 100.128 202.924 99.8589L200.969 96.0033L198.68 95.5713C197.06 97.3155 198.68 100.793 198.68 100.793V101.349C198.68 101.805 198.829 102.248 199.104 102.612C199.379 102.975 199.764 103.239 200.203 103.363L200.511 103.455C200.828 103.539 201.16 103.547 201.48 103.479C201.801 103.412 202.102 103.27 202.358 103.065C202.614 102.86 202.819 102.599 202.955 102.301C203.092 102.003 203.157 101.677 203.146 101.349Z" fill="#ffc3bd"/>
<path d="M193.442 51.749L194.285 57.6566L195.17 63.548C195.462 65.519 195.77 67.4792 196.083 69.4448L197.017 75.2984L197.13 75.8762C197.168 76.0652 197.233 76.3082 197.282 76.5188L197.444 77.183L197.633 77.8688C197.876 78.776 198.173 79.7156 198.432 80.6444C198.972 82.5074 199.593 84.392 200.203 86.2658C201.445 90.008 202.741 93.7664 204.123 97.46L196.488 100.16L192.665 88.7444C192.033 86.8382 191.39 84.932 190.78 82.988C190.478 82.0106 190.175 81.044 189.889 80.0342L189.668 79.2836L189.457 78.5006C189.387 78.2306 189.311 77.993 189.246 77.696L189.047 76.8104L187.918 70.8704C187.558 68.912 187.182 66.9536 186.789 64.9952L185.634 59.12L184.43 53.288L193.442 51.749Z" fill="#069494"/>
<path opacity="0.6" d="M193.442 51.749L194.285 57.6566L195.17 63.548C195.462 65.519 195.77 67.4792 196.083 69.4448L197.017 75.2984L197.13 75.8762C197.168 76.0652 197.233 76.3082 197.282 76.5188L197.444 77.183L197.633 77.8688C197.876 78.776 198.173 79.7156 198.432 80.6444C198.972 82.5074 199.593 84.392 200.203 86.2658C201.445 90.008 202.741 93.7664 204.123 97.46L196.488 100.16L192.665 88.7444C192.033 86.8382 191.39 84.932 190.78 82.988C190.478 82.0106 190.175 81.044 189.889 80.0342L189.668 79.2836L189.457 78.5006C189.387 78.2306 189.311 77.993 189.246 77.696L189.047 76.8104L187.918 70.8704C187.558 68.912 187.182 66.9536 186.789 64.9952L185.634 59.12L184.43 53.288L193.442 51.749Z" fill="#ffffff"/>
<path d="M192.227 51.3004C192.48 54.1786 192.254 61.339 189.365 79.0888H169.385C169.703 71.3776 169.725 66.4636 166.415 51.7486C166.339 51.4177 166.333 51.0749 166.395 50.7413C166.458 50.4078 166.588 50.0906 166.778 49.8092C166.967 49.5279 167.213 49.2884 167.499 49.1056C167.784 48.9228 168.105 48.8005 168.44 48.7462C170.39 48.4258 172.357 48.2112 174.331 48.1036C177.355 47.8873 180.39 47.8873 183.414 48.1036C185.898 48.3304 188.592 48.7786 190.223 49.0756C190.754 49.1764 191.238 49.4486 191.6 49.8504C191.962 50.2522 192.182 50.7615 192.227 51.3004Z" fill="#069494"/>
<path d="M175.212 37.8745C175.784 40.7959 176.356 46.1527 174.31 48.1021C174.31 48.1021 176.869 51.2125 180.79 51.2125C184.71 51.2125 183.398 48.1021 183.398 48.1021C180.158 47.3245 180.223 44.9053 180.79 42.6373L175.212 37.8745Z" fill="#ffc3bd"/>
<path opacity="0.2" d="M177.485 39.8152L180.784 42.6286C180.644 43.1595 180.55 43.7015 180.503 44.2486C179.256 44.0704 177.301 43.0066 177.031 41.6512C176.907 41.0086 177.377 40.1176 177.485 39.8152Z" fill="#000000"/>
<path d="M171.772 32.1373C172.533 36.9649 172.754 39.0223 175.444 41.2795C179.494 44.6761 185.255 42.6835 185.952 37.7263C186.578 33.2659 185.223 26.1163 180.287 24.6421C179.2 24.3114 178.046 24.264 176.935 24.5046C175.825 24.7451 174.794 25.2655 173.941 26.0164C173.087 26.7673 172.44 27.7238 172.061 28.795C171.681 29.8663 171.582 31.0168 171.772 32.1373Z" fill="#ffc3bd"/>
<path d="M172.577 35.6161C175.341 32.8783 176.292 29.0713 176.033 27.5161C178.695 28.2559 180.65 27.2083 180.531 26.7547C182.41 28.5907 185.817 30.0433 185.434 28.0669C185.051 26.0905 182.529 22.4455 177.269 23.7469C172.01 25.0483 169.985 30.4483 170.06 32.6407C170.136 34.8331 172.577 35.6161 172.577 35.6161Z" fill="#069494"/>
<path d="M178.7 32.6834C178.738 33.083 178.975 33.38 179.24 33.3584C179.505 33.3368 179.677 32.9912 179.64 32.597C179.602 32.2028 179.359 31.9004 179.1 31.922C178.84 31.9436 178.7 32.2892 178.7 32.6834Z" fill="#069494"/>
<path d="M183.187 32.2561C183.225 32.6503 183.468 32.9527 183.727 32.9257C183.987 32.8987 184.165 32.5639 184.127 32.1697C184.089 31.7755 183.846 31.4731 183.587 31.4947C183.328 31.5163 183.15 31.8619 183.187 32.2561Z" fill="#069494"/>
<path d="M183.479 31.5285L184.402 31.1667C184.402 31.1667 183.981 31.9551 183.479 31.5285Z" fill="#069494"/>
<path d="M181.881 33.1021C182.317 33.9713 182.871 34.7762 183.528 35.4943C183.34 35.6569 183.119 35.7768 182.88 35.8458C182.642 35.9148 182.391 35.9312 182.145 35.8938L181.881 33.1021Z" fill="#ed847e"/>
<path d="M180.136 37.6279C180.332 37.6413 180.529 37.6413 180.725 37.6279C180.756 37.6238 180.783 37.608 180.803 37.5839C180.822 37.5597 180.831 37.529 180.828 37.4983C180.827 37.4831 180.823 37.4682 180.817 37.4546C180.81 37.4409 180.8 37.4289 180.789 37.4192C180.777 37.4095 180.763 37.4024 180.748 37.3983C180.734 37.3943 180.718 37.3934 180.703 37.3957C180.212 37.4526 179.714 37.3933 179.25 37.2226C178.786 37.0519 178.368 36.7745 178.03 36.4129C178.01 36.394 177.983 36.3831 177.955 36.3821C177.926 36.3812 177.899 36.3903 177.877 36.4078C177.855 36.4254 177.84 36.4501 177.834 36.4778C177.829 36.5054 177.833 36.5341 177.847 36.5587C178.139 36.8793 178.492 37.1389 178.885 37.3224C179.278 37.5059 179.703 37.6097 180.136 37.6279Z" fill="#069494"/>
<path d="M170.702 36.0619C171.063 36.936 171.754 37.6326 172.625 38.0005C173.78 38.4757 174.509 37.4605 174.31 36.3103C174.131 35.2303 173.311 33.7345 172.09 33.7561C171.825 33.7691 171.566 33.8472 171.338 33.9837C171.11 34.1202 170.918 34.3109 170.781 34.5388C170.644 34.7667 170.565 35.0248 170.551 35.2905C170.538 35.5561 170.59 35.8211 170.702 36.0619Z" fill="#ffc3bd"/>
<path d="M177.161 30.609C177.207 30.6254 177.258 30.627 177.305 30.6134C177.353 30.5999 177.395 30.5719 177.425 30.5334C178.106 29.6964 179.494 29.7774 179.504 29.7774C179.566 29.7804 179.626 29.7597 179.672 29.7194C179.718 29.6791 179.747 29.6225 179.753 29.5614C179.756 29.5308 179.752 29.4998 179.743 29.4705C179.734 29.4411 179.718 29.414 179.698 29.3908C179.678 29.3675 179.653 29.3487 179.625 29.3353C179.598 29.3219 179.568 29.3143 179.537 29.313C179.472 29.313 177.89 29.2158 177.064 30.2418C177.025 30.2902 177.007 30.3516 177.013 30.4131C177.019 30.4746 177.049 30.5313 177.096 30.5712L177.161 30.609Z" fill="#069494"/>
<path d="M184.813 30.1208C184.864 30.124 184.915 30.11 184.957 30.0812C185 30.0524 185.031 30.0104 185.047 29.9617C185.063 29.9129 185.063 29.8603 185.046 29.8119C185.029 29.7635 184.996 29.7222 184.953 29.6942C184.651 29.481 184.302 29.3428 183.936 29.2911C183.57 29.2395 183.197 29.2758 182.847 29.3972C182.79 29.4222 182.746 29.4684 182.722 29.5259C182.699 29.5834 182.699 29.6477 182.723 29.705C182.735 29.7336 182.752 29.7596 182.774 29.7813C182.796 29.8031 182.822 29.8203 182.851 29.8319C182.879 29.8434 182.91 29.8492 182.941 29.8487C182.972 29.8483 183.002 29.8416 183.031 29.8292C183.308 29.7368 183.604 29.7116 183.893 29.7558C184.182 29.7999 184.457 29.9121 184.694 30.083C184.73 30.106 184.771 30.119 184.813 30.1208Z" fill="#069494"/>
<path d="M201.779 190.878L206.753 190.64L205.279 179.408L200.311 179.651L201.779 190.878Z" fill="#ffc3bd"/>
<g opacity="0.2">
<path d="M205.279 179.416L206.04 185.204L201.067 185.442L200.305 179.653L205.279 179.416Z" fill="#000000"/>
</g>
<path d="M189.365 79.0864C189.365 79.0864 195.623 117.021 198.172 131.812C200.829 147.191 206.812 183.387 206.812 183.387L200.235 184.467C200.235 184.467 191.368 148.233 187.815 133.167C183.959 116.724 174.617 94.6762 174.715 79.1296L189.365 79.0864Z" fill="#069494"/>
<path opacity="0.2" d="M179.316 90.7282C178.376 89.362 176.567 87.445 175.179 85.8682C176.438 95.5342 180.039 106.75 183.328 117.312C184.203 109.266 183.706 97.0624 179.316 90.7282Z" fill="#000000"/>
<path d="M171.097 190.117H176.022L176.351 178.712H171.421L171.097 190.117Z" fill="#ffc3bd"/>
<path d="M176.253 189.37H170.718C170.623 189.369 170.53 189.403 170.457 189.466C170.385 189.528 170.337 189.615 170.324 189.71L169.692 194.084C169.681 194.195 169.693 194.307 169.728 194.414C169.763 194.52 169.819 194.617 169.894 194.7C169.969 194.783 170.06 194.85 170.162 194.895C170.264 194.941 170.375 194.964 170.486 194.964C172.414 194.926 173.343 194.813 175.778 194.813C177.274 194.813 180.368 194.97 182.436 194.97C184.505 194.97 184.596 192.928 183.754 192.739C179.893 191.913 178.354 190.768 177.074 189.672C176.844 189.479 176.554 189.373 176.253 189.37Z" fill="#069494"/>
<g opacity="0.2">
<path d="M176.345 178.719L176.178 184.599H171.253L171.42 178.719H176.345Z" fill="#000000"/>
</g>
<path d="M183.743 79.0864C183.743 79.0864 181.745 117.507 180.395 132.465C178.986 148.028 177.29 183.296 177.29 183.296H170.627C170.627 183.296 169.439 148.163 169.903 132.816C170.405 116.076 166.382 94.633 169.099 79.0864H183.743Z" fill="#069494"/>
<path d="M170.049 183.535L177.863 183.681L177.982 178.918L170.017 179.415L170.049 183.535Z" fill="#069494"/>
<path d="M178.101 190.251C178.521 190.29 178.943 190.183 179.294 189.949C179.374 189.878 179.434 189.789 179.471 189.689C179.508 189.589 179.519 189.482 179.505 189.377C179.501 189.313 179.481 189.251 179.447 189.198C179.413 189.144 179.366 189.1 179.31 189.069C178.706 188.734 176.74 189.738 176.519 189.857C176.498 189.869 176.481 189.886 176.471 189.907C176.46 189.929 176.456 189.952 176.459 189.976C176.462 190 176.473 190.022 176.489 190.039C176.506 190.057 176.527 190.069 176.551 190.073C177.061 190.182 177.58 190.242 178.101 190.251ZM178.981 189.231C179.055 189.229 179.129 189.244 179.197 189.274C179.22 189.286 179.239 189.304 179.252 189.325C179.265 189.347 179.272 189.372 179.273 189.398C179.284 189.467 179.278 189.537 179.254 189.602C179.231 189.668 179.19 189.726 179.138 189.771C178.841 190.041 178.031 190.089 176.94 189.906C177.577 189.566 178.267 189.337 178.981 189.231Z" fill="#069494"/>
<path d="M176.572 190.076H176.621C177.209 189.811 178.37 188.748 178.279 188.191C178.279 188.056 178.165 187.894 177.841 187.862C177.725 187.849 177.608 187.859 177.496 187.894C177.385 187.928 177.281 187.985 177.193 188.062C176.578 188.575 176.464 189.903 176.459 189.957C176.457 189.978 176.46 189.999 176.469 190.018C176.477 190.037 176.49 190.053 176.507 190.065C176.528 190.074 176.55 190.078 176.572 190.076ZM177.749 188.078H177.82C178.03 188.078 178.046 188.181 178.046 188.213C178.106 188.548 177.317 189.379 176.718 189.741C176.764 189.183 176.983 188.652 177.344 188.224C177.457 188.128 177.601 188.076 177.749 188.078Z" fill="#069494"/>
<path d="M206.693 189.37H201.158C201.114 189.368 201.069 189.375 201.028 189.391C200.987 189.408 200.949 189.433 200.919 189.466C200.888 189.498 200.866 189.537 200.852 189.579C200.838 189.622 200.834 189.666 200.84 189.711L201.12 194.085C201.153 194.322 201.269 194.541 201.446 194.702C201.624 194.862 201.853 194.956 202.092 194.965C204.015 194.927 204.922 194.814 207.352 194.814C208.853 194.814 211.98 194.97 214.048 194.97C216.116 194.97 215.798 192.929 214.901 192.74C210.867 191.914 209.107 190.769 207.579 189.673C207.322 189.484 207.012 189.378 206.693 189.37Z" fill="#069494"/>
<path d="M208.541 190.251C208.963 190.29 209.386 190.183 209.739 189.949C209.818 189.878 209.878 189.788 209.915 189.689C209.952 189.589 209.964 189.482 209.95 189.377C209.945 189.313 209.924 189.251 209.889 189.197C209.854 189.143 209.807 189.099 209.75 189.069C209.145 188.734 207.185 189.738 206.964 189.857C206.942 189.868 206.924 189.885 206.913 189.906C206.901 189.928 206.896 189.952 206.899 189.976C206.903 189.999 206.914 190.021 206.931 190.038C206.947 190.055 206.968 190.067 206.991 190.073C207.501 190.182 208.02 190.242 208.541 190.251ZM209.421 189.231C209.495 189.228 209.569 189.242 209.637 189.274C209.66 189.285 209.68 189.303 209.694 189.325C209.709 189.347 209.717 189.372 209.718 189.398C209.727 189.467 209.72 189.536 209.696 189.601C209.673 189.666 209.634 189.724 209.583 189.771C209.28 190.041 208.47 190.089 207.38 189.906C208.017 189.566 208.707 189.338 209.421 189.231Z" fill="#069494"/>
<path d="M207.017 190.076H207.066C207.649 189.811 208.81 188.748 208.718 188.191C208.718 188.056 208.605 187.894 208.281 187.862C208.166 187.849 208.049 187.86 207.938 187.894C207.828 187.928 207.726 187.986 207.638 188.062C207.017 188.575 206.904 189.903 206.898 189.957C206.898 189.978 206.902 189.998 206.91 190.017C206.919 190.035 206.931 190.052 206.947 190.065C206.969 190.074 206.993 190.078 207.017 190.076ZM208.189 188.078H208.259C208.47 188.078 208.486 188.181 208.491 188.213C208.545 188.548 207.757 189.379 207.158 189.741C207.206 189.183 207.425 188.653 207.784 188.224C207.897 188.128 208.041 188.077 208.189 188.078Z" fill="#069494"/>
<path d="M199.685 184.776L207.401 183.534L206.532 179.408L198.885 181.212L199.685 184.776Z" fill="#069494"/>
<path d="M179.008 31.9555L179.931 31.5938C179.931 31.5938 179.515 32.3821 179.008 31.9555Z" fill="#069494"/>
<path d="M169.061 77.9152L168.553 79.708C168.483 79.843 168.645 79.9888 168.877 79.9888H189.462C189.646 79.9888 189.791 79.897 189.802 79.7836L189.986 77.9962C189.986 77.872 189.84 77.764 189.646 77.764H169.39C169.327 77.7586 169.263 77.7697 169.206 77.7962C169.148 77.8227 169.098 77.8637 169.061 77.9152Z" fill="#069494"/>
<path d="M171.853 80.1749H171.313C171.205 80.1749 171.124 80.1209 171.129 80.0561L171.383 77.7287C171.383 77.6585 171.485 77.6045 171.593 77.6045H172.133C172.241 77.6045 172.322 77.6585 172.317 77.7287L172.058 80.0561C172.052 80.1209 171.961 80.1749 171.853 80.1749Z" fill="#069494"/>
<path d="M187.939 80.1749H187.399C187.291 80.1749 187.205 80.1209 187.216 80.0561L187.469 77.7287C187.469 77.6585 187.572 77.6045 187.68 77.6045H188.22C188.328 77.6045 188.409 77.6585 188.404 77.7287L188.15 80.0561C188.139 80.1209 188.047 80.1749 187.939 80.1749Z" fill="#069494"/>
<path d="M179.926 80.1749H179.386C179.278 80.1749 179.197 80.1209 179.202 80.0561L179.456 77.7287C179.456 77.6585 179.558 77.6045 179.666 77.6045H180.206C180.314 77.6045 180.395 77.6585 180.385 77.7287L180.131 80.0561C180.131 80.1209 180.034 80.1749 179.926 80.1749Z" fill="#069494"/>
<path d="M173.446 47.9389C170.308 48.2251 165.513 47.6311 165.659 52.4425C165.805 57.2539 164.87 69.9979 165.119 75.9649C165.367 81.9319 163.812 120.569 166.328 131.768C166.771 133.739 183.025 133.486 184.991 133.297V131.52C184.991 131.52 196.801 129.932 199.722 130.44C199.468 123.712 192.929 89.7241 192.675 80.1769C192.421 70.6297 193.496 54.2245 193.431 51.6217C193.366 49.0189 188.193 47.8741 185.023 47.9389C185.725 50.2879 184.175 54.6997 181.697 59.6191C175.6 53.6791 173.802 50.7307 173.446 47.9389Z" fill="#069494"/>
<path opacity="0.7" d="M173.446 47.9389C170.308 48.2251 165.513 47.6311 165.659 52.4425C165.805 57.2539 164.87 69.9979 165.119 75.9649C165.367 81.9319 163.812 120.569 166.328 131.768C166.771 133.739 183.025 133.486 184.991 133.297V131.52C184.991 131.52 196.801 129.932 199.722 130.44C199.468 123.712 192.929 89.7241 192.675 80.1769C192.421 70.6297 193.496 54.2245 193.431 51.6217C193.366 49.0189 188.193 47.8741 185.023 47.9389C185.725 50.2879 184.175 54.6997 181.697 59.6191C175.6 53.6791 173.802 50.7307 173.446 47.9389Z" fill="#ffffff"/>
<path opacity="0.2" d="M167.473 59.3479L165.464 60.7681C165.308 64.9261 165.097 69.5863 165.075 73.1881C166.944 69.0571 167.997 63.0955 167.473 59.3479Z" fill="#069494"/>
<path d="M173.872 55.0356C173.77 55.1871 173.66 55.3331 173.543 55.473L173.43 55.6026L173.37 55.6674L173.262 55.7808L173.046 56.013L172.614 56.4936C172.323 56.8122 172.042 57.1416 171.761 57.4764C171.199 58.146 170.659 58.8282 170.141 59.523C169.082 60.9105 168.096 62.3525 167.187 63.843C165.401 66.5945 164.111 69.6375 163.375 72.834C163.239 73.547 163.154 74.2688 163.121 74.994C163.155 75.3547 163.259 75.7052 163.429 76.0254C164.114 77.4769 164.939 78.8586 165.891 80.151C166.89 81.5766 168.024 82.9644 169.185 84.336C169.768 85.0272 170.373 85.6968 170.983 86.361C171.594 87.0252 172.231 87.7056 172.825 88.2942L167.004 93.921C166.296 93.1488 165.67 92.4468 165.016 91.707L163.11 89.4768C161.847 87.981 160.632 86.4258 159.433 84.795C158.131 83.0725 157.006 81.2236 156.074 79.2762C155.801 78.6729 155.569 78.0524 155.377 77.4186C155.265 77.0411 155.177 76.657 155.113 76.2684C155.071 76.0452 155.042 75.8198 155.026 75.5934C155.005 75.3564 154.996 75.1185 154.999 74.8806C155.012 73.721 155.111 72.564 155.296 71.4192C155.67 69.2566 156.275 67.1403 157.1 65.1066C157.876 63.1811 158.778 61.3087 159.8 59.5014C160.794 57.7194 161.884 56.0184 163.013 54.3552C163.585 53.5236 164.169 52.7082 164.779 51.9036L165.702 50.6994L166.183 50.0946L166.426 49.7922L166.55 49.6464L166.604 49.5762L166.528 49.6626C166.431 49.7868 166.339 49.911 166.253 50.0406L173.872 55.0356Z" fill="#069494"/>
<path opacity="0.7" d="M173.872 55.0356C173.77 55.1871 173.66 55.3331 173.543 55.473L173.43 55.6026L173.37 55.6674L173.262 55.7808L173.046 56.013L172.614 56.4936C172.323 56.8122 172.042 57.1416 171.761 57.4764C171.199 58.146 170.659 58.8282 170.141 59.523C169.082 60.9105 168.096 62.3525 167.187 63.843C165.401 66.5945 164.111 69.6375 163.375 72.834C163.239 73.547 163.154 74.2688 163.121 74.994C163.155 75.3547 163.259 75.7052 163.429 76.0254C164.114 77.4769 164.939 78.8586 165.891 80.151C166.89 81.5766 168.024 82.9644 169.185 84.336C169.768 85.0272 170.373 85.6968 170.983 86.361C171.594 87.0252 172.231 87.7056 172.825 88.2942L167.004 93.921C166.296 93.1488 165.67 92.4468 165.016 91.707L163.11 89.4768C161.847 87.981 160.632 86.4258 159.433 84.795C158.131 83.0725 157.006 81.2236 156.074 79.2762C155.801 78.6729 155.569 78.0524 155.377 77.4186C155.265 77.0411 155.177 76.657 155.113 76.2684C155.071 76.0452 155.042 75.8198 155.026 75.5934C155.005 75.3564 154.996 75.1185 154.999 74.8806C155.012 73.721 155.111 72.564 155.296 71.4192C155.67 69.2566 156.275 67.1403 157.1 65.1066C157.876 63.1811 158.778 61.3087 159.8 59.5014C160.794 57.7194 161.884 56.0184 163.013 54.3552C163.585 53.5236 164.169 52.7082 164.779 51.9036L165.702 50.6994L166.183 50.0946L166.426 49.7922L166.55 49.6464L166.604 49.5762L166.528 49.6626C166.431 49.7868 166.339 49.911 166.253 50.0406L173.872 55.0356Z" fill="#ffffff"/>
<path opacity="0.3" d="M181.703 59.6169C182.27 71.1405 185.348 111.327 184.997 131.518L185.936 131.394C185.936 131.394 184.478 100.344 183.819 86.7573C183.161 73.1709 181.703 59.6169 181.703 59.6169Z" fill="#069494"/>
<path opacity="0.3" d="M172.371 88.3887L166.604 94.6311C166.604 96.7263 165.141 100.917 169.018 102.439C172.895 103.962 172.998 92.9139 172.371 88.3887Z" fill="#069494"/>
<path opacity="0.3" d="M191.174 88.1936L193.712 94.5548C193.788 96.7148 194.528 101.035 193.026 102.682C191.525 104.329 191.088 92.8754 191.174 88.1936Z" fill="#069494"/>
<path d="M184.872 63.6291L191.206 63.5859C191.269 63.5887 191.332 63.5777 191.391 63.5538C191.449 63.5299 191.502 63.4936 191.545 63.4474C191.588 63.4012 191.621 63.3462 191.64 63.2863C191.66 63.2263 191.667 63.1627 191.66 63.0999L191.309 60.0975C191.288 59.9675 191.223 59.8488 191.124 59.7612C191.026 59.6737 190.9 59.6227 190.769 59.6169L184.429 59.6547C184.366 59.6529 184.304 59.6645 184.246 59.6887C184.188 59.7129 184.135 59.7492 184.093 59.7952C184.05 59.8412 184.017 59.8958 183.997 59.9554C183.977 60.015 183.969 60.0781 183.976 60.1407L184.327 63.1485C184.349 63.279 184.415 63.3979 184.514 63.4854C184.614 63.5728 184.74 63.6236 184.872 63.6291Z" fill="#ffffff" stroke="#069494" stroke-width="0.5" stroke-miterlimit="10"/>
</svg>