<svg width="271px" height="199px" viewBox="0 0 271 199" fill="none" xmlns="http://www.w3.org/2000/svg" transform="rotate(0) scale(1, 1)">
<path d="M135.5 198.24C193.324 198.24 240.2 195.503 240.2 192.127C240.2 188.751 193.324 186.014 135.5 186.014C77.6751 186.014 30.7991 188.751 30.7991 192.127C30.7991 195.503 77.6751 198.24 135.5 198.24Z" fill="#f5f5f5"/>
<path d="M143.114 66.0209L138.74 61.6253C138.595 61.4791 138.479 61.3056 138.4 61.1147C138.321 60.9239 138.281 60.7193 138.281 60.5129V58.8929C138.281 58.5889 138.192 58.2915 138.026 58.0367C137.861 57.7818 137.625 57.5804 137.347 57.4565L136.116 56.9165C135.942 56.8364 135.783 56.7268 135.646 56.5925L134.518 55.4693C134.251 55.2005 133.897 55.0372 133.52 55.0094C133.143 54.9816 132.768 55.0912 132.466 55.3181L131.85 55.7771C131.555 55.9995 131.349 56.3189 131.267 56.6789L130.624 59.4167C130.556 59.7173 130.578 60.0314 130.687 60.3196C130.797 60.6078 130.989 60.8572 131.24 61.0367L133.94 62.9915L135.495 64.0067C135.625 64.0949 135.744 64.2002 135.846 64.3199L140.42 69.8063L143.114 66.0209Z" fill="#069494"/>
<path opacity="0.3" d="M143.114 66.0209L138.74 61.6253C138.595 61.4791 138.479 61.3056 138.4 61.1147C138.321 60.9239 138.281 60.7193 138.281 60.5129V58.8929C138.281 58.5889 138.192 58.2915 138.026 58.0367C137.861 57.7818 137.625 57.5804 137.347 57.4565L136.116 56.9165C135.942 56.8364 135.783 56.7268 135.646 56.5925L134.518 55.4693C134.251 55.2005 133.897 55.0372 133.52 55.0094C133.143 54.9816 132.768 55.0912 132.466 55.3181L131.85 55.7771C131.555 55.9995 131.349 56.3189 131.267 56.6789L130.624 59.4167C130.556 59.7173 130.578 60.0314 130.687 60.3196C130.797 60.6078 130.989 60.8572 131.24 61.0367L133.94 62.9915L135.495 64.0067C135.625 64.0949 135.744 64.2002 135.846 64.3199L140.42 69.8063L143.114 66.0209Z" fill="#ffffff"/>
<path d="M164.914 46.8452C164.914 46.8452 158.839 47.3852 154.724 57.3806C150.61 67.376 148.379 67.9106 146.959 67.1006C145.988 66.5095 145.047 65.8697 144.14 65.1836C143.86 64.9769 143.512 64.8863 143.167 64.9305C142.821 64.9748 142.507 65.1506 142.288 65.4212L139.707 68.6612C139.518 68.8983 139.415 69.1924 139.415 69.4955C139.415 69.7986 139.518 70.0927 139.707 70.3298C141.241 72.2522 145.318 76.637 149.794 75.4328C155.869 73.8128 160.308 65.1728 160.594 62.5214C160.88 59.87 164.914 46.8452 164.914 46.8452Z" fill="#069494"/>
<path opacity="0.6" d="M164.914 46.8452C164.914 46.8452 158.839 47.3852 154.724 57.3806C150.61 67.376 148.379 67.9106 146.959 67.1006C145.988 66.5095 145.047 65.8697 144.14 65.1836C143.86 64.9769 143.512 64.8863 143.167 64.9305C142.821 64.9748 142.507 65.1506 142.288 65.4212L139.707 68.6612C139.518 68.8983 139.415 69.1924 139.415 69.4955C139.415 69.7986 139.518 70.0927 139.707 70.3298C141.241 72.2522 145.318 76.637 149.794 75.4328C155.869 73.8128 160.308 65.1728 160.594 62.5214C160.88 59.87 164.914 46.8452 164.914 46.8452Z" fill="#ffffff"/>
<path d="M163.397 25.1024C163.397 25.1024 159.617 22.8128 159.563 24.6056C159.509 26.3984 163.51 28.3262 165.211 28.094L163.397 25.1024Z" fill="#263238"/>
<path opacity="0.4" d="M163.397 25.1024C163.397 25.1024 159.617 22.8128 159.563 24.6056C159.509 26.3984 163.51 28.3262 165.211 28.094L163.397 25.1024Z" fill="#000000"/>
<path d="M160.308 178.513L160.713 186.488C160.722 186.655 160.684 186.821 160.604 186.968C160.524 187.115 160.405 187.237 160.26 187.32C159.482 187.757 158.003 189.134 157.344 189.388C156.156 189.756 154.95 190.063 153.731 190.306C153.533 190.349 153.355 190.456 153.226 190.612C153.097 190.768 153.024 190.962 153.018 191.165C153.015 191.284 153.036 191.403 153.079 191.514C153.122 191.625 153.186 191.726 153.269 191.813C153.351 191.899 153.449 191.968 153.558 192.016C153.667 192.065 153.785 192.091 153.904 192.094L165.687 191.845C165.921 191.85 166.148 191.764 166.32 191.605C166.492 191.445 166.596 191.226 166.61 190.992L167.264 178.907C167.276 178.67 167.195 178.438 167.039 178.259C166.882 178.081 166.663 177.97 166.427 177.951L161.28 177.562C161.152 177.553 161.023 177.571 160.903 177.615C160.782 177.659 160.672 177.729 160.58 177.818C160.488 177.908 160.416 178.017 160.37 178.136C160.323 178.256 160.302 178.384 160.308 178.513Z" fill="#263238"/>
<path d="M158.137 100.446L159.19 148.722L159.476 178.168C159.487 178.576 159.657 178.963 159.95 179.248C160.242 179.532 160.634 179.691 161.042 179.691H166.604C166.993 179.692 167.368 179.548 167.656 179.287C167.945 179.027 168.126 178.668 168.165 178.282C168.829 171.677 171.486 161.201 170.298 148.857C170.298 148.857 174.288 116.457 174.531 106.559L173.629 97.7622L158.137 100.446Z" fill="#263238"/>
<path d="M192.028 178.809L195.101 186.174C195.165 186.328 195.186 186.497 195.16 186.662C195.134 186.827 195.063 186.981 194.955 187.108C194.249 187.958 193.499 188.771 192.708 189.544C191.714 190.29 190.683 190.985 189.62 191.628C189.447 191.734 189.315 191.895 189.247 192.086C189.178 192.276 189.176 192.484 189.242 192.676C189.278 192.789 189.337 192.893 189.414 192.983C189.491 193.073 189.585 193.148 189.691 193.201C189.797 193.255 189.913 193.287 190.031 193.296C190.149 193.305 190.268 193.291 190.381 193.254L201.591 189.538C201.815 189.465 202.002 189.307 202.111 189.098C202.22 188.889 202.243 188.646 202.175 188.421L198.681 176.827C198.614 176.599 198.461 176.407 198.254 176.292C198.046 176.177 197.802 176.148 197.574 176.211L192.6 177.588C192.478 177.624 192.365 177.686 192.269 177.769C192.172 177.852 192.094 177.955 192.04 178.07C191.986 178.185 191.957 178.311 191.955 178.438C191.953 178.565 191.978 178.692 192.028 178.809Z" fill="#263238"/>
<path opacity="0.1" d="M171.011 109.764C171.011 109.764 170.39 117.908 171.951 131.138C171.951 131.138 173.301 121.418 174.051 116.088L171.011 109.764Z" fill="#000000"/>
<path d="M167.808 100.788L179.57 150.02L190.91 178.71C191.058 179.074 191.341 179.368 191.7 179.528C192.059 179.689 192.467 179.706 192.837 179.574L198.637 177.695C198.997 177.567 199.296 177.31 199.475 176.973C199.654 176.636 199.7 176.244 199.604 175.875C197.984 169.584 196.547 159.135 191.12 148.335C191.12 148.335 187.88 117.101 183.517 100.399L167.808 100.788Z" fill="#263238"/>
<path d="M179.716 47.1694C179.716 47.1694 179.527 47.0992 179.138 46.9966V49.9018H165.098V47.0614L164.526 47.1478L162.771 48.4492C162.771 48.4492 159.05 56.5492 158.154 76.6642V102.854H186.774L179.716 47.1694Z" fill="#069494"/>
<path d="M174.958 45.6237C174.002 42.6753 174.208 38.4471 174.526 35.7957L168.133 42.1191C168.535 43.2445 168.673 44.4471 168.538 45.6345C168.496 45.9114 168.365 46.167 168.164 46.3621C167.963 46.5572 167.703 46.681 167.425 46.7145L164.725 47.5677L164.401 49.6737L166.048 50.0949L168.424 50.4189L173.576 50.0949L179.24 47.4381C178.379 47.1611 177.487 46.9942 176.584 46.9413C176.228 46.8654 175.895 46.7064 175.613 46.4774C175.33 46.2484 175.106 45.9559 174.958 45.6237Z" fill="#ffc3bd"/>
<path opacity="0.2" d="M171.923 38.8684L168.24 42.4756C168.439 43.1432 168.557 43.8321 168.591 44.5276C170.093 44.182 171.934 42.7672 172.409 41.0662C172.717 40.0186 172.323 38.9602 171.923 38.8684Z" fill="#000000"/>
<path d="M175.488 31.0015C175.218 35.8615 175.293 38.7127 172.853 41.2075C169.186 44.9875 163.176 42.7627 162.004 37.9351C160.924 33.5557 161.583 26.3683 166.324 24.4351C167.368 23.9937 168.509 23.828 169.635 23.9537C170.762 24.0794 171.838 24.4924 172.759 25.1531C173.681 25.8138 174.417 26.7 174.898 27.7269C175.378 28.7538 175.587 29.887 175.504 31.0177L175.488 31.0015Z" fill="#ffc3bd"/>
<path d="M167.901 32.4496C167.901 32.8492 167.695 33.1678 167.436 33.1678C167.177 33.1678 166.966 32.8492 166.966 32.455C166.966 32.0608 167.172 31.7422 167.431 31.7422C167.69 31.7422 167.901 32.0824 167.901 32.4496Z" fill="#263238"/>
<path d="M163.434 32.4745C163.434 32.8633 163.229 33.1873 162.97 33.1873C162.711 33.1873 162.5 32.8687 162.5 32.4745C162.5 32.0803 162.705 31.7563 162.965 31.7563C163.224 31.7563 163.434 32.0857 163.434 32.4745Z" fill="#263238"/>
<path d="M169.58 30.2201C169.618 30.2078 169.653 30.1876 169.683 30.1607C169.716 30.1097 169.729 30.0482 169.719 29.9882C169.709 29.9282 169.677 29.8741 169.629 29.8367C169.333 29.6162 168.99 29.4693 168.626 29.4082C168.263 29.3472 167.89 29.3737 167.539 29.4857C167.508 29.4951 167.48 29.5107 167.456 29.5315C167.432 29.5522 167.412 29.5778 167.399 29.6064C167.385 29.6351 167.377 29.6663 167.376 29.6981C167.374 29.7299 167.38 29.7617 167.391 29.7913C167.403 29.821 167.42 29.848 167.443 29.8707C167.465 29.8933 167.492 29.9111 167.521 29.923C167.551 29.9348 167.583 29.9405 167.614 29.9396C167.646 29.9386 167.677 29.9312 167.706 29.9177C167.986 29.8331 168.281 29.8159 168.568 29.8676C168.855 29.9192 169.126 30.0381 169.359 30.2147C169.392 30.2339 169.43 30.2445 169.469 30.2455C169.507 30.2464 169.546 30.2377 169.58 30.2201Z" fill="#263238"/>
<path d="M161.383 30.2375C161.416 30.257 161.453 30.2673 161.491 30.2673C161.529 30.2673 161.566 30.257 161.599 30.2375C161.828 30.066 162.093 29.9499 162.374 29.8984C162.655 29.8469 162.944 29.8613 163.219 29.9405C163.247 29.9517 163.278 29.957 163.308 29.9563C163.338 29.9555 163.368 29.9486 163.396 29.936C163.424 29.9234 163.449 29.9053 163.469 29.8829C163.49 29.8605 163.506 29.8342 163.516 29.8055C163.527 29.7775 163.533 29.7475 163.532 29.7174C163.532 29.6872 163.526 29.6574 163.514 29.6297C163.501 29.6021 163.484 29.5771 163.462 29.5563C163.44 29.5355 163.415 29.5192 163.386 29.5085C163.034 29.3952 162.661 29.3679 162.296 29.429C161.931 29.4901 161.587 29.6377 161.291 29.8595C161.243 29.8942 161.21 29.9465 161.2 30.005C161.19 30.0636 161.203 30.1238 161.237 30.1727C161.276 30.2116 161.328 30.2347 161.383 30.2375Z" fill="#263238"/>
<path d="M175.423 33.165C175.071 32.8181 174.655 32.5441 174.197 32.3587C173.739 32.1734 173.249 32.0804 172.755 32.085H170.52C170.478 31.4888 170.215 30.9296 169.783 30.517C169.35 30.1045 168.78 29.8683 168.182 29.8548C167.585 29.8412 167.004 30.0514 166.553 30.444C166.102 30.8365 165.815 31.3833 165.746 31.977C165.661 31.9408 165.569 31.9221 165.476 31.9221C165.383 31.9221 165.291 31.9408 165.206 31.977C165.161 31.3695 164.881 30.8032 164.427 30.3972C163.973 29.9912 163.379 29.777 162.77 29.7997C162.162 29.8225 161.585 30.0803 161.163 30.519C160.74 30.9578 160.504 31.5433 160.504 32.1525C160.504 32.7617 160.74 33.3472 161.163 33.786C161.585 34.2247 162.162 34.4825 162.77 34.5053C163.379 34.528 163.973 34.3138 164.427 33.9078C164.881 33.5018 165.161 32.9355 165.206 32.328C165.275 32.2704 165.362 32.2389 165.452 32.2389C165.542 32.2389 165.629 32.2704 165.697 32.328C165.717 32.9447 165.974 33.53 166.414 33.9623C166.854 34.3945 167.444 34.6404 168.061 34.6487C168.678 34.6571 169.275 34.4273 169.727 34.0071C170.178 33.5869 170.451 33.0087 170.487 32.3928H172.761C173.215 32.392 173.665 32.4813 174.085 32.6555C174.505 32.8298 174.886 33.0855 175.207 33.408L175.93 34.1316L176.146 33.9102L175.423 33.165ZM162.841 34.3152C162.425 34.3163 162.018 34.194 161.672 33.9638C161.326 33.7336 161.056 33.4059 160.896 33.0222C160.736 32.6385 160.694 32.2159 160.775 31.8081C160.855 31.4003 161.055 31.0255 161.348 30.7312C161.642 30.4369 162.016 30.2363 162.424 30.1548C162.831 30.0733 163.254 30.1146 163.638 30.2734C164.022 30.4322 164.351 30.7014 164.582 31.047C164.813 31.3926 164.936 31.7989 164.936 32.2146C164.932 32.768 164.709 33.2973 164.317 33.6876C163.925 34.0779 163.394 34.2976 162.841 34.299V34.3152ZM168.127 34.3152C167.712 34.3152 167.306 34.192 166.96 33.9612C166.615 33.7304 166.346 33.4023 166.187 33.0185C166.028 32.6346 165.986 32.2123 166.067 31.8048C166.148 31.3973 166.348 31.023 166.642 30.7292C166.936 30.4355 167.31 30.2354 167.718 30.1544C168.125 30.0733 168.547 30.1149 168.931 30.2739C169.315 30.4329 169.643 30.7021 169.874 31.0476C170.105 31.393 170.228 31.7991 170.228 32.2146C170.224 32.7689 170.001 33.299 169.607 33.6895C169.214 34.0799 168.682 34.299 168.127 34.299V34.3152Z" fill="#069494"/>
<path d="M174.92 24.236C174.377 23.3575 173.631 22.6217 172.745 22.09C171.859 21.5584 170.859 21.2462 169.828 21.1796C168.375 21.104 166.793 21.4982 165.551 20.7422C165.098 20.4614 164.736 20.051 164.298 19.7486C164.091 19.5787 163.843 19.4663 163.578 19.4227C163.314 19.3791 163.043 19.4058 162.792 19.5002C161.97 19.9584 161.309 20.6577 160.898 21.5037C160.487 22.3496 160.345 23.3014 160.491 24.2306C160.719 25.0753 161.164 25.8458 161.781 26.4654C162.399 27.085 163.168 27.5321 164.012 27.7622C166.21 28.3454 168.591 27.6596 170.832 28.0538C172.037 28.2644 172.814 29.5982 173.117 30.7862C173.171 30.9914 173.489 31.2776 173.63 31.4396C173.63 32.4656 173.63 33.7292 173.63 34.7552C173.852 34.273 174.216 33.8702 174.673 33.6009C175.131 33.3316 175.66 33.2087 176.189 33.2486L174.38 39.3668C176.616 36.969 178.115 33.9794 178.7 30.7538C178.948 29.3256 178.804 27.8571 178.285 26.504C178.027 25.8246 177.565 25.2418 176.963 24.8356C176.36 24.4295 175.647 24.22 174.92 24.236Z" fill="#263238"/>
<path d="M177.88 35.5348C177.228 36.5683 176.196 37.3036 175.007 37.5814C173.425 37.9324 172.717 36.5014 173.23 35.0488C173.689 33.7528 175.066 31.9924 176.616 32.284C178.166 32.5756 178.663 34.2388 177.88 35.5348Z" fill="#ffc3bd"/>
<path d="M165.314 32.4558C164.844 33.6648 164.212 34.8039 163.434 35.8416C164.153 36.4896 165.33 36.1872 165.33 36.1872L165.314 32.4558Z" fill="#ed847e"/>
<path opacity="0.1" d="M158.472 102.874L158.72 104.623L179.353 105.709V102.874H158.472Z" fill="#000000"/>
<path d="M166.535 46.6309C166.535 46.6309 165.422 49.2823 168.311 49.6225C171.2 49.9627 177.081 46.6309 177.081 46.6309L178.328 46.9171C178.328 46.9171 178.296 51.7123 171.908 53.5591C171.908 53.5591 170.061 51.1723 168.22 51.1291C166.378 51.0859 163.943 53.0623 163.943 53.0623C163.943 53.0623 162.749 49.9033 165.854 46.6633L166.535 46.6309Z" fill="#069494"/>
<g opacity="0.2">
<path d="M166.534 46.6284C166.534 46.6284 165.422 49.2798 168.311 49.62C171.2 49.9602 177.081 46.6284 177.081 46.6284L178.328 46.9146C178.328 46.9146 178.296 51.7098 171.907 53.5566C171.907 53.5566 170.061 51.1698 168.219 51.1266C166.378 51.0834 163.942 53.0598 163.942 53.0598C163.942 53.0598 162.749 49.9008 165.854 46.6608L166.534 46.6284Z" fill="#000000"/>
</g>
<path d="M166.534 46.6309C166.534 46.6309 162.484 48.3373 160.999 59.2723C159.514 70.2073 158.974 90.7273 159.379 100.312C159.784 109.897 160.324 116.107 157.354 115.702C157.354 115.702 157.084 100.312 157.354 83.1673C157.624 66.0223 155.869 46.9441 166.534 46.6309Z" fill="#069494"/>
<path opacity="0.8" d="M166.534 46.6309C166.534 46.6309 162.484 48.3373 160.999 59.2723C159.514 70.2073 158.974 90.7273 159.379 100.312C159.784 109.897 160.324 116.107 157.354 115.702C157.354 115.702 157.084 100.312 157.354 83.1673C157.624 66.0223 155.869 46.9441 166.534 46.6309Z" fill="#ffffff"/>
<path d="M178.7 46.6309C178.7 46.6309 173.84 49.3309 173.3 66.4273C172.76 83.5237 172.944 115.929 178.7 116.469C184.456 117.009 190.764 113.769 190.764 113.769C190.764 113.769 190.353 107.57 189.279 99.7291C188.377 93.1681 186.854 85.4569 186.26 79.2091C185.574 72.0163 189.5 52.2091 186.984 50.2273C184.467 48.2455 178.7 46.6309 178.7 46.6309Z" fill="#069494"/>
<path opacity="0.8" d="M178.7 46.6309C178.7 46.6309 173.84 49.3309 173.3 66.4273C172.76 83.5237 172.944 115.929 178.7 116.469C184.456 117.009 190.764 113.769 190.764 113.769C190.764 113.769 190.353 107.57 189.279 99.7291C188.377 93.1681 186.854 85.4569 186.26 79.2091C185.574 72.0163 189.5 52.2091 186.984 50.2273C184.467 48.2455 178.7 46.6309 178.7 46.6309Z" fill="#ffffff"/>
<path d="M176.016 92.77L184.034 91.6175L184.179 92.6277C184.246 93.0913 184.126 93.5623 183.845 93.9372C183.564 94.3121 183.146 94.5602 182.683 94.6268L178.161 95.2768C177.697 95.3435 177.226 95.2232 176.851 94.9426C176.476 94.6619 176.228 94.2438 176.162 93.7802L176.016 92.77Z" fill="#069494"/>
<path opacity="0.6" d="M176.016 92.77L184.034 91.6175L184.179 92.6277C184.246 93.0913 184.126 93.5623 183.845 93.9372C183.564 94.3121 183.146 94.5602 182.683 94.6268L178.161 95.2768C177.697 95.3435 177.226 95.2232 176.851 94.9426C176.476 94.6619 176.228 94.2438 176.162 93.7802L176.016 92.77Z" fill="#ffffff"/>
<path d="M172.329 87.0108H160.881C160.664 87.0058 160.456 86.9228 160.296 86.777C160.135 86.6312 160.032 86.4324 160.006 86.217L158.154 68.6292C158.142 68.5291 158.151 68.4275 158.181 68.3313C158.212 68.2351 158.262 68.1466 158.33 68.0718C158.398 67.997 158.481 67.9376 158.573 67.8977C158.666 67.8579 158.766 67.8384 158.867 67.8408H170.331C170.547 67.8444 170.755 67.9262 170.916 68.0712C171.077 68.2161 171.18 68.4143 171.206 68.6292L173.053 86.217C173.067 86.3186 173.059 86.4221 173.029 86.5202C172.998 86.6182 172.947 86.7084 172.878 86.7843C172.809 86.8601 172.724 86.9197 172.629 86.9589C172.534 86.9981 172.432 87.0158 172.329 87.0108Z" fill="#263238"/>
<path opacity="0.5" d="M172.329 87.0108H160.881C160.664 87.0058 160.456 86.9228 160.296 86.777C160.135 86.6312 160.032 86.4324 160.006 86.217L158.154 68.6292C158.142 68.5291 158.151 68.4275 158.181 68.3313C158.212 68.2351 158.262 68.1466 158.33 68.0718C158.398 67.997 158.481 67.9376 158.573 67.8977C158.666 67.8579 158.766 67.8384 158.867 67.8408H170.331C170.547 67.8444 170.755 67.9262 170.916 68.0712C171.077 68.2161 171.18 68.4143 171.206 68.6292L173.053 86.217C173.067 86.3186 173.059 86.4221 173.029 86.5202C172.998 86.6182 172.947 86.7084 172.878 86.7843C172.809 86.8601 172.724 86.9197 172.629 86.9589C172.534 86.9981 172.432 87.0158 172.329 87.0108Z" fill="#ffffff"/>
<path d="M166.102 69.2395H163.353C163.085 69.2312 162.828 69.1268 162.63 68.9456C162.432 68.7643 162.305 68.518 162.273 68.2513L162.1 66.6313H166.82L166.993 68.2513C167.009 68.3768 166.998 68.5042 166.961 68.625C166.923 68.7458 166.86 68.8569 166.775 68.9509C166.69 69.0448 166.586 69.1193 166.47 69.1691C166.354 69.2189 166.228 69.243 166.102 69.2395Z" fill="#263238"/>
<path opacity="0.7" d="M166.102 69.2395H163.353C163.085 69.2312 162.828 69.1268 162.63 68.9456C162.432 68.7643 162.305 68.518 162.273 68.2513L162.1 66.6313H166.82L166.993 68.2513C167.009 68.3768 166.998 68.5042 166.961 68.625C166.923 68.7458 166.86 68.8569 166.775 68.9509C166.69 69.0448 166.586 69.1193 166.47 69.1691C166.354 69.2189 166.228 69.243 166.102 69.2395Z" fill="#ffffff"/>
<path d="M170.855 67.8406H170.315C170.531 67.8442 170.739 67.9261 170.9 68.071C171.06 68.2159 171.163 68.4141 171.189 68.629L173.036 86.2168C173.05 86.317 173.042 86.4191 173.013 86.5159C172.984 86.6128 172.934 86.7021 172.866 86.7777C172.799 86.8532 172.716 86.9132 172.623 86.9534C172.53 86.9936 172.43 87.0131 172.329 87.0106H172.869C172.97 87.0131 173.07 86.9936 173.163 86.9534C173.256 86.9132 173.339 86.8532 173.406 86.7777C173.474 86.7021 173.524 86.6128 173.553 86.5159C173.582 86.4191 173.59 86.317 173.576 86.2168L171.729 68.629C171.703 68.4141 171.6 68.2159 171.44 68.071C171.279 67.9261 171.071 67.8442 170.855 67.8406Z" fill="#263238"/>
<path opacity="0.7" d="M170.855 67.8406H170.315C170.531 67.8442 170.739 67.9261 170.9 68.071C171.06 68.2159 171.163 68.4141 171.189 68.629L173.036 86.2168C173.05 86.317 173.042 86.4191 173.013 86.5159C172.984 86.6128 172.934 86.7021 172.866 86.7777C172.799 86.8532 172.716 86.9132 172.623 86.9534C172.53 86.9936 172.43 87.0131 172.329 87.0106H172.869C172.97 87.0131 173.07 86.9936 173.163 86.9534C173.256 86.9132 173.339 86.8532 173.406 86.7777C173.474 86.7021 173.524 86.6128 173.553 86.5159C173.582 86.4191 173.59 86.317 173.576 86.2168L171.729 68.629C171.703 68.4141 171.6 68.2159 171.44 68.071C171.279 67.9261 171.071 67.8442 170.855 67.8406Z" fill="#ffffff"/>
<path d="M182.864 75.1216L176.476 76.5634L173.646 74.8786C173.321 74.6874 172.94 74.6132 172.566 74.668L170.266 75.0028C170.013 75.0383 169.772 75.1332 169.563 75.2796C169.354 75.426 169.182 75.6198 169.062 75.8452L168.522 76.7848C168.341 77.1138 168.28 77.4956 168.349 77.8648L168.527 78.9448C168.577 79.2619 168.721 79.5571 168.939 79.7926C169.157 80.0282 169.441 80.1936 169.753 80.2678L173.636 81.229C173.941 81.3063 174.261 81.2932 174.559 81.1912L177.259 80.2786L184.997 79.3768L182.864 75.1216Z" fill="#069494"/>
<path opacity="0.3" d="M182.864 75.1216L176.476 76.5634L173.646 74.8786C173.321 74.6874 172.94 74.6132 172.566 74.668L170.266 75.0028C170.013 75.0383 169.772 75.1332 169.563 75.2796C169.354 75.426 169.182 75.6198 169.062 75.8452L168.522 76.7848C168.341 77.1138 168.28 77.4956 168.349 77.8648L168.527 78.9448C168.577 79.2619 168.721 79.5571 168.939 79.7926C169.157 80.0282 169.441 80.1936 169.753 80.2678L173.636 81.229C173.941 81.3063 174.261 81.2932 174.559 81.1912L177.259 80.2786L184.997 79.3768L182.864 75.1216Z" fill="#ffffff"/>
<path d="M182.853 79.27C182.957 79.6252 183.183 79.9324 183.491 80.1377C183.799 80.3431 184.169 80.4335 184.537 80.3932C186.562 80.1826 190.38 79.3996 193.129 76.5538C197.044 72.5038 191.611 57.0598 189.484 53.1988C187.108 48.8788 183.425 48.2578 183.425 48.2578C178.684 46.6378 179.359 51.0388 180.725 56.4388C182.091 61.8388 187.205 69.6688 187.34 71.1538C187.426 72.1096 184.505 73.2274 182.404 73.9078C182.178 73.9802 181.971 74.1026 181.799 74.266C181.626 74.4294 181.493 74.6295 181.408 74.8516C181.324 75.0736 181.29 75.3118 181.31 75.5485C181.33 75.7852 181.404 76.0144 181.524 76.219C182.092 77.177 182.538 78.2018 182.853 79.27Z" fill="#069494"/>
<path opacity="0.6" d="M182.853 79.27C182.957 79.6252 183.183 79.9324 183.491 80.1377C183.799 80.3431 184.169 80.4335 184.537 80.3932C186.562 80.1826 190.38 79.3996 193.129 76.5538C197.044 72.5038 191.611 57.0598 189.484 53.1988C187.108 48.8788 183.425 48.2578 183.425 48.2578C178.684 46.6378 179.359 51.0388 180.725 56.4388C182.091 61.8388 187.205 69.6688 187.34 71.1538C187.426 72.1096 184.505 73.2274 182.404 73.9078C182.178 73.9802 181.971 74.1026 181.799 74.266C181.626 74.4294 181.493 74.6295 181.408 74.8516C181.324 75.0736 181.29 75.3118 181.31 75.5485C181.33 75.7852 181.404 76.0144 181.524 76.219C182.092 77.177 182.538 78.2018 182.853 79.27Z" fill="#ffffff"/>
<path d="M135.943 46.9966H133.783C133.469 46.998 133.168 47.1238 132.946 47.3465C132.725 47.5691 132.6 47.8705 132.6 48.1846C132.601 48.4008 132.66 48.6127 132.772 48.7974C132.885 48.9821 133.046 49.1325 133.237 49.2322V68.3212C133.237 68.4999 133.273 68.6769 133.341 68.842C133.409 69.0071 133.51 69.1571 133.636 69.2834C133.762 69.4098 133.912 69.51 134.077 69.5784C134.243 69.6468 134.42 69.682 134.598 69.682H135.138C135.499 69.682 135.845 69.5386 136.1 69.2834C136.356 69.0282 136.499 68.6821 136.499 68.3212V49.2484C136.691 49.1487 136.852 48.9983 136.964 48.8136C137.076 48.6289 137.136 48.417 137.136 48.2008C137.138 48.043 137.109 47.8863 137.05 47.7399C136.991 47.5936 136.903 47.4604 136.792 47.3483C136.681 47.2362 136.549 47.1474 136.403 47.087C136.257 47.0266 136.101 46.9959 135.943 46.9966Z" fill="#069494"/>
<path opacity="0.6" d="M135.943 46.9966H133.783C133.469 46.998 133.168 47.1238 132.946 47.3465C132.725 47.5691 132.6 47.8705 132.6 48.1846C132.601 48.4008 132.66 48.6127 132.772 48.7974C132.885 48.9821 133.046 49.1325 133.237 49.2322V68.3212C133.237 68.4999 133.273 68.6769 133.341 68.842C133.409 69.0071 133.51 69.1571 133.636 69.2834C133.762 69.4098 133.912 69.51 134.077 69.5784C134.243 69.6468 134.42 69.682 134.598 69.682H135.138C135.499 69.682 135.845 69.5386 136.1 69.2834C136.356 69.0282 136.499 68.6821 136.499 68.3212V49.2484C136.691 49.1487 136.852 48.9983 136.964 48.8136C137.076 48.6289 137.136 48.417 137.136 48.2008C137.138 48.043 137.109 47.8863 137.05 47.7399C136.991 47.5936 136.903 47.4604 136.792 47.3483C136.681 47.2362 136.549 47.1474 136.403 47.087C136.257 47.0266 136.101 46.9959 135.943 46.9966Z" fill="#ffffff"/>
<path d="M133.043 47.2558C134.218 47.6661 135.497 47.6661 136.672 47.2558C136.465 47.0905 136.208 46.9992 135.943 46.9966H133.783C133.514 46.9968 133.253 47.0882 133.043 47.2558Z" fill="#069494"/>
<path d="M134.858 58.2083C134.318 58.2083 133.842 58.0625 133.832 57.8843V68.3333C133.832 68.5338 133.911 68.7261 134.053 68.8679C134.195 69.0096 134.387 69.0893 134.588 69.0893H135.128C135.328 69.0893 135.52 69.0096 135.662 68.8679C135.804 68.7261 135.884 68.5338 135.884 68.3333V57.8843C135.873 58.0625 135.419 58.2083 134.858 58.2083Z" fill="#069494"/>
<path d="M135.884 57.8868C135.884 58.0704 135.425 58.2162 134.858 58.2162C134.291 58.2162 133.832 58.0704 133.832 57.8868C133.832 57.7032 134.291 57.5574 134.858 57.5574C135.425 57.5574 135.884 57.7032 135.884 57.8868Z" fill="#069494"/>
<path opacity="0.3" d="M135.884 57.8868C135.884 58.0704 135.425 58.2162 134.858 58.2162C134.291 58.2162 133.832 58.0704 133.832 57.8868C133.832 57.7032 134.291 57.5574 134.858 57.5574C135.425 57.5574 135.884 57.7032 135.884 57.8868Z" fill="#000000"/>
<g opacity="0.8">
<path d="M133.821 49.3629V68.3169C133.821 68.3971 133.853 68.4741 133.91 68.5308C133.966 68.5875 134.043 68.6193 134.123 68.6193C134.204 68.6193 134.281 68.5875 134.337 68.5308C134.394 68.4741 134.426 68.3971 134.426 68.3169V49.3629C134.426 49.2827 134.394 49.2058 134.337 49.1491C134.281 49.0924 134.204 49.0605 134.123 49.0605C134.043 49.0605 133.966 49.0924 133.91 49.1491C133.853 49.2058 133.821 49.2827 133.821 49.3629Z" fill="#ffffff"/>
</g>
<path d="M166.281 38.4346C166.716 38.3378 167.128 38.1533 167.49 37.8924C167.852 37.6316 168.157 37.2997 168.387 36.9172C168.399 36.8896 168.401 36.8585 168.392 36.8297C168.383 36.8009 168.364 36.7763 168.338 36.7606C168.311 36.7473 168.281 36.7449 168.252 36.754C168.224 36.7631 168.201 36.7829 168.187 36.8092C167.932 37.2214 167.585 37.5693 167.174 37.8259C166.763 38.0825 166.298 38.2409 165.816 38.2888C165.799 38.285 165.781 38.2852 165.764 38.2893C165.746 38.2933 165.73 38.3012 165.716 38.3124C165.703 38.3235 165.691 38.3376 165.684 38.3536C165.676 38.3696 165.672 38.3871 165.672 38.4049C165.672 38.4226 165.676 38.4401 165.684 38.4561C165.691 38.4721 165.703 38.4862 165.716 38.4973C165.73 38.5085 165.746 38.5164 165.764 38.5205C165.781 38.5246 165.799 38.5247 165.816 38.521C165.972 38.5013 166.128 38.4725 166.281 38.4346Z" fill="#263238"/>
<path d="M65.9698 97.9634C65.6134 97.9202 55.2886 98.9354 54.6298 110.005L56.3956 117.668C64.7442 114.573 73.9462 114.698 82.2076 118.019L82.3264 118.068L81.592 109.303C81.592 109.303 78.9622 99.47 65.9698 97.9634Z" fill="#069494"/>
<path d="M87.65 151.389L85.5764 151.568C84.819 138.4 83.3317 125.285 81.1214 112.283C80.7235 110.181 79.9124 108.18 78.7352 106.395C77.5579 104.609 76.038 103.076 74.2634 101.882C73.5137 101.341 72.6969 100.9 71.8334 100.57C70.2464 99.8901 68.543 99.5233 66.8168 99.4899C66.1159 99.49 65.4158 99.5387 64.7216 99.6357C63.1552 99.8762 61.6603 100.457 60.3422 101.337C59.7244 101.81 59.1331 102.316 58.571 102.854C58.2795 103.163 58.0089 103.492 57.761 103.837C56.8504 105.143 56.2225 106.626 55.9175 108.189C55.6125 109.752 55.6371 111.361 55.9898 112.914C58.1878 124.801 59.722 136.8 60.5852 148.857L58.5116 148.997C57.6567 137.033 56.137 125.126 53.9594 113.33C53.545 111.493 53.5197 109.589 53.8852 107.741C54.2507 105.893 54.9989 104.142 56.0816 102.6C57.1514 101.096 58.5399 99.8458 60.1481 98.9395C61.7564 98.0332 63.5448 97.4928 65.3858 97.3569C73.4858 96.8169 81.9152 103.4 83.1626 111.845C85.3864 124.934 86.8844 138.135 87.65 151.389Z" fill="#263238"/>
<path opacity="0.3" d="M87.65 151.389L85.5764 151.568C84.819 138.4 83.3317 125.285 81.1214 112.283C80.7235 110.181 79.9124 108.18 78.7352 106.395C77.5579 104.609 76.038 103.076 74.2634 101.882C73.5137 101.341 72.6969 100.9 71.8334 100.57C70.2464 99.8901 68.543 99.5233 66.8168 99.4899C66.1159 99.49 65.4158 99.5387 64.7216 99.6357C63.1552 99.8762 61.6603 100.457 60.3422 101.337C59.7244 101.81 59.1331 102.316 58.571 102.854C58.2795 103.163 58.0089 103.492 57.761 103.837C56.8504 105.143 56.2225 106.626 55.9175 108.189C55.6125 109.752 55.6371 111.361 55.9898 112.914C58.1878 124.801 59.722 136.8 60.5852 148.857L58.5116 148.997C57.6567 137.033 56.137 125.126 53.9594 113.33C53.545 111.493 53.5197 109.589 53.8852 107.741C54.2507 105.893 54.9989 104.142 56.0816 102.6C57.1514 101.096 58.5399 99.8458 60.1481 98.9395C61.7564 98.0332 63.5448 97.4928 65.3858 97.3569C73.4858 96.8169 81.9152 103.4 83.1626 111.845C85.3864 124.934 86.8844 138.135 87.65 151.389Z" fill="#ffffff"/>
<path d="M62.4217 145.064H102.203C103.253 145.064 104.26 145.481 105.002 146.224C105.745 146.966 106.162 147.973 106.162 149.023V150.13H58.4635V149.023C58.4635 147.973 58.8805 146.966 59.6228 146.224C60.3651 145.481 61.3719 145.064 62.4217 145.064Z" fill="#069494"/>
<path d="M60.0774 191.797H57.5394L59.613 150.131H62.8422L60.0774 191.797Z" fill="#263238"/>
<path opacity="0.3" d="M60.0774 191.797H57.5394L59.613 150.131H62.8422L60.0774 191.797Z" fill="#ffffff"/>
<path d="M77.012 191.797H74.4794L75.8618 150.131H79.0856L77.012 191.797Z" fill="#263238"/>
<path opacity="0.3" d="M77.012 191.797H74.4794L75.8618 150.131H79.0856L77.012 191.797Z" fill="#ffffff"/>
<path d="M90.1503 191.797H87.6123L85.5387 150.131H88.7679L90.1503 191.797Z" fill="#263238"/>
<path opacity="0.3" d="M90.1503 191.797H87.6123L85.5387 150.131H88.7679L90.1503 191.797Z" fill="#ffffff"/>
<path d="M107.084 191.797H104.551L101.787 150.131H105.01L107.084 191.797Z" fill="#263238"/>
<path opacity="0.3" d="M107.084 191.797H104.551L101.787 150.131H105.01L107.084 191.797Z" fill="#ffffff"/>
<path d="M108.24 148.292H79.8956V151.98H108.24V148.292Z" fill="#069494"/>
<path opacity="0.7" d="M108.24 148.292H79.8956V151.98H108.24V148.292Z" fill="#ffffff"/>
<path d="M79.8958 148.292H56.3788V151.98H79.8958V148.292Z" fill="#069494"/>
<path opacity="0.4" d="M79.8958 148.292H56.3788V151.98H79.8958V148.292Z" fill="#ffffff"/>
<path d="M122.702 188.005L127.259 187.497L128.582 176.654L122.41 177.405L122.702 188.005Z" fill="#ffb573"/>
<path d="M127.631 186.043L122.291 185.616C122.202 185.602 122.111 185.623 122.038 185.674C121.964 185.726 121.914 185.803 121.896 185.892V185.924L121.292 190.125C121.275 190.348 121.347 190.569 121.491 190.739C121.636 190.91 121.841 191.017 122.064 191.038C123.921 191.151 124.704 191.119 127.059 191.14C128.511 191.14 131.973 191.14 133.965 190.924C135.958 190.708 135.666 188.732 134.802 188.656C132.756 188.473 129.667 187.576 128.409 186.415C128.197 186.211 127.924 186.08 127.631 186.043Z" fill="#263238"/>
<path opacity="0.2" d="M122.41 177.415L128.582 176.654L127.842 182.697L122.567 182.724L122.41 177.415Z" fill="#000000"/>
<path d="M93.1305 125.706C93.1305 125.706 129.311 126.418 130.769 140.016C131.072 152.722 130.424 165.433 128.83 178.042L122.069 178.89C122.069 178.89 118.462 155.233 119.796 143.79C109.941 142.014 82.5358 144.957 78.8476 137.267C75.8182 130.992 76.72 127.277 76.72 127.277L93.1305 125.706Z" fill="#263238"/>
<path d="M130.163 186.825C130.243 186.753 130.302 186.661 130.334 186.559C130.366 186.456 130.371 186.347 130.347 186.242C130.34 186.171 130.315 186.103 130.275 186.044C130.234 185.986 130.179 185.939 130.115 185.907C129.542 185.621 128.133 186.447 127.955 186.534C127.935 186.542 127.918 186.556 127.906 186.574C127.894 186.591 127.888 186.612 127.888 186.634C127.888 186.655 127.894 186.676 127.906 186.694C127.918 186.712 127.935 186.725 127.955 186.734C128.36 186.874 128.781 186.966 129.207 187.009C129.538 187.073 129.88 187.007 130.163 186.825ZM130.023 186.102C130.054 186.118 130.081 186.143 130.099 186.173C130.117 186.204 130.126 186.239 130.125 186.275C130.144 186.342 130.143 186.414 130.124 186.481C130.105 186.549 130.068 186.61 130.017 186.658C129.774 186.863 129.148 186.842 128.311 186.604C128.889 186.296 129.715 185.983 130.023 186.102Z" fill="#069494"/>
<path d="M128.096 186.713C128.588 186.465 129.381 185.542 129.311 185.007C129.298 184.914 129.254 184.828 129.186 184.763C129.119 184.697 129.032 184.656 128.939 184.645C128.851 184.622 128.759 184.622 128.672 184.643C128.584 184.665 128.503 184.708 128.436 184.769C127.923 185.196 127.896 186.568 127.896 186.627C127.897 186.646 127.902 186.665 127.911 186.682C127.921 186.699 127.934 186.714 127.95 186.724H127.999L128.096 186.713ZM128.863 184.856C129.025 184.888 129.052 184.969 129.063 185.034C129.111 185.38 128.577 186.114 128.134 186.411C128.134 185.957 128.258 185.18 128.566 184.926C128.6 184.897 128.64 184.875 128.682 184.862C128.725 184.849 128.77 184.845 128.814 184.85C128.814 184.85 128.858 184.899 128.863 184.856Z" fill="#069494"/>
<path opacity="0.3" d="M120.719 168.346C122.183 162.233 125.92 141.724 124.894 138.106C123.587 133.457 104.557 131.464 104.557 131.464C104.557 131.464 111.183 134.364 115.859 143.404C117.704 147.014 118.979 150.889 119.639 154.889C120.203 158.259 120.45 161.674 120.379 165.09L120.719 168.346Z" fill="#000000"/>
<path d="M111.712 187.678L116.334 187.813L117.771 176.98L111.204 176.71L111.712 187.678Z" fill="#ffb573"/>
<path d="M116.507 186.441L111.156 186.414C111.065 186.409 110.976 186.441 110.908 186.501C110.841 186.562 110.8 186.647 110.794 186.738L110.513 190.971C110.51 191.195 110.596 191.411 110.752 191.572C110.908 191.733 111.121 191.826 111.345 191.83C113.208 191.776 114.104 191.7 116.459 191.69C117.906 191.69 120.779 191.835 122.733 191.528C124.688 191.22 124.353 189.276 123.495 189.227C121.448 189.114 118.667 187.775 117.323 186.711C117.088 186.534 116.801 186.439 116.507 186.441Z" fill="#263238"/>
<path d="M119.088 187.03C119.163 186.952 119.215 186.855 119.24 186.75C119.264 186.644 119.26 186.534 119.229 186.431C119.214 186.361 119.183 186.295 119.138 186.24C119.093 186.184 119.035 186.141 118.969 186.112C118.392 185.869 117.036 186.804 116.885 186.906C116.862 186.923 116.846 186.948 116.842 186.976C116.839 186.99 116.838 187.005 116.84 187.019C116.843 187.033 116.848 187.046 116.855 187.058C116.863 187.07 116.873 187.081 116.884 187.089C116.896 187.097 116.909 187.103 116.923 187.106C117.338 187.209 117.764 187.267 118.192 187.279C118.511 187.315 118.833 187.226 119.088 187.03ZM118.894 186.328C118.926 186.34 118.955 186.36 118.977 186.387C118.999 186.413 119.013 186.446 119.018 186.48C119.039 186.548 119.042 186.621 119.027 186.691C119.012 186.761 118.979 186.826 118.932 186.879C118.726 187.095 118.084 187.117 117.231 186.949C117.787 186.593 118.581 186.199 118.894 186.328Z" fill="#069494"/>
<path d="M117.031 187.103C117.506 186.822 118.224 185.807 118.111 185.316C118.09 185.222 118.04 185.138 117.966 185.076C117.893 185.015 117.801 184.979 117.706 184.975C117.618 184.958 117.527 184.962 117.441 184.989C117.355 185.015 117.277 185.062 117.214 185.127C116.728 185.591 116.831 186.963 116.836 187.022C116.836 187.04 116.841 187.058 116.851 187.073C116.861 187.088 116.874 187.1 116.89 187.108C116.906 187.114 116.923 187.114 116.939 187.108C116.969 187.116 117.001 187.114 117.031 187.103ZM117.679 185.17C117.841 185.17 117.884 185.272 117.889 185.337C117.959 185.677 117.484 186.417 117.063 186.774C117.063 186.331 117.095 185.548 117.387 185.272C117.418 185.241 117.455 185.215 117.496 185.199C117.537 185.182 117.58 185.174 117.625 185.175L117.679 185.17Z" fill="#069494"/>
<path opacity="0.2" d="M110.611 176.518L118.16 175.789L116.945 183.182L111.507 183.236L110.611 176.518Z" fill="#000000"/>
<path d="M86.0139 126.296C86.0139 126.296 121.46 131.442 121.19 141.794C122.27 154.338 118.338 180.528 118.338 180.528L110.271 180.626C110.271 180.626 107.533 161.051 107.965 145.693C99.1467 146.552 76.4181 145.061 75.1869 143.231C69.9597 137.831 72.2169 127.662 72.2169 127.662L86.0139 126.296Z" fill="#263238"/>
<path d="M109.579 181.35L118.646 181.274L119.51 176.97L109.088 177.046L109.579 181.35Z" fill="#069494"/>
<path d="M90.6783 95.5208C90.8241 96.347 90.9591 97.0598 91.1265 97.8158C91.2939 98.5718 91.4613 99.2846 91.6665 100.046C92.0445 101.509 92.4873 102.962 92.9787 104.452C93.9605 107.528 95.3537 110.456 97.1205 113.157C97.644 113.915 98.2311 114.627 98.8755 115.285C99.5961 116.027 100.422 116.658 101.327 117.159C103.056 118.08 104.995 118.538 106.954 118.487C108.679 118.432 110.384 118.098 112.003 117.499C112.766 117.217 113.512 116.893 114.239 116.527C114.611 116.351 114.972 116.151 115.319 115.927C115.664 115.695 115.983 115.506 116.399 115.242L114.779 112.056L113.844 112.266L112.862 112.461C112.203 112.579 111.549 112.682 110.891 112.741C109.689 112.881 108.474 112.861 107.278 112.682C105.882 112.521 104.603 111.822 103.714 110.733C103.376 110.31 103.067 109.864 102.791 109.399C102.159 108.313 101.617 107.177 101.171 106.002C100.674 104.787 100.247 103.502 99.8421 102.19C99.4371 100.878 99.0861 99.5492 98.7297 98.21L98.2383 96.185C98.0817 95.5208 97.9143 94.808 97.7955 94.2302L90.6783 95.5208Z" fill="#ffb573"/>
<path opacity="0.2" d="M94.4583 98.0222C93.6051 97.3904 91.6719 100.792 90.6783 104.853C91.2183 106.3 91.7907 107.688 92.3685 108.99L98.8755 106.97C97.9629 103.098 96.3753 99.4424 94.4583 98.0222Z" fill="#000000"/>
<path d="M115.33 110.477L117.717 109.295L118.338 114.538C118.338 114.538 114.353 116.741 113.305 114.759L113.473 113.415C113.562 112.823 113.773 112.257 114.093 111.751C114.413 111.245 114.834 110.812 115.33 110.477Z" fill="#ffb573"/>
<path d="M120.655 109.15L122.545 113.416L118.317 114.54L117.696 109.296L120.655 109.15Z" fill="#ffb573"/>
<path d="M98.5847 92.5076C98.6672 96.8673 97.8281 101.195 96.1223 105.208C97.0619 107.034 97.0457 109.086 97.6181 111.057C98.1905 113.028 98.8709 115.004 100.135 116.619C101.398 118.233 103.342 119.437 105.389 119.319C105.107 117.991 105.045 116.627 105.205 115.279C105.248 114.557 105.456 113.855 105.811 113.225C106.167 112.596 106.661 112.055 107.257 111.645C106.216 110.903 105.271 110.034 104.444 109.059C104.444 109.059 102.224 99.4034 100.664 94.6514C100.313 93.6416 99.6377 92.6318 98.5847 92.5076Z" fill="#069494"/>
<path opacity="0.8" d="M98.5847 92.5076C98.6672 96.8673 97.8281 101.195 96.1223 105.208C97.0619 107.034 97.0457 109.086 97.6181 111.057C98.1905 113.028 98.8709 115.004 100.135 116.619C101.398 118.233 103.342 119.437 105.389 119.319C105.107 117.991 105.045 116.627 105.205 115.279C105.248 114.557 105.456 113.855 105.811 113.225C106.167 112.596 106.661 112.055 107.257 111.645C106.216 110.903 105.271 110.034 104.444 109.059C104.444 109.059 102.224 99.4034 100.664 94.6514C100.313 93.6416 99.6377 92.6318 98.5847 92.5076Z" fill="#ffffff"/>
<path d="M90.3117 88.0618L84.8793 87.0898L78.0483 87.4354C77.0117 87.4865 76.0206 87.8767 75.2274 88.546C74.4343 89.2153 73.8829 90.1266 73.6581 91.1398C72.7509 95.233 72.1245 101.054 71.7249 106.076C71.2767 111.714 71.5899 120.116 72.2163 127.676L95.0529 125.775C96.0141 105.947 97.7529 99.8554 98.1201 94.6066C98.1987 93.5777 97.9376 92.5514 97.3767 91.6852C96.8158 90.8189 95.9862 90.1607 95.0151 89.8114L90.3117 88.0618Z" fill="#069494"/>
<path d="M90.3117 88.0618L84.8793 87.0898L78.0483 87.4354C77.0117 87.4865 76.0206 87.8767 75.2274 88.546C74.4343 89.2153 73.8829 90.1266 73.6581 91.1398C72.7509 95.233 72.1245 101.054 71.7249 106.076C71.2767 111.714 71.5899 120.116 72.2163 127.676L95.0529 125.775C96.0141 105.947 97.7529 99.8554 98.1201 94.6066C98.1987 93.5777 97.9376 92.5514 97.3767 91.6852C96.8158 90.8189 95.9862 90.1607 95.0151 89.8114L90.3117 88.0618Z" fill="#069494"/>
<path opacity="0.3" d="M75.9428 89.3532C80.5058 88.7268 79.8956 99.0138 77.5628 106.471C76.8824 108.631 74.3228 107.621 73.4858 107.011C70.6994 105.051 70.1864 92.4312 75.9428 89.3532Z" fill="#000000"/>
<path d="M93.5298 88.4927C96.813 92.9045 96.3432 105.233 93.3516 125.709C93.3516 125.709 102.532 127.329 104.443 128.339C106.433 128.031 108.446 127.898 110.459 127.94C107.451 124.889 101.819 123.803 97.4988 123.69C99.0756 110.854 101.214 103.607 99.8154 93.8981C99.4428 91.1657 96.1488 89.3729 93.5298 88.4927Z" fill="#069494"/>
<path d="M80.1982 87.3766C82.5619 85.9257 85.3572 85.3433 88.1037 85.7296C90.8501 86.1159 93.3763 87.4468 95.248 89.4934C90.3178 88.6078 85.204 87.6466 80.1982 87.3766Z" fill="#069494"/>
<path opacity="0.8" d="M80.1982 87.3766C82.5619 85.9257 85.3572 85.3433 88.1037 85.7296C90.8501 86.1159 93.3763 87.4468 95.248 89.4934C90.3178 88.6078 85.204 87.6466 80.1982 87.3766Z" fill="#ffffff"/>
<g opacity="0.8">
<path d="M93.5298 88.4907C96.813 92.9025 96.3432 105.231 93.3516 125.708C93.3516 125.708 102.532 127.328 104.443 128.337C106.433 128.03 108.446 127.896 110.459 127.938C107.451 124.887 101.819 123.801 97.4988 123.688C99.0756 110.852 101.214 103.605 99.8154 93.8961C99.4428 91.1637 96.1488 89.3709 93.5298 88.4907Z" fill="#ffffff"/>
</g>
<path d="M73.1128 141.789C73.0857 140.679 73.4424 139.594 74.1226 138.716C74.802 137.851 75.538 137.032 76.3258 136.265C78.4048 134.045 80.6458 131.226 81.4666 128.3C83.5456 120.896 84.604 113.126 85.2142 105.458C85.6663 98.9997 84.5182 92.5302 81.8716 86.6223L74.9434 87.2379C73.9066 87.3351 73.0696 88.2801 72.535 89.1711C74.5762 97.5033 74.155 106.484 71.8654 114.751C70.6828 119.006 68.9386 123.094 67.7128 127.338C66.487 131.583 65.7904 136.108 66.7516 140.423C67.1728 142.318 68.7334 144.203 70.1914 145.504C71.2336 146.422 73.048 146.093 74.4358 146.103C73.7061 145.63 73.1478 144.935 72.8435 144.12C72.5391 143.305 72.5048 142.414 72.7456 141.578C72.7996 141.486 73.1236 141.908 73.1128 141.789Z" fill="#069494"/>
<path opacity="0.8" d="M73.1128 141.789C73.0857 140.679 73.4424 139.594 74.1226 138.716C74.802 137.851 75.538 137.032 76.3258 136.265C78.4048 134.045 80.6458 131.226 81.4666 128.3C83.5456 120.896 84.604 113.126 85.2142 105.458C85.6663 98.9997 84.5182 92.5302 81.8716 86.6223L74.9434 87.2379C73.9066 87.3351 73.0696 88.2801 72.535 89.1711C74.5762 97.5033 74.155 106.484 71.8654 114.751C70.6828 119.006 68.9386 123.094 67.7128 127.338C66.487 131.583 65.7904 136.108 66.7516 140.423C67.1728 142.318 68.7334 144.203 70.1914 145.504C71.2336 146.422 73.048 146.093 74.4358 146.103C73.7061 145.63 73.1478 144.935 72.8435 144.12C72.5391 143.305 72.5048 142.414 72.7456 141.578C72.7996 141.486 73.1236 141.908 73.1128 141.789Z" fill="#ffffff"/>
<path d="M79.0477 104.978C80.6245 109.152 80.0197 111.814 82.7413 112.473C85.4629 113.132 100.253 113.099 100.394 112.435C100.091 113.672 99.7567 114.752 99.4543 115.983C95.4259 116.703 91.4083 117.455 87.4015 118.24C84.4747 118.818 79.7119 119.606 76.9201 118.564C74.3929 117.624 72.3895 110.464 71.0287 105.248C72.4705 103.579 79.0477 104.978 79.0477 104.978Z" fill="#ffb573"/>
<path d="M82.4545 88.0397C82.2969 89.0229 82.5106 90.0295 83.0539 90.8639C83.5987 91.6834 84.2426 92.4324 84.9709 93.0941C85.8619 93.9743 86.9257 94.9193 88.1731 94.8005C89.3233 94.6925 90.0037 94.1417 90.5113 92.7971C91.4347 94.4171 91.4509 95.2001 92.5255 95.3405C93.2221 95.4323 93.8485 94.9409 94.3561 94.4603C95.2525 93.6017 95.6575 93.1103 95.8627 91.8845C96.1975 89.8973 94.6423 87.9803 92.7793 87.2081C90.8872 86.4915 88.9108 86.0214 86.8987 85.8095C85.1329 85.5395 82.8865 86.0093 82.4545 88.0397Z" fill="#069494"/>
<path opacity="0.2" d="M82.4545 88.0397C82.2969 89.0229 82.5106 90.0295 83.0539 90.8639C83.5987 91.6834 84.2426 92.4324 84.9709 93.0941C85.8619 93.9743 86.9257 94.9193 88.1731 94.8005C89.3233 94.6925 90.0037 94.1417 90.5113 92.7971C91.4347 94.4171 91.4509 95.2001 92.5255 95.3405C93.2221 95.4323 93.8485 94.9409 94.3561 94.4603C95.2525 93.6017 95.6575 93.1103 95.8627 91.8845C96.1975 89.8973 94.6423 87.9803 92.7793 87.2081C90.8872 86.4915 88.9108 86.0214 86.8987 85.8095C85.1329 85.5395 82.8865 86.0093 82.4545 88.0397Z" fill="#000000"/>
<path d="M101.587 72.2294C101.587 72.2294 103.477 66.9482 98.266 67.688L101.587 72.2294Z" fill="#263238"/>
<path opacity="0.7" d="M101.587 72.2294C101.587 72.2294 103.477 66.9482 98.266 67.688L101.587 72.2294Z" fill="#ffffff"/>
<path d="M93.444 90.5756L91.3758 91.7528L88.9134 91.1642L85.6356 88.4966C85.6724 88.4425 85.7139 88.3919 85.7598 88.3454C87.828 86.1044 88.5138 81.0391 88.6704 78.0583L93.4926 84.8462C92.5206 86.6714 92.0292 88.8638 93.444 90.5756Z" fill="#ffb573"/>
<path d="M88.5186 72.4642C87.9786 77.173 87.4386 79.9 89.334 82.7242C92.223 86.9578 98.3628 85.84 100.301 81.4012C102.062 77.3728 102.656 70.369 98.4276 67.696C96.982 66.7775 95.2315 66.4686 93.5589 66.8369C91.8862 67.2053 90.4274 68.2208 89.5014 69.6616C88.9628 70.5079 88.6265 71.4669 88.5186 72.4642Z" fill="#ffb573"/>
<path d="M102.246 72.8174C102.327 72.4772 102.311 71.6942 101.431 71.8076C101.431 71.8076 100.918 70.7978 100.151 71.4674C100.151 71.4674 99.19 71.246 99.0712 71.8886C98.9308 72.7094 99.7948 72.218 100.718 72.6554C101.642 73.0928 102.095 73.3898 102.246 72.8174Z" fill="#263238"/>
<path opacity="0.6" d="M102.246 72.8174C102.327 72.4772 102.311 71.6942 101.431 71.8076C101.431 71.8076 100.918 70.7978 100.151 71.4674C100.151 71.4674 99.19 71.246 99.0712 71.8886C98.9308 72.7094 99.7948 72.218 100.718 72.6554C101.642 73.0928 102.095 73.3898 102.246 72.8174Z" fill="#ffffff"/>
<path d="M94.6641 71.3742C94.7235 71.034 95.0637 70.3266 95.8143 70.7856C95.8143 70.7856 96.6999 70.0782 97.1211 71.007C97.1211 71.007 98.0877 71.196 97.9257 71.8224C97.7151 72.6324 97.1319 71.8224 96.1113 71.8494C95.0907 71.8764 94.5615 71.9574 94.6641 71.3742Z" fill="#263238"/>
<path opacity="0.6" d="M94.6641 71.3742C94.7235 71.034 95.0637 70.3266 95.8143 70.7856C95.8143 70.7856 96.6999 70.0782 97.1211 71.007C97.1211 71.007 98.0877 71.196 97.9257 71.8224C97.7151 72.6324 97.1319 71.8224 96.1113 71.8494C95.0907 71.8764 94.5615 71.9574 94.6641 71.3742Z" fill="#ffffff"/>
<path d="M90.5877 75.5563C90.5877 75.5563 92.0673 72.5647 91.5813 71.0473C91.0953 69.5299 97.3701 69.4273 97.1325 67.0351C96.8949 64.6429 92.5209 63.1201 91.2573 65.1343C90.7624 65.182 90.2835 65.335 89.8527 65.5831C89.4219 65.8312 89.0492 66.1687 88.7597 66.5728C88.4701 66.9769 88.2704 67.4384 88.1741 67.9261C88.0777 68.4138 88.0868 68.9165 88.2009 69.4003C88.2009 69.4003 86.1435 71.1931 88.0281 74.5033L89.7129 76.0801L90.5877 75.5563Z" fill="#263238"/>
<path opacity="0.7" d="M90.5877 75.5563C90.5877 75.5563 92.0673 72.5647 91.5813 71.0473C91.0953 69.5299 97.3701 69.4273 97.1325 67.0351C96.8949 64.6429 92.5209 63.1201 91.2573 65.1343C90.7624 65.182 90.2835 65.335 89.8527 65.5831C89.4219 65.8312 89.0492 66.1687 88.7597 66.5728C88.4701 66.9769 88.2704 67.4384 88.1741 67.9261C88.0777 68.4138 88.0868 68.9165 88.2009 69.4003C88.2009 69.4003 86.1435 71.1931 88.0281 74.5033L89.7129 76.0801L90.5877 75.5563Z" fill="#ffffff"/>
<path d="M100.588 80.9519C100.588 80.9519 97.6832 78.9269 92.78 78.8891C92.78 78.8891 91.2572 78.6677 90.9224 76.6049L90.6848 75.1685L89.5454 75.3035L87.8822 78.8513C87.8822 78.8513 87.8282 82.8851 88.9082 83.3279C88.9082 83.3279 89.702 85.5311 91.8998 85.5743C91.8998 85.5743 92.6288 87.2915 95.3612 86.0333C95.3612 86.0333 96.5816 86.3357 98.0612 84.5105C98.072 84.5105 99.3464 84.4619 100.588 80.9519Z" fill="#263238"/>
<path opacity="0.7" d="M100.588 80.9519C100.588 80.9519 97.6832 78.9269 92.78 78.8891C92.78 78.8891 91.2572 78.6677 90.9224 76.6049L90.6848 75.1685L89.5454 75.3035L87.8822 78.8513C87.8822 78.8513 87.8282 82.8851 88.9082 83.3279C88.9082 83.3279 89.702 85.5311 91.8998 85.5743C91.8998 85.5743 92.6288 87.2915 95.3612 86.0333C95.3612 86.0333 96.5816 86.3357 98.0612 84.5105C98.072 84.5105 99.3464 84.4619 100.588 80.9519Z" fill="#ffffff"/>
<path d="M94.4966 81.46C94.0609 81.3631 93.6496 81.1787 93.2875 80.9178C92.9255 80.657 92.6203 80.3251 92.3906 79.9426C92.377 79.9152 92.3745 79.8837 92.3835 79.8545C92.3926 79.8254 92.4125 79.8008 92.4392 79.786C92.4657 79.7726 92.4964 79.7703 92.5247 79.7794C92.553 79.7885 92.5765 79.8083 92.5904 79.8346C92.8452 80.2468 93.1917 80.5947 93.6028 80.8513C94.014 81.1079 94.4787 81.2663 94.961 81.3141C94.9875 81.3199 95.0112 81.3346 95.0283 81.3557C95.0453 81.3768 95.0546 81.4031 95.0546 81.4303C95.0546 81.4574 95.0453 81.4837 95.0283 81.5048C95.0112 81.5259 94.9875 81.5406 94.961 81.5464C94.8042 81.5296 94.6489 81.5007 94.4966 81.46Z" fill="#263238"/>
<path d="M98.2388 75.7415C98.4834 76.9804 98.8977 78.1797 99.47 79.3055C99.1764 79.4414 98.8567 79.5118 98.5331 79.5118C98.2095 79.5118 97.8898 79.4414 97.5962 79.3055L98.2388 75.7415Z" fill="#ed893e"/>
<path d="M98.6601 74.6919C98.5107 75.0546 98.4723 75.4535 98.5497 75.838C98.6271 76.2225 98.8169 76.5754 99.0951 76.852C99.3732 77.1286 99.7271 77.3164 100.112 77.3918C100.497 77.4671 100.896 77.4264 101.257 77.275C101.619 77.1236 101.928 76.8683 102.145 76.5413C102.361 76.2143 102.476 75.8303 102.474 75.4381C102.473 75.0459 102.355 74.6629 102.135 74.3379C101.916 74.0128 101.605 73.7601 101.241 73.6119C101.001 73.5131 100.743 73.4626 100.484 73.4634C100.224 73.4642 99.9665 73.5162 99.7267 73.6165C99.487 73.7169 99.2694 73.8635 99.0863 74.048C98.9033 74.2325 98.7585 74.4514 98.6601 74.6919Z" fill="#069494"/>
<path d="M93.5897 73.9151C93.4403 74.2777 93.4019 74.6766 93.4793 75.0611C93.5567 75.4457 93.7465 75.7986 94.0246 76.0752C94.3027 76.3517 94.6567 76.5396 95.0416 76.6149C95.4266 76.6902 95.8252 76.6496 96.1871 76.4982C96.5489 76.3468 96.8577 76.0914 97.0743 75.7644C97.2909 75.4374 97.4056 75.0535 97.4039 74.6612C97.4022 74.269 97.2841 73.8861 97.0646 73.561C96.8451 73.2359 96.5341 72.9833 96.1709 72.8351C95.9305 72.7362 95.673 72.6857 95.4131 72.6865C95.1532 72.6873 94.8961 72.7394 94.6563 72.8397C94.4165 72.94 94.1989 73.0866 94.0159 73.2712C93.8329 73.4557 93.6881 73.6745 93.5897 73.9151Z" fill="#069494"/>
<path opacity="0.6" d="M98.6601 74.6919C98.5107 75.0546 98.4723 75.4535 98.5497 75.838C98.6271 76.2225 98.8169 76.5754 99.0951 76.852C99.3732 77.1286 99.7271 77.3164 100.112 77.3918C100.497 77.4671 100.896 77.4264 101.257 77.275C101.619 77.1236 101.928 76.8683 102.145 76.5413C102.361 76.2143 102.476 75.8303 102.474 75.4381C102.473 75.0459 102.355 74.6629 102.135 74.3379C101.916 74.0128 101.605 73.7601 101.241 73.6119C101.001 73.5131 100.743 73.4626 100.484 73.4634C100.224 73.4642 99.9665 73.5162 99.7267 73.6165C99.487 73.7169 99.2694 73.8635 99.0863 74.048C98.9033 74.2325 98.7585 74.4514 98.6601 74.6919Z" fill="#ffffff"/>
<path opacity="0.6" d="M93.5897 73.9151C93.4403 74.2777 93.4019 74.6766 93.4793 75.0611C93.5567 75.4457 93.7465 75.7986 94.0246 76.0752C94.3027 76.3517 94.6567 76.5396 95.0416 76.6149C95.4266 76.6902 95.8252 76.6496 96.1871 76.4982C96.5489 76.3468 96.8577 76.0914 97.0743 75.7644C97.2909 75.4374 97.4056 75.0535 97.4039 74.6612C97.4022 74.269 97.2841 73.8861 97.0646 73.561C96.8451 73.2359 96.5341 72.9833 96.1709 72.8351C95.9305 72.7362 95.673 72.6857 95.4131 72.6865C95.1532 72.6873 94.8961 72.7394 94.6563 72.8397C94.4165 72.94 94.1989 73.0866 94.0159 73.2712C93.8329 73.4557 93.6881 73.6745 93.5897 73.9151Z" fill="#ffffff"/>
<path opacity="0.9" d="M101.096 77.3153C100.738 77.435 100.353 77.4489 99.9866 77.3553C99.6207 77.2618 99.2894 77.0648 99.0325 76.788C98.7756 76.5111 98.6038 76.1661 98.5379 75.7942C98.4719 75.4223 98.5145 75.0392 98.6606 74.6909C98.838 74.2576 99.1659 73.9028 99.584 73.6919L101.096 77.3153Z" fill="#ffffff"/>
<path opacity="0.9" d="M96.1596 76.5056C95.6755 76.7076 95.131 76.7089 94.646 76.5094C94.1609 76.3099 93.7749 75.9259 93.573 75.4418C93.371 74.9578 93.3697 74.4133 93.5692 73.9282C93.7687 73.4431 94.1527 73.0572 94.6368 72.8552L96.1596 76.5056Z" fill="#ffffff"/>
<path d="M98.5034 74.6263C98.6642 74.2293 98.9394 73.889 99.294 73.6488C99.6487 73.4085 100.067 73.2792 100.495 73.2771C100.923 73.2751 101.343 73.4004 101.7 73.6373C102.057 73.8741 102.335 74.2117 102.5 74.6072C102.664 75.0026 102.708 75.4381 102.624 75.8582C102.54 76.2784 102.334 76.6642 102.031 76.9666C101.727 77.2691 101.341 77.4745 100.921 77.5568C100.5 77.6392 100.065 77.5946 99.6698 77.4289C99.1458 77.2091 98.7296 76.7916 98.5113 76.267C98.2929 75.7425 98.2901 75.153 98.5034 74.6263ZM98.8166 74.7559C98.681 75.087 98.6466 75.4509 98.7177 75.8015C98.7889 76.1521 98.9624 76.4738 99.2164 76.7258C99.4704 76.9778 99.7934 77.1488 100.145 77.2173C100.496 77.2857 100.859 77.2485 101.189 77.1103C101.519 76.9721 101.801 76.7391 101.999 76.4409C102.196 76.1426 102.301 75.7924 102.3 75.4347C102.298 75.0769 102.191 74.7275 101.991 74.4308C101.791 74.1341 101.507 73.9033 101.176 73.7677C100.958 73.6764 100.723 73.6292 100.486 73.6286C100.249 73.6281 100.014 73.6743 99.795 73.7646C99.5759 73.8548 99.3767 73.9874 99.2088 74.1548C99.0409 74.3221 98.9076 74.5208 98.8166 74.7397V74.7559Z" fill="#263238"/>
<path d="M93.4335 73.8582C93.5939 73.4611 93.8687 73.1207 94.2229 72.8801C94.5772 72.6396 94.995 72.5097 95.4232 72.5071C95.8514 72.5045 96.2708 72.6292 96.6279 72.8655C96.9851 73.1017 97.264 73.4388 97.4292 73.8339C97.5944 74.2289 97.6384 74.6642 97.5557 75.0844C97.4729 75.5045 97.2672 75.8906 96.9646 76.1936C96.6619 76.4966 96.2761 76.7027 95.856 76.7859C95.4359 76.8691 95.0006 76.8256 94.6053 76.6608C94.0804 76.442 93.6629 76.025 93.4435 75.5003C93.2242 74.9756 93.2206 74.3856 93.4335 73.8582ZM93.7467 73.9878C93.6111 74.3189 93.5767 74.6828 93.6479 75.0334C93.719 75.384 93.8926 75.7057 94.1465 75.9577C94.4005 76.2097 94.7235 76.3807 95.0747 76.4492C95.4259 76.5176 95.7894 76.4804 96.1195 76.3422C96.4495 76.204 96.7311 75.971 96.9287 75.6728C97.1263 75.3745 97.2311 75.0244 97.2297 74.6666C97.2283 74.3088 97.1209 73.9595 96.9209 73.6627C96.721 73.366 96.4376 73.1353 96.1065 72.9996C95.8867 72.9096 95.6513 72.8637 95.4137 72.8646C95.1761 72.8655 94.9411 72.9132 94.722 73.005C94.5028 73.0967 94.3039 73.2308 94.1366 73.3994C93.9693 73.568 93.8368 73.768 93.7467 73.9878Z" fill="#263238"/>
<path d="M97.5587 75.0367C97.6198 74.9834 97.6913 74.9433 97.7686 74.919C97.8459 74.8946 97.9274 74.8865 98.008 74.8951C98.0886 74.9037 98.1666 74.9289 98.237 74.9691C98.3075 75.0092 98.3688 75.0635 98.4173 75.1285L98.6927 74.9395C98.6211 74.8381 98.5296 74.7524 98.4238 74.6876C98.318 74.6228 98.2001 74.5802 98.0773 74.5625C97.9545 74.5449 97.8293 74.5524 97.7095 74.5847C97.5897 74.617 97.4778 74.6734 97.3805 74.7505L97.5587 75.0367Z" fill="#263238"/>
<path d="M93.4295 74.508L89.0084 74.9609L89.0425 75.294L93.4636 74.841L93.4295 74.508Z" fill="#263238"/>
<path d="M85.4741 76.3942C85.9228 77.4966 86.7882 78.3776 87.8825 78.8458C89.3459 79.4452 90.2639 78.1924 90.0425 76.6858C89.8211 75.3628 88.7897 73.4458 87.2507 73.4458C85.7117 73.4458 84.9341 75.028 85.4741 76.3942Z" fill="#ffb573"/>
<path d="M108.747 112.131C108.608 111.702 108.326 111.334 107.947 111.089C107.568 110.844 107.117 110.737 106.668 110.786C106.223 110.853 105.796 111.008 105.412 111.243C105.028 111.477 104.695 111.787 104.433 112.153C103.868 112.887 103.502 113.756 103.373 114.674C103.243 115.592 103.353 116.528 103.693 117.391C103.894 117.934 104.213 118.427 104.626 118.833C105.04 119.239 105.538 119.549 106.085 119.74C106.638 119.913 107.233 119.898 107.777 119.697C108.32 119.496 108.781 119.119 109.088 118.627C107.878 117.126 107.781 114.55 108.747 112.882C108.78 112.632 108.78 112.38 108.747 112.131Z" fill="#069494"/>
<path opacity="0.6" d="M108.747 112.131C108.608 111.702 108.326 111.334 107.947 111.089C107.568 110.844 107.117 110.737 106.668 110.786C106.223 110.853 105.796 111.008 105.412 111.243C105.028 111.477 104.695 111.787 104.433 112.153C103.868 112.887 103.502 113.756 103.373 114.674C103.243 115.592 103.353 116.528 103.693 117.391C103.894 117.934 104.213 118.427 104.626 118.833C105.04 119.239 105.538 119.549 106.085 119.74C106.638 119.913 107.233 119.898 107.777 119.697C108.32 119.496 108.781 119.119 109.088 118.627C107.878 117.126 107.781 114.55 108.747 112.882C108.78 112.632 108.78 112.38 108.747 112.131Z" fill="#ffffff"/>
<path d="M101.139 111.464L103.558 110.854L103.121 116.74C103.121 116.74 98.8765 117.14 98.6011 115.93L98.3581 114.099C98.0449 112.442 99.8107 111.745 101.139 111.464Z" fill="#ffb573"/>
<path d="M107.079 112.625L106.247 115.908L103.115 116.735L103.558 110.854L107.079 112.625Z" fill="#ffb573"/>
<path d="M121.254 181.2L128.9 181.227L129.861 177.474L121.124 177.275L121.254 181.2Z" fill="#069494"/>
<path d="M74.9762 87.5664C63.5336 91.8 71.4932 114.41 74.7602 120.166C76.7716 120.982 78.932 121.366 81.1013 121.294C83.2707 121.221 85.4006 120.693 87.353 119.745C86.5376 117.137 86.273 113.875 87.1856 111.294C85.4792 110.992 83.2004 110.711 81.494 110.408C81.494 110.408 80.414 102.821 80.1872 97.497C80.0144 93.2796 78.8534 88.1226 74.9762 87.5664Z" fill="#069494"/>
<path opacity="0.8" d="M74.9762 87.5664C63.5336 91.8 71.4932 114.41 74.7602 120.166C76.7716 120.982 78.932 121.366 81.1013 121.294C83.2707 121.221 85.4006 120.693 87.353 119.745C86.5376 117.137 86.273 113.875 87.1856 111.294C85.4792 110.992 83.2004 110.711 81.494 110.408C81.494 110.408 80.414 102.821 80.1872 97.497C80.0144 93.2796 78.8534 88.1226 74.9762 87.5664Z" fill="#ffffff"/>
<path d="M86.6401 111.001C85.9112 112.484 85.5115 114.107 85.4683 115.758C85.4508 116.583 85.6133 117.401 85.9444 118.157C86.2754 118.912 86.7671 119.586 87.3853 120.132C87.9883 119.708 88.7178 119.503 89.4535 119.549C89.9017 119.549 90.1555 119.549 90.6037 119.549C90.3607 117.015 90.3607 114.464 90.6037 111.93C89.8326 111.798 89.0427 111.824 88.2817 112.005C88.4221 111.314 87.3475 110.866 86.6401 111.001Z" fill="#069494"/>
<path opacity="0.6" d="M86.6401 111.001C85.9112 112.484 85.5115 114.107 85.4683 115.758C85.4508 116.583 85.6133 117.401 85.9444 118.157C86.2754 118.912 86.7671 119.586 87.3853 120.132C87.9883 119.708 88.7178 119.503 89.4535 119.549C89.9017 119.549 90.1555 119.549 90.6037 119.549C90.3607 117.015 90.3607 114.464 90.6037 111.93C89.8326 111.798 89.0427 111.824 88.2817 112.005C88.4221 111.314 87.3475 110.866 86.6401 111.001Z" fill="#ffffff"/>
<path d="M146.932 79.055L147.761 79.474C148 79.5949 148.181 79.8057 148.265 80.0602C148.348 80.3146 148.327 80.5918 148.207 80.8308L143.848 89.4522L141.217 88.1219L145.575 79.5005C145.696 79.2615 145.907 79.0803 146.161 78.9968C146.416 78.9132 146.693 78.9341 146.932 79.055Z" fill="#263238"/>
<path opacity="0.3" d="M146.932 79.055L147.761 79.474C148 79.5949 148.181 79.8057 148.265 80.0602C148.348 80.3146 148.327 80.5918 148.207 80.8308L143.848 89.4522L141.217 88.1219L145.575 79.5005C145.696 79.2615 145.907 79.0803 146.161 78.9968C146.416 78.9132 146.693 78.9341 146.932 79.055Z" fill="#ffffff"/>
<path d="M146.321 90.4119H143.578V117.126H146.321V90.4119Z" fill="#069494"/>
<path d="M138.961 90.4119H136.218V93.4251H138.961V90.4119Z" fill="#069494"/>
<path opacity="0.2" d="M146.321 90.4119H143.578V117.126H146.321V90.4119Z" fill="#000000"/>
<path opacity="0.2" d="M138.961 90.4119H136.218V93.4251H138.961V90.4119Z" fill="#000000"/>
<path d="M139.923 86.0032H137.73V90.415H139.923V86.0032Z" fill="#069494"/>
<path opacity="0.1" d="M139.923 86.0032H137.73V90.415H139.923V86.0032Z" fill="#000000"/>
<path d="M149.745 90.3974H139.922V85.9856L148.638 87.854C148.951 87.9209 149.233 88.0937 149.434 88.3435C149.636 88.5932 149.745 88.9047 149.745 89.2256V90.3974Z" fill="#069494"/>
<path opacity="0.2" d="M149.745 90.3974H139.922V85.9856L148.638 87.854C148.951 87.9209 149.233 88.0937 149.434 88.3435C149.636 88.5932 149.745 88.9047 149.745 89.2256V90.3974Z" fill="#ffffff"/>
<path d="M139.398 95.1835L136.271 93.7201C136.238 93.7069 136.21 93.6822 136.193 93.6504C136.176 93.6186 136.171 93.5818 136.179 93.5466C136.187 93.5115 136.207 93.4802 136.236 93.4586C136.265 93.4369 136.3 93.4263 136.336 93.4285H143.502C143.538 93.4263 143.574 93.4369 143.602 93.4586C143.631 93.4802 143.651 93.5115 143.659 93.5466C143.667 93.5818 143.662 93.6186 143.645 93.6504C143.628 93.6822 143.6 93.7069 143.567 93.7201L140.446 95.1835C140.282 95.2609 140.103 95.3011 139.922 95.3011C139.741 95.3011 139.562 95.2609 139.398 95.1835Z" fill="#263238"/>
<path d="M138.519 95.7787V97.6093C138.519 98.2475 139.036 98.7649 139.675 98.7649H140.166C140.804 98.7649 141.322 98.2475 141.322 97.6093V95.7787C141.322 95.1405 140.804 94.6231 140.166 94.6231H139.675C139.036 94.6231 138.519 95.1405 138.519 95.7787Z" fill="#263238"/>
<path opacity="0.6" d="M138.519 95.7787V97.6093C138.519 98.2475 139.036 98.7649 139.675 98.7649H140.166C140.804 98.7649 141.322 98.2475 141.322 97.6093V95.7787C141.322 95.1405 140.804 94.6231 140.166 94.6231H139.675C139.036 94.6231 138.519 95.1405 138.519 95.7787Z" fill="#ffffff"/>
<path d="M136.034 94.716L135.333 96.4072C135.089 96.9969 135.369 97.6728 135.958 97.9171L136.412 98.1051C137.002 98.3494 137.678 98.0694 137.922 97.4797L138.623 95.7885C138.867 95.1988 138.587 94.5228 137.997 94.2786L137.543 94.0906C136.954 93.8463 136.278 94.1263 136.034 94.716Z" fill="#263238"/>
<path d="M141.216 95.7882L141.916 97.4795C142.16 98.0691 142.836 98.3491 143.426 98.1049L143.88 97.9168C144.47 97.6726 144.75 96.9966 144.505 96.407L143.805 94.7157C143.561 94.1261 142.885 93.8461 142.295 94.0903L141.841 94.2784C141.251 94.5226 140.971 95.1986 141.216 95.7882Z" fill="#263238"/>
<g opacity="0.3">
<path d="M136.033 94.716L135.333 96.4072C135.088 96.9969 135.368 97.6728 135.958 97.9171L136.412 98.1051C137.002 98.3494 137.678 98.0694 137.922 97.4797L138.623 95.7885C138.867 95.1988 138.587 94.5228 137.997 94.2786L137.543 94.0906C136.954 93.8463 136.278 94.1263 136.033 94.716Z" fill="#ffffff"/>
<path d="M141.215 95.7846L141.916 97.4758C142.16 98.0655 142.836 98.3455 143.426 98.1012L143.88 97.9132C144.469 97.6689 144.749 96.9929 144.505 96.4033L143.805 94.7121C143.56 94.1224 142.884 93.8424 142.295 94.0866L141.841 94.2747C141.251 94.5189 140.971 95.1949 141.215 95.7846Z" fill="#ffffff"/>
</g>
<path d="M146.3 117.126H155.577C155.767 117.125 155.953 117.082 156.124 117C156.294 116.918 156.445 116.799 156.563 116.652C156.682 116.504 156.766 116.332 156.809 116.147C156.852 115.963 156.854 115.772 156.814 115.587L151.414 91.4379C151.35 91.1464 151.188 90.8857 150.955 90.6991C150.722 90.5124 150.432 90.4111 150.134 90.4119H138.961V93.4251H146.3V117.126Z" fill="#069494"/>
<path opacity="0.3" d="M146.3 117.126H155.577C155.767 117.125 155.953 117.082 156.124 117C156.294 116.918 156.445 116.799 156.563 116.652C156.682 116.504 156.766 116.332 156.809 116.147C156.852 115.963 156.854 115.772 156.814 115.587L151.414 91.4379C151.35 91.1464 151.188 90.8857 150.955 90.6991C150.722 90.5124 150.432 90.4111 150.134 90.4119H138.961V93.4251H146.3V117.126Z" fill="#ffffff"/>
<path d="M141.413 104.2H130.289V106.366H141.413V104.2Z" fill="#263238"/>
<path d="M152.536 104.2H141.412V106.366H152.536V104.2Z" fill="#263238"/>
<path opacity="0.7" d="M141.413 104.2H130.289V106.366H141.413V104.2Z" fill="#ffffff"/>
<path opacity="0.3" d="M152.536 104.2H141.412V106.366H152.536V104.2Z" fill="#ffffff"/>
<path d="M174.159 106.486C173.944 105.074 173.317 103.756 172.357 102.7C171.396 101.643 170.144 100.893 168.759 100.546V92.4456C169.083 92.3672 169.371 92.1825 169.577 91.9212C169.784 91.6599 169.897 91.3369 169.898 91.0038C169.897 90.6095 169.739 90.2318 169.46 89.9534C169.181 89.6751 168.802 89.5188 168.408 89.5188H165.708C165.314 89.5188 164.936 89.6753 164.658 89.9538C164.38 90.2322 164.223 90.61 164.223 91.0038C164.224 91.3371 164.336 91.6606 164.543 91.9221C164.75 92.1836 165.038 92.368 165.362 92.4456V100.546C164.02 100.873 162.8 101.58 161.848 102.581C160.896 103.582 160.251 104.835 159.991 106.192C159.731 107.549 159.867 108.952 160.382 110.235C160.896 111.517 161.769 112.624 162.895 113.425C163.37 113.756 163.935 113.935 164.515 113.938H169.596C170.175 113.939 170.741 113.761 171.216 113.43C172.299 112.656 173.147 111.598 173.666 110.373C174.186 109.147 174.356 107.802 174.159 106.486Z" fill="#069494"/>
<path d="M174.159 106.486C173.944 105.074 173.317 103.756 172.357 102.7C171.396 101.643 170.144 100.893 168.759 100.546V92.4456C169.083 92.3672 169.371 92.1825 169.577 91.9212C169.784 91.6599 169.897 91.3369 169.898 91.0038C169.897 90.6095 169.739 90.2318 169.46 89.9534C169.181 89.6751 168.802 89.5188 168.408 89.5188H165.708C165.314 89.5188 164.936 89.6753 164.658 89.9538C164.38 90.2322 164.223 90.61 164.223 91.0038C164.224 91.3371 164.336 91.6606 164.543 91.9221C164.75 92.1836 165.038 92.368 165.362 92.4456V100.546C164.02 100.873 162.8 101.58 161.848 102.581C160.896 103.582 160.251 104.835 159.991 106.192C159.731 107.549 159.867 108.952 160.382 110.235C160.896 111.517 161.769 112.624 162.895 113.425C163.37 113.756 163.935 113.935 164.515 113.938H169.596C170.175 113.939 170.741 113.761 171.216 113.43C172.299 112.656 173.147 111.598 173.666 110.373C174.186 109.147 174.356 107.802 174.159 106.486Z" fill="#069494"/>
<path opacity="0.7" d="M174.159 106.486C173.944 105.074 173.317 103.756 172.357 102.7C171.396 101.643 170.144 100.893 168.759 100.546V92.4456C169.083 92.3672 169.371 92.1825 169.577 91.9212C169.784 91.6599 169.897 91.3369 169.898 91.0038C169.897 90.6095 169.739 90.2318 169.46 89.9534C169.181 89.6751 168.802 89.5188 168.408 89.5188H165.708C165.314 89.5188 164.936 89.6753 164.658 89.9538C164.38 90.2322 164.223 90.61 164.223 91.0038C164.224 91.3371 164.336 91.6606 164.543 91.9221C164.75 92.1836 165.038 92.368 165.362 92.4456V100.546C164.02 100.873 162.8 101.58 161.848 102.581C160.896 103.582 160.251 104.835 159.991 106.192C159.731 107.549 159.867 108.952 160.382 110.235C160.896 111.517 161.769 112.624 162.895 113.425C163.37 113.756 163.935 113.935 164.515 113.938H169.596C170.175 113.939 170.741 113.761 171.216 113.43C172.299 112.656 173.147 111.598 173.666 110.373C174.186 109.147 174.356 107.802 174.159 106.486Z" fill="#ffffff"/>
<path d="M164.746 89.8253C165.016 90.0467 165.929 90.2087 167.02 90.2087C168.111 90.2087 169.023 90.0467 169.299 89.8253C169.038 89.6165 168.714 89.5022 168.381 89.5013H165.681C165.341 89.4981 165.011 89.6126 164.746 89.8253Z" fill="#069494"/>
<path d="M173.408 106.6C173.281 105.774 172.989 104.982 172.55 104.272C172.474 104.683 170.033 105.012 167.02 105.012C164.007 105.012 161.534 104.683 161.49 104.267C160.89 105.261 160.573 106.4 160.572 107.561C160.573 108.589 160.818 109.602 161.288 110.517C161.757 111.431 162.437 112.221 163.272 112.82C163.622 113.065 164.039 113.196 164.466 113.193H169.547C169.97 113.199 170.384 113.07 170.73 112.826C171.707 112.136 172.475 111.19 172.948 110.091C173.421 108.992 173.58 107.784 173.408 106.6Z" fill="#069494"/>
<path d="M172.56 104.248C172.56 104.669 170.082 105.004 167.02 105.004C163.958 105.004 161.485 104.669 161.485 104.248C161.485 103.827 163.963 103.487 167.02 103.487C170.076 103.487 172.56 103.827 172.56 104.248Z" fill="#069494"/>
<path opacity="0.2" d="M172.56 104.248C172.56 104.669 170.082 105.004 167.02 105.004C163.958 105.004 161.485 104.669 161.485 104.248C161.485 103.827 163.963 103.487 167.02 103.487C170.076 103.487 172.56 103.827 172.56 104.248Z" fill="#000000"/>
<path opacity="0.5" d="M161.274 107.726C161.274 107.726 162.554 112.586 164.584 112.262C166.615 111.938 163.137 110.345 161.274 107.726Z" fill="#ffffff"/>
<path d="M175.919 116.728L173.521 110.913H174.38C174.51 110.913 174.635 110.861 174.727 110.769C174.82 110.676 174.871 110.551 174.871 110.421V110.232C174.871 110.102 174.82 109.977 174.727 109.885C174.635 109.792 174.51 109.741 174.38 109.741H159.703C159.572 109.741 159.448 109.792 159.355 109.885C159.263 109.977 159.211 110.102 159.211 110.232V110.421C159.211 110.551 159.263 110.676 159.355 110.769C159.448 110.861 159.572 110.913 159.703 110.913H160.561L158.18 116.739C158.077 116.977 158.266 117.079 158.509 117.177C158.752 117.274 158.952 117.339 159.049 117.101L161.587 110.913H166.566V116.966C166.566 117.225 166.777 117.247 167.041 117.247C167.306 117.247 167.511 117.247 167.511 116.966V110.913H172.495L175.05 117.069C175.147 117.306 175.352 117.247 175.59 117.144C175.827 117.042 176 116.966 175.919 116.728Z" fill="#263238"/>
<path opacity="0.4" d="M175.886 116.728L173.489 110.913H174.342C174.472 110.913 174.597 110.861 174.689 110.769C174.782 110.676 174.833 110.551 174.833 110.421V110.232C174.833 110.102 174.782 109.977 174.689 109.885C174.597 109.792 174.472 109.741 174.342 109.741H159.665C159.534 109.741 159.41 109.792 159.317 109.885C159.225 109.977 159.173 110.102 159.173 110.232V110.421C159.173 110.551 159.225 110.676 159.317 110.769C159.41 110.861 159.534 110.913 159.665 110.913H160.523L158.12 116.718C158.023 116.955 158.212 117.058 158.45 117.155C158.687 117.252 158.898 117.317 158.99 117.079L161.549 110.913H166.528V116.966C166.528 117.225 166.744 117.247 167.003 117.247C167.263 117.247 167.479 117.247 167.479 116.966V110.913H172.463L175.012 117.069C175.114 117.306 175.314 117.247 175.552 117.144C175.789 117.042 176 116.966 175.886 116.728Z" fill="#ffffff"/>
<path d="M105.924 121.293V193.302H104.164L102.598 124.587H100.524V121.293H105.924Z" fill="#069494"/>
<path d="M104.364 193.295H102.684L100.524 121.297H102.744L104.364 193.295Z" fill="#069494"/>
<path opacity="0.3" d="M105.924 121.293V193.302H104.164L102.598 124.587H100.524V121.293H105.924Z" fill="#ffffff"/>
<path d="M211.532 193.295H209.858L207.698 121.297H209.912L211.532 193.295Z" fill="#069494"/>
<path opacity="0.3" d="M211.532 193.295H209.858L207.698 121.297H209.912L211.532 193.295Z" fill="#ffffff"/>
<path d="M184.479 121.297V193.295H186.255L188.345 124.585H209.772L211.338 193.295H213.099V121.297H184.479Z" fill="#069494"/>
<path opacity="0.5" d="M184.479 121.297V193.295H186.255L188.345 124.585H209.772L211.338 193.295H213.099V121.297H184.479Z" fill="#ffffff"/>
<path d="M184.478 193.295H182.799L182.259 121.297H184.478V193.295Z" fill="#069494"/>
<path opacity="0.3" d="M184.478 193.295H182.799L182.259 121.297H184.478V193.295Z" fill="#ffffff"/>
<path d="M100.416 121.293V124.587H81.0627L78.9729 193.302H77.1963V121.293H100.416Z" fill="#069494"/>
<path opacity="0.3" d="M100.416 121.293V124.587H81.0627L78.9729 193.302H77.1963V121.293H100.416Z" fill="#ffffff"/>
<path d="M77.196 193.295H75.5166L74.9766 121.297H77.196V193.295Z" fill="#069494"/>
<path d="M183.096 117.155H72.0446V121.297H183.096V117.155Z" fill="#069494"/>
<path opacity="0.6" d="M183.096 117.155H72.0446V121.297H183.096V117.155Z" fill="#ffffff"/>
<path d="M216.035 117.155H180.514V121.297H216.035V117.155Z" fill="#069494"/>
<path opacity="0.8" d="M216.035 117.155H180.514V121.297H216.035V117.155Z" fill="#ffffff"/>
<path d="M188.733 96.4834H186.989C186.737 96.4834 186.495 96.5835 186.317 96.7618C186.138 96.94 186.038 97.1817 186.038 97.4338C186.041 97.6099 186.093 97.7817 186.188 97.9297C186.284 98.0777 186.419 98.1959 186.578 98.2708V113.618C186.578 113.904 186.692 114.179 186.895 114.381C187.097 114.584 187.372 114.698 187.658 114.698H188.085C188.371 114.698 188.646 114.584 188.848 114.381C189.051 114.179 189.165 113.904 189.165 113.618V98.2816C189.319 98.2029 189.449 98.0831 189.539 97.9354C189.63 97.7877 189.678 97.6178 189.678 97.4446C189.679 97.3193 189.656 97.195 189.609 97.0788C189.562 96.9626 189.493 96.8568 189.405 96.7675C189.317 96.6782 189.213 96.6071 189.097 96.5583C188.982 96.5096 188.858 96.4841 188.733 96.4834Z" fill="#069494"/>
<path opacity="0.6" d="M188.733 96.4834H186.989C186.737 96.4834 186.495 96.5835 186.317 96.7618C186.138 96.94 186.038 97.1817 186.038 97.4338C186.041 97.6099 186.093 97.7817 186.188 97.9297C186.284 98.0777 186.419 98.1959 186.578 98.2708V113.618C186.578 113.904 186.692 114.179 186.895 114.381C187.097 114.584 187.372 114.698 187.658 114.698H188.085C188.371 114.698 188.646 114.584 188.848 114.381C189.051 114.179 189.165 113.904 189.165 113.618V98.2816C189.319 98.2029 189.449 98.0831 189.539 97.9354C189.63 97.7877 189.678 97.6178 189.678 97.4446C189.679 97.3193 189.656 97.195 189.609 97.0788C189.562 96.9626 189.493 96.8568 189.405 96.7675C189.317 96.6782 189.213 96.6071 189.097 96.5583C188.982 96.5096 188.858 96.4841 188.733 96.4834Z" fill="#ffffff"/>
<path d="M186.405 96.6886C187.347 97.02 188.374 97.02 189.316 96.6886C189.149 96.5575 188.944 96.4853 188.733 96.4834H186.988C186.777 96.4853 186.571 96.5575 186.405 96.6886Z" fill="#069494"/>
<path d="M187.88 105.513C187.426 105.513 187.064 105.394 187.053 105.254V113.613C187.055 113.774 187.119 113.929 187.234 114.043C187.348 114.157 187.502 114.222 187.664 114.223H188.09C188.252 114.222 188.406 114.157 188.52 114.043C188.634 113.929 188.699 113.774 188.7 113.613V105.227C188.673 105.367 188.312 105.513 187.88 105.513Z" fill="#069494"/>
<path d="M188.685 105.228C188.685 105.374 188.317 105.492 187.864 105.492C187.41 105.492 187.038 105.374 187.038 105.228C187.038 105.082 187.405 104.963 187.864 104.963C188.323 104.963 188.685 105.082 188.685 105.228Z" fill="#069494"/>
<path opacity="0.3" d="M188.685 105.228C188.685 105.374 188.317 105.492 187.864 105.492C187.41 105.492 187.038 105.374 187.038 105.228C187.038 105.082 187.405 104.963 187.864 104.963C188.323 104.963 188.685 105.082 188.685 105.228Z" fill="#000000"/>
<g opacity="0.8">
<path d="M187.026 98.4015V113.619C187.026 113.683 187.052 113.745 187.098 113.79C187.143 113.836 187.205 113.862 187.269 113.862C187.334 113.862 187.396 113.836 187.441 113.79C187.487 113.745 187.512 113.683 187.512 113.619V98.4015C187.512 98.337 187.487 98.2752 187.441 98.2296C187.396 98.1841 187.334 98.1584 187.269 98.1584C187.205 98.1584 187.143 98.1841 187.098 98.2296C187.052 98.2752 187.026 98.337 187.026 98.4015Z" fill="#ffffff"/>
</g>
<path d="M195.44 96.4834H193.696C193.444 96.4834 193.202 96.5835 193.024 96.7618C192.846 96.94 192.746 97.1817 192.746 97.4338C192.746 97.607 192.794 97.7769 192.884 97.9246C192.975 98.0723 193.104 98.1921 193.259 98.2708V113.618C193.259 113.904 193.372 114.179 193.575 114.381C193.777 114.584 194.052 114.698 194.339 114.698H194.771C195.057 114.698 195.332 114.584 195.534 114.381C195.737 114.179 195.851 113.904 195.851 113.618V98.2816C196.005 98.2029 196.135 98.0831 196.225 97.9354C196.316 97.7877 196.364 97.6178 196.364 97.4446C196.367 97.1953 196.271 96.9548 196.099 96.775C195.926 96.5952 195.689 96.4905 195.44 96.4834Z" fill="#069494"/>
<path opacity="0.6" d="M195.44 96.4834H193.696C193.444 96.4834 193.202 96.5835 193.024 96.7618C192.846 96.94 192.746 97.1817 192.746 97.4338C192.746 97.607 192.794 97.7769 192.884 97.9246C192.975 98.0723 193.104 98.1921 193.259 98.2708V113.618C193.259 113.904 193.372 114.179 193.575 114.381C193.777 114.584 194.052 114.698 194.339 114.698H194.771C195.057 114.698 195.332 114.584 195.534 114.381C195.737 114.179 195.851 113.904 195.851 113.618V98.2816C196.005 98.2029 196.135 98.0831 196.225 97.9354C196.316 97.7877 196.364 97.6178 196.364 97.4446C196.367 97.1953 196.271 96.9548 196.099 96.775C195.926 96.5952 195.689 96.4905 195.44 96.4834Z" fill="#ffffff"/>
<path d="M193.134 96.6886C193.592 96.8897 194.093 96.975 194.592 96.937C195.091 96.9737 195.591 96.8885 196.05 96.6886C195.881 96.5574 195.674 96.4853 195.461 96.4834H193.717C193.505 96.4853 193.3 96.5575 193.134 96.6886Z" fill="#069494"/>
<path d="M194.592 102.519C194.139 102.519 193.777 102.4 193.766 102.26V113.6C193.767 113.761 193.832 113.915 193.946 114.029C194.06 114.144 194.215 114.208 194.376 114.21H194.808C194.888 114.213 194.968 114.2 195.043 114.172C195.119 114.144 195.187 114.101 195.246 114.046C195.305 113.992 195.352 113.926 195.385 113.853C195.419 113.78 195.437 113.701 195.44 113.621V102.281C195.402 102.4 195.04 102.519 194.592 102.519Z" fill="#069494"/>
<path d="M195.44 102.278C195.44 102.424 195.067 102.543 194.614 102.543C194.16 102.543 193.788 102.424 193.788 102.278C193.788 102.132 194.155 102.013 194.614 102.013C195.073 102.013 195.44 102.105 195.44 102.278Z" fill="#069494"/>
<path opacity="0.3" d="M195.44 102.278C195.44 102.424 195.067 102.543 194.614 102.543C194.16 102.543 193.788 102.424 193.788 102.278C193.788 102.132 194.155 102.013 194.614 102.013C195.073 102.013 195.44 102.105 195.44 102.278Z" fill="#000000"/>
<g opacity="0.8">
<path d="M193.755 98.4015V113.619C193.755 113.683 193.781 113.745 193.826 113.79C193.872 113.836 193.934 113.862 193.998 113.862C194.063 113.862 194.124 113.836 194.17 113.79C194.216 113.745 194.241 113.683 194.241 113.619V98.4015C194.241 98.337 194.216 98.2752 194.17 98.2296C194.124 98.1841 194.063 98.1584 193.998 98.1584C193.934 98.1584 193.872 98.1841 193.826 98.2296C193.781 98.2752 193.755 98.337 193.755 98.4015Z" fill="#ffffff"/>
</g>
<path d="M202.19 96.4834H200.451C200.326 96.4827 200.202 96.5068 200.086 96.5542C199.97 96.6016 199.865 96.6715 199.776 96.7599C199.687 96.8482 199.617 96.9532 199.568 97.0689C199.52 97.1845 199.496 97.3085 199.496 97.4338C199.496 97.6071 199.544 97.7769 199.634 97.9246C199.725 98.0723 199.854 98.1922 200.009 98.2708V113.618C200.009 113.904 200.122 114.179 200.325 114.381C200.527 114.584 200.802 114.698 201.089 114.698H201.521C201.807 114.698 202.082 114.584 202.284 114.381C202.487 114.179 202.601 113.904 202.601 113.618V98.2816C202.755 98.203 202.885 98.0831 202.975 97.9354C203.066 97.7877 203.114 97.6179 203.114 97.4446C203.117 97.1953 203.021 96.9548 202.849 96.775C202.676 96.5952 202.439 96.4905 202.19 96.4834Z" fill="#069494"/>
<path opacity="0.6" d="M202.19 96.4834H200.451C200.326 96.4827 200.202 96.5068 200.086 96.5542C199.97 96.6016 199.865 96.6715 199.776 96.7599C199.687 96.8482 199.617 96.9532 199.568 97.0689C199.52 97.1845 199.496 97.3085 199.496 97.4338C199.496 97.6071 199.544 97.7769 199.634 97.9246C199.725 98.0723 199.854 98.1922 200.009 98.2708V113.618C200.009 113.904 200.122 114.179 200.325 114.381C200.527 114.584 200.802 114.698 201.089 114.698H201.521C201.807 114.698 202.082 114.584 202.284 114.381C202.487 114.179 202.601 113.904 202.601 113.618V98.2816C202.755 98.203 202.885 98.0831 202.975 97.9354C203.066 97.7877 203.114 97.6179 203.114 97.4446C203.117 97.1953 203.021 96.9548 202.849 96.775C202.676 96.5952 202.439 96.4905 202.19 96.4834Z" fill="#ffffff"/>
<path d="M199.863 96.6886C200.321 96.8897 200.822 96.975 201.321 96.937C201.82 96.9737 202.32 96.8885 202.779 96.6886C202.61 96.5574 202.403 96.4853 202.19 96.4834H200.451C200.238 96.4845 200.031 96.5567 199.863 96.6886Z" fill="#069494"/>
<path d="M201.321 105.513C200.867 105.513 200.505 105.394 200.495 105.254V113.613C200.496 113.774 200.561 113.929 200.675 114.043C200.789 114.157 200.943 114.222 201.105 114.223H201.537C201.698 114.222 201.851 114.157 201.965 114.043C202.078 113.928 202.142 113.774 202.142 113.613V105.227C202.136 105.367 201.769 105.513 201.321 105.513Z" fill="#069494"/>
<path d="M202.147 105.228C202.147 105.374 201.774 105.492 201.321 105.492C200.867 105.492 200.495 105.374 200.495 105.228C200.495 105.082 200.862 104.963 201.321 104.963C201.78 104.963 202.147 105.082 202.147 105.228Z" fill="#069494"/>
<path opacity="0.3" d="M202.147 105.228C202.147 105.374 201.774 105.492 201.321 105.492C200.867 105.492 200.495 105.374 200.495 105.228C200.495 105.082 200.862 104.963 201.321 104.963C201.78 104.963 202.147 105.082 202.147 105.228Z" fill="#000000"/>
<g opacity="0.8">
<path d="M200.483 98.4015V113.619C200.483 113.683 200.509 113.745 200.554 113.79C200.6 113.836 200.661 113.862 200.726 113.862C200.79 113.862 200.852 113.836 200.898 113.79C200.943 113.745 200.969 113.683 200.969 113.619V98.4015C200.969 98.337 200.943 98.2752 200.898 98.2296C200.852 98.1841 200.79 98.1584 200.726 98.1584C200.661 98.1584 200.6 98.1841 200.554 98.2296C200.509 98.2752 200.483 98.337 200.483 98.4015Z" fill="#ffffff"/>
</g>
<path d="M206.526 100.571C206.669 100.571 206.807 100.515 206.908 100.413C207.009 100.312 207.066 100.175 207.066 100.031V99.4914C207.066 99.3482 207.009 99.2108 206.908 99.1096C206.807 99.0083 206.669 98.9514 206.526 98.9514H176.286C176.143 98.9514 176.006 99.0083 175.904 99.1096C175.803 99.2108 175.746 99.3482 175.746 99.4914V100.031C175.746 100.175 175.803 100.312 175.904 100.413C176.006 100.515 176.143 100.571 176.286 100.571H177.139V115.691H176.286C176.143 115.691 176.006 115.748 175.904 115.85C175.803 115.951 175.746 116.088 175.746 116.231V116.771C175.746 116.915 175.803 117.052 175.904 117.153C176.006 117.255 176.143 117.311 176.286 117.311H206.526C206.669 117.311 206.807 117.255 206.908 117.153C207.009 117.052 207.066 116.915 207.066 116.771V116.231C207.066 116.088 207.009 115.951 206.908 115.85C206.807 115.748 206.669 115.691 206.526 115.691H205.7V100.571H206.526ZM204.296 115.691H178.489V100.571H204.296V115.691Z" fill="#263238"/>
<path opacity="0.4" d="M206.526 100.571C206.669 100.571 206.807 100.515 206.908 100.413C207.009 100.312 207.066 100.175 207.066 100.031V99.4914C207.066 99.3482 207.009 99.2108 206.908 99.1096C206.807 99.0083 206.669 98.9514 206.526 98.9514H176.286C176.143 98.9514 176.006 99.0083 175.904 99.1096C175.803 99.2108 175.746 99.3482 175.746 99.4914V100.031C175.746 100.175 175.803 100.312 175.904 100.413C176.006 100.515 176.143 100.571 176.286 100.571H177.139V115.691H176.286C176.143 115.691 176.006 115.748 175.904 115.85C175.803 115.951 175.746 116.088 175.746 116.231V116.771C175.746 116.915 175.803 117.052 175.904 117.153C176.006 117.255 176.143 117.311 176.286 117.311H206.526C206.669 117.311 206.807 117.255 206.908 117.153C207.009 117.052 207.066 116.915 207.066 116.771V116.231C207.066 116.088 207.009 115.951 206.908 115.85C206.807 115.748 206.669 115.691 206.526 115.691H205.7V100.571H206.526ZM204.296 115.691H178.489V100.571H204.296V115.691Z" fill="#ffffff"/>
<path d="M111 116.616C111 116.643 111 116.671 111 116.698C110.998 116.853 110.934 117.001 110.823 117.111C110.712 117.22 110.562 117.281 110.406 117.281L95.4267 117.097C95.2815 117.094 95.1427 117.037 95.037 116.937C94.9314 116.837 94.8663 116.702 94.8543 116.557C94.8514 116.532 94.8514 116.507 94.8543 116.481C94.8575 116.362 94.8969 116.247 94.9673 116.15C95.0377 116.054 95.1358 115.981 95.2486 115.941C95.3096 115.922 95.3735 115.913 95.4375 115.914L110.417 116.093C110.523 116.089 110.628 116.117 110.718 116.173C110.808 116.229 110.88 116.31 110.925 116.406C110.964 116.47 110.99 116.542 111 116.616Z" fill="#069494"/>
<path d="M109.872 117.284L136.499 117.1C136.576 117.1 136.652 117.085 136.723 117.055C136.795 117.025 136.859 116.982 136.913 116.927C136.967 116.873 137.01 116.808 137.039 116.736C137.068 116.665 137.083 116.588 137.082 116.511C137.079 116.357 137.016 116.209 136.906 116.1C136.796 115.991 136.648 115.93 136.494 115.928L109.866 116.112C109.711 116.115 109.564 116.178 109.455 116.288C109.346 116.398 109.284 116.546 109.283 116.7C109.286 116.855 109.349 117.003 109.459 117.112C109.569 117.221 109.717 117.282 109.872 117.284Z" fill="#069494"/>
<path opacity="0.5" d="M109.872 117.284L136.499 117.1C136.576 117.1 136.652 117.085 136.723 117.055C136.795 117.025 136.859 116.982 136.913 116.927C136.967 116.873 137.01 116.808 137.039 116.736C137.068 116.665 137.083 116.588 137.082 116.511C137.079 116.357 137.016 116.209 136.906 116.1C136.796 115.991 136.648 115.93 136.494 115.928L109.866 116.112C109.711 116.115 109.564 116.178 109.455 116.288C109.346 116.398 109.284 116.546 109.283 116.7C109.286 116.855 109.349 117.003 109.459 117.112C109.569 117.221 109.717 117.282 109.872 117.284Z" fill="#000000"/>
<path d="M138.449 99.349L137.25 114.059C137.209 114.481 137.04 114.88 136.766 115.203C136.492 115.527 136.126 115.758 135.716 115.868C135.583 115.908 135.445 115.931 135.306 115.938H135.236L110.714 116.105H110.66C110.424 116.106 110.191 116.058 109.975 115.963C109.759 115.868 109.566 115.729 109.407 115.554C109.249 115.379 109.129 115.173 109.055 114.949C108.982 114.725 108.956 114.488 108.981 114.253L110.18 99.5434C110.228 99.0389 110.46 98.5697 110.831 98.2244C111.202 97.8792 111.687 97.6818 112.194 97.6696H112.566L136.715 97.4968C136.955 97.4887 137.194 97.532 137.416 97.6239C137.638 97.7157 137.838 97.854 138.002 98.0294C138.166 98.2048 138.291 98.4133 138.368 98.6409C138.445 98.8685 138.473 99.11 138.449 99.349Z" fill="#069494"/>
<path d="M137.589 97.4151L113.068 97.5879C112.905 97.59 112.744 97.6136 112.587 97.6581C112.178 97.7663 111.812 97.9971 111.538 98.3195C111.264 98.6419 111.095 99.0405 111.054 99.4617L109.86 114.177C109.835 114.414 109.86 114.655 109.935 114.881C110.01 115.108 110.133 115.316 110.295 115.492C110.457 115.667 110.655 115.806 110.876 115.899C111.096 115.991 111.333 116.036 111.572 116.029L135.715 115.856H136.088C136.595 115.845 137.081 115.648 137.452 115.303C137.823 114.957 138.055 114.487 138.102 113.982L139.279 99.2727C139.304 99.0369 139.278 98.7987 139.204 98.5735C139.13 98.3483 139.009 98.1413 138.85 97.966C138.69 97.7907 138.495 97.651 138.278 97.556C138.061 97.4611 137.826 97.4131 137.589 97.4151Z" fill="#069494"/>
<path opacity="0.2" d="M137.589 97.4151L113.068 97.5879C112.905 97.59 112.744 97.6136 112.587 97.6581C112.178 97.7663 111.812 97.9971 111.538 98.3195C111.264 98.6419 111.095 99.0405 111.054 99.4617L109.86 114.177C109.835 114.414 109.86 114.655 109.935 114.881C110.01 115.108 110.133 115.316 110.295 115.492C110.457 115.667 110.655 115.806 110.876 115.899C111.096 115.991 111.333 116.036 111.572 116.029L135.715 115.856H136.088C136.595 115.845 137.081 115.648 137.452 115.303C137.823 114.957 138.055 114.487 138.102 113.982L139.279 99.2727C139.304 99.0369 139.278 98.7987 139.204 98.5735C139.13 98.3483 139.009 98.1413 138.85 97.966C138.69 97.7907 138.495 97.651 138.278 97.556C138.061 97.4611 137.826 97.4131 137.589 97.4151Z" fill="#ffffff"/>
<path d="M125.396 107.808C125.396 108.094 125.51 108.369 125.713 108.571C125.915 108.774 126.19 108.888 126.476 108.888C126.649 108.89 126.82 108.849 126.973 108.769C126.87 108.886 126.748 108.985 126.611 109.061C126.388 109.19 126.135 109.258 125.877 109.258C125.619 109.258 125.366 109.19 125.142 109.061C124.919 108.932 124.733 108.747 124.604 108.523C124.475 108.3 124.408 108.047 124.408 107.789C124.408 107.531 124.475 107.278 124.604 107.054C124.733 106.831 124.919 106.646 125.142 106.517C125.366 106.388 125.619 106.32 125.877 106.32C126.135 106.32 126.388 106.388 126.611 106.517C126.783 106.619 126.933 106.753 127.054 106.911H127.011C126.848 106.813 126.661 106.762 126.471 106.766C126.192 106.767 125.924 106.876 125.724 107.07C125.523 107.265 125.406 107.529 125.396 107.808Z" fill="#ffffff"/>
<path d="M78.2325 120.124L78.2055 120.135L78.1785 120.124L78.2055 120.119L78.2325 120.124Z" fill="#f0f0f0"/>
<path d="M143.292 39.4832L142.126 39.1971C140.871 38.936 139.647 38.5414 138.476 38.0199L138.324 37.9443C137.174 37.4043 135.743 36.6968 135.441 34.283C135.442 34.1286 135.388 33.9789 135.289 33.8602C135.191 33.7416 135.053 33.6618 134.901 33.635C124.214 33.095 115.796 27.1875 116.12 20.4105C116.444 13.6335 125.408 8.53045 136.1 9.07045C146.792 9.61045 155.199 15.5181 154.87 22.3005C154.665 26.6205 150.825 30.5031 144.858 32.4255C144.691 32.4903 144.362 32.5767 143.951 32.6901C142.461 33.0788 139.691 33.8133 138.994 35.2605C138.648 35.9733 139.199 36.8805 139.896 37.4205C140.209 37.6311 143.292 39.4832 143.292 39.4832ZM134.571 9.49705C124.814 9.49705 116.881 14.2274 116.584 20.4374C116.265 26.9174 124.484 32.6468 134.895 33.149C135.167 33.175 135.421 33.2988 135.609 33.4974C135.796 33.696 135.906 33.956 135.916 34.229C136.191 36.389 137.439 36.983 138.535 37.5122L138.692 37.5878C139.215 37.8396 139.756 38.0508 140.312 38.2196C140.054 38.0859 139.805 37.9362 139.566 37.7715C138.692 37.1397 138.049 35.9949 138.513 35.0337C139.307 33.4137 142.218 32.6144 143.784 32.204C144.078 32.1346 144.368 32.0499 144.653 31.9502C150.442 30.0926 154.146 26.3828 154.346 22.2302C154.659 15.7178 146.446 10.0155 136.035 9.51325C135.543 9.50785 135.052 9.49705 134.571 9.49705Z" fill="#069494"/>
<path d="M142 19.4402V23.5565H137.56V28H133.443V23.5565H129V19.4402H133.443V15H137.56V19.4402H142Z" fill="#069494"/>
<path d="M105.465 61.8092C106.157 61.3071 106.707 60.3891 106.367 59.6763C105.671 58.2291 102.9 57.5163 101.41 57.1059C100.994 56.9925 100.67 56.9061 100.497 56.8359C94.5304 54.9189 90.6964 51.0417 90.4858 46.7163C90.1618 39.9339 98.5858 33.9992 109.256 33.4862C119.927 32.9732 128.891 38.0709 129.236 44.8263C129.582 51.5817 121.136 57.5379 110.46 58.0509C110.308 58.0776 110.171 58.1574 110.072 58.276C109.973 58.3947 109.919 58.5445 109.92 58.6989C109.613 61.1127 108.182 61.8039 107.031 62.3601L106.88 62.4357C105.711 62.9579 104.489 63.3525 103.235 63.6128L102.02 63.9369C102.02 63.9369 105.104 62.0684 105.465 61.8092ZM109.278 33.9723C98.872 34.4745 90.6586 40.1768 90.9718 46.6892C91.1662 50.8148 94.876 54.5246 100.659 56.3822C100.947 56.4817 101.239 56.5664 101.534 56.636C103.095 57.0464 106.011 57.8187 106.799 59.4657C107.264 60.4269 106.621 61.5716 105.746 62.2034C105.509 62.3681 105.262 62.5178 105.006 62.6516C105.561 62.4811 106.103 62.2699 106.626 62.0198L106.778 61.9443C107.858 61.4042 109.127 60.8102 109.397 58.661C109.407 58.388 109.516 58.128 109.704 57.9294C109.892 57.7308 110.145 57.607 110.417 57.581C120.828 57.0788 129.047 51.3764 128.734 44.864C128.437 38.6594 120.499 33.929 110.747 33.929C110.261 33.9344 109.775 33.9453 109.278 33.9723Z" fill="#069494"/>
<path d="M112.852 55.0794H105.449C105.387 55.0799 105.326 55.0594 105.277 55.0212C105.228 54.9829 105.193 54.9292 105.179 54.8688C105.165 54.81 105.171 54.7482 105.197 54.6934C105.222 54.6385 105.265 54.5938 105.319 54.5664L109.137 52.5684C109.176 52.5457 109.221 52.5337 109.267 52.5337C109.312 52.5337 109.357 52.5457 109.396 52.5684L112.987 54.561C113.059 54.5789 113.12 54.6245 113.158 54.6878C113.196 54.7511 113.208 54.8269 113.19 54.8985C113.172 54.9701 113.126 55.0317 113.063 55.0697C113 55.1076 112.924 55.1189 112.852 55.101V55.0794Z" fill="#069494"/>
<path d="M109.294 52.2139C109.221 52.2139 109.151 52.1849 109.099 52.1333C109.048 52.0816 109.019 52.0116 109.019 51.9385V48.8173C109.031 48.7549 109.065 48.6988 109.114 48.6585C109.163 48.6182 109.225 48.5962 109.289 48.5962C109.352 48.5962 109.414 48.6182 109.463 48.6585C109.512 48.6988 109.546 48.7549 109.559 48.8173V51.9331C109.56 52.0053 109.533 52.0751 109.484 52.1276C109.434 52.1801 109.366 52.2111 109.294 52.2139Z" fill="#069494"/>
<path d="M108.435 53.5038C108.364 53.5166 108.291 53.501 108.232 53.4604C108.172 53.4198 108.131 53.3575 108.117 53.2868C108.102 53.2161 108.117 53.1426 108.156 53.0822C108.195 53.0219 108.257 52.9793 108.327 52.9638C109.375 52.4832 110.865 51.4896 110.736 51.0738C110.736 51.0414 110.579 50.8956 110.093 50.7984C110.057 50.7919 110.023 50.7783 109.992 50.7584C109.961 50.7385 109.935 50.7126 109.914 50.6824C109.894 50.6521 109.879 50.618 109.872 50.5821C109.865 50.5462 109.865 50.5093 109.872 50.4733C109.879 50.4374 109.893 50.4033 109.914 50.373C109.934 50.3427 109.961 50.3167 109.991 50.2967C110.022 50.2767 110.056 50.263 110.092 50.2564C110.128 50.2499 110.165 50.2505 110.201 50.2584C110.801 50.3772 111.168 50.604 111.281 50.9064C111.315 51.0501 111.313 51.1997 111.276 51.3426C111.24 51.4854 111.169 51.6174 111.071 51.7272C110.65 52.214 110.143 52.6187 109.575 52.9206C109.299 53.0826 109.035 53.223 108.878 53.3094C108.5 53.5038 108.5 53.5038 108.435 53.5038Z" fill="#069494"/>
<path d="M108.29 50.5392H108.225C108.003 50.486 107.8 50.3703 107.641 50.2057C107.482 50.0412 107.374 49.8346 107.329 49.6104C107.275 49.227 107.437 48.6384 108.501 48.0174C109.014 47.7287 109.544 47.4708 110.088 47.2452C112.578 46.1652 116.746 44.2806 116.746 41.1756C116.746 39.9714 116.385 39.1128 115.666 38.6322C113.911 37.4442 111.681 39.9066 111.649 39.9174C111.508 39.9768 110.234 38.7726 110.175 38.6322C110.148 38.5648 110.149 38.4896 110.177 38.4229C110.205 38.3562 110.259 38.3033 110.326 38.2758C110.477 38.2164 113.976 36.8286 115.974 38.1732C116.849 38.7672 117.292 39.7932 117.292 41.1756C117.292 44.637 112.918 46.5756 110.304 47.7474C109.785 47.9629 109.278 48.2081 108.787 48.4818C108.166 48.8436 107.836 49.227 107.874 49.5348C107.906 49.6504 107.968 49.7552 108.055 49.838C108.141 49.9207 108.249 49.9783 108.366 50.0046C108.429 50.0228 108.484 50.0631 108.52 50.1182C108.556 50.1732 108.571 50.2394 108.563 50.3047C108.554 50.3701 108.522 50.4302 108.473 50.4742C108.424 50.5182 108.361 50.5432 108.295 50.5446L108.29 50.5392Z" fill="#069494"/>
<path d="M110.396 40.7119C109.586 40.7119 108.987 40.4527 108.852 39.9775C108.82 39.7726 108.846 39.5629 108.927 39.3721C109.008 39.1812 109.141 39.0169 109.311 38.8975C109.809 38.4845 110.391 38.1858 111.017 38.0227C112.14 37.7041 113.209 37.7743 113.668 38.1955C113.776 38.2929 113.854 38.4181 113.895 38.5573C114.095 39.2755 113.166 40.1179 111.735 40.5229C111.299 40.6463 110.849 40.7099 110.396 40.7119Z" fill="#069494"/>
<path d="M109.192 46.7808C107.787 46.7808 106.44 46.2236 105.446 45.2314C104.452 44.2393 103.892 42.8933 103.889 41.4888V41.2134H114.489V41.4888C114.488 42.8928 113.929 44.2388 112.936 45.2311C111.942 46.2234 110.596 46.7808 109.192 46.7808Z" fill="#069494"/>
<path d="M109.828 40.0125C109.423 40.2645 108.96 40.4099 108.484 40.4354C108.007 40.4609 107.531 40.3656 107.101 40.1583C106.931 40.0626 106.749 39.9866 106.561 39.9315C106.372 39.8937 106.21 39.8127 106.102 39.9693C106.181 39.8534 106.297 39.7688 106.431 39.7303C106.566 39.6918 106.709 39.7018 106.837 39.7587C106.691 39.5859 106.551 39.4455 106.335 39.5103C106.799 39.3267 106.923 39.3591 107.296 39.6939C108.176 40.4823 109.126 40.0449 109.251 39.7911C109.472 39.8991 109.623 39.9099 109.828 40.0125Z" fill="#069494"/>
</svg>