<svg xmlns="http://www.w3.org/2000/svg" width="274" height="204" viewBox="0 0 274 204" fill="none">
    <path d="M136.89 204.001C78.2557 204.001 30.7229 201.226 30.7229 197.803C30.7229 194.38 78.2557 191.604 136.89 191.604C195.525 191.604 243.058 194.38 243.058 197.803C243.058 201.226 195.525 204.001 136.89 204.001Z" fill="#F5F5F5"/>
    <path d="M87.221 159.463C77.6406 159.463 69.8742 151.696 69.8742 142.116C69.8742 132.536 77.6406 124.769 87.221 124.769C96.8014 124.769 104.568 132.536 104.568 142.116C104.568 151.696 96.8014 159.463 87.221 159.463Z" fill="white"/>
    <path d="M87.2212 159.676C90.6946 159.677 94.0902 158.648 96.9788 156.719C99.8673 154.79 102.119 152.048 103.449 148.839C104.779 145.631 105.127 142.1 104.45 138.693C103.773 135.286 102.101 132.157 99.6457 129.7C97.1901 127.244 94.0611 125.571 90.6546 124.893C87.248 124.215 83.717 124.562 80.5079 125.891C77.2988 127.22 74.5559 129.471 72.6261 132.359C70.6963 135.247 69.6663 138.642 69.6663 142.116C69.6706 146.771 71.5214 151.234 74.8125 154.526C78.1036 157.818 82.5662 159.67 87.2212 159.676ZM87.2212 124.988C90.6101 124.988 93.9229 125.993 96.7405 127.876C99.5582 129.758 101.754 132.435 103.051 135.566C104.347 138.697 104.686 142.142 104.025 145.466C103.363 148.789 101.731 151.842 99.3344 154.238C96.9377 156.634 93.8843 158.265 90.5604 158.926C87.2365 159.586 83.7914 159.246 80.6608 157.949C77.5302 156.651 74.8547 154.454 72.9727 151.636C71.0908 148.818 70.0868 145.504 70.0879 142.116C70.0923 137.573 71.8989 133.219 75.1113 130.007C78.3236 126.796 82.679 124.991 87.2212 124.988Z" fill="#069494"/>
    <path d="M84.4285 132.282H90.0137V151.951H84.4285V132.282Z" fill="#069494"/>
    <path d="M77.3877 144.915V139.33H97.0562V144.915H77.3877Z" fill="#069494"/>
    <path d="M204.728 10.9883L205.101 10.5886C202.566 8.19247 199.35 6.64267 195.896 6.15332L195.819 6.70089C199.162 7.17223 202.275 8.67045 204.728 10.9883Z" fill="#069494"/>
    <path d="M208.78 16.971L209.289 16.7739C208.736 15.379 208 14.0641 207.099 12.8643L206.661 13.1928C207.53 14.354 208.242 15.6242 208.78 16.971Z" fill="#069494"/>
    <path d="M193.503 37.9522C185.205 37.9522 178.478 31.2252 178.478 22.927C178.478 14.6289 185.205 7.90186 193.503 7.90186C201.801 7.90186 208.528 14.6289 208.528 22.927C208.528 31.2252 201.801 37.9522 193.503 37.9522Z" fill="#069494"/>
    <path d="M184.528 16.1546C185.107 15.5539 185.799 15.0745 186.565 14.7446C187.332 14.4147 188.156 14.2408 188.99 14.2332C189.824 14.2255 190.651 14.3842 191.423 14.7001C192.195 15.0159 192.897 15.4824 193.486 16.0725C194.075 15.4826 194.776 15.0161 195.548 14.7004C196.319 14.3847 197.146 14.226 197.98 14.2336C198.813 14.2413 199.637 14.4151 200.403 14.7449C201.168 15.0748 201.861 15.554 202.439 16.1546C203.572 17.3803 204.182 18.9996 204.141 20.6683C204.099 22.337 203.408 23.9236 202.214 25.0909L195.096 32.2092C194.882 32.4228 194.629 32.5922 194.35 32.7078C194.071 32.8234 193.772 32.8829 193.47 32.8829C193.168 32.8829 192.869 32.8234 192.59 32.7078C192.311 32.5922 192.057 32.4228 191.843 32.2092L184.725 25.0909C183.536 23.92 182.85 22.3314 182.813 20.6627C182.776 18.9941 183.391 17.3768 184.528 16.1546Z" fill="white"/>
    <path d="M193.504 29.4911C193.614 29.4873 193.721 29.4503 193.81 29.3848C193.899 29.3193 193.966 29.2285 194.002 29.1242L197.172 19.8539L198.497 23.7307C198.535 23.8384 198.605 23.9317 198.699 23.9975C198.792 24.0633 198.904 24.0983 199.018 24.0976H204.324C204.469 24.0976 204.608 24.0399 204.711 23.9372C204.813 23.8345 204.871 23.6952 204.871 23.55C204.871 23.4048 204.813 23.2655 204.711 23.1628C204.608 23.0601 204.469 23.0024 204.324 23.0024H199.395L197.676 17.9813C197.639 17.8737 197.569 17.7804 197.476 17.7143C197.384 17.6483 197.272 17.6128 197.159 17.6128C197.045 17.6128 196.934 17.6483 196.841 17.7143C196.748 17.7804 196.678 17.8737 196.641 17.9813L193.416 27.4158L190.284 20.0401C190.244 19.9461 190.179 19.865 190.096 19.806C190.013 19.747 189.915 19.7124 189.813 19.7061C189.711 19.7002 189.608 19.7233 189.518 19.7726C189.428 19.822 189.354 19.8957 189.304 19.9854L187.65 22.997H182.662C182.517 22.997 182.377 23.0547 182.275 23.1573C182.172 23.26 182.114 23.3993 182.114 23.5445C182.114 23.6897 182.172 23.829 182.275 23.9317C182.377 24.0344 182.517 24.0921 182.662 24.0921H187.968C188.066 24.0929 188.162 24.0674 188.247 24.0183C188.332 23.9692 188.402 23.8982 188.45 23.8128L189.747 21.4912L193 29.1571C193.042 29.256 193.112 29.3405 193.202 29.3999C193.291 29.4593 193.396 29.491 193.504 29.4911Z" fill="#069494"/>
    <path d="M110.138 178.613H167.287C168.219 178.623 169.142 178.439 169.998 178.074C170.855 177.708 171.626 177.168 172.262 176.488C172.899 175.808 173.387 175.004 173.696 174.125C174.004 173.246 174.127 172.313 174.055 171.385L164.818 34.4935C164.657 32.5385 163.774 30.7133 162.342 29.3725C160.91 28.0316 159.031 27.271 157.07 27.2382H99.9096C98.9759 27.2276 98.0503 27.4118 97.1918 27.7792C96.3334 28.1465 95.561 28.6889 94.924 29.3718C94.2871 30.0546 93.7996 30.8627 93.4927 31.7446C93.1858 32.6265 93.0663 33.5628 93.1417 34.4935L102.396 171.385C102.562 173.334 103.446 175.153 104.876 176.488C106.307 177.823 108.182 178.58 110.138 178.613Z" fill="#263238"/>
    <path d="M97.4663 82.9864H98.9064C99.1671 82.9895 99.4257 82.9382 99.6654 82.8357C99.9052 82.7331 100.121 82.5817 100.299 82.3909C100.477 82.2002 100.613 81.9744 100.698 81.7281C100.784 81.4818 100.817 81.2203 100.795 80.9604L99.0268 54.7922C98.9857 54.245 98.7406 53.7331 98.3401 53.3579C97.9395 52.9827 97.4127 52.7716 96.8639 52.7663H95.4238C95.1631 52.7631 94.9046 52.8144 94.6648 52.917C94.425 53.0195 94.2093 53.171 94.0315 53.3617C93.8537 53.5524 93.7176 53.7782 93.6321 54.0245C93.5465 54.2709 93.5134 54.5324 93.5348 54.7922L95.3034 80.9604C95.3445 81.5076 95.5896 82.0195 95.9901 82.3947C96.3907 82.7699 96.9175 82.981 97.4663 82.9864Z" fill="#263238"/>
    <path d="M165.65 65.5342H167.084C167.296 65.5371 167.507 65.4958 167.702 65.413C167.898 65.3302 168.074 65.2077 168.22 65.0533C168.365 64.8988 168.477 64.7158 168.549 64.5159C168.62 64.3159 168.649 64.1033 168.634 63.8915L167.993 54.4406C167.953 53.9969 167.75 53.5838 167.423 53.2806C167.097 52.9774 166.67 52.8055 166.224 52.7979H164.784C164.573 52.7966 164.363 52.8391 164.169 52.9225C163.974 53.0059 163.799 53.1285 163.654 53.2827C163.509 53.4368 163.398 53.6192 163.327 53.8185C163.255 54.0177 163.226 54.2295 163.24 54.4406L163.881 63.8915C163.92 64.3357 164.123 64.7495 164.449 65.0529C164.776 65.3563 165.204 65.5278 165.65 65.5342Z" fill="#069494"/>
    <path d="M166.789 82.4053H168.229C168.441 82.4074 168.651 82.3655 168.846 82.2824C169.041 82.1993 169.216 82.0766 169.361 81.9223C169.506 81.768 169.618 81.5852 169.689 81.3856C169.76 81.186 169.789 80.9739 169.773 80.7626L169.133 71.3117C169.092 70.868 168.889 70.4549 168.563 70.1517C168.237 69.8485 167.81 69.6766 167.364 69.669H165.913C165.702 69.6677 165.492 69.7101 165.297 69.7936C165.103 69.877 164.928 69.9996 164.783 70.1538C164.638 70.3079 164.527 70.4903 164.455 70.6895C164.384 70.8888 164.355 71.1006 164.369 71.3117L165.01 80.7626C165.049 81.2086 165.253 81.6239 165.582 81.9276C165.911 82.2313 166.341 82.4016 166.789 82.4053Z" fill="#069494"/>
    <path d="M111.347 178.617H168.496C169.428 178.628 170.351 178.444 171.207 178.079C172.064 177.713 172.835 177.173 173.471 176.493C174.108 175.813 174.596 175.009 174.905 174.13C175.213 173.251 175.336 172.318 175.264 171.39L166.021 34.4984C165.854 32.5427 164.966 30.719 163.529 29.3821C162.092 28.0452 160.209 27.2906 158.246 27.2651H101.119C100.187 27.2547 99.2632 27.4383 98.4064 27.8044C97.5495 28.1704 96.7783 28.7108 96.1416 29.3912C95.505 30.0716 95.017 30.8771 94.7087 31.7563C94.4004 32.6356 94.2785 33.5694 94.3507 34.4984L103.599 171.39C103.766 173.34 104.65 175.159 106.082 176.495C107.513 177.83 109.39 178.587 111.347 178.617Z" fill="#069494"/>
    <path opacity="0.3" d="M174.663 169.853L165.639 36.2695H94.9705L103.994 169.853H174.663Z" fill="white"/>
    <path opacity="0.1" d="M146.764 169.853L121.543 36.2695H105.713L130.934 169.853H146.764Z" fill="white"/>
    <path opacity="0.1" d="M158.723 169.853L133.502 36.2695H125.48L150.701 169.853H158.723Z" fill="white"/>
    <path d="M136.815 30.6173H123.032C122.917 30.6153 122.803 30.6376 122.697 30.6825C122.591 30.7275 122.496 30.7942 122.418 30.8784C122.339 30.9625 122.279 31.0622 122.242 31.171C122.204 31.2798 122.19 31.3952 122.2 31.5098C122.219 31.7511 122.327 31.9767 122.503 32.1426C122.679 32.3086 122.911 32.4032 123.153 32.4078H136.935C137.05 32.409 137.165 32.3861 137.271 32.3405C137.377 32.2949 137.472 32.2277 137.55 32.1431C137.628 32.0585 137.688 31.9585 137.726 31.8495C137.763 31.7404 137.777 31.6247 137.767 31.5098C137.748 31.2691 137.64 31.0442 137.464 30.8791C137.288 30.714 137.056 30.6206 136.815 30.6173Z" fill="white"/>
    <path d="M139.685 191.785L144.515 192.245L146.256 181.102L141.426 180.636L139.685 191.785Z" fill="#FFB573"/>
    <path d="M145.067 189.885L140.007 188.313C139.92 188.283 139.825 188.288 139.741 188.326C139.657 188.365 139.592 188.435 139.558 188.521L137.916 192.535C137.875 192.642 137.857 192.757 137.863 192.872C137.868 192.987 137.898 193.1 137.949 193.203C138.001 193.305 138.073 193.397 138.162 193.47C138.25 193.544 138.353 193.598 138.463 193.63C140.292 194.178 142.033 194.304 144.24 195.273C146.819 196.368 147.898 197.835 150.674 197.835C152.662 197.835 153.111 196.012 152.267 195.76C148.434 194.599 148.938 193.646 146.157 190.651C145.867 190.304 145.491 190.04 145.067 189.885Z" fill="#263238"/>
    <path opacity="0.2" d="M146.256 181.102L145.358 186.851L140.523 186.386L141.421 180.636L146.256 181.102Z" fill="black"/>
    <path d="M142.762 40.2982C149.098 39.5535 155.4 40.0518 161.724 41.2783C162.778 41.4829 163.74 42.0177 164.469 42.8053C165.199 43.5929 165.658 44.5924 165.782 45.6588C166.466 51.7149 167.249 65.289 164.194 85.538L138.305 83.3477C138.256 79.6736 140.868 62.9345 138.71 45.5657C138.622 44.9526 138.657 44.328 138.814 43.7288C138.971 43.1296 139.247 42.5679 139.625 42.0769C140.002 41.5859 140.475 41.1756 141.013 40.87C141.552 40.5645 142.147 40.3701 142.762 40.2982Z" fill="white"/>
    <path d="M157.836 45.4902L156.911 47.341C156.867 47.4344 156.799 47.5137 156.713 47.5699C156.626 47.626 156.526 47.6568 156.423 47.6586L155.421 47.7133C155.242 47.7211 155.066 47.6669 154.923 47.56L153.198 46.2732L155.328 44.7236L157.836 45.4902Z" fill="#263238"/>
    <path d="M155.389 47.1846C155.754 47.0154 156.168 46.9824 156.555 47.0915C157.371 49.9662 158.263 58.218 158.356 61.8758C155.881 69.0872 155.071 69.8155 155.071 69.8155L153.817 61.1365C153.817 61.1365 155.224 52.2605 155.389 47.1846Z" fill="#263238"/>
    <path d="M148.242 27.8154C148.833 31.3856 149.337 37.9071 146.774 40.2123C148.653 42.1835 151.111 44.4669 155.327 44.7242C159.544 44.9816 158.892 42.0631 157.824 40.5025C153.887 39.4512 154.079 36.5162 154.851 33.7729L148.242 27.8154Z" fill="#FFB573"/>
    <path d="M145.702 39.8983C146 39.7695 146.31 39.6687 146.627 39.5972C146.705 39.5766 146.787 39.5821 146.861 39.6128C146.935 39.6434 146.998 39.6976 147.038 39.7669C147.443 40.4568 148.681 43.5396 155.328 44.7224C154.233 45.3685 152.782 47.3726 152.158 48.3363C150.165 47.3014 144.979 44.2077 145.472 40.205C145.482 40.1388 145.508 40.0762 145.548 40.0227C145.589 39.9692 145.641 39.9265 145.702 39.8983Z" fill="#F5F5F5"/>
    <path d="M157.787 40.6671C157.773 40.6048 157.774 40.54 157.792 40.4785C157.809 40.4171 157.842 40.361 157.886 40.3153C157.931 40.2696 157.986 40.2357 158.047 40.2168C158.108 40.198 158.173 40.1946 158.236 40.2071C158.466 40.2518 158.693 40.3122 158.915 40.3878C158.966 40.4079 159.014 40.4356 159.057 40.47C159.566 40.9409 162.342 44.949 159.742 48.1906C159.194 47.309 157.305 45.3104 155.328 44.7245C157.201 43.8813 158.121 42.3098 157.787 40.6671Z" fill="#F5F5F5"/>
    <path opacity="0.2" d="M150.936 30.2485L154.846 33.7749C154.657 34.4118 154.525 35.0641 154.451 35.7242C152.94 35.4668 150.909 33.753 150.799 32.165C150.725 31.5232 150.772 30.8733 150.936 30.2485Z" fill="black"/>
    <path d="M156.161 17.0219C159.534 18.3415 159.753 21.1122 159.446 24.1402C159.139 27.1683 155.843 25.1642 155.109 23.2696C154.376 21.375 151.49 15.193 156.161 17.0219Z" fill="#263238"/>
    <path d="M145.401 23.0612C146.337 27.8305 146.649 30.6614 149.376 32.8572C153.488 36.1425 159.057 33.3062 159.55 28.389C159.993 23.9592 158.389 16.8902 153.477 15.5103C152.406 15.1949 151.271 15.1645 150.185 15.422C149.098 15.6795 148.098 16.2161 147.282 16.9787C146.466 17.7412 145.864 18.7034 145.534 19.7702C145.204 20.8369 145.158 21.9713 145.401 23.0612Z" fill="#FFB573"/>
    <path d="M145.597 27.0106C149.611 27.2241 148.762 24.9463 148.034 23.6376C147.306 22.3289 148.789 20.166 147.82 19.0435C149.551 19.7334 151.374 19.164 153.69 17.5541C155.486 16.3002 157.737 21.3104 159.927 18.7971C161.997 16.4261 160.075 12.8505 155.103 12.2756C150.131 11.7007 149.227 15.216 145.964 14.9039C142.7 14.5918 143.834 17.2803 144.475 17.8279C141.737 18.0086 140.242 20.626 145.597 27.0106Z" fill="#263238"/>
    <path d="M145.104 18.1601C144.477 17.8156 143.952 17.3097 143.585 16.6945C143.218 16.0793 143.023 15.3773 143.018 14.6611C141.934 16.5612 142.049 18.7186 145.104 18.1601Z" fill="#263238"/>
    <path d="M155.509 28.1536C155.073 28.2291 154.626 28.2156 154.195 28.114C153.764 28.0124 153.358 27.8247 153.001 27.5622C152.99 27.552 152.982 27.5396 152.976 27.526C152.97 27.5123 152.967 27.4976 152.967 27.4828C152.967 27.4679 152.97 27.4532 152.976 27.4396C152.982 27.4259 152.99 27.4136 153.001 27.4034C153.023 27.383 153.051 27.3716 153.081 27.3716C153.11 27.3716 153.139 27.383 153.16 27.4034C153.559 27.6865 154.019 27.8729 154.503 27.9479C154.986 28.023 155.481 27.9847 155.947 27.836C155.977 27.8286 156.008 27.8323 156.035 27.8464C156.063 27.8605 156.084 27.884 156.095 27.9126C156.103 27.9417 156.1 27.9729 156.086 27.9996C156.072 28.0262 156.047 28.0461 156.018 28.055C155.852 28.103 155.681 28.136 155.509 28.1536Z" fill="#263238"/>
    <path d="M144.432 28.4732C145.182 29.4394 146.281 30.0726 147.493 30.2364C149.086 30.4445 149.617 28.9606 148.949 27.5752C148.342 26.3268 146.759 24.7169 145.292 25.1495C143.824 25.5821 143.512 27.2686 144.432 28.4732Z" fill="#FFB573"/>
    <path d="M146.014 132.162C145.822 117.866 143.994 83.8125 143.994 83.8125L164.177 85.5154C164.177 85.5154 160.163 120.609 157.743 135.196C155.224 150.358 147.498 185.879 147.498 185.879L139.284 185.178C139.284 185.178 142.285 143.218 146.014 132.162Z" fill="#263238"/>
    <path d="M147.991 186.103L138.25 185.276L138.633 182.133L148.785 182.812L147.991 186.103Z" fill="#069494"/>
    <path d="M152.595 23.3488C152.645 23.7376 152.897 24.0333 153.143 24.0059C153.389 23.9785 153.559 23.639 153.504 23.2448C153.45 22.8506 153.203 22.5603 152.957 22.5877C152.71 22.6151 152.541 22.9601 152.595 23.3488Z" fill="#263238"/>
    <path d="M157.064 22.9957C157.113 23.3899 157.365 23.6801 157.612 23.6528C157.858 23.6254 158.028 23.2859 157.973 22.8971C157.918 22.5083 157.672 22.2127 157.426 22.24C157.179 22.2674 157.009 22.585 157.064 22.9957Z" fill="#263238"/>
    <path d="M155.804 23.4575C156.463 24.4708 157.255 25.3915 158.158 26.1953C157.578 26.8031 156.379 26.6389 156.379 26.6389L155.804 23.4575Z" fill="#ED893E"/>
    <path opacity="0.4" d="M159.889 23.0938C159.971 23.718 159.342 24.2382 158.471 24.3477C157.6 24.4572 156.796 23.9808 156.719 23.3566" fill="#069494"/>
    <path opacity="0.4" d="M154.714 23.6768C154.835 24.2955 154.227 24.854 153.373 25.0183C152.519 25.1826 151.681 24.7445 151.566 24.1312" fill="#069494"/>
    <path d="M153.034 25.1867C153.132 25.1921 153.231 25.1921 153.329 25.1867C153.75 25.1364 154.146 24.9587 154.463 24.6775C154.601 24.5592 154.709 24.4095 154.778 24.2408C154.846 24.0722 154.874 23.8896 154.857 23.7083C155.135 23.5873 155.431 23.5133 155.733 23.4893C156.037 23.4134 156.355 23.4134 156.659 23.4893C156.735 24.1573 157.567 24.6172 158.498 24.5022C158.919 24.4562 159.316 24.2802 159.632 23.9985C159.769 23.8796 159.877 23.7298 159.946 23.5613C160.014 23.3929 160.042 23.2105 160.026 23.0293L159.763 23.0622C159.774 23.2022 159.752 23.3428 159.697 23.4723C159.643 23.6019 159.559 23.7166 159.451 23.8068C159.175 24.0496 158.831 24.2008 158.465 24.2394C157.677 24.3435 156.976 23.9766 156.905 23.429C156.867 23.1224 156.231 23.1443 155.706 23.21C155.18 23.2757 154.556 23.4235 154.611 23.7247C154.622 23.8648 154.6 24.0055 154.545 24.1352C154.491 24.2648 154.406 24.3794 154.298 24.4694C154.019 24.7089 153.676 24.8615 153.311 24.9082C152.946 24.9549 152.576 24.8937 152.245 24.7322C152.118 24.6729 152.006 24.5836 151.92 24.4721C151.835 24.3606 151.777 24.2301 151.752 24.0916V23.9602L144.995 24.8308L145.028 25.0936L151.533 24.2558C151.581 24.4083 151.658 24.5495 151.762 24.6709C151.865 24.7923 151.993 24.8914 152.136 24.9622C152.412 25.1087 152.721 25.1857 153.034 25.1867Z" fill="#263238"/>
    <path d="M150.877 21.6266C150.838 21.6267 150.8 21.6153 150.767 21.5937C150.714 21.5628 150.675 21.5122 150.658 21.4528C150.642 21.3934 150.65 21.33 150.679 21.2761C150.849 20.9577 151.095 20.6861 151.395 20.4855C151.695 20.2848 152.04 20.1615 152.399 20.1263C152.46 20.1232 152.521 20.1445 152.567 20.1855C152.613 20.2264 152.641 20.2838 152.645 20.3453C152.648 20.4054 152.628 20.4643 152.588 20.5093C152.548 20.5544 152.492 20.582 152.432 20.5862C152.147 20.6196 151.876 20.7218 151.64 20.884C151.404 21.0462 151.212 21.2635 151.079 21.5171C151.058 21.5519 151.029 21.5805 150.993 21.5998C150.957 21.6191 150.917 21.6283 150.877 21.6266Z" fill="#263238"/>
    <path d="M158.509 21.0071C158.471 21.0108 158.433 21.0053 158.398 20.991C158.363 20.9767 158.331 20.954 158.307 20.925C158.13 20.6931 157.901 20.506 157.638 20.3785C157.376 20.2511 157.087 20.187 156.795 20.1912C156.765 20.1942 156.735 20.1912 156.706 20.1824C156.677 20.1736 156.65 20.159 156.626 20.1397C156.603 20.1203 156.583 20.0966 156.569 20.0697C156.555 20.0428 156.546 20.0134 156.544 19.9832C156.54 19.9536 156.542 19.9237 156.55 19.895C156.558 19.8662 156.571 19.8394 156.589 19.816C156.608 19.7925 156.631 19.773 156.657 19.7584C156.683 19.7439 156.711 19.7347 156.741 19.7313C157.109 19.7216 157.473 19.7984 157.806 19.9553C158.139 20.1122 158.431 20.3449 158.657 20.6348C158.696 20.6813 158.715 20.7414 158.71 20.8019C158.705 20.8625 158.676 20.9185 158.63 20.9578C158.594 20.9835 158.553 21.0004 158.509 21.0071Z" fill="#263238"/>
    <path d="M129.198 129.858C133.387 108.328 134.329 91.4901 138.304 83.3149L157.857 85.5052C157.857 85.5052 146.211 117.587 140.522 131.282C134.613 145.518 122.95 169.841 122.95 169.841H113.182C113.182 169.841 122.299 139.665 129.198 129.858Z" fill="#263238"/>
    <path d="M191.177 48.3568L193.291 47.0207C193.634 46.7997 194.043 46.7045 194.448 46.7514C194.854 46.7984 195.23 46.9845 195.514 47.278L196.948 48.7893C197.103 48.9524 197.222 49.1455 197.299 49.3566C197.376 49.5677 197.409 49.7923 197.396 50.0166C197.382 50.2409 197.323 50.46 197.222 50.6605C197.12 50.861 196.979 51.0386 196.806 51.1822L195.782 52.0583C194.891 52.813 193.852 53.3726 192.732 53.701L189.638 54.6154L187.607 52.4252C186.988 50.1418 191.177 48.3568 191.177 48.3568Z" fill="#FFB573"/>
    <path d="M159.889 47.3333C160.656 49.2059 161.406 50.9472 162.222 52.7268C163.038 54.5063 163.864 56.264 164.779 58.0108C165.693 59.7575 166.668 61.4933 167.774 63.2345C168.322 64.0997 168.929 64.9648 169.619 65.8355C170.361 66.7954 171.206 67.6713 172.138 68.4474C172.754 68.9506 173.433 69.3703 174.159 69.6958C174.389 69.7834 174.602 69.871 174.854 69.9477L175.237 70.0517C175.43 70.0991 175.626 70.1338 175.823 70.1558C176.491 70.2309 177.166 70.1827 177.816 70.0134C178.629 69.7859 179.401 69.433 180.105 68.9675C180.632 68.6386 181.136 68.2726 181.611 67.8724C183.191 66.4927 184.648 64.9775 185.964 63.344C187.24 61.8109 188.445 60.2722 189.6 58.7007C190.755 57.1292 191.867 55.5851 193.006 53.9369L186.95 50.0273C185.039 53.1123 182.924 56.0666 180.62 58.8704C179.561 60.1692 178.394 61.3763 177.132 62.4789C176.887 62.6789 176.63 62.8619 176.36 63.0265C176.157 63.1634 175.955 63.2181 176.097 63.1688C176.29 63.1159 176.491 63.1047 176.688 63.136C176.768 63.1433 176.847 63.158 176.924 63.1798H176.968C176.995 63.1798 176.995 63.1798 177.001 63.1798C176.876 63.0984 176.757 63.0088 176.645 62.9115C176.145 62.4578 175.692 61.9552 175.292 61.4111C174.827 60.7869 174.361 60.086 173.918 59.3578C173.011 57.8436 172.185 56.2827 171.443 54.6816C170.676 53.0389 169.937 51.3962 169.253 49.6878C168.568 47.9794 167.916 46.2436 167.363 44.5845L159.889 47.3333Z" fill="#069494"/>
    <g opacity="0.6">
    <path d="M159.889 47.3264C160.656 49.1991 161.406 50.9403 162.222 52.7199C163.038 54.4995 163.864 56.2572 164.779 58.0039C165.693 59.7507 166.668 61.4864 167.774 63.2277C168.322 64.0928 168.929 64.958 169.619 65.8286C170.361 66.7886 171.206 67.6645 172.138 68.4405C172.754 68.9437 173.433 69.3635 174.159 69.689C174.389 69.7766 174.602 69.8642 174.854 69.9408L175.237 70.0449C175.43 70.0922 175.626 70.127 175.823 70.1489C176.491 70.2241 177.166 70.1759 177.816 70.0066C178.629 69.7791 179.401 69.4262 180.105 68.9607C180.632 68.6317 181.136 68.2658 181.611 67.8656C183.191 66.4859 184.648 64.9707 185.964 63.3372C187.24 61.804 188.445 60.2654 189.6 58.6939C190.755 57.1223 191.867 55.5782 193.006 53.93L186.95 50.0204C185.039 53.1055 182.924 56.0598 180.62 58.8636C179.561 60.1623 178.394 61.3694 177.132 62.4721C176.887 62.6721 176.63 62.8551 176.36 63.0196C176.157 63.1565 175.955 63.2113 176.097 63.162C176.29 63.109 176.491 63.0978 176.688 63.1291C176.768 63.1365 176.847 63.1511 176.924 63.1729H176.968C176.995 63.1729 176.995 63.1729 177.001 63.1729C176.876 63.0916 176.757 63.002 176.645 62.9046C176.145 62.451 175.692 61.9483 175.292 61.4043C174.827 60.7801 174.361 60.0792 173.918 59.3509C173.011 57.8368 172.185 56.2759 171.443 54.6747C170.676 53.032 169.937 51.3893 169.253 49.6809C168.568 47.9725 167.916 46.2368 167.363 44.5776L159.889 47.3264Z" fill="white"/>
    </g>
    <path d="M145.553 38.9279C147.607 42.7609 154.917 57.3644 155.804 66.3773C159.04 58.1639 158.334 39.9957 158.334 39.9957C160.64 40.2205 162.902 40.7736 165.052 41.6384C165.745 41.923 166.346 42.394 166.787 42.999C167.229 43.604 167.495 44.3195 167.555 45.0661C168.185 54.4669 167.888 63.9068 166.668 73.2493C164.395 90.9356 162.287 118.44 162.287 118.44C162.287 118.44 144.19 117.684 130.227 114.738C131.93 101.219 137.756 78.5607 137.811 72.4936C137.877 64.6854 137.696 49.4193 137.449 43.0456C137.408 42.1457 137.69 41.2608 138.244 40.5508C138.799 39.8407 139.589 39.3525 140.472 39.1743C142.147 38.8639 143.856 38.781 145.553 38.9279Z" fill="#069494"/>
    <path opacity="0.7" d="M145.553 38.9236C147.607 42.7565 154.917 57.3601 155.804 66.373C159.04 58.1595 158.334 39.9913 158.334 39.9913C160.64 40.2161 162.902 40.7693 165.052 41.634C165.745 41.9187 166.346 42.3896 166.787 42.9946C167.229 43.5996 167.495 44.3151 167.555 45.0618C168.185 54.4625 167.888 63.9025 166.668 73.2449C164.395 90.9313 162.287 118.435 162.287 118.435C162.287 118.435 144.19 117.68 130.227 114.734C131.93 101.215 137.756 78.5563 137.811 72.4893C137.877 64.681 137.696 49.4094 137.449 43.0358C137.398 42.1633 137.655 41.3005 138.177 40.5994C138.699 39.8982 139.452 39.4037 140.302 39.2028C142.031 38.864 143.799 38.77 145.553 38.9236Z" fill="white"/>
    <path d="M149.819 115.5C152.962 98.1591 155.454 72.7137 155.656 69.6528H155.377C155.174 72.7137 152.677 98.1262 149.54 115.468L149.819 115.5Z" fill="white"/>
    <path d="M151.386 84.6532H168.076C168.413 84.638 168.736 84.514 168.997 84.2998C169.257 84.0856 169.441 83.7927 169.522 83.465L175.101 57.5268C175.142 57.3852 175.149 57.236 175.121 57.0913C175.093 56.9466 175.03 56.8107 174.94 56.6947C174.849 56.5787 174.732 56.4859 174.598 56.424C174.464 56.3621 174.318 56.3328 174.17 56.3386H157.486C157.148 56.3526 156.824 56.4761 156.562 56.6904C156.3 56.9047 156.115 57.1983 156.035 57.5268L150.455 83.465C150.414 83.6066 150.408 83.7558 150.436 83.9005C150.464 84.0452 150.526 84.1811 150.617 84.2971C150.708 84.4131 150.825 84.5059 150.959 84.5678C151.092 84.6297 151.239 84.659 151.386 84.6532Z" fill="white"/>
    <path d="M151.905 84.8728H168.88C169.223 84.8568 169.552 84.7304 169.817 84.5123C170.082 84.2942 170.27 83.9962 170.353 83.6627L176.031 57.2865C176.071 57.1419 176.077 56.9898 176.048 56.8426C176.019 56.6953 175.955 56.557 175.862 56.4391C175.769 56.3211 175.65 56.2267 175.514 56.1637C175.377 56.1007 175.228 56.0707 175.078 56.0763H158.104C157.76 56.0923 157.432 56.2188 157.166 56.4368C156.901 56.6549 156.713 56.9529 156.631 57.2865L150.958 83.6627C150.916 83.8068 150.909 83.9588 150.938 84.1062C150.966 84.2535 151.029 84.392 151.122 84.5101C151.214 84.6283 151.334 84.7228 151.47 84.7859C151.606 84.8489 151.755 84.8787 151.905 84.8728Z" fill="#069494"/>
    <path d="M149.962 69.99L154.184 69.8312C154.691 69.8138 155.197 69.9033 155.667 70.0941L157.858 70.9702C158.063 71.0516 158.25 71.1736 158.407 71.3289C158.565 71.4843 158.689 71.6698 158.773 71.8743C158.857 72.0788 158.898 72.2981 158.895 72.5191C158.892 72.7401 158.845 72.9582 158.756 73.1604L157.88 75.055C157.703 75.4225 157.405 75.7178 157.036 75.8913C156.667 76.0649 156.249 76.106 155.854 76.0078L153.439 75.4055C153.439 75.4055 148.905 75.0441 148.741 72.6676L149.962 69.99Z" fill="#FFB573"/>
    <path d="M138.304 41.2744C137.258 42.9171 136.3 44.4174 135.358 46.0273C134.416 47.6371 133.491 49.2305 132.62 50.8951C131.75 52.5597 130.923 54.2791 130.173 56.1189C129.783 57.0824 129.45 58.0679 129.176 59.0703C128.823 60.292 128.661 61.5608 128.694 62.832V63.0456C128.692 63.0821 128.692 63.1186 128.694 63.1551C128.694 63.3522 128.749 63.5494 128.787 63.7465C128.826 63.9436 128.875 64.0969 128.93 64.294C128.984 64.4912 129.045 64.5952 129.105 64.7485C129.314 65.2223 129.583 65.6676 129.904 66.0736C130.352 66.6326 130.861 67.1396 131.421 67.5849C132.282 68.2633 133.198 68.8695 134.159 69.3973C135.849 70.3216 137.59 71.1515 139.372 71.8833C141.097 72.617 142.816 73.2851 144.546 73.9148C146.277 74.5445 147.979 75.1523 149.781 75.7546L151.867 68.8553C150.224 68.4063 148.549 67.8532 146.912 67.2947C145.275 66.7362 143.626 66.112 142.071 65.4604C140.545 64.8299 139.057 64.1114 137.614 63.3084C137.005 62.9709 136.425 62.5845 135.878 62.1531C135.735 62.0442 135.606 61.9172 135.495 61.7752C135.542 61.8283 135.579 61.8896 135.605 61.9559C135.605 62.0052 135.632 62.0381 135.659 62.0983C135.681 62.1626 135.697 62.2285 135.709 62.2954C135.732 62.3796 135.746 62.4658 135.752 62.5528C135.752 62.5856 135.752 62.5911 135.752 62.5802V62.5418C135.791 62.0223 135.892 61.5093 136.054 61.0141C136.272 60.2972 136.532 59.5934 136.831 58.906C137.5 57.3904 138.257 55.9149 139.098 54.4872C139.952 53.0197 140.861 51.5522 141.836 50.1066C142.81 48.6611 143.807 47.221 144.809 45.9068L138.304 41.2744Z" fill="#069494"/>
    <g opacity="0.7">
    <path d="M138.304 41.2729C137.258 42.9156 136.3 44.416 135.358 46.0258C134.416 47.6356 133.491 49.2291 132.62 50.8937C131.75 52.5583 130.923 54.2776 130.173 56.1174C129.783 57.0809 129.45 58.0664 129.176 59.0688C128.823 60.2905 128.661 61.5593 128.694 62.8306V63.0441C128.692 63.0806 128.692 63.1172 128.694 63.1536C128.694 63.3508 128.749 63.5479 128.787 63.745C128.826 63.9421 128.875 64.0955 128.93 64.2926C128.984 64.4897 129.045 64.5937 129.105 64.7471C129.314 65.2208 129.583 65.6661 129.904 66.0722C130.352 66.6312 130.861 67.1381 131.421 67.5834C132.282 68.2618 133.198 68.868 134.159 69.3959C135.849 70.3202 137.59 71.1501 139.372 71.8818C141.097 72.6156 142.816 73.2836 144.546 73.9133C146.277 74.543 147.979 75.1508 149.781 75.7531L151.867 68.8538C150.224 68.4048 148.549 67.8517 146.912 67.2932C145.275 66.7347 143.626 66.1105 142.071 65.4589C140.545 64.8284 139.057 64.1099 137.614 63.307C137.005 62.9694 136.425 62.5831 135.878 62.1516C135.735 62.0427 135.606 61.9157 135.495 61.7738C135.542 61.8269 135.579 61.8881 135.605 61.9545C135.605 62.0038 135.632 62.0366 135.659 62.0968C135.681 62.1612 135.697 62.2271 135.709 62.294C135.732 62.3781 135.746 62.4643 135.752 62.5513C135.752 62.5842 135.752 62.5896 135.752 62.5787V62.5404C135.791 62.0208 135.892 61.5078 136.054 61.0127C136.272 60.2958 136.532 59.5919 136.831 58.9045C137.5 57.3889 138.257 55.9135 139.098 54.4857C139.952 53.0182 140.861 51.5507 141.836 50.1052C142.81 48.6596 143.807 47.2195 144.809 45.9053L138.304 41.2729Z" fill="white"/>
    </g>
    <path d="M143.846 60.2741C143.883 60.2737 143.918 60.2639 143.95 60.2456C143.982 60.2274 144.008 60.2014 144.027 60.1701C144.043 60.1462 144.054 60.1193 144.059 60.091C144.065 60.0627 144.064 60.0336 144.058 60.0055C144.052 59.9773 144.04 59.9507 144.024 59.9273C144.007 59.9038 143.986 59.8839 143.961 59.8689L143.107 59.3213C142.31 58.8185 141.684 58.0854 141.312 57.2191C140.941 56.3528 140.841 55.3941 141.026 54.4699L142.745 45.7636C142.871 45.1127 143.213 44.5232 143.715 44.0905C144.218 43.6579 144.852 43.4073 145.514 43.3795C146.176 43.3516 146.829 43.548 147.366 43.937C147.903 44.3259 148.293 44.8846 148.473 45.5227L150.91 54.0592C151.176 54.9616 151.161 55.9236 150.868 56.8175C150.574 57.7113 150.016 58.4948 149.267 59.064L148.457 59.6773C148.411 59.7129 148.381 59.7652 148.374 59.8227C148.367 59.8801 148.383 59.9381 148.418 59.9839C148.435 60.0063 148.457 60.0251 148.481 60.0392C148.506 60.0532 148.533 60.0623 148.561 60.0659C148.589 60.0695 148.617 60.0674 148.644 60.0599C148.672 60.0524 148.697 60.0396 148.719 60.0222L149.486 59.4144C150.309 58.7944 150.925 57.9386 151.25 56.9606C151.576 55.9826 151.597 54.9287 151.309 53.9388L148.867 45.4022C148.658 44.6733 148.209 44.0359 147.594 43.5924C146.979 43.1489 146.232 42.925 145.474 42.9565C144.716 42.9881 143.991 43.2734 143.415 43.7665C142.839 44.2597 142.445 44.9322 142.296 45.676L140.577 54.3878C140.374 55.3975 140.483 56.445 140.889 57.3916C141.294 58.3382 141.978 59.1391 142.849 59.6882L143.709 60.2358C143.728 60.2511 143.75 60.2624 143.774 60.269C143.797 60.2756 143.822 60.2773 143.846 60.2741Z" fill="#263238"/>
    <path d="M142.531 45.943L148.68 45.6856C148.709 45.6842 148.737 45.6771 148.763 45.6648C148.789 45.6525 148.813 45.6352 148.832 45.6138C148.851 45.5924 148.866 45.5675 148.876 45.5403C148.886 45.5132 148.89 45.4844 148.888 45.4556C148.883 45.3985 148.856 45.3455 148.814 45.307C148.771 45.2685 148.716 45.2473 148.658 45.2476L142.515 45.5049C142.486 45.5063 142.458 45.5134 142.432 45.5257C142.406 45.538 142.382 45.5554 142.363 45.5767C142.344 45.5981 142.329 45.6231 142.319 45.6502C142.309 45.6773 142.305 45.7061 142.307 45.7349C142.307 45.7634 142.314 45.7915 142.325 45.8175C142.337 45.8435 142.354 45.8669 142.375 45.8863C142.396 45.9057 142.421 45.9207 142.447 45.9305C142.474 45.9402 142.503 45.9444 142.531 45.943Z" fill="#263238"/>
    <path d="M145.521 43.3958C145.578 43.3945 145.632 43.3717 145.673 43.3321C145.713 43.2925 145.737 43.2389 145.74 43.1822C145.74 42.0871 146.08 40.1871 147.104 39.7709C147.132 39.7614 147.158 39.7462 147.18 39.7262C147.203 39.7062 147.22 39.6819 147.233 39.6547C147.245 39.6276 147.252 39.5982 147.253 39.5683C147.254 39.5384 147.248 39.5087 147.237 39.481C147.226 39.4533 147.209 39.4282 147.188 39.4072C147.166 39.3862 147.141 39.3698 147.113 39.359C147.085 39.3482 147.055 39.3433 147.025 39.3444C146.996 39.3455 146.966 39.3528 146.939 39.3657C145.423 39.9899 145.297 42.8482 145.297 43.1987C145.297 43.2564 145.319 43.3119 145.358 43.3537C145.398 43.3955 145.453 43.4203 145.51 43.4232L145.521 43.3958Z" fill="#263238"/>
    <path d="M164.329 50.8365H164.373C164.429 50.8247 164.479 50.791 164.511 50.7428C164.542 50.6946 164.554 50.6358 164.543 50.5792C163.82 46.9817 160.83 41.3034 158.196 39.6279C158.172 39.613 158.146 39.6029 158.118 39.5984C158.09 39.5939 158.061 39.595 158.034 39.6016C158.006 39.6083 157.98 39.6203 157.957 39.637C157.935 39.6537 157.915 39.6748 157.901 39.6991C157.885 39.7225 157.874 39.749 157.868 39.7769C157.863 39.8048 157.864 39.8334 157.87 39.8611C157.876 39.8888 157.888 39.9149 157.904 39.9379C157.921 39.9609 157.942 39.9802 157.966 39.9948C160.513 41.6046 163.415 47.1131 164.116 50.6558C164.124 50.7061 164.151 50.7517 164.19 50.7847C164.229 50.8177 164.278 50.8361 164.329 50.8365Z" fill="#263238"/>
    <path d="M162.533 51.3975C162.873 52.2681 163.628 52.7938 164.176 52.5693C164.723 52.3448 164.937 51.4742 164.597 50.5816C164.258 49.6891 163.502 49.1854 162.955 49.4153C162.407 49.6453 162.188 50.5269 162.533 51.3975Z" fill="white"/>
    <path d="M148.078 59.8804C148.078 60.2856 148.329 60.6086 148.598 60.5977C148.866 60.5867 149.074 60.2472 149.058 59.8366C149.041 59.4259 148.806 59.1028 148.537 59.1193C148.269 59.1357 148.061 59.4697 148.078 59.8804Z" fill="white"/>
    <path d="M143.358 60.0778C143.358 60.483 143.605 60.8061 143.879 60.7951C144.152 60.7842 144.349 60.4447 144.333 60.034C144.317 59.6233 144.087 59.3057 143.785 59.3167C143.484 59.3276 143.342 59.6835 143.358 60.0778Z" fill="white"/>
    <path d="M50.5019 52.4844L51.0495 52.4515C50.9584 51.2858 51.1106 50.1138 51.4964 49.0099C51.8823 47.9061 52.4933 46.8945 53.2908 46.0393C54.0883 45.1841 55.0549 44.5041 56.1292 44.0422C57.2034 43.5804 58.362 43.3469 59.5312 43.3565V42.8089C58.287 42.7983 57.0541 43.0465 55.9108 43.5376C54.7674 44.0287 53.7387 44.7521 52.8897 45.6618C52.0407 46.5715 51.3901 47.6478 50.979 48.8222C50.568 49.9967 50.4055 51.2438 50.5019 52.4844Z" fill="#069494"/>
    <path d="M50.2129 54.7821L50.5303 59.3159L49.9827 59.3542L49.6653 54.8204L50.2129 54.7821Z" fill="#069494"/>
    <path d="M59.5308 44.7235H97.3128C99.3761 44.7574 101.353 45.5576 102.859 46.9685C104.365 48.3793 105.292 50.2999 105.461 52.3566L105.806 57.4435C105.884 58.4223 105.758 59.4066 105.434 60.3339C105.111 61.2612 104.599 62.1109 103.929 62.829C103.259 63.5472 102.447 64.1179 101.545 64.5048C100.642 64.8918 99.6691 65.0865 98.6872 65.0765H60.9052L53.5788 69.5939L52.418 52.3566C52.3388 51.3781 52.4644 50.3938 52.7869 49.4665C53.1094 48.5393 53.6216 47.6894 54.2909 46.9712C54.9601 46.253 55.7718 45.6822 56.674 45.2952C57.5762 44.9082 58.5492 44.7135 59.5308 44.7235Z" fill="#069494"/>
    <path d="M61.4475 52.0112H96.4424V53.2816H61.4475V52.0112Z" fill="white"/>
    <path d="M61.7539 56.519H87.7358V57.7894H61.7539V56.519Z" fill="white"/>
    <path d="M116.368 71.9413H77.7537C76.7498 71.9305 75.7546 72.129 74.8317 72.5244C73.9088 72.9197 73.0785 73.5031 72.3937 74.2373C71.709 74.9715 71.1848 75.8405 70.8547 76.7886C70.5246 77.7368 70.3958 78.7434 70.4766 79.7441L70.827 84.946C71.0005 87.0478 71.9488 89.0101 73.4879 90.452C75.0269 91.8939 77.0468 92.7125 79.1555 92.7488H117.775L125.89 97.3757L124.696 79.7441C124.524 77.6419 123.576 75.6788 122.037 74.2367C120.498 72.7946 118.477 71.9764 116.368 71.9413Z" fill="white"/>
    <path opacity="0.15" d="M116.368 71.9413H77.7537C76.7498 71.9305 75.7546 72.129 74.8317 72.5244C73.9088 72.9197 73.0785 73.5031 72.3937 74.2373C71.709 74.9715 71.1848 75.8405 70.8547 76.7886C70.5246 77.7368 70.3958 78.7434 70.4766 79.7441L70.827 84.946C71.0005 87.0478 71.9488 89.0101 73.4879 90.452C75.0269 91.8939 77.0468 92.7125 79.1555 92.7488H117.775L125.89 97.3757L124.696 79.7441C124.524 77.6419 123.576 75.6788 122.037 74.2367C120.498 72.7946 118.477 71.9764 116.368 71.9413Z" fill="#069494"/>
    <path opacity="0.5" d="M79.7141 79.3896H115.503V80.6928H79.7141V79.3896Z" fill="#069494"/>
    <path opacity="0.5" d="M101.671 83.999H115.814V85.3022H101.671V83.999Z" fill="#069494"/>
    <path opacity="0.5" d="M89.1707 83.999H98.2056V85.3022H89.1707V83.999Z" fill="#069494"/>
    </svg>