<svg width="271px" height="203px" viewBox="0 0 271 203" fill="none" xmlns="http://www.w3.org/2000/svg" transform="rotate(0) scale(1, 1)">
<path d="M135.501 202.092C193.325 202.092 240.201 199.355 240.201 195.979C240.201 192.603 193.325 189.866 135.501 189.866C77.676 189.866 30.7999 192.603 30.7999 195.979C30.7999 199.355 77.676 202.092 135.501 202.092Z" fill="#f5f5f5"/>
<path d="M219.352 143.105H51.644V162.092H219.352V143.105Z" fill="#069494"/>
<path opacity="0.3" d="M219.357 143.105H183.382V162.092H219.357V143.105Z" fill="#000000"/>
<path d="M70.1606 162.09H51.644V195.975H70.1606V162.09Z" fill="#069494"/>
<path opacity="0.3" d="M51.6492 162.09V163.985L64.7604 167.943V195.975H70.1604V162.09H51.6492Z" fill="#000000"/>
<path d="M219.357 162.09H200.841V195.975H219.357V162.09Z" fill="#069494"/>
<path opacity="0.2" d="M219.357 162.09H200.841V195.975H219.357V162.09Z" fill="#000000"/>
<path opacity="0.3" d="M200.841 162.09V163.985L213.957 167.943V195.975H219.357V162.09H200.841Z" fill="#000000"/>
<path d="M183.383 162.09H164.866V195.975H183.383V162.09Z" fill="#069494"/>
<path opacity="0.3" d="M164.866 162.09V163.985L177.983 167.943V195.975H183.383V162.09H164.866Z" fill="#000000"/>
<path d="M106.135 162.09H87.6187V195.975H106.135V162.09Z" fill="#069494"/>
<path opacity="0.2" d="M106.135 162.09H87.6187V195.975H106.135V162.09Z" fill="#000000"/>
<path opacity="0.3" d="M87.6187 162.09V163.985L100.735 167.943V195.975H106.135V162.09H87.6187Z" fill="#000000"/>
<path d="M196.239 139.376H93.7035C93.384 139.378 93.0674 139.314 92.7738 139.188C92.4802 139.062 92.216 138.876 91.9978 138.643C91.7796 138.41 91.6122 138.133 91.5061 137.832C91.4 137.531 91.3576 137.21 91.3815 136.892L95.6043 69.8832C95.6578 69.2154 95.9576 68.5912 96.4457 68.1321C96.9337 67.6731 97.575 67.4118 98.2449 67.3992H200.775C201.094 67.3968 201.411 67.4607 201.704 67.5869C201.998 67.713 202.262 67.8987 202.48 68.1321C202.699 68.3655 202.866 68.6416 202.972 68.9431C203.078 69.2445 203.121 69.5646 203.097 69.8832L198.874 136.892C198.82 137.559 198.521 138.182 198.034 138.641C197.548 139.1 196.908 139.362 196.239 139.376Z" fill="#263238"/>
<path opacity="0.6" d="M196.239 139.376H93.7035C93.384 139.378 93.0674 139.314 92.7738 139.188C92.4802 139.062 92.216 138.876 91.9978 138.643C91.7796 138.41 91.6122 138.133 91.5061 137.832C91.4 137.531 91.3576 137.21 91.3815 136.892L95.6043 69.8832C95.6578 69.2154 95.9576 68.5912 96.4457 68.1321C96.9337 67.6731 97.575 67.4118 98.2449 67.3992H200.775C201.094 67.3968 201.411 67.4607 201.704 67.5869C201.998 67.713 202.262 67.8987 202.48 68.1321C202.699 68.3655 202.866 68.6416 202.972 68.9431C203.078 69.2445 203.121 69.5646 203.097 69.8832L198.874 136.892C198.82 137.559 198.521 138.182 198.034 138.641C197.548 139.1 196.908 139.362 196.239 139.376Z" fill="#000000"/>
<path d="M195.471 139.376H92.9415C92.6216 139.379 92.3044 139.316 92.0102 139.19C91.716 139.064 91.4511 138.879 91.2323 138.645C91.0135 138.412 90.8456 138.135 90.7392 137.833C90.6328 137.532 90.5902 137.211 90.6141 136.892L94.8369 69.8833C94.8904 69.2154 95.1903 68.5913 95.6783 68.1322C96.1664 67.6731 96.8076 67.4119 97.4775 67.3993H200.007C200.327 67.3961 200.644 67.4594 200.938 67.5853C201.232 67.7111 201.497 67.8968 201.715 68.1304C201.933 68.364 202.101 68.6404 202.206 68.9422C202.312 69.244 202.354 69.5645 202.329 69.8833L198.107 136.892C198.053 137.559 197.754 138.182 197.267 138.641C196.78 139.1 196.14 139.362 195.471 139.376Z" fill="#263238"/>
<path d="M195.342 140.225H73.3399C72.7782 140.22 72.2266 140.374 71.7488 140.67C71.271 140.965 70.8865 141.389 70.6399 141.894C70.5774 142.025 70.5493 142.17 70.5584 142.315C70.5675 142.46 70.6135 142.6 70.6919 142.722C70.7703 142.844 70.8785 142.944 71.0065 143.013C71.1344 143.082 71.2777 143.117 71.4229 143.114H197.232C197.377 143.117 197.521 143.082 197.648 143.013C197.776 142.944 197.885 142.844 197.963 142.722C198.041 142.6 198.087 142.46 198.096 142.315C198.106 142.17 198.078 142.025 198.015 141.894C197.771 141.393 197.391 140.97 196.919 140.675C196.446 140.38 195.899 140.224 195.342 140.225Z" fill="#263238"/>
<path opacity="0.6" d="M195.342 140.225H177.992C177.434 140.223 176.888 140.379 176.415 140.674C175.942 140.97 175.562 141.392 175.319 141.894C175.257 142.025 175.229 142.169 175.237 142.313C175.246 142.458 175.292 142.598 175.369 142.72C175.447 142.842 175.555 142.942 175.682 143.011C175.809 143.08 175.952 143.116 176.097 143.114H197.232C197.377 143.117 197.521 143.082 197.649 143.013C197.776 142.944 197.885 142.844 197.963 142.722C198.042 142.6 198.087 142.46 198.097 142.315C198.106 142.17 198.078 142.025 198.015 141.894C197.771 141.393 197.391 140.97 196.919 140.675C196.446 140.38 195.899 140.224 195.342 140.225Z" fill="#000000"/>
<path d="M184.585 142.332H180.103C179.999 142.331 179.901 142.289 179.828 142.215C179.755 142.141 179.714 142.042 179.714 141.938C179.714 141.834 179.755 141.735 179.828 141.661C179.901 141.587 179.999 141.545 180.103 141.544H184.585C184.637 141.544 184.688 141.554 184.736 141.574C184.784 141.594 184.827 141.623 184.864 141.659C184.9 141.696 184.929 141.739 184.949 141.787C184.969 141.835 184.979 141.886 184.979 141.938C184.979 141.99 184.969 142.041 184.949 142.089C184.929 142.137 184.9 142.18 184.864 142.217C184.827 142.253 184.784 142.282 184.736 142.302C184.688 142.322 184.637 142.332 184.585 142.332Z" fill="#069494"/>
<path opacity="0.7" d="M126.951 142.332H122.474C122.37 142.332 122.27 142.291 122.196 142.217C122.122 142.143 122.08 142.042 122.08 141.938C122.08 141.886 122.09 141.835 122.11 141.787C122.13 141.739 122.159 141.696 122.196 141.659C122.232 141.623 122.276 141.594 122.324 141.574C122.371 141.554 122.423 141.544 122.474 141.544H126.951C127.003 141.544 127.054 141.554 127.102 141.574C127.15 141.594 127.193 141.623 127.23 141.659C127.266 141.696 127.295 141.739 127.315 141.787C127.335 141.835 127.345 141.886 127.345 141.938C127.345 142.042 127.304 142.143 127.23 142.217C127.156 142.291 127.056 142.332 126.951 142.332Z" fill="#ffffff"/>
<path d="M189.224 141.544H186.292C186.113 141.544 185.968 141.689 185.968 141.868V142.008C185.968 142.187 186.113 142.332 186.292 142.332H189.224C189.403 142.332 189.548 142.187 189.548 142.008V141.868C189.548 141.689 189.403 141.544 189.224 141.544Z" fill="#069494"/>
<path d="M92.9254 134.47L96.8458 72.2997C96.866 72.0403 96.9824 71.7979 97.1723 71.62C97.3621 71.4422 97.6116 71.3417 97.8718 71.3385H199.116C199.24 71.3366 199.364 71.3606 199.478 71.4091C199.592 71.4575 199.695 71.5293 199.78 71.6197C199.865 71.7102 199.93 71.8175 199.971 71.9345C200.012 72.0516 200.028 72.176 200.018 72.2997L196.103 134.47C196.082 134.73 195.964 134.972 195.773 135.15C195.583 135.328 195.332 135.428 195.072 135.431H93.8326C93.7085 135.432 93.5856 135.408 93.4715 135.359C93.3574 135.31 93.2545 135.239 93.1694 135.148C93.0842 135.058 93.0186 134.951 92.9766 134.835C92.9346 134.718 92.9172 134.594 92.9254 134.47Z" fill="#ffffff"/>
<path opacity="0.1" d="M150.522 69.4241L116.799 133.522H91.9211C91.7963 133.524 91.6725 133.5 91.5576 133.451C91.4427 133.402 91.3393 133.33 91.2539 133.239C91.1685 133.148 91.103 133.04 91.0617 132.923C91.0204 132.805 91.0041 132.68 91.0139 132.555L94.9343 70.3907C94.9544 70.1308 95.0707 69.8877 95.2604 69.709C95.4501 69.5303 95.6997 69.4287 95.9603 69.4241H150.522Z" fill="#069494"/>
<path opacity="0.1" d="M180.055 69.4241L146.332 133.522H138.469L172.192 69.4241H180.055Z" fill="#069494"/>
<path opacity="0.1" d="M198.107 70.391L194.186 132.556C194.167 132.816 194.052 133.06 193.862 133.239C193.672 133.418 193.421 133.519 193.16 133.522H154.82L188.543 69.4244H197.183C197.309 69.421 197.434 69.4441 197.551 69.4921C197.667 69.5401 197.772 69.6119 197.859 69.7029C197.946 69.794 198.013 69.9023 198.056 70.0208C198.099 70.1393 198.116 70.2654 198.107 70.391Z" fill="#069494"/>
<path opacity="0.4" d="M149.339 69.4886C149.324 69.6844 149.237 69.8677 149.094 70.0026C148.951 70.1374 148.763 70.2141 148.567 70.2176C148.473 70.2186 148.38 70.2001 148.294 70.1632C148.208 70.1263 148.13 70.0718 148.066 70.0032C148.002 69.9346 147.953 69.8534 147.922 69.7648C147.891 69.6762 147.879 69.5821 147.887 69.4886C147.9 69.2923 147.987 69.1082 148.13 68.9732C148.273 68.8381 148.462 68.7618 148.659 68.7596C148.753 68.7585 148.846 68.777 148.932 68.814C149.018 68.8509 149.096 68.9054 149.16 68.974C149.224 69.0426 149.273 69.1237 149.304 69.2124C149.335 69.301 149.347 69.395 149.339 69.4886Z" fill="#ffffff"/>
<path d="M132.61 54.5787C129.656 57.9591 127.95 68.3217 130.137 73.4193C132.324 78.5169 106.949 83.6199 127.885 91.9035C148.821 100.187 165.566 90.5805 159.508 81.9999C153.449 73.4193 160.161 59.1309 153.146 55.5399C146.807 52.2675 138.529 47.8017 132.61 54.5787Z" fill="#263238"/>
<path d="M126.352 96.3057C125.245 100.086 124.067 103.866 122.847 107.646C121.627 111.426 120.358 115.162 119.013 118.915L118.5 120.33L118.241 121.038L118.16 121.248L118.03 121.567C117.949 121.772 117.825 121.993 117.717 122.204C117.189 123.168 116.401 123.965 115.444 124.504C114.574 124.977 113.603 125.232 112.614 125.25C111.226 125.256 109.851 124.987 108.569 124.456C107.52 124.03 106.504 123.526 105.529 122.949C101.989 120.772 98.7434 118.148 95.8739 115.141L98.2013 112.398C98.9843 112.9 99.8213 113.434 100.631 113.937C101.441 114.439 102.289 114.925 103.11 115.405C104.718 116.347 106.379 117.196 108.083 117.949C108.86 118.291 109.662 118.575 110.481 118.797C111.048 118.985 111.647 119.054 112.241 119.002C112.392 119.002 112.365 118.915 112.241 118.964C112.117 119.013 111.982 119.153 111.977 119.137C111.971 119.121 111.977 119.137 111.977 119.104C111.979 119.094 111.979 119.083 111.977 119.072L112.02 118.937L112.225 118.24L112.641 116.836L115.94 105.496C117.064 101.716 118.219 97.9365 119.407 94.1565L126.352 96.3057Z" fill="#b65b52"/>
<path d="M98.0341 112.309L91.7593 109.987L94.2487 116.619C94.2487 116.619 98.6767 117.256 100.394 114.928L98.9953 113.055C98.7529 112.719 98.4192 112.461 98.0341 112.309Z" fill="#b55b52"/>
<path d="M86.2241 111.915L88.6109 117.353L94.2755 116.608L91.7807 109.977L86.2241 111.915Z" fill="#b55b52"/>
<path d="M121.772 86.5261C118.899 87.2551 116.912 99.0649 116.912 99.0649L124.823 104.465C124.823 104.465 132.383 92.5525 130.196 89.3989C127.874 86.0887 125.957 85.4623 121.772 86.5261Z" fill="#069494"/>
<path opacity="0.5" d="M121.772 86.5261C118.899 87.2551 116.912 99.0649 116.912 99.0649L124.823 104.465C124.823 104.465 132.383 92.5525 130.196 89.3989C127.874 86.0887 125.957 85.4623 121.772 86.5261Z" fill="#ffffff"/>
<path opacity="0.2" d="M121.513 90.8184L127.653 92.2386L128.242 98.2488C127.201 100.371 126.053 102.438 124.802 104.443L120.001 101.203C120.212 98.4216 120.73 92.7084 121.513 90.8184Z" fill="#000000"/>
<path d="M121.773 86.5223C121.773 86.5223 118.452 87.6887 125.099 128.545H153.373C152.898 117.038 152.887 109.937 158.385 86.3225C154.427 85.5041 150.415 84.9753 146.38 84.7403C141.623 84.5081 137.74 84.3569 133.539 84.7403C128.026 85.2425 121.773 86.5223 121.773 86.5223Z" fill="#069494"/>
<path opacity="0.5" d="M121.773 86.5223C121.773 86.5223 118.452 87.6887 125.099 128.545H153.373C152.898 117.038 152.887 109.937 158.385 86.3225C154.427 85.5041 150.415 84.9753 146.38 84.7403C141.623 84.5081 137.74 84.3569 133.539 84.7403C128.026 85.2425 121.773 86.5223 121.773 86.5223Z" fill="#ffffff"/>
<path opacity="0.2" d="M151.732 97.2888L155.382 100.399C154.605 104.53 154.081 107.959 153.762 111.032C153.066 107.965 151.327 99.6378 151.732 97.2888Z" fill="#000000"/>
<path d="M145.106 70.2837C144.296 74.4147 143.486 81.9855 146.38 84.7449C146.38 84.7449 143.68 90.9333 136.525 90.9333C129.37 90.9333 133.539 84.7449 133.539 84.7449C138.145 83.6649 138.027 80.2251 137.227 77.0175L145.106 70.2837Z" fill="#b55b52"/>
<path d="M145.462 83.1981C144.782 84.5751 142.589 87.7233 136.466 88.8465C136.296 88.8778 136.12 88.8431 135.974 88.7493C134.83 87.9501 134.117 86.2599 134.619 84.2997C134.652 84.1793 134.651 84.052 134.616 83.9321C134.581 83.8122 134.512 83.7047 134.419 83.6215C134.326 83.5384 134.211 83.483 134.088 83.4616C133.965 83.4402 133.838 83.4537 133.723 83.5005C133.252 83.6974 132.8 83.9359 132.373 84.2133C132.279 84.2757 132.202 84.3612 132.151 84.4617C131.703 85.3041 129.889 89.4297 135.364 91.9731C135.451 92.0105 135.545 92.0324 135.64 92.0379C138.88 92.1027 144.544 91.4655 148.124 85.0179C148.188 84.9015 148.217 84.7689 148.206 84.6365C148.196 84.504 148.146 84.3776 148.065 84.2727C147.584 83.746 147.025 83.2962 146.407 82.9389C146.329 82.889 146.242 82.856 146.151 82.842C146.059 82.8281 145.966 82.8335 145.877 82.8579C145.788 82.8824 145.705 82.9253 145.633 82.9839C145.562 83.0425 145.504 83.1155 145.462 83.1981Z" fill="#fafafa"/>
<path d="M146.963 100.195L139.673 99.9842C139.597 99.9846 139.522 99.969 139.452 99.9382C139.382 99.9074 139.32 99.8622 139.269 99.8056C139.218 99.749 139.179 99.6822 139.156 99.6097C139.133 99.5372 139.125 99.4605 139.133 99.3848L139.203 98.483C139.224 98.3313 139.3 98.1926 139.417 98.0931C139.533 97.9936 139.682 97.9402 139.835 97.943L147.125 98.1536C147.202 98.153 147.278 98.1688 147.348 98.1999C147.418 98.231 147.481 98.2767 147.532 98.3339C147.583 98.3911 147.621 98.4586 147.644 98.5318C147.667 98.605 147.674 98.6822 147.665 98.7584L147.595 99.6548C147.574 99.8065 147.498 99.9452 147.382 100.045C147.265 100.144 147.116 100.198 146.963 100.195Z" fill="#fafafa"/>
<path opacity="0.2" d="M141.893 73.031L137.228 77.0108C137.428 77.7571 137.561 78.5197 137.627 79.2896C139.382 79.0358 141.801 77.1026 141.99 75.2612C142.094 74.5181 142.061 73.7623 141.893 73.031Z" fill="#000000"/>
<path d="M150.549 62.4672C149.248 69.255 148.843 72.1548 144.933 75.2166C139.052 79.8282 131.001 76.7394 130.256 69.7032C129.581 63.369 131.822 53.3358 138.896 51.4782C140.446 51.0662 142.076 51.0568 143.63 51.4508C145.185 51.8448 146.614 52.6291 147.781 53.7295C148.948 54.83 149.814 56.21 150.299 57.7391C150.783 59.2681 150.869 60.8955 150.549 62.4672Z" fill="#b55b52"/>
<path d="M146.688 57.4454C145.845 61.6952 145.646 67.3274 149.539 67.3274C153.432 67.3274 156.483 60.7016 153.125 55.5122C149.766 50.3228 147.179 54.9398 146.688 57.4454Z" fill="#263238"/>
<path d="M153.416 57.9691C153.416 62.5915 147.595 60.3073 145.019 58.3147C142.444 56.3221 142.319 56.5381 137.546 56.5327C132.772 56.5273 131.816 56.1979 130.407 53.9191C128.998 51.6403 129.127 50.1391 132.302 50.6197C135.478 51.1003 132.81 47.8603 135.175 46.0621C137.54 44.2639 140.343 44.7175 143.577 48.8215C146.812 52.9255 153.416 49.9609 153.416 57.9691Z" fill="#263238"/>
<path d="M151.707 68.5077C152.32 66.4185 151.719 64.4032 150.365 64.0063C149.011 63.6095 147.418 64.9813 146.805 67.0705C146.193 69.1597 146.793 71.175 148.147 71.5719C149.501 71.9687 151.095 70.5969 151.707 68.5077Z" fill="#ffffff"/>
<path d="M140.899 73.7298C139.646 73.7295 138.406 73.4742 137.254 72.9792C137.23 72.9691 137.207 72.9543 137.189 72.9355C137.17 72.9166 137.155 72.8943 137.145 72.8696C137.135 72.845 137.13 72.8185 137.13 72.7919C137.13 72.7653 137.136 72.739 137.146 72.7146C137.169 72.6653 137.21 72.6266 137.26 72.6065C137.31 72.5864 137.366 72.5864 137.416 72.6066C138.502 73.0722 139.669 73.3155 140.85 73.322C142.03 73.3285 143.201 73.0981 144.291 72.6444C145.351 72.2105 146.314 71.569 147.122 70.7575C147.931 69.9461 148.569 68.9811 148.999 67.9194C150.619 63.2808 152.272 57.492 150.36 53.8794C149.976 53.1762 149.444 52.5646 148.8 52.0865C148.157 51.6083 147.418 51.2749 146.634 51.1092C146.582 51.0952 146.538 51.0613 146.51 51.0149C146.483 50.9684 146.475 50.913 146.488 50.8608C146.502 50.8087 146.536 50.7643 146.583 50.737C146.629 50.7097 146.685 50.7018 146.737 50.715C147.575 50.8952 148.364 51.2538 149.05 51.7663C149.737 52.2788 150.305 52.9332 150.717 53.685C152.704 57.4164 151.046 63.3186 149.377 68.0436C148.925 69.1586 148.253 70.1717 147.403 71.0231C146.553 71.8745 145.54 72.5469 144.426 73.0008C143.309 73.4701 142.111 73.7177 140.899 73.7298Z" fill="#ffffff"/>
<path opacity="0.6" d="M151.51 68.5241C151.03 70.1441 149.928 71.2835 149.048 71.0297C148.168 70.7759 147.844 69.2315 148.324 67.5899C148.805 65.9483 149.907 64.8251 150.787 65.0843C151.667 65.3435 151.991 66.8825 151.51 68.5241Z" fill="#069494"/>
<path d="M137.815 72.0874L135.699 71.6792C135.327 71.6075 134.968 71.8508 134.896 72.2227L134.872 72.3446C134.801 72.7165 135.044 73.0762 135.416 73.148L137.531 73.5561C137.903 73.6279 138.263 73.3845 138.335 73.0126L138.358 72.8907C138.43 72.5188 138.187 72.1591 137.815 72.0874Z" fill="#ffffff"/>
<path d="M135.051 63.0327C135.051 63.0327 133.799 65.3061 132.611 66.3267C133.253 67.1097 134.549 66.9585 134.549 66.9585L135.051 63.0327Z" fill="#a02724"/>
<path d="M136.244 69.8673H136.293C137.517 69.964 138.733 69.5935 139.695 68.8305C139.715 68.8103 139.726 68.7832 139.726 68.7549C139.726 68.7267 139.715 68.6995 139.695 68.6793C139.685 68.6697 139.674 68.6621 139.661 68.6568C139.649 68.6516 139.635 68.6489 139.622 68.6489C139.608 68.6489 139.595 68.6516 139.582 68.6568C139.57 68.6621 139.559 68.6697 139.549 68.6793C138.63 69.4016 137.475 69.7541 136.309 69.6675C136.295 69.6652 136.281 69.6659 136.267 69.6693C136.254 69.6728 136.241 69.679 136.23 69.6876C136.219 69.6962 136.209 69.707 136.202 69.7194C136.196 69.7317 136.192 69.7453 136.19 69.7593C136.187 69.7807 136.191 69.8023 136.201 69.8216C136.21 69.8408 136.226 69.8568 136.244 69.8673Z" fill="#263238"/>
<path d="M142.422 60.3596C142.453 60.3767 142.487 60.3856 142.522 60.3856C142.557 60.3856 142.592 60.3767 142.622 60.3596C142.668 60.3287 142.701 60.2812 142.713 60.2268C142.725 60.1725 142.716 60.1156 142.687 60.068C142.429 59.6356 142.071 59.2709 141.644 59.0042C141.216 58.7375 140.732 58.5765 140.23 58.5344C140.174 58.5344 140.119 58.5564 140.079 58.5958C140.039 58.6351 140.015 58.6887 140.014 58.745C140.014 58.8 140.035 58.8527 140.074 58.8921C140.112 58.9314 140.164 58.9542 140.219 58.9556C140.652 58.9969 141.068 59.1397 141.435 59.3724C141.802 59.6051 142.109 59.9211 142.33 60.2948C142.355 60.3243 142.386 60.3467 142.422 60.3596Z" fill="#263238"/>
<path d="M139.328 63.1284C139.236 63.6684 138.864 64.0842 138.496 64.0248C138.129 63.9654 137.919 63.4848 138.01 62.9016C138.102 62.3184 138.48 61.9458 138.842 62.0052C139.204 62.0646 139.425 62.5722 139.328 63.1284Z" fill="#263238"/>
<path d="M133.031 62.0585C132.94 62.5985 132.567 63.0143 132.2 62.9549C131.833 62.8955 131.622 62.3879 131.714 61.8317C131.806 61.2755 132.184 60.8705 132.545 60.9353C132.907 61.0001 133.129 61.4969 133.031 62.0585Z" fill="#263238"/>
<path d="M132.702 60.9957L131.427 60.3801C131.427 60.3801 131.935 61.5411 132.702 60.9957Z" fill="#263238"/>
<path d="M138.998 62.0609L137.724 61.4507C137.724 61.4507 138.231 62.6117 138.998 62.0609Z" fill="#263238"/>
<path d="M130.893 58.2913C130.926 58.3108 130.963 58.3211 131.001 58.3211C131.039 58.3211 131.077 58.3108 131.109 58.2913C131.442 58.0112 131.838 57.8158 132.263 57.7218C132.688 57.6278 133.13 57.6379 133.55 57.7513C133.603 57.7699 133.661 57.7667 133.712 57.7424C133.762 57.7181 133.801 57.6747 133.82 57.6217C133.839 57.5687 133.835 57.5105 133.811 57.4599C133.787 57.4092 133.743 57.3703 133.69 57.3517C133.206 57.2137 132.695 57.1946 132.201 57.2962C131.708 57.3977 131.246 57.6168 130.855 57.9349C130.833 57.9508 130.814 57.9713 130.8 57.995C130.785 58.0186 130.776 58.045 130.773 58.0724C130.769 58.0998 130.771 58.1277 130.779 58.1542C130.787 58.1807 130.8 58.2053 130.818 58.2265C130.836 58.2553 130.862 58.2779 130.893 58.2913Z" fill="#263238"/>
<path d="M124.025 135.435C124.025 135.435 123.949 131.568 125.105 128.55H153.374C153.374 128.55 155.917 132.654 156.576 135.435H124.025Z" fill="#069494"/>
<path d="M153.8 126.892L154.021 129.419C154.124 129.619 153.891 129.818 153.562 129.818H124.942C124.688 129.818 124.478 129.694 124.461 129.532L124.202 127C124.202 126.827 124.407 126.676 124.688 126.676H153.308C153.402 126.666 153.496 126.68 153.583 126.718C153.669 126.756 153.744 126.816 153.8 126.892Z" fill="#069494"/>
<path opacity="0.3" d="M153.8 126.892L154.021 129.419C154.124 129.619 153.891 129.818 153.562 129.818H124.942C124.688 129.818 124.478 129.694 124.461 129.532L124.202 127C124.202 126.827 124.407 126.676 124.688 126.676H153.308C153.402 126.666 153.496 126.68 153.583 126.718C153.669 126.756 153.744 126.816 153.8 126.892Z" fill="#fafafa"/>
<path d="M149.95 130.085H150.716C150.873 130.085 150.986 130.01 150.976 129.912L150.619 126.624C150.619 126.527 150.473 126.451 150.322 126.451H149.539C149.383 126.451 149.269 126.527 149.28 126.624L149.636 129.912C149.663 130.01 149.798 130.085 149.95 130.085Z" fill="#069494"/>
<path d="M127.113 130.085H127.88C128.031 130.085 128.15 130.01 128.139 129.912L127.777 126.624C127.777 126.527 127.637 126.451 127.48 126.451H126.713C126.562 126.451 126.443 126.527 126.454 126.624L126.816 129.912C126.827 130.01 126.962 130.085 127.113 130.085Z" fill="#069494"/>
<path d="M138.534 130.085H139.279C139.431 130.085 139.549 130.01 139.539 129.912L139.177 126.624C139.177 126.527 139.031 126.451 138.88 126.451H138.113C137.962 126.451 137.843 126.527 137.854 126.624L138.216 129.912C138.248 130.01 138.378 130.085 138.534 130.085Z" fill="#069494"/>
<path d="M160.804 94.3252C162.046 98.3572 163.239 102.411 164.384 106.486L166.106 112.566L166.965 115.59L167.181 116.336L167.289 116.708L167.316 116.795L167.23 116.66C167.093 116.464 166.925 116.293 166.733 116.152C166.31 115.845 165.808 115.666 165.286 115.639C164.891 115.62 164.498 115.698 164.141 115.866C163.752 116.076 163.79 116.125 163.822 116.087C163.914 116.008 163.997 115.919 164.071 115.823C164.325 115.505 164.56 115.171 164.773 114.824C165.248 114.046 165.718 113.171 166.16 112.275C167.078 110.482 167.905 108.581 168.742 106.67C169.579 104.758 170.362 102.825 171.172 100.875C171.982 98.926 172.754 96.9658 173.553 95.0326L177.004 96.0586C176.107 100.271 175.06 104.407 173.764 108.527C173.126 110.595 172.419 112.642 171.604 114.716C171.182 115.752 170.734 116.789 170.178 117.864C169.882 118.445 169.55 119.008 169.184 119.549C168.957 119.888 168.705 120.209 168.428 120.51C167.99 121.007 167.458 121.413 166.862 121.703C166.268 121.992 165.611 122.13 164.951 122.103C164.168 122.059 163.416 121.783 162.791 121.309C162.393 121.009 162.048 120.644 161.77 120.229C161.595 119.963 161.441 119.683 161.311 119.392C161.263 119.273 161.209 119.149 161.171 119.041L161.068 118.776L160.928 118.393L160.647 117.632C160.28 116.622 159.907 115.612 159.567 114.602C158.876 112.583 158.185 110.568 157.537 108.543C156.212 104.497 154.977 100.431 153.832 96.3448L160.804 94.3252Z" fill="#b65b52"/>
<path d="M158.384 86.323C161.219 87.1816 165.556 98.3002 165.556 98.3002L154.567 106.157C154.567 106.157 149.626 96.6532 150.814 92.992C152.056 89.1796 155.155 85.3402 158.384 86.323Z" fill="#069494"/>
<path opacity="0.5" d="M158.384 86.323C161.219 87.1816 165.556 98.3002 165.556 98.3002L154.567 106.157C154.567 106.157 149.626 96.6532 150.814 92.992C152.056 89.1796 155.155 85.3402 158.384 86.323Z" fill="#ffffff"/>
<path d="M173.677 96.5111L172.171 89.8691L178.435 93.1739C178.435 93.1739 178.51 97.6451 175.983 99.0545L173.677 96.5111Z" fill="#b55b52"/>
<path d="M174.795 84.6011L178.791 87.4361L178.435 93.1763L172.171 89.8715L174.795 84.6011Z" fill="#b55b52"/>
<path d="M62.6001 51.179H106.34C107.175 51.1708 108.003 51.3359 108.771 51.664C109.539 51.992 110.231 52.4758 110.802 53.0849C111.374 53.6939 111.812 54.4149 112.091 55.2022C112.37 55.9895 112.482 56.8261 112.42 57.659L111.2 77.4554C111.066 79.1981 110.286 80.8281 109.014 82.0265C107.742 83.2249 106.068 83.9056 104.32 83.9354H99.2553L101.323 90.734L91.4307 83.9354H60.5967C59.7616 83.9436 58.9338 83.7785 58.1658 83.4505C57.3978 83.1224 56.7061 82.6386 56.1347 82.0295C55.5632 81.4205 55.1243 80.6995 54.8457 79.9122C54.5672 79.1249 54.455 78.2883 54.5163 77.4554L55.7259 57.659C55.86 55.9172 56.6387 54.288 57.9099 53.0897C59.1811 51.8914 60.8534 51.2101 62.6001 51.179Z" fill="#069494"/>
<path d="M102.333 61.5459H65.3435C65.1864 61.545 65.0313 61.5115 64.8878 61.4476C64.7444 61.3836 64.6158 61.2906 64.5102 61.1743C64.4046 61.0581 64.3243 60.9212 64.2744 60.7722C64.2245 60.6233 64.2061 60.4657 64.2203 60.3093C64.2445 59.9815 64.3903 59.6747 64.629 59.4489C64.8678 59.2231 65.1823 59.0947 65.5109 59.0889H102.506C102.663 59.0892 102.817 59.1217 102.96 59.1843C103.103 59.2469 103.232 59.3382 103.338 59.4527C103.445 59.5671 103.526 59.7022 103.578 59.8496C103.63 59.997 103.651 60.1534 103.64 60.3093C103.621 60.6431 103.475 60.957 103.232 61.1868C102.989 61.4166 102.668 61.545 102.333 61.5459Z" fill="#ffffff"/>
<path d="M80.4202 68.7753H64.9006C64.7435 68.7765 64.5878 68.7451 64.4433 68.6832C64.2989 68.6213 64.1688 68.5301 64.0613 68.4155C63.9538 68.3009 63.8712 68.1653 63.8186 68.0172C63.766 67.8691 63.7446 67.7117 63.7558 67.555C63.7801 67.2263 63.9266 66.9187 64.1665 66.6928C64.4065 66.4669 64.7223 66.3391 65.0518 66.3346H80.5876C80.7452 66.3327 80.9015 66.3635 81.0466 66.4251C81.1917 66.4867 81.3224 66.5777 81.4305 66.6924C81.5386 66.8071 81.6217 66.943 81.6746 67.0914C81.7275 67.2399 81.749 67.3977 81.7378 67.555C81.712 67.8868 81.562 68.1968 81.3178 68.423C81.0736 68.6492 80.7531 68.775 80.4202 68.7753Z" fill="#ffffff"/>
<path d="M93.7202 76.0105H64.4576C64.3005 76.0116 64.1448 75.9802 64.0004 75.9183C63.8559 75.8564 63.7258 75.7652 63.6183 75.6506C63.5108 75.536 63.4282 75.4004 63.3756 75.2523C63.323 75.1042 63.3016 74.9468 63.3128 74.7901C63.3359 74.461 63.4821 74.1527 63.7222 73.9265C63.9624 73.7003 64.2789 73.5729 64.6088 73.5697H93.8714C94.0288 73.5677 94.1849 73.5985 94.3297 73.6602C94.4745 73.7218 94.6049 73.8129 94.7126 73.9277C94.8203 74.0425 94.9029 74.1785 94.9552 74.3269C95.0074 74.4754 95.0282 74.6331 95.0162 74.7901C94.9919 75.1187 94.8454 75.4263 94.6055 75.6522C94.3656 75.8781 94.0497 76.006 93.7202 76.0105Z" fill="#ffffff"/>
<path d="M91.8192 68.7754H85.701C85.5439 68.7765 85.3882 68.7451 85.2438 68.6832C85.0993 68.6213 84.9693 68.5301 84.8617 68.4155C84.7542 68.3009 84.6716 68.1653 84.619 68.0172C84.5664 67.8691 84.5451 67.7117 84.5562 67.555C84.5817 67.2268 84.7286 66.9199 84.9683 66.6942C85.2079 66.4685 85.5231 66.3403 85.8522 66.3346H91.965C92.1224 66.3326 92.2785 66.3634 92.4233 66.4251C92.5681 66.4867 92.6985 66.5778 92.8062 66.6926C92.9139 66.8074 92.9965 66.9434 93.0488 67.0918C93.101 67.2403 93.1218 67.398 93.1098 67.555C93.0856 67.8827 92.9399 68.1895 92.7011 68.4153C92.4623 68.6411 92.1478 68.7695 91.8192 68.7754Z" fill="#ffffff"/>
<path d="M123.506 15.5937H99.66C98.3002 15.6141 96.9971 16.1424 96.0069 17.0746C95.0167 18.0069 94.4109 19.2758 94.3086 20.6319L93.3798 36.0435C93.3335 36.6915 93.422 37.342 93.6396 37.9541C93.8572 38.5662 94.1993 39.1266 94.6442 39.5999C95.0891 40.0732 95.6273 40.4493 96.2247 40.7043C96.8222 40.9593 97.466 41.0878 98.1156 41.0817H102.02L99.7626 46.3737L108.111 41.0817H121.946C123.306 41.0613 124.609 40.5331 125.599 39.6008C126.589 38.6685 127.195 37.3997 127.297 36.0435L128.242 20.6319C128.288 19.9839 128.2 19.3334 127.982 18.7213C127.765 18.1092 127.423 17.5489 126.978 17.0755C126.533 16.6022 125.995 16.2262 125.397 15.9711C124.8 15.7161 124.156 15.5876 123.506 15.5937Z" fill="#069494"/>
<g opacity="0.5">
<path d="M123.507 15.5927H99.6606C98.3007 15.6131 96.9976 16.1414 96.0074 17.0736C95.0172 18.0059 94.4114 19.2748 94.3092 20.6309L93.3804 36.0425C93.3341 36.6905 93.4225 37.341 93.6402 37.9531C93.8578 38.5652 94.1998 39.1256 94.6447 39.5989C95.0897 40.0722 95.6278 40.4483 96.2253 40.7033C96.8227 40.9584 97.4666 41.0869 98.1162 41.0807H102.02L99.7632 46.3727L108.112 41.0807H121.946C123.306 41.0603 124.609 40.5321 125.599 39.5998C126.59 38.6676 127.195 37.3987 127.298 36.0425L128.243 20.6309C128.289 19.983 128.201 19.3324 127.983 18.7204C127.765 18.1083 127.423 17.5479 126.978 17.0746C126.533 16.6012 125.995 16.2252 125.398 15.9702C124.8 15.7151 124.157 15.5866 123.507 15.5927Z" fill="#fafafa"/>
</g>
<path d="M112.01 30.8612C111.928 31.2006 111.734 31.5026 111.46 31.719C111.186 31.9353 110.847 32.0535 110.498 32.0546H109.088C109.088 31.655 109.121 31.412 109.126 31.3256C109.147 30.5472 109.346 29.7841 109.709 29.0954C110.22 28.3277 110.868 27.6612 111.621 27.1298C112.222 26.6945 112.789 26.2143 113.317 25.6934C113.597 25.3618 113.763 24.9493 113.792 24.5162C113.813 24.2292 113.768 23.9412 113.66 23.6744C113.553 23.4076 113.385 23.169 113.171 22.9772C112.647 22.5284 111.97 22.3 111.281 22.34C110.557 22.3202 109.849 22.5574 109.283 23.0096C108.946 23.2871 108.671 23.6308 108.473 24.0194C108.327 24.3032 108.101 24.5377 107.822 24.6933C107.543 24.8489 107.225 24.9188 106.907 24.8942C106.678 24.8658 106.46 24.7802 106.273 24.6452C106.086 24.5102 105.936 24.3302 105.837 24.1219C105.738 23.9136 105.693 23.6836 105.706 23.4533C105.719 23.223 105.791 22.9998 105.913 22.8044C106.239 22.2575 106.658 21.7715 107.15 21.368C108.32 20.4272 109.791 19.9419 111.292 20.0018C113.057 20.0018 114.429 20.4608 115.417 21.3842C115.88 21.7819 116.244 22.2815 116.481 22.8436C116.718 23.4058 116.822 24.0153 116.783 24.6242C116.734 25.3163 116.495 25.9814 116.092 26.5466C115.334 27.4805 114.457 28.3119 113.484 29.0198C112.98 29.3717 112.544 29.8127 112.199 30.3212C112.111 30.4915 112.047 30.6732 112.01 30.8612ZM108.926 34.7384V34.5656C108.955 34.1753 109.129 33.81 109.414 33.542C109.699 33.2739 110.074 33.1227 110.465 33.1184H110.66C110.847 33.1156 111.033 33.1518 111.205 33.2247C111.377 33.2975 111.533 33.4054 111.661 33.5415C111.79 33.6776 111.888 33.8389 111.951 34.0152C112.014 34.1915 112.04 34.3789 112.026 34.5656V34.7384C111.998 35.1291 111.824 35.4951 111.539 35.764C111.254 36.0329 110.879 36.1852 110.487 36.191H110.314C110.125 36.1968 109.936 36.1627 109.761 36.0909C109.586 36.0191 109.427 35.9112 109.296 35.7742C109.165 35.6372 109.065 35.4741 109.001 35.2957C108.937 35.1172 108.912 34.9273 108.926 34.7384Z" fill="#ffffff"/>
</svg>